<svg xmlns="http://www.w3.org/2000/svg" width="1264" height="361" viewBox="0 0 1264 361">
  <g fill="none" fill-rule="evenodd">
    <path fill="#2e75ae" d="M0 58.801 157 1l157 57.81-157 100.968zm148.56 113.55c2.613 1.716 5.526 2.575 8.44 2.576 2.91 0 5.82-.857 8.434-2.572l73.461-47.244 56.168 28.686L157 268.605 18.936 153.788l56.168-28.682zm-76.082 45.656 74.683 62.107a15 15 0 0 0 2.695 1.843l.012.006.284.147.108.055.193.094.178.084.134.062.235.104.072.03a15.1 15.1 0 0 0 5.247 1.19l.061.003.284.009.112.002h.43l.128-.002.298-.01.042-.001c1.79-.08 3.574-.475 5.262-1.195l.048-.02.267-.118.1-.046.195-.092.205-.1.088-.045.281-.146.03-.015a15 15 0 0 0 2.69-1.84l69.82-58.06 36.304 23.96L156.998 361 36.405 241.415z"/>
    <path fill="#2196f3" d="m156 .32.871-.32L314 57.914 156.975 159V.32zm1 174.354c2.877-.02 5.75-.874 8.334-2.564L238.817 125 295 153.604 157 268zm0 108.546h.104l.127-.002.298-.01.042-.001a15.1 15.1 0 0 0 5.258-1.194l.048-.02.266-.118.101-.046.194-.092.205-.099.088-.045.281-.146.03-.015a15 15 0 0 0 2.687-1.839l69.764-58.019 36.275 23.943L157 360.319z"/>
    <path fill="#606060" fill-rule="nonzero" d="M546.96 298.92q-13.76 0-21.6-8.48t-7.84-21.6V109.16q0-8.32-3.52-16.32t-11.52-13.12-21.76-5.12q-13.44 0-21.92 7.2t-12.32 18.88-4.16 24.8v5.12h37.12v13.12h-37.12V297h-16V143.72h-23.36V130.6h23.36v-6.4q0-18.56 5.76-32.8t17.76-22.72 30.88-8.48q25.92 0 39.36 13.12t13.44 33.28v157.44q0 10.24 4.48 15.2t11.84 4.96q6.72 0 12.96-1.44t8.16-2.08l3.52 13.76q-1.92.64-6.4 1.76T558 298.12t-11.04.8m50.24-72.32v-96h16v93.76q0 31.04 10.4 46.24t31.52 15.2q14.08 0 27.04-6.24t22.88-17.6 14.72-26.4V130.6h16v145.28q0 3.84 1.76 5.76t4.96 2.24V297q-3.2.32-4.96.32t-3.04-.32q-5.44-.64-8.96-4.64t-3.84-9.76l-.32-24.96q-10.88 19.84-29.92 31.2t-41.12 11.36q-26.24 0-39.68-18.56T597.2 226.6M786.64 297V130.6h16V297zm0-204.16V63.4h16v29.44zm54.72 121.28q0-23.36 9.92-42.88t27.2-31.52 39.36-12q21.76 0 38.56 11.52t26.4 27.52V63.4h16v212.48q0 3.84 1.76 5.76t4.96 2.24V297q-5.12.64-7.68.32-5.76-.96-9.6-5.44t-3.84-9.6v-18.56q-10.24 16.64-27.52 26.56t-35.52 9.92q-17.28 0-32-7.2t-25.44-19.36-16.64-27.52-5.92-32M982.8 241v-54.72q-4.48-12.16-14.4-22.24t-22.4-16-24.64-5.92q-14.4 0-26.08 6.08t-20.16 16.32-12.96 23.2a81.2 81.2 0 0 0-4.48 26.72q0 14.08 5.12 27.04t14.24 23.04 21.12 15.68 26.08 5.6q8.64 0 18.4-3.52t18.56-9.76 14.72-14.4T982.8 241m55.36-26.88q0-23.36 9.92-42.88t27.2-31.52 39.36-12q21.76 0 38.56 11.52t26.4 27.52V63.4h16v212.48q0 3.84 1.76 5.76t4.96 2.24V297q-5.12.64-7.68.32-5.76-.96-9.6-5.44t-3.84-9.6v-18.56q-10.24 16.64-27.52 26.56t-35.52 9.92q-17.28 0-32-7.2t-25.44-19.36-16.64-27.52-5.92-32M1179.6 241v-54.72q-4.48-12.16-14.4-22.24t-22.4-16-24.64-5.92q-14.4 0-26.08 6.08t-20.16 16.32-12.96 23.2a81.2 81.2 0 0 0-4.48 26.72q0 14.08 5.12 27.04t14.24 23.04 21.12 15.68 26.08 5.6q8.64 0 18.4-3.52t18.56-9.76 14.72-14.4 6.88-17.12"/>
  </g>
</svg>
