<?xml version="1.0" encoding="UTF-8"?>
<svg width="1264px" height="361px" viewBox="0 0 1264 361" version="1.1" xmlns="http://www.w3.org/2000/svg" xmlns:xlink="http://www.w3.org/1999/xlink">
    <!-- Generator: Sketch 55.2 (78181) - https://sketchapp.com -->
    <title>fluidd_icon</title>
    <desc>Created with Sketch.</desc>
    <g id="fluidd_icon" stroke="none" stroke-width="1" fill="none" fill-rule="evenodd">
        <path d="M0,58.8014244 L156.9995,1 L314,58.8094301 L156.9995,159.777791 L0,58.8014244 Z M148.5607,172.350801 C151.172805,174.067031 154.086152,174.925647 156.9995,174.926647 C159.909845,174.926647 162.82019,174.070034 165.434296,172.354804 L238.895486,125.110946 L295.062742,153.796504 L156.9995,268.604783 L18.9362576,153.788498 L75.1035133,125.105943 L148.5607,172.350801 Z M72.4783982,218.006521 L147.160572,280.114032 C148.001249,280.833547 148.905978,281.448988 149.855744,281.957353 L149.867753,281.963357 L150.151982,282.110462 L150.260069,282.164501 L150.453225,282.258569 L150.631369,282.342629 L150.765477,282.404673 L150.999665,282.508748 L151.071723,282.538769 C152.75508,283.255283 154.533513,283.650566 156.318951,283.728622 L156.38,283.731624 L156.664229,283.740631 L156.77632,283.742632 L157.006505,283.743633 L157.206667,283.742632 L157.333769,283.740631 L157.632009,283.730624 L157.674043,283.729623 C159.463485,283.650566 161.247923,283.255283 162.936283,282.534767 L162.984322,282.514752 L163.250536,282.396668 L163.351618,282.350635 L163.545774,282.258569 L163.750939,282.159498 L163.83901,282.114465 L164.120237,281.968361 L164.150261,281.95335 C165.098025,281.445986 166.000752,280.831546 166.839428,280.113031 L236.659684,222.052421 L272.963936,246.012592 L156.998499,361 L36.405333,241.415298 L72.4783982,218.006521 Z" id="Combined-Shape" fill="#2E75AE"></path>
        <path d="M156.000899,0.320811107 L156.871412,0 L314,57.9144252 L156.974579,158.999753 L156.974579,0.320811107 L156.000899,0.320811107 Z" id="Combined-Shape" fill="#2196F3"></path>
        <path d="M157,174.673695 C159.876774,174.653763 162.750131,173.79968 165.334119,172.109522 L238.816524,125 L295,153.603991 L157,268.000341 L157,174.673695 Z" id="Combined-Shape" fill="#2196F3"></path>
        <path d="M157,283.22052 L157.104,283.22 L157.231,283.218 L157.529,283.208 L157.571,283.207 C159.359,283.128 161.142,282.733 162.829,282.013 L162.877,281.993 L163.143,281.875 L163.244,281.829 L163.438,281.737 L163.643,281.638 L163.731,281.593 L164.012,281.447 L164.042,281.432 C164.989,280.925 165.891,280.311 166.729,279.593 L236.493,221.574 L272.768,245.517 L157,360.318868 L157,283.22052 Z" id="Combined-Shape" fill="#2196F3"></path>
        <text id="Fluidd" font-family="Roboto-Light, Roboto" font-size="320" font-weight="300" fill="#606060">
            <tspan x="394" y="298">Fluidd</tspan>
        </text>
    </g>
</svg>