<?xml version="1.0" encoding="UTF-8"?>
<svg width="1264px" height="361px" viewBox="0 0 1264 361" version="1.1" xmlns="http://www.w3.org/2000/svg" xmlns:xlink="http://www.w3.org/1999/xlink">
    <!-- Generator: Sketch 55.2 (78181) - https://sketchapp.com -->
    <title>fluidd_icon</title>
    <desc>Created with Sketch.</desc>
    <g id="fluidd_icon" stroke="none" stroke-width="1" fill="none" fill-rule="evenodd">
        <path d="M0,58.8014244 L156.9995,1 L314,58.8094301 L156.9995,159.777791 L0,58.8014244 Z M148.5607,172.350801 C151.172805,174.067031 154.086152,174.925647 156.9995,174.926647 C159.909845,174.926647 162.82019,174.070034 165.434296,172.354804 L238.895486,125.110946 L295.062742,153.796504 L156.9995,268.604783 L18.9362576,153.788498 L75.1035133,125.105943 L148.5607,172.350801 Z M72.4783982,218.006521 L147.160572,280.114032 C148.001249,280.833547 148.905978,281.448988 149.855744,281.957353 L149.867753,281.963357 L150.151982,282.110462 L150.260069,282.164501 L150.453225,282.258569 L150.631369,282.342629 L150.765477,282.404673 L150.999665,282.508748 L151.071723,282.538769 C152.75508,283.255283 154.533513,283.650566 156.318951,283.728622 L156.38,283.731624 L156.664229,283.740631 L156.77632,283.742632 L157.006505,283.743633 L157.206667,283.742632 L157.333769,283.740631 L157.632009,283.730624 L157.674043,283.729623 C159.463485,283.650566 161.247923,283.255283 162.936283,282.534767 L162.984322,282.514752 L163.250536,282.396668 L163.351618,282.350635 L163.545774,282.258569 L163.750939,282.159498 L163.83901,282.114465 L164.120237,281.968361 L164.150261,281.95335 C165.098025,281.445986 166.000752,280.831546 166.839428,280.113031 L236.659684,222.052421 L272.963936,246.012592 L156.998499,361 L36.405333,241.415298 L72.4783982,218.006521 Z" id="Combined-Shape" fill="#2E75AE"></path>
        <path d="M156.000899,0.320811107 L156.871412,0 L314,57.9144252 L156.974579,158.999753 L156.974579,0.320811107 L156.000899,0.320811107 Z" id="Combined-Shape" fill="#2196F3"></path>
        <path d="M157,174.673695 C159.876774,174.653763 162.750131,173.79968 165.334119,172.109522 L238.816524,125 L295,153.603991 L157,268.000341 L157,174.673695 Z" id="Combined-Shape" fill="#2196F3"></path>
        <path d="M157,283.22052 L157.104,283.22 L157.231,283.218 L157.529,283.208 L157.571,283.207 C159.359,283.128 161.142,282.733 162.829,282.013 L162.877,281.993 L163.143,281.875 L163.244,281.829 L163.438,281.737 L163.643,281.638 L163.731,281.593 L164.012,281.447 L164.042,281.432 C164.989,280.925 165.891,280.311 166.729,279.593 L236.493,221.574 L272.768,245.517 L157,360.318868 L157,283.22052 Z" id="Combined-Shape" fill="#2196F3"></path>
        <path d="M548.0625,191.75 L441.96875,191.75 L441.96875,298 L422.75,298 L422.75,70.5 L563.6875,70.5 L563.6875,86.90625 L441.96875,86.90625 L441.96875,175.34375 L548.0625,175.34375 L548.0625,191.75 Z M619.3125,298 L600.5625,298 L600.5625,58 L619.3125,58 L619.3125,298 Z M778.84375,276.59375 C767.593694,292.947998 749.625123,301.125 724.9375,301.125 C706.916577,301.125 693.218797,295.890677 683.84375,285.421875 C674.468703,274.953073 669.677084,259.458436 669.46875,238.9375 L669.46875,128.9375 L688.0625,128.9375 L688.0625,236.59375 C688.0625,268.781411 701.083203,284.875 727.125,284.875 C754.208469,284.875 771.343714,273.677195 778.53125,251.28125 L778.53125,128.9375 L797.28125,128.9375 L797.28125,298 L779.15625,298 L778.84375,276.59375 Z M866.8125,298 L848.0625,298 L848.0625,128.9375 L866.8125,128.9375 L866.8125,298 Z M844.78125,80.03125 C844.78125,76.4895656 845.927072,73.4948039 848.21875,71.046875 C850.510428,68.5989461 853.635397,67.375 857.59375,67.375 C861.552103,67.375 864.703113,68.5989461 867.046875,71.046875 C869.390637,73.4948039 870.5625,76.4895656 870.5625,80.03125 C870.5625,83.5729344 869.390637,86.5416547 867.046875,88.9375 C864.703113,91.3333453 861.552103,92.53125 857.59375,92.53125 C853.635397,92.53125 850.510428,91.3333453 848.21875,88.9375 C845.927072,86.5416547 844.78125,83.5729344 844.78125,80.03125 Z M910.09375,211.90625 C910.09375,185.656119 915.953066,164.74487 927.671875,149.171875 C939.390684,133.59888 955.301983,125.8125 975.40625,125.8125 C998.218864,125.8125 1015.61452,134.822827 1027.59375,152.84375 L1027.59375,58 L1046.1875,58 L1046.1875,298 L1028.6875,298 L1027.90625,275.5 C1015.92702,292.583419 998.323033,301.125 975.09375,301.125 C955.614486,301.125 939.911518,293.286537 927.984375,277.609375 C916.057232,261.932213 910.09375,240.76055 910.09375,214.09375 L910.09375,211.90625 Z M929,215.1875 C929,236.750108 933.322873,253.755146 941.96875,266.203125 C950.614627,278.651104 962.802005,284.875 978.53125,284.875 C1001.5522,284.875 1017.9062,274.718852 1027.59375,254.40625 L1027.59375,175.03125 C1017.9062,153.051973 1001.65636,142.0625 978.84375,142.0625 C963.114505,142.0625 950.875044,148.234313 942.125,160.578125 C933.374956,172.921937 929,191.12488 929,215.1875 Z M1087.90625,211.90625 C1087.90625,185.656119 1093.76557,164.74487 1105.48438,149.171875 C1117.20318,133.59888 1133.11448,125.8125 1153.21875,125.8125 C1176.03136,125.8125 1193.42702,134.822827 1205.40625,152.84375 L1205.40625,58 L1224,58 L1224,298 L1206.5,298 L1205.71875,275.5 C1193.73952,292.583419 1176.13553,301.125 1152.90625,301.125 C1133.42699,301.125 1117.72402,293.286537 1105.79688,277.609375 C1093.86973,261.932213 1087.90625,240.76055 1087.90625,214.09375 L1087.90625,211.90625 Z M1106.8125,215.1875 C1106.8125,236.750108 1111.13537,253.755146 1119.78125,266.203125 C1128.42713,278.651104 1140.6145,284.875 1156.34375,284.875 C1179.3647,284.875 1195.7187,274.718852 1205.40625,254.40625 L1205.40625,175.03125 C1195.7187,153.051973 1179.46886,142.0625 1156.65625,142.0625 C1140.927,142.0625 1128.68754,148.234313 1119.9375,160.578125 C1111.18746,172.921937 1106.8125,191.12488 1106.8125,215.1875 Z" id="Fluidd" fill="#606060" fill-rule="nonzero"></path>
    </g>
</svg>