<svg xmlns="http://www.w3.org/2000/svg" xml:space="preserve" width="90" height="80" viewBox="0 0 45 40">
  <path d="M42.53 8.87 34.5.68H2.48v30.65l7.85 7.99h32.2zM13.26 34.54l-6.19-6.3V9.96l4.09 4.17v12.43l3.95 4.03H27.3l3.9 3.94H13.26zm.49-14.3a8.33 8.33 0 1 1 8.33 8.33c-4.61 0-8.33-3.73-8.33-8.33m24 14.32h-4.5L27.4 28.6a10.1 10.1 0 0 0 2.94-2.82l3.35 3.38-.02-15.71L29.7 9.4H14.32l2.42 2.45a9.9 9.9 0 0 0-2.9 2.89L7.07 7.86v-2.4h24.47l6.21 6.31zm-11.3-14.32c0 2.42-1.96 4.38-4.38 4.38s-4.38-1.96-4.38-4.38 1.96-4.38 4.38-4.38 4.38 1.96 4.38 4.38" style="fill:#326799"/>
</svg>
