<svg xmlns="http://www.w3.org/2000/svg" viewBox="0 0 314 361">
  <g fill="none" fill-rule="evenodd">
    <path fill="#2e75ae" d="m72.444 217.531 74.622 62.063c.84.719 1.744 1.334 2.693 1.842l.012.006.284.147.108.054.193.094.178.084.134.062.234.104.072.03a15.1 15.1 0 0 0 5.243 1.189l.061.003.284.009.112.002.23.001.2-.001.127-.002.298-.01.042-.001a15.1 15.1 0 0 0 5.258-1.194l.048-.02.266-.118.101-.046.194-.092.205-.099.088-.045.281-.146.03-.015a15 15 0 0 0 2.687-1.839l69.764-58.019 36.275 23.943-115.872 114.905L36.4 240.923zm2.623-92.834 73.398 47.211c2.61 1.715 5.521 2.573 8.432 2.574 2.908 0 5.816-.856 8.428-2.57l73.402-47.21 56.122 28.665-137.952 114.726L18.945 153.359zM156.897.68l156.874 57.768-156.874 100.896L.024 58.44z"/>
    <path fill="#2196f3" d="m156.897.68 156.874 57.768L157 159.278V1h-.972zm81.83 124.022 56.122 28.665L157 268.007v-93.525c2.735-.02 5.467-.796 7.95-2.331l.375-.239zm-2.234 96.872 36.275 23.943L157 360.319V283.22h.104l.127-.002.298-.01.042-.001a15.1 15.1 0 0 0 5.258-1.194l.048-.02.266-.118.101-.046.194-.092.205-.099.088-.045.281-.146.03-.015a15 15 0 0 0 2.687-1.839z"/>
  </g>
</svg>
