<svg xmlns="http://www.w3.org/2000/svg" width="56" height="56" viewBox="0 0 56 56">
  <path fill="var(--v-primary-offset-base, #2e75ae)" d="m20.018 31.495 7.053 5.866q.12.102.254.174h.001l.027.014.01.005.019.01.017.007.012.006.022.01.007.003q.241.101.496.112h.005l.027.001h.096a1.4 1.4 0 0 0 .497-.114l.004-.002.025-.01.01-.005.018-.009.02-.01.008-.003.026-.014.003-.002a1.4 1.4 0 0 0 .254-.173l6.594-5.484 3.428 2.263L28 45 16.612 33.706Zm.248-8.774 6.937 4.462c.247.162.522.243.797.243s.55-.08.797-.242l6.937-4.462 5.304 2.709L28 36.274 14.962 25.43ZM28 11l14.827 5.46L28 25.996l-14.826-9.537Z"/>
  <path fill="var(--v-primary-base, #2196f3)" d="m28 11 14.827 5.46-14.817 9.53V11.03h-.092zm7.734 11.722 5.304 2.709L28.01 36.266v-8.839c.259-.002.517-.075.751-.22l.036-.023zm-.211 9.155 3.429 2.263-10.941 10.85v-7.287h.022l.028-.001h.004a1.4 1.4 0 0 0 .497-.113l.005-.002.025-.011.01-.004.018-.009.019-.009.008-.004.027-.014.003-.001q.135-.072.254-.174z"/>
</svg>
