<?xml version="1.0" encoding="UTF-8" standalone="no"?>
<svg xmlns="http://www.w3.org/2000/svg" height="40" viewBox="0 0 64 64">
  <path class="color-primary" d="M18.2,21H12.1l-6-6V33.2l6-6.1h9.1l1.5,1.5,1.5,1.5h0l-1.5,1.5-1.5,1.6H9.1l-3,3h0L4.5,37.7,3,39.2H3L1.5,40.7,0,42.2H9.1l1.5-1.5,1.5-1.5H24.2l1.6-1.5,1.5-1.5,1.5-1.5,1.5-1.5V27.1l-3-3,1.5-1.6L30.3,21h0l1.5-1.5L33.3,18l-1.5-1.5L30.3,15h0l-3-3.1-1.5-1.5L24.2,8.9H3L9.1,15H21.2l3,3-1.5,1.5L21.2,21Z"/>
  <path class="color-primary" d="M51.9,8.9H27.6l1.6,1.5,1.5,1.5h0l1.5,1.6L33.7,15H48.8l1.6,1.5L51.9,18v9.1l1.5,1.5,1.5,1.5h0l3,3.1V15Z"/>
  <path class="color-primary" d="M45.8,30.1h-3l1.5,1.5,1.5,1.6h-6V24.1L36.7,21h-3V36.2l1.5,1.5,1.5,1.5H51.9l1.5,1.5,1.5,1.5H64l-1.5-1.5L61,39.2h0l-1.5-1.5-1.6-1.5h0l-4.5-4.6-1.5-1.5H45.8Z"/>
  <path class="color-primary" d="M11.7,52.7l-.3-.3h0l-.6-.7-.3-.3-.3-.3H5.9l1.2,1.3H9.6l.6.6-.3.3-.3.3H7.7L6.5,52.4v3.7l1.2-1.3H9.6l.3.3.3.3h0l-.3.4-.3.3H7.1l-.6.6h0l-.3.3-.3.3h0l-.4.3-.3.3H7.1l.3-.3.3-.3h2.5l.3-.3.3-.3.3-.3.3-.3V54.8l-.6-.6.3-.3.3-.3h0l.3-.3L12,53Zm-4.6-1Zm1.8,0ZM7.1,53.6Zm0,3.7Zm3.7-1.9Zm0-1.8Z"/>
  <path class="color-primary" d="M41.3,51.1h-5l.3.3.3.3h0l.3.4.4.3h3l.3.3.4.3v1.8l.3.3.3.3h0l.6.7V52.4Zm-3.1.6Zm1.8,0Zm1.9,1.9Z"/>
  <path class="color-primary" d="M43.4,57.6l-.3-.3h0l-.3-.3-.3-.3h0l-.9-.9-.3-.4H39.4l.3.4.3.3H38.8V54.2l-.6-.6h-.6v3.1l.3.3.3.3h3.1l.3.3.3.3h1.8Zm-5.2-2.2Zm3.7,1.9Zm.6,0Z"/>
  <polygon class="color-primary" points="23.8 56.7 23.8 54.2 23.2 53.6 23.9 53 25.1 53 25.1 57.9 23.8 56.7"/>
  <path class="color-primary" d="M23.9,51.1l.6.6v.7H23.3L22,51.1Z"/>
  <polygon class="color-primary" points="53 51.1 51.8 51.1 53 52.4 53 56.7 53.7 57.3 56.7 57.3 55.5 56.1 54.3 56.1 54.3 51.7 53.7 51.1 53 51.1"/>
  <polygon class="color-primary" points="59.2 51.1 57.4 51.1 56.8 51.7 56.7 55.4 55.5 55.5 58 57.9 59.8 57.9 58 56.1 58 52.3 59.2 51.1"/>
  <path class="color-primary" d="M59,6.6h-.8V8.9h-.6V6.6h-.8V6.1H59Z"/>
  <path class="color-primary" d="M62,8.9V6.6h0c0,.2-.1.3-.1.4l-.7,1.9h-.5L60,7V6.6h-.1a1.7,1.7,0,0,1,.1.7V8.9h-.6V6.1h.9l.6,1.7a.6.6,0,0,1,.1.4h0a.8.8,0,0,0,.1-.4l.6-1.7h.9V8.9Z"/>
</svg>
