<svg xmlns="http://www.w3.org/2000/svg" width="56" height="56" viewBox="0 0 56 56">
  <path fill="var(--v-primary-base, #0cff28)" d="M27.678 8.653a1.61 1.61 0 0 0-1.612 1.612v19.09a1.935 1.935 0 0 1-3.304 1.368l-.188-.19a1.3 1.3 0 0 1-.205-.266 1.3 1.3 0 0 1-.173-.645V12.86a.645.645 0 0 0-.409-.6 4.5 4.5 0 0 1-2.798-3.487.13.13 0 0 0-.155-.107.645.645 0 0 0-.507.63v21.237a3.23 3.23 0 0 0 .944 2.28l2.766 2.766a9.35 9.35 0 0 1 2.739 6.612v5.155h6.448v-5.155a9.35 9.35 0 0 1 2.74-6.612l2.765-2.766a3.23 3.23 0 0 0 .944-2.28v-20.27a1.61 1.61 0 0 0-1.612-1.611h-.645a1.6 1.6 0 0 0-.699.16 1.61 1.61 0 0 0-.913 1.452v19.357a1.3 1.3 0 0 1-.377.912l-.19.189a1.935 1.935 0 0 1-3.302-1.369v-19.09a1.61 1.61 0 0 0-1.612-1.611Z"/>
</svg>
