<svg xmlns="http://www.w3.org/2000/svg" width="56" height="56" viewBox="0 0 56 56">
  <path fill="var(--v-logo-base, #000000)" d="M15.122 18.231a16.17 16.17 0 0 1 10.857-6.266v5.982l-8.04 1.912zm2.039 5.817 10.841-2.58 5.101 1.252-20.002 11.548a16.16 16.16 0 0 1 0-12.536zm5.738 9.232 20-11.548a16.15 16.15 0 0 1 0 12.536l-4.071-2.35-10.805 2.096Zm5.124 4.775 10.038-1.914 2.817 1.628a16 16 0 0 1-4.623 4.13 16.2 16.2 0 0 1-8.237 2.256 16.18 16.18 0 0 1-12.896-6.386l2.817-1.628zm1.998-20.108v-5.982c4.315.542 8.227 2.8 10.857 6.266l-2.817 1.628zM28 8C16.955 8 8 16.955 8 28.001 8 39.045 16.955 48 28 48c11.047 0 20-8.955 20-19.999C48 16.955 39.047 8 28 8"/>
</svg>
