<svg
    width="40px"
    height="33px"
    viewBox="0 0 323 267"
    version="1.1"
    xmlns="http://www.w3.org/2000/svg"
    xmlns:xlink="http://www.w3.org/1999/xlink">
    <g id="Page-1" stroke="none" stroke-width="1" fill="none" fill-rule="evenodd">
        <g id="logo_klipper">
            <g id="Group" fill="#647E98">
                <polygon id="path2" points="0 0 0 64.8607595 119.971429 183 173.035714 180.683544 209.95 180.683544 323 64.8607595 323 0 318.385714 0 163.807143 157.518987 4.61428571 0"></polygon>
                <polygon id="path8" points="50.6117647 177 24 203.335443 24.4588235 214.886076 24.4588235 223.664557 50.6117647 250 63 250 63 249.537975 28.1294118 213.268987 63 177.462025 63 177"></polygon>
                <rect id="rect12" fill-rule="nonzero" x="7" y="177" width="14.5312504" height="73.1481454"></rect>
                <rect id="rect23" x="100" y="201" width="11" height="49"></rect>
                <path d="M155.006101,213.884632 C152.733085,211.088851 149.074248,209.691518 144.029588,209.691518 C142.970629,209.691518 141.865529,209.738099 140.713174,209.831252 C139.560828,209.92441 138.424595,210.126246 137.303373,210.436766 L137.303373,238.299182 C138.300075,238.982324 139.623641,239.619438 141.273507,240.209426 C142.923933,240.799414 144.683312,241.094408 146.55164,241.094408 C150.662417,241.094408 153.667529,239.69707 155.56699,236.901294 C157.466452,234.105514 158.415902,230.347128 158.415902,225.626128 C158.415902,220.594058 157.279674,216.680412 155.006101,213.884632 Z M168.551918,235.689712 C167.586345,238.796013 166.201077,241.46758 164.395007,243.703878 C162.588936,245.940167 160.330926,247.679626 157.622096,248.922259 C154.912715,250.164887 151.845341,250.785921 148.420529,250.785921 C146.115827,250.785921 143.998459,250.506458 142.067869,249.94752 C140.137279,249.388038 138.549115,248.766994 137.303373,248.083299 L137.303373,267 L126,267 L126,202.60947 C128.304146,201.987876 131.138051,201.397893 134.501157,200.838956 C137.864262,200.279469 141.414149,200 145.15081,200 C149.011991,200 152.468487,200.589988 155.520295,201.770514 C158.571551,202.95104 161.171984,204.643922 163.32048,206.84916 C165.468977,209.054398 167.119399,211.725975 168.271749,214.863322 C169.423549,218.000118 170,221.525617 170,225.439817 C170,229.167156 169.517491,232.583971 168.551918,235.689712 Z" id="path25" fill-rule="nonzero"></path>
                <path d="M210.006291,213.884632 C207.733302,211.088851 204.074512,209.691518 199.029912,209.691518 C197.970967,209.691518 196.865325,209.738099 195.713544,209.831252 C194.561208,209.92441 193.424993,210.126246 192.30379,210.436766 L192.30379,238.299182 C193.299922,238.982324 194.623465,239.619438 196.273868,240.209426 C197.924271,240.799414 199.683627,241.094408 201.551932,241.094408 C205.662102,241.094408 208.667177,239.69707 210.566615,236.901294 C212.466053,234.105514 213.416051,230.347128 213.416051,225.626128 C213.416051,220.594058 212.279276,216.680412 210.006291,213.884632 Z M225,225.439817 C225,229.167156 224.51694,232.583971 223.551937,235.689712 C222.586373,238.796013 221.200572,241.46758 219.39452,243.703878 C217.588473,245.940167 215.331046,247.679626 212.621698,248.922259 C209.9129,250.164887 206.845568,250.785921 203.420246,250.785921 C201.116128,250.785921 198.998788,250.506458 197.068221,249.94752 C195.137654,249.388038 193.549509,248.766994 192.30379,248.083299 L192.30379,267 L181,267 L181,202.60947 C183.304669,201.987876 186.137982,201.397893 189.50105,200.838956 C192.864109,200.279469 196.41395,200 200.150569,200 C204.012255,200 207.468705,200.589988 210.519924,201.770514 C213.571695,202.95104 216.171539,204.643922 218.320564,206.84916 C220.469037,209.054398 222.119436,211.725975 223.271777,214.863322 C224.423554,218.000118 225,221.525617 225,225.439817 Z" id="path27" fill-rule="nonzero"></path>
                <path d="M234,224.732445 C234,220.458907 234.636805,216.712162 235.910966,213.491673 C237.184576,210.271179 238.878104,207.592958 240.99154,205.456467 C243.104424,203.319424 245.527944,201.709175 248.262656,200.625728 C250.996806,199.541726 253.793645,199 256.652617,199 C263.364025,199 268.599919,201.074584 272.359728,205.223746 C276.120093,209.373464 278,215.566252 278,223.803221 C278,224.422338 277.984484,225.119388 277.953406,225.893283 C277.922328,226.667725 277.875744,227.364229 277.813616,227.983893 L245.6522,227.983893 C245.962831,231.885416 247.345719,234.904138 249.800859,237.041189 C252.255443,239.177681 255.813338,240.246204 260.47455,240.246204 C263.20871,240.246204 265.710443,239.998004 267.978643,239.502716 C270.246848,239.007423 272.033558,238.481177 273.338788,237.923421 L274.830397,247.120016 C274.209127,247.430128 273.354318,247.755159 272.266536,248.095674 C271.17931,248.436188 269.936208,248.74574 268.537786,249.024894 C267.139925,249.303496 265.632781,249.535666 264.01692,249.721398 C262.401055,249.907134 260.754126,250 259.076133,250 C254.787684,250 251.058939,249.365413 247.889892,248.095674 C244.72029,246.825939 242.10983,245.060912 240.059078,242.800601 C238.008317,240.540286 236.485643,237.876988 235.491053,234.811272 C234.497015,231.746112 234,228.386315 234,224.732445 Z M266.720012,219.71597 C266.720012,218.167633 266.502568,216.696688 266.067672,215.303129 C265.632781,213.909574 264.995425,212.702299 264.156706,211.680213 C263.317432,210.658674 262.292333,209.853278 261.080291,209.265119 C259.868258,208.676409 258.423798,208.382328 256.745805,208.382328 C255.005683,208.382328 253.483015,208.707363 252.17778,209.35799 C250.872555,210.008051 249.769795,210.859885 248.868392,211.912382 C247.967545,212.965426 247.268061,214.173249 246.771042,215.535294 C246.274027,216.897899 245.931772,218.291458 245.745392,219.71597 L266.720012,219.71597 Z" id="path29" fill-rule="nonzero"></path>
                <path d="M318.025109,211.235792 C317.084952,210.923782 315.783837,210.596167 314.12233,210.252958 C312.460831,209.909741 310.532942,209.738134 308.338681,209.738134 C307.084578,209.738134 305.752123,209.862935 304.341889,210.112551 C302.931092,210.362157 301.94337,210.580565 301.379272,210.767773 L301.379272,250 L290,250 L290,203.370852 C292.194261,202.55906 294.93695,201.79463 298.22862,201.077 C301.520295,200.358815 305.172364,200 309.184822,200 C309.937512,200 310.814989,200.046801 311.818386,200.140407 C312.82122,200.234009 313.824617,200.358815 314.828009,200.514819 C315.830848,200.670824 316.8029,200.858593 317.743063,201.077 C318.683783,201.295407 319.435906,201.498218 320,201.685426 L318.025109,211.235792 Z" id="path31" fill-rule="nonzero"></path>
                <rect id="rect12-6" fill-rule="nonzero" x="74" y="177" width="11" height="73"></rect>
            </g>
            <g id="g17" transform="translate(21.000000, 177.000000)" fill="#B12F35">
                <path d="M3.68555687,22.1856852 L3.68601521,22.1856852 L3.66671479,34.7 L8.70838146,34.7 L42.1667171,0.440740741 L42.1667171,7.06157407 L13.2917171,36.7833333 L42.1667171,67.1074074 L42.1667171,73.5888889 L8.70838283,38.8666667 L2.7500495,38.8666667 C1.83338283,38.8666667 0.916716167,37.9407407 0.916716167,37.0148148 L4.95e-05,37.0148148 L4.95e-05,21.737037 L0.916716167,21.737037 C0.916716167,21.2740741 1.3750495,20.8111111 2.2917345,20.8111111 C3.20838283,20.8111111 3.66671617,21.2740741 3.66671617,21.737037 L3.68555687,22.1856852 Z" id="path15"></path>
            </g>
            <g id="path839" transform="translate(7.000000, 177.000000)"></g>
            <path d="M105.667143,180.142857 L152.271429,180.142857 L152.271429,150.119048 L0,0 L27.6857143,0 L163.807143,133.952381 L295.314286,0 L323,0 L175.342857,150.119048 L175.342857,189.37995 C175.342857,191.690476 173.035714,194 170.728571,194 L105.667143,194 C100.13,194 99.2071429,189.380952 99.2071429,187.071429 C99.2071429,184.761905 100.13,180.142857 105.667143,180.142857 Z" id="path35" fill="#B12F35"></path>
        </g>
    </g>
</svg>