<svg width="56" height="56" viewBox="0 0 56 56"
  xmlns="http://www.w3.org/2000/svg">
  <g>
    <path fill="#20a539" d="m 27.198788,46.29037 c -1.909311,0 -3.819269,0.02462 -5.72858,-0.0052 -3.229696,-0.05052 -5.585397,-1.471972 -7.156513,-4.35829 -1.824438,-3.352146 -3.809551,-6.617475 -5.7227491,-9.921677 -0.138647,-0.239717 -0.296082,-0.476194 -0.390025,-0.734052 -0.51118,-1.405257 -0.05118,-2.194379 1.428581,-2.289617 1.1396261,-0.07321 2.2889701,0.01685 3.4337791,0.0058 1.409793,-0.01296 2.346631,0.702305 3.00812,1.876268 0.971176,1.723368 1.915789,3.462934 2.920008,5.166865 0.940078,1.595088 1.406553,1.961142 2.620686,1.931339 0.250082,-0.0065 0.621319,0.255914 0.727572,0.493687 0.561066,1.254301 1.44737,1.212189 2.477504,1.20571 2.187252,-0.01296 4.375152,0.01231 6.561757,-0.0298 0.78329,-0.0149 1.328807,0.22028 1.694861,0.928416 0.589573,1.140274 1.257541,2.241675 1.816016,3.396202 0.695826,1.438947 0.182703,2.27666 -1.442835,2.316181 -2.081648,0.05118 -4.165887,0.01231 -6.249478,0.01231 0.0013,0.0026 0.0013,0.0039 0.0013,0.0058 z"  />
    <path fill="#71ba2b" d="m 26.463441,9.7303436 c 2.223534,0 4.447067,-0.016197 6.669953,0.00583 1.512159,0.014901 2.262407,1.0152324 1.718186,2.4250254 -0.43473,1.126668 -0.978951,2.24297 -1.674777,3.221921 -0.309688,0.435377 -1.103345,0.707488 -1.690327,0.732756 -2.046014,0.08746 -4.097858,0.04276 -6.14776,0.02786 -1.526411,-0.01101 -2.520912,0.191773 -2.919359,1.541961 -0.08228,0.277941 -0.447688,0.509236 -0.911572,0.51118 -1.20247,0.0052 -1.51475,0.08099 -2.381617,1.556214 -1.12602,1.916437 -2.242322,3.840001 -3.302258,5.793368 -0.492391,0.907037 -1.128612,1.312612 -2.172999,1.232922 -1.036613,-0.07904 -2.085535,0.02008 -3.124739,-0.03499 -1.8743251,-0.09848 -2.6880661,-1.35861 -1.7907481,-2.967951 2.0959011,-3.760312 4.2222521,-7.507666 6.4866021,-11.167556 1.211541,-1.95855 3.034684,-2.8882617 5.510244,-2.9057545 1.948183,-0.013605 3.819917,0.022676 5.731171,0.022676 0,6.479e-4 0,0.00259 0,0.00454 z"  />
    <path fill="#0a68af" d="m 46.644342,31.538079 c -1.892465,3.437018 -3.992254,6.728911 -5.963761,10.122521 -0.224815,0.386786 -0.49563,0.762558 -0.811149,1.076781 -0.737939,0.734051 -1.617764,0.745065 -2.257224,-0.08293 -0.738586,-0.957571 -1.382582,-1.997422 -1.983817,-3.048936 -0.453518,-0.793657 -0.06673,-1.531595 0.360871,-2.24297 1.216076,-2.023986 2.39911,-4.067409 3.617129,-6.090099 1.184978,-1.740861 0.984134,-2.054436 0.26952,-3.218034 -0.151605,-0.246843 -0.165858,-0.704248 -0.02462,-0.99126 0.5967,-1.218668 0.523489,-1.402667 -0.409462,-2.791079 -0.964049,-1.642383 -1.917085,-3.424061 -2.982852,-5.069035 -1.265315,-1.95272 -1.429878,-1.800467 0.05442,-4.605152 0.0039,-0.0078 0.01037,-0.01425 0.0149,-0.02203 1.687087,-3.100119 3.077444,-1.965676 4.288984,0.134112 1.680608,2.540348 1.917086,3.025613 3.496624,5.711087 0.830586,1.413033 1.696157,2.982853 2.380321,4.098507 1.703932,2.779417 1.794636,3.757072 -0.04989,7.018514 z"  />
    <path fill="#21a0d5" d="m 33.813023,27.275658 c -1.041795,0 -2.084239,-0.02527 -3.124738,0.0058 -1.461624,0.04406 -2.571447,-0.579207 -3.311977,-1.790748 C 26.12719,23.447288 24.913705,21.380542 23.734559,19.296303 23.11,18.19231 23.542785,17.247697 24.791903,17.250288 c 2.455476,0.0052 4.92067,0.112084 7.361245,0.374477 1.383877,0.149013 2.518968,1.056049 3.28347,2.217703 1.199879,1.824438 2.322012,3.704594 3.396849,5.605482 0.537095,0.949796 0.06673,1.731143 -1.063175,1.796579 -1.314555,0.0771 -2.637531,0.01814 -3.956621,0.01814 -6.48e-4,0.0045 -6.48e-4,0.0091 -6.48e-4,0.01296 z"  />
    <path fill="#0c69af" d="m 25.998909,29.727895 c -1.191456,2.114689 -2.329787,4.079718 -3.570482,6.165252 -0.78653,1.321681 -1.469398,1.311315 -2.257224,-0.03045 -1.211541,-2.062859 -2.370603,-4.156816 -3.57113,-6.226154 -0.634277,-1.092978 -0.643995,-2.182069 -0.03045,-3.262738 1.18109,-2.080999 2.36542,-4.160703 3.593806,-6.213196 0.745065,-1.24523 1.550383,-1.297061 2.263054,-0.08163 1.313907,2.239731 2.117281,3.96893 3.441554,6.203478 0.824754,1.390356 0.763853,2.323308 0.130872,3.445441 z"  />
    <path fill="#173075" d="m 28.188105,38.353806 c -1.077429,0 -2.154858,0.02397 -3.231639,-0.0065 -1.088444,-0.0311 -1.439596,-0.526728 -0.971177,-1.465511 1.101401,-2.206688 2.227421,-4.403011 3.415638,-6.564348 0.650475,-1.183034 1.777791,-1.774551 3.108542,-1.806297 2.500828,-0.05961 5.003599,-0.06997 7.505074,-0.03952 1.182386,0.01425 1.517342,0.623263 0.941374,1.627481 -1.297061,2.260464 -2.581165,4.531293 -3.982535,6.72632 -0.347266,0.543573 -1.080021,1.052161 -1.709763,1.164245 -1.666355,0.29673 -3.383892,0.202787 -5.075514,0.36411 -0.0039,-0.05507 0.0032,0.05507 0,0 z"  />
  </g>
</svg>
