<svg width="56" height="56" viewBox="0 0 56 56"
  xmlns="http://www.w3.org/2000/svg">
  <g>
    <path fill="#647e98" d="m 8,11.46771 v 8.031311 l 14.857142,14.630138 6.57143,-0.285716 H 34 L 48,19.499021 V 11.46771 H 47.428571 L 28.285714,30.97456 8.571428,11.46771 Z m 0.866927,21.919765 v 9.058708 h 1.800392 v -9.058708 z m 5.401174,0 -3.295498,3.260274 0.05675,1.430529 v 1.088062 l 3.238747,3.260275 h 1.534247 v -0.05675 l -4.318983,-4.491193 4.318983,-4.434443 v -0.05675 z m 2.896282,0 v 9.03914 h 1.362035 v -9.03914 z m 22.618395,2.724071 c -0.354046,0 -0.700549,0.06732 -1.039138,0.201566 -0.338659,0.134171 -0.638543,0.332222 -0.900196,0.596868 -0.261722,0.264577 -0.47046,0.597269 -0.62818,0.996086 -0.157789,0.398817 -0.23679,0.862167 -0.23679,1.39139 0,0.452485 0.06085,0.86895 0.183952,1.248532 0.123168,0.379649 0.311598,0.710304 0.565559,0.990216 0.253959,0.279909 0.578131,0.498336 0.970645,0.655576 0.392446,0.157241 0.854448,0.234835 1.385519,0.234835 0.207797,0 0.410462,-0.01027 0.610568,-0.03327 0.200104,-0.02301 0.386579,-0.05161 0.559686,-0.08611 0.173177,-0.03457 0.327201,-0.07329 0.461839,-0.115461 0.134708,-0.04217 0.242047,-0.08292 0.318983,-0.121331 l -0.185911,-1.138941 c -0.161635,0.06906 -0.382516,0.134358 -0.663404,0.195693 -0.280887,0.06134 -0.590959,0.09198 -0.92955,0.09198 -0.577231,0 -1.01697,-0.132684 -1.320939,-0.39726 -0.304038,-0.264647 -0.476209,-0.638177 -0.514677,-1.12133 h 3.982388 c 0.0077,-0.07674 0.01377,-0.162414 0.01761,-0.258318 0.0038,-0.09584 0.0059,-0.183603 0.0059,-0.260274 0,-1.020043 -0.232957,-1.785524 -0.698631,-2.299412 -0.465604,-0.513822 -1.114083,-0.771038 -1.945206,-0.771038 z m -13.808219,0.123288 c -0.462737,0 -0.902505,0.03444 -1.318982,0.103717 -0.416477,0.06921 -0.765541,0.142204 -1.05088,0.219178 v 7.974561 h 1.399217 v -2.342465 c 0.15427,0.08467 0.349962,0.161635 0.589042,0.230919 0.239078,0.06922 0.501283,0.103719 0.786691,0.103719 0.42412,0 0.805379,-0.07704 1.140901,-0.230921 0.335454,-0.153884 0.613915,-0.368856 0.837573,-0.645792 0.223659,-0.276936 0.395103,-0.607497 0.514678,-0.992173 0.119573,-0.384605 0.180039,-0.808475 0.180039,-1.270058 0,-0.484724 -0.07067,-0.920746 -0.213307,-1.309198 -0.142704,-0.38852 -0.348418,-0.719082 -0.614482,-0.992173 -0.266064,-0.27309 -0.586916,-0.483944 -0.964776,-0.630136 -0.377927,-0.146194 -0.807556,-0.219178 -1.285714,-0.219178 z m 6.812133,0 c -0.462732,0 -0.902509,0.03444 -1.318982,0.103717 -0.416473,0.06921 -0.767434,0.142204 -1.052837,0.219178 v 7.974561 h 1.399216 v -2.342465 c 0.154268,0.08467 0.351923,0.161635 0.591,0.230919 0.239076,0.06922 0.501357,0.103719 0.786691,0.103719 0.424183,0 0.803494,-0.07704 1.138944,-0.230921 0.335519,-0.153884 0.615874,-0.368856 0.83953,-0.645792 0.223657,-0.276936 0.395105,-0.607497 0.514677,-0.992173 0.119504,-0.384605 0.178082,-0.808475 0.178082,-1.270058 0,-0.484724 -0.07068,-0.920746 -0.213307,-1.309198 -0.142703,-0.38852 -0.346462,-0.719082 -0.612525,-0.992173 -0.266128,-0.27309 -0.588808,-0.483944 -0.966731,-0.630136 -0.377854,-0.146194 -0.805536,-0.219178 -1.283758,-0.219178 z m 13.502936,0 c -0.496892,0 -0.95049,0.04414 -1.358121,0.133072 -0.407632,0.08887 -0.745882,0.183226 -1.017613,0.283757 v 5.774952 h 1.409002 v -4.857144 c 0.06986,-0.02319 0.191241,-0.05128 0.365949,-0.08219 0.174639,-0.03091 0.339804,-0.04697 0.495108,-0.04697 0.271732,0 0.510488,0.02207 0.716242,0.06458 0.205757,0.0425 0.366941,0.08269 0.483367,0.121331 L 47.62818,36.44422 C 47.55832,36.42103 47.464833,36.39494 47.348337,36.3679 47.23191,36.34086 47.112448,36.31872 46.988259,36.29941 46.864001,36.28009 46.738669,36.26403 46.614481,36.25245 46.490223,36.24086 46.38284,36.23484 46.289628,36.23484 Z m -25.906067,0.123287 v 6.068494 h 1.362036 v -6.068494 z m 19.41096,0.915852 c 0.207798,0 0.388065,0.03473 0.53816,0.107631 0.150095,0.07283 0.275714,0.172909 0.379647,0.299413 0.103865,0.126572 0.182936,0.277524 0.236792,0.450098 0.05386,0.172574 0.08024,0.354246 0.08024,0.545989 h -2.596868 c 0.02308,-0.176408 0.06565,-0.34985 0.127201,-0.518591 0.06155,-0.168673 0.148716,-0.317735 0.260274,-0.44814 0.111627,-0.13034 0.247367,-0.236525 0.409001,-0.317027 0.161637,-0.08057 0.350067,-0.119373 0.565559,-0.119373 z m -13.958905,0.16047 c 0.624718,0 1.078595,0.174325 1.360079,0.520547 0.281553,0.346222 0.4227,0.830854 0.4227,1.454012 0,0.584635 -0.117026,1.049081 -0.35225,1.395303 -0.235225,0.346222 -0.60835,0.520548 -1.117418,0.520548 -0.231368,0 -0.449235,-0.03652 -0.653619,-0.109588 -0.204315,-0.07306 -0.367765,-0.152193 -0.491194,-0.236792 v -3.450097 c 0.13885,-0.03845 0.279996,-0.06479 0.422701,-0.07632 0.142704,-0.01153 0.277863,-0.01761 0.409001,-0.01761 z m 6.812134,0 c 0.62471,0 1.078597,0.174325 1.360078,0.520547 0.28148,0.346222 0.420744,0.830854 0.420744,1.454012 0,0.584635 -0.117029,1.049081 -0.352251,1.395303 -0.235222,0.346222 -0.606468,0.520548 -1.11546,0.520548 -0.231366,0 -0.449239,-0.03652 -0.653621,-0.109588 -0.204381,-0.07306 -0.369793,-0.152193 -0.493151,-0.236792 v -3.450097 c 0.138848,-0.03845 0.279999,-0.06479 0.422702,-0.07632 0.142633,-0.01153 0.279821,-0.01761 0.410959,-0.01761 z"  />
    <path fill="#b12f35" d="m 8,11.46771 18.857143,18.590998 v 3.7182 h -5.771038 c -0.685704,0 -0.800391,0.571139 -0.800391,0.857143 0,0.286005 0.114687,0.857143 0.800391,0.857143 h 8.056752 c 0.28571,0 0.571428,-0.2853 0.571428,-0.571429 V 30.058708 L 48,11.46771 H 44.571429 L 28.285714,28.056751 11.428571,11.46771 Z m 7.821918,21.97456 -4.142857,4.242661 h -0.624267 l 0.002,-1.549901 -0.002,-0.05675 c 0,-0.05733 -0.05674,-0.113501 -0.170254,-0.113501 -0.11352,0 -0.170255,0.05617 -0.170255,0.113501 h -0.113502 v 1.892369 h 0.113502 c 0,0.114666 0.113489,0.228963 0.227007,0.228963 h 0.737769 l 4.142857,4.299413 v -0.802347 l -3.575343,-3.755382 3.575343,-3.679061 z" />
  </g>
</svg>
