<svg width="56" height="56" viewBox="0 0 56 56"
  xmlns="http://www.w3.org/2000/svg">
  <style>
    .color-primary {
      fill: var(--logo-color)
    }
  </style>
  <g>
    <path class="color-primary" d="m 18.052732,8.0001453 c -0.05813,0.0037 -0.06055,0.04326 -0.06055,0.09766 0,0.06527 2.500917,6.2444337 5.546875,13.7070317 3.045959,7.484354 5.548828,13.684185 5.548828,13.792969 0,0.108784 -1.044471,0.239689 -2.328125,0.283203 l -2.349609,0.06641 2.4375,0.04297 c 2.175685,0.04351 2.458213,0.08717 2.675781,0.457032 0.41338,0.805004 0.216293,0.999911 -1.458984,1.63086 -2.0669,0.783247 -2.980423,1.218795 -2.828125,1.371094 0.06527,0.06527 1.17533,-0.304553 2.458984,-0.783204 1.283654,-0.500406 2.327853,-0.869413 2.34961,-0.847656 0.587434,0.979059 0.522115,1.130001 -1.087891,2.914062 -0.892031,0.979059 -1.609375,1.850202 -1.609375,1.958986 0,0.108785 0.761449,-0.587894 1.71875,-1.523437 l 1.697266,-1.697267 0.36914,0.957031 c 0.217569,0.500408 0.871277,1.589528 1.480469,2.394532 l 1.087891,1.478516 h 2.152343 2.154302 V 27.658348 11.013817 H 31.41601 24.800776 L 21.494135,9.4903803 C 18.899632,8.2991923 18.227124,7.9889273 18.052729,8.0001453 Z M 29.109373,21.457176 c 0.08703,0 0.674011,0.827038 1.283203,1.84961 1.066085,1.805818 1.08789,1.913158 1.08789,3.544922 l -0.02148,1.675781 -0.847657,-0.978516 c -1.283653,-1.457708 -2.242186,-3.394579 -2.242186,-4.482422 0,-0.89203 0.326854,-1.609375 0.740234,-1.609375 z m 7.027344,23.496094 c -1.414195,0 -1.80605,0.06591 -1.697266,0.26172 0.08703,0.152296 0.587211,0.848975 1.109375,1.523437 0.848517,1.109598 1.044288,1.261718 1.718749,1.261718 h 0.74024 V 46.476708 44.95327 Z" />
  </g>
</svg>
