<?xml version="1.0" encoding="UTF-8" standalone="no"?>
<svg
   width="56"
   height="56"
   viewBox="0 0 56 56"
   version="1.1"
   id="svg4"
   sodipodi:docname="logo_z-bolt.svg"
   inkscape:version="1.4 (86a8ad7, 2024-10-11)"
   xmlns:inkscape="http://www.inkscape.org/namespaces/inkscape"
   xmlns:sodipodi="http://sodipodi.sourceforge.net/DTD/sodipodi-0.dtd"
   xmlns="http://www.w3.org/2000/svg"
   xmlns:svg="http://www.w3.org/2000/svg">
  <defs
     id="defs4" />
  <sodipodi:namedview
     id="namedview4"
     pagecolor="#ffffff"
     bordercolor="#000000"
     borderopacity="0.25"
     inkscape:showpageshadow="2"
     inkscape:pageopacity="0.0"
     inkscape:pagecheckerboard="0"
     inkscape:deskcolor="#d1d1d1"
     inkscape:zoom="5.8839286"
     inkscape:cx="14.871017"
     inkscape:cy="48.861912"
     inkscape:window-width="3440"
     inkscape:window-height="1369"
     inkscape:window-x="-8"
     inkscape:window-y="611"
     inkscape:window-maximized="1"
     inkscape:current-layer="svg4" />
  <path
     d="M 10.073399,14.427266 C 13.75242,9.5782207 19.235389,6.4134097 25.274414,5.6537267 v 8.3759183 l -11.256898,2.676672 z m 2.854635,8.143161 15.178385,-3.610922 7.141439,1.752121 -28.0032333,16.166715 c -2.363236,-5.611961 -2.360004,-11.935113 0,-17.550309 z m 8.033714,12.924321 28.000001,-16.166716 c 2.363236,5.611962 2.363236,11.938348 0,17.550309 l -5.699574,-3.290885 -15.12666,2.935289 z m 7.173767,6.685215 14.053342,-2.679904 3.94412,2.279051 c -1.787784,2.363102 -3.992613,4.315649 -6.472234,5.783293 -3.443021,2.039832 -7.413,3.15188 -11.531693,3.158344 -7.08648,0.0065 -13.768849,-3.300582 -18.055651,-8.941637 l 3.944117,-2.279051 z M 30.93196,14.029645 V 5.6537267 c 6.042257,0.759683 11.518761,3.921261 15.201017,8.7735393 l -3.94412,2.279051 z M 28.103185,0.1031867 c -15.462877,0 -27.9999983,12.5363983 -27.9999983,28.0016153 0,15.461987 12.5371213,27.998385 27.9999983,27.998385 15.466115,0 28.000002,-12.536398 28.000002,-27.998385 0,-15.465217 -12.533887,-28.0016153 -28.000002,-28.0016153 z"
     id="Shape-3"
     inkscape:connector-curvature="0"
     style="fill:#f9f9f9;fill-rule:evenodd;stroke:none;stroke-width:1.93299" />
</svg>
