<?xml version="1.0" encoding="UTF-8"?>
<svg width="40px" height="40px" viewBox="0 0 596 597" version="1.1" xmlns="http://www.w3.org/2000/svg" xmlns:xlink="http://www.w3.org/1999/xlink">
    <g id="Page-1" stroke="none" stroke-width="1" fill="none" fill-rule="evenodd">
        <g id="HevORT">
            <polygon id="path3772" transform="translate(203.779945, 259.925301) scale(-1, 1) rotate(-360.000000) translate(-203.779945, -259.925301) " points="284.654865 452.850602 205.586898 452.850602 182.350668 320.892493 135.516023 320.892493 123.897775 254.913439 170.732262 254.913439 151.584636 146.174865 122.905024 146.174865 177.176802 67 254.684969 146.174865 230.652524 146.174865" class="color-primary"></polygon>
            <polygon id="path3774" transform="translate(381.682883, 339.100166) scale(-1, 1) translate(-381.682883, -339.100166) " points="300.808029 146.174865 379.875996 146.174865 399.023622 254.913439 445.858135 254.913439 457.476382 320.892493 410.641869 320.892493 433.878099 452.850602 462.557737 452.850602 408.285933 532.025466 330.777793 452.850602 354.810238 452.850602" class="color-primary"></polygon>
            <path d="M386.763914,13.6126936 C488.311008,45.4287522 565.193643,129.075976 588.450875,233.045264 C611.708107,337.014552 577.806609,445.510496 499.516747,517.663723 C421.226885,589.816951 310.442753,614.66567 208.89566,582.849608 C107.348567,551.03355 30.4659321,467.386326 7.20870009,363.417038 C-16.0485319,259.44775 17.8529662,150.951806 96.1428278,78.7985785 C174.432689,6.64535091 285.216822,-18.2033681 386.763914,13.6126936 Z M21.0919102,298.231144 C21.0919102,451.275891 144.991681,575.343171 297.829794,575.343171 C450.667907,575.343171 574.567678,451.275891 574.567678,298.231144 C574.567678,199.228551 521.821739,107.74638 436.198738,58.2450824 C350.575738,8.74378466 245.08385,8.74378466 159.46085,58.2450824 C73.8378493,107.74638 21.0919102,199.228551 21.0919102,298.231144 Z" id="Combined-Shape" class="color-primary"></path>
        </g>
    </g>
</svg>