<svg width="56" height="56" viewBox="0 0 56 56"
  xmlns="http://www.w3.org/2000/svg">
  <style>
    .color-primary {
      fill: var(--primary-color)
    }
  </style>
  <g>
    <path class="color-primary" d="M 48,16.883895 39.980025,8.70412 H 8 v 30.611735 l 7.8402,7.980025 H 48 Z M 18.766542,42.521848 12.58427,36.229713 V 17.972534 l 4.084893,4.164794 V 34.55181 l 3.94507,4.024969 h 12.17478 l 3.895132,3.935081 H 18.766542 Z M 19.25593,28.239701 c 0,-4.594258 3.725343,-8.319601 8.319601,-8.319601 4.594256,0 8.3196,3.725343 8.3196,8.319601 0,4.594257 -3.725344,8.3196 -8.3196,8.3196 -4.604245,0 -8.319601,-3.725343 -8.319601,-8.3196 z m 23.970038,14.302122 h -4.494382 l -5.842697,-5.95256 c 1.158552,-0.729088 2.157303,-1.68789 2.936329,-2.816479 l 3.345818,3.37578 -0.01998,-15.690386 -3.965044,-4.044945 H 19.825218 l 2.41698,2.446942 c -1.158552,0.749063 -2.147316,1.737828 -2.89638,2.886392 L 12.58427,15.875156 v -2.397003 h 24.43945 l 6.202248,6.302122 z M 31.940075,28.239701 c 0,2.416978 -1.957553,4.374532 -4.374532,4.374532 -2.416979,0 -4.374532,-1.957554 -4.374532,-4.374532 0,-2.416979 1.957553,-4.374533 4.374532,-4.374533 2.416979,0 4.374532,1.957554 4.374532,4.374533 z" />
  </g>
</svg>
