<svg width="56" height="56" viewBox="0 0 56 56"
  xmlns="http://www.w3.org/2000/svg">
  <style>
    .color-primary {
      fill: var(--primary-color)
    }
  </style>
  <g>
    <path class="color-primary" d="m 29.5,29.05 14.3,-10.2 c 0,0.1 0,0.2 0,0.2 0,1.8 0,3.5 0,5.3 0,2.9 0,5.7 0,8.6 0,0.1 -0.1,0.2 -0.2,0.3 -5.1,3.7 -10.3,7.3 -15.4,11 -0.1,0 -0.1,0.1 -0.2,0.1 -0.1,0 -0.1,-0.1 -0.2,-0.1 -5.1,-3.6 -10.3,-7.3 -15.4,-10.9 -0.1,-0.1 -0.2,-0.2 -0.2,-0.3 0,-0.7 0,-1.5 0,-2.2 0,-0.1 0,-0.2 0.2,-0.3 3.8,-2.7 7.5,-5.4 11.3,-8.1 l 8.6,-6.1 0.1,-0.1 v 0 0 h -15 -0.2 c 0,0.1 0,0.2 0,0.2 0,2.5 0,5 0,7.5 v 0.1 c 0,0.1 0,0.2 -0.1,0.2 -1.6,1.1 -3.1,2.2 -4.7,3.4 0,0 -0.1,0 -0.1,0.1 v 0 0 -0.1 c 0,-5.3 0,-10.6 0,-15.9 0,0 0,0 0,-0.1 h 31.5 v 3.3 l -24.1,17.2 c 2.7,2 5.5,3.9 8.2,5.9 0.2,-0.1 12.4,-8.8 12.4,-8.9 z" />
  </g>
</svg>
