<?xml version="1.0" encoding="UTF-8" standalone="no"?>
<!-- Created with Inkscape (http://www.inkscape.org/) -->

<svg
   width="56"
   height="56"
   viewBox="0 0 20.000002 20"
   version="1.1"
   xmlns="http://www.w3.org/2000/svg">
  <defs>
    <clipPath
       clipPathUnits="userSpaceOnUse"
       id="clipPath6382-5">
      <path d="M 0,800 H 800 V 0 H 0 Z" />
    </clipPath>
    <clipPath
       clipPathUnits="userSpaceOnUse"
       id="clipPath6406-3">
      <path d="M 284.941,580.678 H 452.529 V 376.758 H 284.941 Z" />
    </clipPath>
    <clipPath
       clipPathUnits="userSpaceOnUse"
       id="clipPath6422-1">
      <path d="M 155.926,390.276 H 298.601 V 173.023 H 155.926 Z" />
    </clipPath>
    <clipPath
       clipPathUnits="userSpaceOnUse"
       id="clipPath6438-1">
      <path d="m 553.411,592.406 h 93.656 V 420.223 h -93.656 z" />
    </clipPath>
    <clipPath
       clipPathUnits="userSpaceOnUse"
       id="clipPath6454-8">
      <path d="m 553.778,309.675 h 95.314 V 168.291 h -95.314 z" />
    </clipPath>
  </defs>
  <g transform="translate(-98.160416,-141.2875)">
    <g transform="matrix(0.02689731,0,0,-0.02689731,97.401494,162.04642)">
      <g clip-path="url(#clipPath6382-5)">
        <path
           d="m 659.8237,328.7996 c -1.20549,-40.14775 -4.06745,-80.29298 -5.923,-120.44 1.18622,-18.32407 -12.31948,-33.73448 -28.91584,-39.98046 -97.78144,-47.19804 -213.38214,-51.38806 -316.90128,-21.6652 -68.41505,20.2085 -135.41153,65.55772 -159.00623,135.80067 -14.30986,39.46423 -7.17997,81.13148 -5.86765,121.86199 1.30887,23.80841 2.35217,47.62844 3.858,71.424 27.14428,-20.26382 53.528,-41.78521 81.13898,-61.27493 86.79801,-40.26136 173.59601,-80.52271 260.39402,-120.78407 55.61781,16.23066 111.23815,32.45262 166.854,48.69 2.28541,-4.21686 3.877,-8.84694 4.369,-13.632 z"
           style="fill:#ac3724;fill-opacity:1;fill-rule:nonzero;stroke:none" />
        <path
           d="m 658.2272,605.0038 c 2.45592,-15.28978 -0.58638,-30.93525 -0.731,-46.384 -1.9672,-30.50166 -2.4651,-61.17066 -5.42261,-91.5588 -6.44006,-18.90235 -23.47109,-31.15415 -36.29997,-45.70315 -20.28781,-20.38036 -51.85079,-15.66048 -75.00003,-3.29794 -57.80747,24.39691 -126.74525,29.46465 -184.55108,2.57162 -14.73803,-6.21281 -31.65019,-17.77568 -10.91031,-27.79073 45.71185,-34.48076 108.33358,-37.44031 162.3275,-24.528 30.09852,4.96304 56.10672,27.73068 87.5956,23.8189 25.11273,-3.33975 39.39901,-26.0648 55.7379,-42.7919 8.43387,-9.49417 9.89165,-22.25997 8.524,-34.302 -27.50301,-12.28728 -54.70091,-25.70179 -82.39355,-37.2885 -53.48627,-5.06102 -107.01543,-11.12118 -160.47498,-15.55981 -43.44916,8.12044 -86.89831,16.24087 -130.34747,24.36131 -27.14624,19.71405 -55.24123,38.51575 -81.79824,58.79644 -10.78758,16.48852 -21.57517,32.97704 -32.36276,49.46556 -9.8612,-3.1402 -20.63511,-7.48964 -29.938,-9.89 2.04865,33.21735 2.81032,66.53539 5.89086,99.67198 9.85721,73.97191 70.46367,130.46487 136.91107,157.53924 88.15604,36.23606 188.40093,37.88307 280.05532,14.42115 28.65411,-8.81529 58.95721,-17.3233 82.99875,-35.88237 4.65544,-4.23479 8.40117,-9.59948 10.189,-15.669 z"
           style="fill:#f27121;fill-opacity:1;fill-rule:nonzero;stroke:none" />
        <path
           d="m 314.1312,405.8771 -15.897,35.337 11.324,82.034 50.572,33.087 49.279,12.983 106.675,-4.833 65.177,-22.354 67.428,44.115 -7.747,-120.617 -47.325,-45.406 -27.886,5.828 -88.526,35.965 -106.343,-21.43 -48.948,-39.246 z"
           style="fill:#bc3e26;fill-opacity:1;fill-rule:nonzero;stroke:none" />
        <path
           d="m 633.6572,596.3962 c -7.21747,-14.38539 -20.56466,-25.24835 -31.88328,-36.63984 -24.02267,-14.49739 -47.86327,9.25995 -71.54432,13.63801 -60.67692,18.727 -130.64365,18.77349 -187.21788,-12.50759 -48.03752,-26.07144 -71.82863,-88.80298 -50.17075,-139.59519 18.98205,-49.2683 72.53184,-77.57779 123.28396,-83.37648 54.55484,-8.49892 109.80502,4.76197 159.37561,27.31957 17.94018,7.42564 32.78758,-6.11899 43.2854,-18.91564 4.98358,-7.1409 18.09218,-13.86608 14.31673,-24.00147 -24.46278,-18.71622 -55.97689,-26.53628 -85.27172,-34.99325 -84.31997,-19.64462 -175.45982,-15.54263 -256.16403,16.70251 -58.41708,23.4028 -111.9099,73.42812 -118.52535,138.84764 -8.294,60.09881 26.65108,118.56355 76.11263,150.69073 78.24679,51.77943 177.65099,60.46197 268.49252,46.8235 38.20148,-6.49518 76.41674,-17.20225 110.19848,-36.5645 l 4.28587,-3.9105 z m -2.308,-43.849 c -1.34189,-25.92341 -2.72717,-51.8527 -4.067,-77.777 -7.13748,-14.43038 -20.55026,-25.35241 -31.89095,-36.76017 -24.02271,-14.49921 -47.86278,9.26129 -71.54433,13.63811 -61.37674,18.89434 -132.43908,19.07536 -189.16208,-13.67083 -26.54294,-29.09225 -26.81298,29.57644 -20.79195,47.67111 13.68259,49.57208 68.12503,71.15553 115.16064,73.7775 46.58568,4.70021 92.86862,-7.43083 135.00002,-26.55494 24.63277,-9.95512 51.55589,-0.96554 67.29565,19.67622 z m 0.998,-262.831 c -1.50408,-28.89918 -2.96755,-56.59268 -4.508,-86.101 -19.60377,-21.72048 -53.40028,-27.03262 -80.58926,-36.564 -84.77845,-21.21877 -176.77897,-17.64568 -258.56457,13.8183 -59.39437,22.97317 -114.4722,72.75257 -121.7773,139.01605 -2.34826,18.9179 -0.0602,37.90026 0.66313,56.83865 41.25696,-74.1306 126.19446,-109.94002 206.62923,-121.58175 86.97045,-12.71555 178.7346,-3.65892 258.19477,35.49575 z m 25.68,315.946 c -10.14183,25.09823 -40.07904,30.96537 -62.16954,41.13426 -91.36746,31.78863 -193.56355,34.09863 -285.87869,4.76537 -72.31856,-23.1449 -142.52348,-76.46754 -159.54913,-153.97451 -5.71922,-32.47325 -5.17773,-65.61407 -7.49964,-98.44912 -1.80349,-43.23718 -8.50127,-88.14382 10.83762,-128.90013 32.22148,-74.92712 111.14517,-116.46123 187.61507,-132.09286 98.14334,-19.76684 204.90037,-12.09152 294.04321,35.96096 16.75795,8.64759 18.88584,27.54005 18.9951,44.23303 1.68735,36.82033 4.37024,73.63901 5.403,110.46 -3.64297,22.17305 -23.894,35.26675 -37.78015,51.0918 -23.79904,21.79564 -58.00845,11.15812 -83.31595,-1.71855 -59.72947,-23.06152 -132.37162,-25.49288 -187.6309,10.31575 -15.18352,8.26601 -24.22061,21.37016 -1.71982,28.32632 50.47944,27.81211 112.9746,26.67472 166.95718,10.16976 28.38118,-8.22626 58.20713,-30.37631 87.88141,-13.86619 17.04878,11.37932 30.61514,27.64664 43.39483,43.51112 8.32189,16.47783 5.41523,35.56687 7.3404,53.49399 1.18974,30.43593 4.02507,60.89686 4.096,91.315 -0.22943,1.43155 -0.59106,2.84019 -1.02,4.224 z"
           style="fill:#3c2215;fill-opacity:1;fill-rule:nonzero;stroke:none" />
        <g
           clip-path="url(#clipPath6406-3)"
           opacity="0.630005"
           style="display:inline">
          <path
             d="m 452.5295,580.6785 c -11.7275,-5.32591 -19.04369,-17.37623 -31.72699,-21.10116 -10.75879,-3.11399 -21.70921,-6.79444 -29.97209,-14.76286 -14.46378,-12.24845 -24.05281,-33.77082 -15.07124,-51.96094 6.55205,-13.96628 21.99518,-21.09513 28.15,-35.40754 3.17136,-6.91905 8.89315,-15.29657 -2.19323,-15.95759 -22.92396,-9.36457 -45.631,-20.0022 -65.8451,-34.43005 -6.58482,-4.8692 7.56517,-10.91696 10.84785,-15.33436 8.20401,-3.28704 0.53608,-4.71256 -3.35386,-6.63591 -6.31312,-2.77653 -12.62623,-5.55306 -18.93934,-8.32959 -9.88217,8.48783 -17.66234,18.99642 -24.909,29.735 -4.84368,10.4004 -10.30809,21.9939 -12.36213,33.8718 -8.06733,37.85982 5.63976,79.16846 34.58357,104.82959 20.08492,19.38693 48.58685,25.16419 75.14192,29.80075 18.42275,2.94982 37.03057,4.6179 55.64964,5.68286 z"
             style="fill:#3c2215;fill-opacity:1;fill-rule:nonzero;stroke:none" />
        </g>
        <g
           clip-path="url(#clipPath6422-1)"
           opacity="0.630005"
           style="display:inline">
          <path
             d="m 262.9677,175.008 c 68.019,-21.115 -68.127,133.565 35.633,114.789 l -45.074,21.062 -73.624,79.417 -16.857,-11.029 -7.12,-47.989 0.664,-52.525 37.623,-42.789 20.435,-27.554 c 0,0 -9.074,-15.565 48.32,-33.382"
             style="fill:#3c2215;fill-opacity:1;fill-rule:nonzero;stroke:none" />
        </g>
        <g
           clip-path="url(#clipPath6438-1)"
           opacity="0.630005"
           style="display:inline">
          <path
             d="m 553.411,422.8051 c 0,0 84.617,28.881 10.662,134.56 l 32.754,-24.308 50.24,59.349 -4.502,-132.937 -48.948,-39.246 z"
             style="fill:#3c2215;fill-opacity:1;fill-rule:nonzero;stroke:none" />
        </g>
        <g
           clip-path="url(#clipPath6454-8)"
           opacity="0.630005"
           style="display:inline">
          <path
             d="m 553.7783,271.388 c 0,0 67.464,-81.039 33.75,-103.097 l 53.817,20.766 7.747,120.618 z"
             style="fill:#3c2215;fill-opacity:1;fill-rule:nonzero;stroke:none" />
        </g>
      </g>
    </g>
  </g>
</svg>
