<svg width="40px" height="19.3px" viewBox="0 0 949 458" version="1.1" xmlns="http://www.w3.org/2000/svg" xmlns:xlink="http://www.w3.org/1999/xlink">
    <g id="Page-1" stroke="none" stroke-width="1" fill="none" fill-rule="evenodd">
        <g id="VzBot" transform="translate(-0.067330, 0.161190)">
            <path d="M-5.68434189e-14,-2.84217094e-14 L362.708779,339.708834 L726.654795,-2.84217094e-14 C645.936311,-2.84217094e-14 600.650154,-2.84217094e-14 590.796325,-2.84217094e-14 C576.015582,-2.84217094e-14 568.304693,3.55337436 558.227357,12.4894765 C548.150022,21.4255786 408.510731,151.538828 395.640309,164.100992 C382.769886,176.663155 355.53897,176.663155 343.296284,165.115681 C331.053598,153.568208 182.060387,14.8697069 176.703849,10.2816949 C171.347311,5.69368284 162.99425,-2.84217094e-14 150.165917,-2.84217094e-14 C141.613696,-2.84217094e-14 91.5583899,-2.84217094e-14 -5.68434189e-14,-2.84217094e-14 Z" id="Path" fill="#FF0000"></path>
            <path d="M246.891473,1.99764994 C252.752232,1.99764994 439.528648,1.99764994 445.601471,1.99764994 C451.674294,1.99764994 454.161963,6.46062437 450.390594,9.97005535 C446.619225,13.4794863 365.820802,89.9769585 358.951859,96.4947114 C352.082916,103.012464 341.940215,103.012464 333.75516,95.3481747 C325.570105,87.6838852 244.92383,12.9541195 241.932548,9.50207571 C238.941267,6.0500319 241.030714,1.99764994 246.891473,1.99764994 Z" id="Path-2" fill="#A0A0A0"></path>
            <path d="M879.791839,0.334794964 C880.797645,0.334794964 891.45385,0.334794964 911.760454,0.334794964 C942.220359,0.334794964 962.767977,44.7697876 937.756741,69.1532756 C912.745505,93.5367637 549.911708,431.475943 534.132288,446.50358 C518.352867,461.531216 493.23832,458.9115 482.709302,450.147879 C475.689956,444.305465 461.405655,431.083955 439.856401,410.483351 L879.791839,0.334794964 Z" id="Path-3" fill="#A0A0A0"></path>
            <polygon id="Path-4" fill="#F9F9F9" points="726.654795 0 362.708779 339.708834 439.856401 410.483351 879.791839 0.334794964"></polygon>
        </g>
    </g>
</svg>