<svg width="56" height="56" viewBox="0 0 56 56"
  xmlns="http://www.w3.org/2000/svg">
  <style>
    .color-primary {
      fill: var(--primary-color)
    }
  </style>
  <g>
    <path class="color-primary" d="M 27.483927,8.0067226 C 22.723971,8.1305262 18.084051,9.9582129 14.47461,13.284733 9.2245156,18.123306 6.9508366,25.399431 8.5104596,32.371581 10.070083,39.343729 15.22613,44.953878 22.035849,47.087454 28.845567,49.22103 36.275294,47.553099 41.525389,42.714525 46.775484,37.875951 49.049165,30.601782 47.48954,23.629632 45.929917,16.657483 40.773869,11.047334 33.964151,8.9137583 31.836115,8.247016 29.647545,7.9504483 27.483927,8.0067226 Z m 0.516074,1.4094241 c 3.204026,0 6.408596,0.8306673 9.279523,2.4904383 5.741853,3.319543 9.279523,9.454936 9.279523,16.094022 0,10.263135 -8.309768,18.582504 -18.559046,18.582504 -10.249279,0 -18.5570934,-8.319369 -18.5570934,-18.582504 0,-6.639086 3.5357154,-12.774479 9.2775684,-16.094022 2.870927,-1.659771 6.075497,-2.4904383 9.279525,-2.4904383 z m -4.523451,3.0768843 -5.195907,5.311242 h 1.61077 l -3.622279,20.564691 h 5.303423 l 1.55799,-8.849464 h 3.141394 l 0.778018,-4.423754 h -3.141394 l 1.284316,-7.291473 h 1.923541 z m 10.268661,5.311242 -1.284315,7.291473 H 29.319503 L 28.541486,29.5195 h 3.139437 l -1.55799,8.849464 h -1.923542 l 3.639872,5.309286 5.197863,-5.309286 h -1.61077 L 39.04668,17.804273 Z" />
  </g>
</svg>
