<svg width="56" height="56" viewBox="0 0 56 56"
  xmlns="http://www.w3.org/2000/svg">
  <g>
    <path fill="var(--v-primary-base, #32E0DF)" d="M 16.775812,39.116029 H 11.84904 c -2.5557625,0 -3.8490401,-1.293278 -3.8490401,-3.818248 v -23.43296 c 0,-2.4941775 1.32407,-3.8182475 3.7874561,-3.8182475 h 23.617713 c 2.463386,0 3.787456,1.32407 3.787456,3.8182475 v 4.742018 c 0,0.03079 0.06159,0.09238 0.123169,0.277131 0.985355,0 2.032294,-0.03079 3.079233,0 1.046939,0.03079 2.001501,-0.06158 2.956063,0.123169 a 3.1408171,3.1408171 0 0 1 2.64814,3.17161 v 24.449106 c -0.03079,1.939916 -1.478032,3.325571 -3.510325,3.325571 H 20.286137 c -2.032293,-0.03079 -3.387155,-1.354862 -3.479532,-3.356364 -0.06159,-0.892977 -0.03079,-1.785954 -0.03079,-2.678932 z m 4.403303,0 v 2.648141 c 0,1.416446 0.4003,1.816746 1.847539,1.816746 h 18.721734 c 1.508824,0 1.878332,-0.4003 1.878332,-1.939917 V 23.257981 c 0,-1.662785 -0.338716,-2.032293 -1.970709,-2.032293 H 23.858047 c -2.586555,0 -2.678932,0.09238 -2.678932,2.64814 0,1.601201 0.338715,1.939916 1.970709,1.939916 h 12.470891 c 2.24784,0 3.57191,1.32407 3.602702,3.57191 0.03079,2.24784 -0.03079,3.97221 -0.03079,5.973711 -0.03079,2.463386 -1.32407,3.756664 -3.818248,3.756664 z m 13.641,-22.232059 v -2.555763 c 0,-1.508823 -0.4003,-1.909124 -1.939917,-1.909124 H 14.250842 c -1.508824,0 -1.878332,0.400301 -1.878332,1.939918 v 18.444601 c 0,1.601201 0.369508,1.970709 1.970709,1.970709 h 17.705587 c 2.709724,0 2.771309,-0.09238 2.771309,-2.832894 0,-1.385655 -0.4003,-1.785955 -1.755163,-1.785955 H 20.409307 c -2.278632,0 -3.664287,-1.354862 -3.664287,-3.664286 0,-2.309425 0.03079,-3.910626 0.03079,-5.850542 0.03079,-2.463386 1.354862,-3.756664 3.818248,-3.756664 z" />
  </g>
</svg>
