<svg xmlns="http://www.w3.org/2000/svg" width="56" height="56" viewBox="0 0 56 56">
  <path fill="var(--v-primary-base, #dfff3e)" d="M27.484 8.007a19.96 19.96 0 0 0-13.01 5.278 20.02 20.02 0 0 0-5.963 19.087 19.99 19.99 0 0 0 13.525 14.716 19.95 19.95 0 0 0 19.49-4.374A20.01 20.01 0 0 0 47.49 23.63 19.99 19.99 0 0 0 33.964 8.914a20 20 0 0 0-6.48-.907M28 9.417c3.204 0 6.409.83 9.28 2.49A18.59 18.59 0 0 1 46.558 28c0 10.263-8.31 18.582-18.559 18.582S9.443 38.263 9.443 28.001a18.59 18.59 0 0 1 9.278-16.094A18.53 18.53 0 0 1 28 9.416m-4.523 3.077-5.196 5.311h1.61L16.27 38.37h5.304l1.558-8.85h3.14l.779-4.423H23.91l1.284-7.292h1.923zm10.268 5.311-1.284 7.292h-3.142l-.778 4.423h3.14l-1.558 8.85h-1.924l3.64 5.31 5.198-5.31h-1.61l3.62-20.565Z"/>
</svg>
