<svg xmlns="http://www.w3.org/2000/svg" width="56" height="56" viewBox="0 0 56 56">
  <path fill="var(--v-primary-offset-base, #171717)" d="m27.998 43.103-7.49-4.383-8.644-24.34 11.833-6.797-6.127 8.991 6.76 18.969 3.668 2.149zm-.002-29.432.002 22.799-2.803-1.642-5.8-16.274Zm-14.26 9.014 3.64 10.182-.798 2.242-2.84-1.654zm4.17 11.668 2.107 5.896-1.167 3.104 3.498 5.065-7.837-4.51z"/>
  <path fill="var(--v-primary-base, #000000)" d="m27.998 43.103 7.489-4.383 8.645-24.34-11.834-6.797 6.127 8.991-6.76 18.969-3.667 2.149ZM28 13.671l-.002 22.799 2.803-1.642 5.8-16.274Zm14.259 9.014L38.62 32.867l.798 2.242 2.84-1.654zm-4.17 11.668-2.107 5.896 1.168 3.104-3.498 5.065 7.837-4.51z"/>
</svg>
