<?xml version="1.0" encoding="UTF-8" standalone="no"?>
<svg width="56" height="56" viewBox="0 0 56 56"
  xmlns="http://www.w3.org/2000/svg">
  <g>
    <path fill="var(--v-primary-base, #E05D2D)" d="m36 15.8c-0.376 0-0.753 0.0523-1.13 0.154-0.376 0.102-0.713 0.257-1.01 0.469-0.298 0.212-0.54 0.476-0.723 0.793-0.184 0.317-0.275 0.692-0.275 1.12 0 0.384 0.0718 0.71 0.217 0.98 0.145 0.27 0.335 0.495 0.57 0.676 0.235 0.18 0.501 0.327 0.799 0.441 0.298 0.114 0.603 0.211 0.916 0.289 0.305 0.086 0.606 0.163 0.904 0.234 0.298 0.07 0.564 0.152 0.799 0.246 0.235 0.094 0.425 0.212 0.57 0.354 0.145 0.141 0.217 0.326 0.217 0.553 0 0.211-0.0551 0.384-0.164 0.521-0.109 0.132-0.245 0.24-0.41 0.318-0.164 0.078-0.341 0.132-0.529 0.16-0.188 0.028-0.364 0.041-0.529 0.041-0.243 0-0.478-0.0289-0.705-0.0879-0.227-0.059-0.424-0.15-0.592-0.271-0.169-0.121-0.305-0.279-0.406-0.475-0.102-0.196-0.152-0.435-0.152-0.717h-1.79c-8e-3 0.517 0.0852 0.962 0.281 1.34 0.196 0.376 0.46 0.685 0.793 0.928s0.716 0.421 1.15 0.535c0.434 0.114 0.884 0.17 1.35 0.17 0.572 0 1.07-0.0662 1.51-0.199 0.435-0.133 0.8-0.32 1.09-0.559 0.294-0.239 0.515-0.523 0.664-0.852s0.223-0.684 0.223-1.07c0-0.47-0.101-0.857-0.301-1.16-0.2-0.301-0.437-0.541-0.711-0.721-0.274-0.18-0.55-0.312-0.828-0.395-0.278-0.082-0.495-0.139-0.652-0.17-0.525-0.133-0.948-0.244-1.27-0.33s-0.582-0.172-0.766-0.258-0.306-0.179-0.369-0.281c-0.063-0.102-0.0938-0.234-0.0938-0.398 0-0.18 0.0392-0.33 0.117-0.447 0.078-0.118 0.177-0.214 0.299-0.293 0.121-0.078 0.257-0.133 0.406-0.164s0.297-0.0469 0.445-0.0469c0.227 0 0.437 0.0196 0.629 0.0586s0.363 0.105 0.512 0.199c0.149 0.094 0.267 0.224 0.357 0.389 0.09 0.164 0.144 0.372 0.16 0.623h1.79c0-0.486-0.0914-0.898-0.275-1.24-0.184-0.341-0.433-0.623-0.746-0.842-0.313-0.219-0.673-0.377-1.08-0.475-0.403-0.098-0.823-0.148-1.26-0.148zm-20 0.195v8.39h1.84v-3.28h1.85c0.462 0 0.794 0.102 0.998 0.305 0.204 0.204 0.336 0.525 0.398 0.963 0.047 0.337 0.0834 0.689 0.107 1.06 0.024 0.368 0.0855 0.684 0.188 0.951h1.84c-0.086-0.117-0.15-0.259-0.193-0.428-0.043-0.168-0.0748-0.347-0.0938-0.535-0.02-0.188-0.033-0.373-0.041-0.553-8e-3 -0.18-0.0174-0.336-0.0254-0.469-0.016-0.211-0.0449-0.424-0.0879-0.635s-0.111-0.405-0.205-0.582c-0.094-0.176-0.216-0.328-0.365-0.457s-0.336-0.226-0.562-0.289v-0.0234c0.47-0.188 0.808-0.462 1.02-0.822 0.207-0.36 0.311-0.787 0.311-1.28 0-0.321-0.0569-0.62-0.17-0.898-0.114-0.278-0.278-0.523-0.494-0.734-0.215-0.211-0.474-0.377-0.775-0.498-0.302-0.121-0.64-0.184-1.02-0.184h-4.52zm-7.81 0.00195v8.39h1.84v-3.01h0.00195 1.94c0.525 0 0.97-0.0755 1.34-0.229s0.669-0.354 0.9-0.605c0.231-0.251 0.398-0.538 0.504-0.863s0.16-0.655 0.16-0.992c0-0.345-0.0542-0.678-0.16-1-0.106-0.321-0.273-0.606-0.504-0.857-0.231-0.251-0.532-0.452-0.9-0.605s-0.814-0.229-1.34-0.229h-3.78zm16.2 0v5.21c0 1.14 0.311 1.99 0.934 2.54 0.622 0.549 1.5 0.822 2.64 0.822 1.12 0 2-0.276 2.63-0.828 0.634-0.552 0.951-1.4 0.951-2.53v-5.22h-1.84v5.22c0 0.627-0.124 1.09-0.375 1.38-0.251 0.294-0.705 0.441-1.36 0.441-0.376 0-0.676-0.0522-0.9-0.158-0.223-0.106-0.396-0.244-0.521-0.412s-0.209-0.362-0.248-0.582c-0.039-0.219-0.0586-0.442-0.0586-0.67v-5.21h-1.84zm18.6 0-3.17 8.39h1.86l0.658-1.87h3.14l0.635 1.87h1.91l-3.14-8.39h-1.89zm-33 1.43h1.43c0.211 0 0.415 0.0159 0.611 0.0469s0.369 0.0916 0.518 0.182c0.149 0.09 0.267 0.218 0.357 0.383 0.09 0.164 0.135 0.38 0.135 0.646 0 0.266-0.0448 0.481-0.135 0.645-0.09 0.164-0.209 0.293-0.357 0.383-0.149 0.09-0.322 0.151-0.518 0.182s-0.399 0.0469-0.611 0.0469h-1.43v-2.51zm7.81 0h2.02c0.423 0 0.741 0.0914 0.953 0.275 0.211 0.184 0.316 0.48 0.316 0.887 0 0.423-0.105 0.728-0.316 0.916-0.211 0.188-0.53 0.283-0.953 0.283h-2.02v-2.36zm26.1 0.635h0.0215l1.06 3.08h-2.17l1.09-3.08zm-35.8 7.3v9.5h39.8v-9.5h-39.8zm12.7 2.32c0.247 0 0.482 0.029 0.709 0.084s0.428 0.144 0.605 0.268c0.176 0.123 0.316 0.28 0.42 0.471 0.103 0.192 0.156 0.424 0.156 0.697h-1c-9e-3 -0.141-0.0398-0.258-0.0898-0.35-0.051-0.092-0.117-0.166-0.201-0.219s-0.18-0.0893-0.287-0.111c-0.108-0.022-0.227-0.0332-0.355-0.0332-0.084 0-0.166 0.0103-0.25 0.0273-0.084 0.018-0.161 0.0478-0.229 0.0918s-0.124 0.1-0.168 0.166-0.0664 0.149-0.0664 0.25c0 0.093 0.0177 0.167 0.0527 0.225 0.035 0.057 0.104 0.111 0.207 0.16s0.249 0.0965 0.432 0.145c0.183 0.049 0.422 0.111 0.717 0.186 0.088 0.018 0.21 0.0497 0.367 0.0957 0.156 0.046 0.311 0.12 0.465 0.221 0.154 0.101 0.287 0.237 0.4 0.406 0.112 0.17 0.168 0.386 0.168 0.65 0 0.216-0.041 0.417-0.125 0.602s-0.208 0.345-0.373 0.479c-0.165 0.134-0.37 0.239-0.615 0.314-0.245 0.075-0.529 0.111-0.85 0.111-0.26 0-0.511-0.0317-0.756-0.0957s-0.46-0.164-0.648-0.301c-0.187-0.137-0.335-0.31-0.445-0.521s-0.164-0.464-0.16-0.754h1c0 0.159 0.0289 0.294 0.0859 0.404s0.134 0.199 0.229 0.268c0.095 0.068 0.206 0.119 0.334 0.152 0.128 0.033 0.26 0.0488 0.396 0.0488 0.093 0 0.192-0.00844 0.297-0.0234 0.106-0.015 0.205-0.0439 0.297-0.0879 0.093-0.044 0.169-0.105 0.23-0.182 0.062-0.077 0.0937-0.176 0.0938-0.295 9.99e-4 -0.128-0.0401-0.232-0.121-0.311-0.082-0.079-0.187-0.144-0.32-0.197-0.132-0.053-0.282-0.101-0.449-0.141-0.168-0.04-0.338-0.0829-0.51-0.131-0.176-0.044-0.349-0.0981-0.516-0.162s-0.315-0.146-0.447-0.248c-0.132-0.101-0.239-0.229-0.32-0.381-0.082-0.152-0.123-0.335-0.123-0.551 0-0.242 0.0532-0.453 0.156-0.631s0.237-0.328 0.404-0.447 0.357-0.207 0.568-0.264 0.424-0.0859 0.635-0.0859zm18.3 0c0.26 0 0.505 0.0373 0.736 0.111 0.231 0.075 0.438 0.183 0.621 0.326s0.334 0.321 0.453 0.533c0.119 0.211 0.194 0.454 0.225 0.727h-1c-0.018-0.119-0.0552-0.229-0.117-0.328-0.062-0.099-0.14-0.185-0.232-0.26-0.093-0.075-0.197-0.134-0.314-0.176s-0.237-0.0625-0.365-0.0625c-0.234 0-0.433 0.0448-0.596 0.135s-0.294 0.212-0.396 0.363c-0.101 0.152-0.175 0.326-0.221 0.52s-0.0703 0.393-0.0703 0.6c0 0.198 0.0243 0.391 0.0703 0.578s0.12 0.356 0.221 0.506c0.101 0.15 0.232 0.271 0.396 0.361 0.163 0.09 0.362 0.135 0.596 0.135 0.317 0 0.564-0.097 0.742-0.291 0.178-0.194 0.287-0.448 0.326-0.766h1c-0.026 0.295-0.0951 0.561-0.205 0.799s-0.256 0.442-0.436 0.609c-0.181 0.168-0.391 0.295-0.633 0.383-0.242 0.088-0.51 0.131-0.801 0.131-0.361 0-0.686-0.0625-0.975-0.188-0.289-0.126-0.532-0.299-0.73-0.52-0.198-0.22-0.349-0.478-0.455-0.775-0.106-0.297-0.16-0.619-0.16-0.963 0-0.35 0.0542-0.677 0.16-0.979 0.106-0.302 0.257-0.564 0.455-0.789s0.442-0.401 0.73-0.529c0.289-0.128 0.614-0.191 0.975-0.191zm-29 0.113h2.54c0.211 0 0.402 0.0336 0.572 0.102 0.17 0.068 0.315 0.162 0.436 0.281s0.215 0.256 0.279 0.412 0.0957 0.327 0.0957 0.508c0 0.278-0.0588 0.517-0.176 0.719-0.117 0.203-0.307 0.357-0.572 0.463v0.0137c0.128 0.035 0.234 0.0891 0.318 0.162s0.15 0.159 0.203 0.258 0.0922 0.207 0.117 0.326c0.024 0.119 0.0398 0.238 0.0488 0.357 4e-3 0.075 0.00967 0.163 0.0137 0.264 4e-3 0.101 0.0124 0.206 0.0234 0.312 0.011 0.106 0.0287 0.206 0.0527 0.301s0.0614 0.174 0.109 0.24h-1.04c-0.057-0.15-0.0915-0.328-0.105-0.535-0.013-0.207-0.0335-0.406-0.0605-0.596-0.035-0.247-0.11-0.426-0.225-0.541s-0.303-0.172-0.562-0.172h-1.04v1.84h-1.04v-4.72zm4.76 0h3.53v0.871h-2.49v1.01h2.29v0.807h-2.29v1.16h2.54v0.871h-3.58v-4.72zm8.54 0h3.53v0.871h-2.49v1.01h2.29v0.807h-2.29v1.16h2.54v0.871h-3.58v-4.72zm5.56 0h1.06l1.76 4.72h-1.08l-0.355-1.05h-1.77l-0.369 1.05h-1.04l1.79-4.72zm3.22 0h0.00391 2.54c0.212 0 0.4 0.0336 0.57 0.102s0.316 0.162 0.438 0.281 0.214 0.256 0.277 0.412c0.064 0.156 0.0957 0.327 0.0957 0.508 0 0.278-0.0588 0.517-0.176 0.719-0.117 0.203-0.307 0.357-0.572 0.463v0.0137c0.128 0.035 0.234 0.0891 0.318 0.162s0.15 0.159 0.203 0.258 0.0922 0.207 0.117 0.326c0.024 0.119 0.0408 0.238 0.0488 0.357 4e-3 0.075 0.00967 0.163 0.0137 0.264 4e-3 0.101 0.0105 0.206 0.0215 0.312 0.011 0.106 0.0307 0.206 0.0547 0.301 0.024 0.095 0.0594 0.174 0.107 0.24h-1.04c-0.057-0.15-0.0915-0.328-0.105-0.535-0.013-0.207-0.0335-0.406-0.0605-0.596-0.035-0.247-0.11-0.426-0.225-0.541s-0.302-0.172-0.562-0.172h-1.04v1.84h-1.04v-4.72zm9.64 0h1.04v1.81h1.91v-1.81h1.04v4.72h-1.04v-2.04h-1.91v2.04h-1.04v-4.72zm-30.7 0.807v1.33h1.14c0.237 0 0.416-0.0542 0.535-0.16 0.119-0.106 0.178-0.279 0.178-0.516 0-0.229-0.0587-0.394-0.178-0.498-0.119-0.103-0.297-0.154-0.535-0.154h-1.14zm22.1 0v1.33h1.14c0.238 0 0.416-0.0542 0.535-0.16 0.119-0.106 0.178-0.279 0.178-0.516 0-0.229-0.0587-0.394-0.178-0.498-0.119-0.103-0.297-0.154-0.535-0.154h-1.14zm-3.75 0.355-0.615 1.73h1.22l-0.594-1.73h-0.0137zm-12.3 6.87c-0.514 0-0.906 0.139-1.18 0.418-0.364 0.33-0.547 0.824-0.547 1.48 0 0.645 0.183 1.14 0.547 1.48 0.271 0.28 0.664 0.418 1.18 0.418 0.514 0 0.906-0.139 1.18-0.418 0.362-0.343 0.545-0.837 0.545-1.48 0-0.658-0.182-1.15-0.545-1.48-0.272-0.279-0.665-0.418-1.18-0.418zm3.49 0.00391c-0.417 0.0124-0.737 0.119-0.959 0.318-0.237 0.213-0.355 0.481-0.355 0.803 0 0.353 0.121 0.611 0.363 0.777 0.143 0.099 0.407 0.191 0.789 0.275l0.389 0.084c0.228 0.049 0.393 0.105 0.498 0.168 0.105 0.065 0.158 0.157 0.158 0.275 0 0.203-0.108 0.343-0.322 0.418-0.113 0.039-0.26 0.0586-0.441 0.0586-0.302 0-0.514-0.0747-0.639-0.223-0.068-0.081-0.114-0.203-0.137-0.367h-0.717c0 0.374 0.135 0.668 0.406 0.881 0.271 0.214 0.642 0.32 1.12 0.32 0.463 0 0.822-0.107 1.08-0.324s0.381-0.49 0.381-0.818c1e-3 -0.319-0.106-0.563-0.32-0.732-0.138-0.109-0.344-0.195-0.621-0.26l-0.631-0.15c-0.243-0.057-0.402-0.105-0.477-0.148-0.117-0.063-0.176-0.158-0.176-0.287 0-0.14 0.0597-0.25 0.178-0.328s0.277-0.117 0.475-0.117c0.178 0 0.327 0.0298 0.447 0.0898 0.18 0.091 0.276 0.245 0.289 0.461h0.723c-0.013-0.382-0.155-0.672-0.426-0.873-0.271-0.201-0.597-0.301-0.98-0.301-0.0287 0-0.0581-8.28e-4 -0.0859 0zm21.6 0c-0.417 0.0124-0.737 0.119-0.959 0.318-0.237 0.213-0.355 0.481-0.355 0.803 0 0.353 0.121 0.611 0.363 0.777 0.143 0.099 0.405 0.191 0.787 0.275l0.389 0.084c0.228 0.049 0.395 0.105 0.5 0.168 0.105 0.065 0.156 0.157 0.156 0.275 0 0.203-0.106 0.343-0.32 0.418-0.113 0.039-0.26 0.0586-0.441 0.0586-0.302 0-0.516-0.0747-0.641-0.223-0.068-0.081-0.114-0.203-0.137-0.367h-0.717c0 0.374 0.137 0.668 0.408 0.881 0.271 0.214 0.642 0.32 1.12 0.32 0.463 0 0.822-0.107 1.08-0.324s0.381-0.49 0.381-0.818c1e-3 -0.319-0.105-0.563-0.32-0.732-0.138-0.109-0.345-0.195-0.621-0.26l-0.631-0.15c-0.243-0.057-0.404-0.105-0.479-0.148-0.117-0.063-0.174-0.158-0.174-0.287 0-0.14 0.0578-0.25 0.176-0.328s0.279-0.117 0.477-0.117c0.178 0 0.325 0.0298 0.445 0.0898 0.18 0.091 0.278 0.245 0.291 0.461h0.723c-0.013-0.382-0.155-0.672-0.426-0.873-0.271-0.201-0.599-0.301-0.982-0.301-0.0287 0-0.0562-8.28e-4 -0.084 0zm-19.5 0.105v3.59h2.72v-0.646h-1.99v-0.924h1.74v-0.625h-1.74v-0.762h1.9v-0.637h-2.63zm7.76 0v3.59h0.746v-1.29h0.748c0.391 0 0.69-0.0887 0.9-0.264 0.21-0.176 0.316-0.475 0.316-0.9 0-0.389-0.104-0.676-0.316-0.861-0.212-0.185-0.496-0.277-0.852-0.277h-1.54zm3.33 0v3.59h0.732v-1.41h0.734c0.209 0 0.352 0.0382 0.428 0.115 0.076 0.076 0.116 0.228 0.119 0.457l0.00391 0.334c2e-3 0.106 0.0132 0.21 0.0332 0.311 0.01 0.049 0.0258 0.113 0.0488 0.193h0.828v-0.0898c-0.074-0.046-0.121-0.114-0.141-0.207-0.013-0.059-0.0195-0.17-0.0195-0.334v-0.242c0-0.252-0.0345-0.438-0.104-0.561-0.069-0.123-0.186-0.218-0.352-0.285 0.198-0.068 0.339-0.185 0.426-0.35 0.086-0.165 0.129-0.334 0.129-0.504 0-0.141-0.0214-0.266-0.0664-0.377-0.044-0.11-0.106-0.212-0.182-0.303-0.092-0.11-0.204-0.193-0.336-0.25-0.132-0.057-0.32-0.0888-0.566-0.0938h-1.72zm3.59 0v2.21c0 0.382 0.0587 0.68 0.178 0.893 0.222 0.39 0.644 0.584 1.27 0.584 0.622 0 1.04-0.194 1.26-0.584 0.118-0.213 0.178-0.511 0.178-0.893v-2.21h-0.762v2.21h-0.00195c0 0.247-0.0299 0.427-0.0879 0.541-0.091 0.201-0.287 0.303-0.59 0.303-0.304 0-0.503-0.102-0.594-0.303-0.058-0.114-0.0859-0.294-0.0859-0.541v-2.21h-0.764zm7.96 0-1.28 3.59h0.785l0.244-0.738h1.32l0.238 0.738h0.814l-1.27-3.59h-0.85zm-31.4 0.00195v2.51c0 0.174-0.0168 0.297-0.0488 0.371-0.053 0.124-0.163 0.184-0.33 0.184-0.168 0-0.277-0.055-0.328-0.168s-0.0799-0.308-0.0859-0.586v-0.084h-0.711v0.084c0 0.423 0.0784 0.755 0.234 1s0.462 0.367 0.918 0.367 0.773-0.151 0.947-0.453c0.103-0.179 0.154-0.421 0.154-0.727v-2.5h-0.75zm12.1 0.00391v3.59h0.746v-1.51h1.59v-0.625h-1.59v-0.826h1.82v-0.631h-2.56zm-8.96 0.521c0.298 0 0.534 0.11 0.709 0.33 0.175 0.22 0.262 0.533 0.262 0.936 0 0.404-0.0877 0.716-0.262 0.936-0.175 0.219-0.412 0.328-0.709 0.328s-0.534-0.109-0.711-0.328c-0.177-0.219-0.268-0.531-0.268-0.936 0-0.405 0.0906-0.718 0.268-0.938 0.177-0.219 0.413-0.328 0.711-0.328zm14.2 0.0977h0.678c0.171 0 0.302 0.0401 0.398 0.119 0.095 0.08 0.145 0.211 0.145 0.398-1e-3 0.187-0.0495 0.324-0.145 0.41-0.095 0.086-0.226 0.129-0.398 0.129h-0.678v-1.06zm3.32 0h0.83c0.154 0 0.269 0.0205 0.346 0.0625 0.137 0.075 0.207 0.221 0.207 0.439 0 0.201-0.0709 0.335-0.213 0.404-0.08 0.039-0.201 0.0586-0.361 0.0586h-0.809v-0.965zm11.2 0.195 0.453 1.41h-0.92l0.467-1.41zm-37.9 0.451v2.32h0.443v-0.217c0.06 0.084 0.116 0.144 0.168 0.178 0.087 0.057 0.201 0.084 0.344 0.084 0.227 0 0.404-0.0867 0.531-0.262 0.127-0.176 0.189-0.397 0.189-0.664 0-0.258-0.0644-0.468-0.193-0.631-0.128-0.164-0.306-0.246-0.533-0.246-0.126 0-0.23 0.0271-0.311 0.0801-0.069 0.042-0.132 0.102-0.189 0.182v-0.826h-0.449zm1.81 0.604 0.631 1.79c3e-3 0.013-0.0073 0.0465-0.0293 0.104-0.023 0.057-0.0463 0.0933-0.0723 0.111-0.027 0.019-0.0616 0.0321-0.102 0.0371s-0.081 0.00591-0.125 0.00391l-0.0566-0.00195v0.359c0.048 3e-3 0.0854 0.00486 0.109 0.00586s0.0557 0.00195 0.0957 0.00195c0.199 0 0.33-0.0401 0.396-0.119 0.066-0.078 0.157-0.281 0.271-0.607l0.588-1.69h-0.477l-0.355 1.27-0.375-1.27h-0.5zm-0.99 0.354c0.162 0 0.274 0.0775 0.334 0.229 0.032 0.08 0.0488 0.181 0.0488 0.303 0 0.152-0.0327 0.275-0.0977 0.369-0.065 0.094-0.154 0.139-0.271 0.139-0.135 0-0.235-0.0475-0.301-0.145-0.066-0.097-0.0996-0.218-0.0996-0.365 0-0.125 0.0168-0.228 0.0488-0.307 0.061-0.148 0.173-0.223 0.338-0.223z"/>
  </g>
</svg>
