<svg xmlns="http://www.w3.org/2000/svg" width="56" height="56" viewBox="0 0 56 56">
  <path fill="var(--v-primary-base, #326799)" d="m48 16.884-8.02-8.18H8v30.612l7.84 7.98H48ZM18.767 42.522l-6.183-6.292V17.973l4.085 4.164v12.415l3.945 4.025H32.79l3.895 3.935H18.767Zm.489-14.282a8.32 8.32 0 1 1 8.32 8.32 8.314 8.314 0 0 1-8.32-8.32m23.97 14.302h-4.494l-5.843-5.953a10.1 10.1 0 0 0 2.936-2.816l3.346 3.376-.02-15.69-3.965-4.046h-15.36l2.416 2.447a9.85 9.85 0 0 0-2.896 2.887l-6.762-6.872v-2.397h24.44l6.202 6.302zM31.94 28.24a4.373 4.373 0 0 1-4.374 4.374 4.373 4.373 0 0 1-4.375-4.374 4.373 4.373 0 0 1 4.375-4.375 4.373 4.373 0 0 1 4.374 4.375"/>
</svg>
