<?xml version="1.0" encoding="utf-8"?>
<!-- Generator: Adobe Illustrator 24.0.1, SVG Export Plug-In . SVG Version: 6.00 Build 0)  -->
<svg version="1.1" id="ZeroG_x5F_logo" xmlns="http://www.w3.org/2000/svg" xmlns:xlink="http://www.w3.org/1999/xlink" x="0px"
	 y="0px" width="31.6px" height="32.7px" viewBox="0 0 31.6 32.7" style="enable-background:new 0 0 31.6 32.7;"
	 xml:space="preserve">
<g id="ZeroG_logo">
	<g>
		<path class="color-primary" d="M17.3,17.4L31.6,7.2c0,0.1,0,0.2,0,0.2c0,1.8,0,3.5,0,5.3c0,2.9,0,5.7,0,8.6c0,0.1-0.1,0.2-0.2,0.3
			c-5.1,3.7-10.3,7.3-15.4,11c-0.1,0-0.1,0.1-0.2,0.1s-0.1-0.1-0.2-0.1C10.5,29,5.3,25.3,0.2,21.7C0.1,21.6,0,21.5,0,21.4
			c0-0.7,0-1.5,0-2.2c0-0.1,0-0.2,0.2-0.3c3.8-2.7,7.5-5.4,11.3-8.1l8.6-6.1l0.1-0.1l0,0l0,0h-15H5c0,0.1,0,0.2,0,0.2
			c0,2.5,0,5,0,7.5v0.1c0,0.1,0,0.2-0.1,0.2c-1.6,1.1-3.1,2.2-4.7,3.4c0,0-0.1,0-0.1,0.1l0,0l0,0V16c0-5.3,0-10.6,0-15.9
			c0,0,0,0,0-0.1h31.5v3.3L7.5,20.5c2.7,2,5.5,3.9,8.2,5.9c0.2-0.1,12.4-8.8,12.4-8.9L17.3,17.4L17.3,17.4z"/>
	</g>
</g>
</svg>
