<svg width="56" height="56" viewBox="0 0 56 56"
  xmlns="http://www.w3.org/2000/svg">
  <g>
    <path fill="#595959" d="m 36.621295,22.291365 c -4e-5,-9e-5 -4e-5,-2.3e-4 -4e-5,-3.3e-4 h 5.75592 c 0,10e-5 0,2.4e-4 0,3.3e-4 z m -11.94062,-7.43891 c -2.90897,1.26572 -4.97705,4.10182 -5.13038,7.43891 h -0.01 v 21.3734 c 0,0.046 -0.005,0.0909 -0.0121,0.13482 0.006,0.0795 0.0106,0.15974 0.0106,0.24096 0,1.63434 -1.32526,2.95927 -2.96002,2.95927 -1.63475,0 -2.96001,-1.32493 -2.96001,-2.95927 0,-0.0984 0.005,-0.19571 0.0144,-0.29164 -0.003,-0.0277 -0.004,-0.0557 -0.004,-0.0841 v -21.42041 c 0,-0.0394 0.004,-0.0779 0.009,-0.11579 0.19394,-5.88379 3.92379,-10.87253 9.13381,-12.90951 l 0.003,0.009 c 0.32268,-0.12015 0.67173,-0.22791 0.99455,-0.22791 1.68214,0 2.97018,1.37157 2.97018,2.97018 0,1.37979 -0.84312,2.51087 -2.05954,2.88246 z" />
    <path fill="#007cc2" d="m 28.005275,36.984185 c -2.15236,0 -4.1938,-0.47379 -6.02691,-1.32145 l 0.005,-0.0101 c -0.99844,-0.45629 -1.69258,-1.46281 -1.69258,-2.63208 0,-1.59791 1.29569,-2.89328 2.89402,-2.89328 0.50075,0 0.97176,0.1272 1.38257,0.35094 1.07317,0.48572 2.26407,0.75707 3.51869,0.75707 4.01174,0 7.37718,-2.76482 8.29636,-6.49276 0.0892,-0.84107 -0.12545,-2.00775 -1.86546,-2.34473 -0.75828,-0.12846 -1.60668,0.10925 -2.0743,1.31027 -0.0449,0.18522 -0.1008,0.36598 -0.16726,0.54169 -0.004,0.0159 -0.008,0.0311 -0.0117,0.0473 -0.002,-5.6e-4 -0.004,-0.002 -0.006,-0.003 -0.66671,1.70799 -2.32091,2.91797 -4.25747,2.91797 -2.52544,0 -4.57273,-2.05671 -4.57273,-4.59376 0,-2.53709 2.04729,-4.5938 4.57273,-4.5938 1.78206,0 3.32488,1.02476 4.07945,2.51909 0.19088,0.26894 0.74616,0.83327 1.95099,0.61738 0.80784,-0.12619 2.11305,-1.12844 1.49623,-2.67298 -0.88238,-1.55883 -2.23984,-2.81341 -3.87641,-3.56565 l 0.0122,-0.0262 c -0.88149,-0.50697 -1.47543,-1.45715 -1.47543,-2.5466 0,-1.62195 1.31551,-2.97858 2.93825,-2.97858 0.6345,0 1.22153,0.24346 1.70182,0.58527 4.49768,2.42909 7.5539,7.1843 7.5539,12.65407 0,7.93841 -6.43633,14.37376 -14.37594,14.37376 z" />
  </g>
</svg>
