<svg width="56" height="56" viewBox="0 0 56 56"
  xmlns="http://www.w3.org/2000/svg">
  <style>
    .color-primary {
      fill: var(--primary-color)
    }
    .color-primary-offset {
      fill: var(--primary-offset-color)
    }
  </style>
  <g>
    <path class="color-primary-offset" d="m 20.018116,31.495061 7.052687,5.865709 c 0.0794,0.06795 0.16483,0.126079 0.254522,0.174091 v 0 l 0.0011,5.68e-4 0.02684,0.01389 0.01021,0.0051 0.01824,0.0089 0.01683,0.0079 0.01266,0.0058 0.02212,0.0098 0.0068,0.0029 c 0.15897,0.06767 0.326918,0.105003 0.495528,0.112375 v 0 l 0.0057,2.83e-4 0.02684,8.51e-4 0.01058,1.89e-4 0.02173,9.5e-5 0.0189,-9.5e-5 0.012,-1.89e-4 0.02816,-9.45e-4 0.004,-9.5e-5 c 0.168988,-0.0074 0.337503,-0.0448 0.496945,-0.112847 v 0 l 0.0046,-0.0019 0.02514,-0.01115 0.0096,-0.0044 0.01833,-0.0087 0.01938,-0.0094 0.0083,-0.0043 0.02656,-0.0138 0.0029,-0.0014 c 0.08951,-0.04792 0.174753,-0.105948 0.253955,-0.173807 v 0 L 35.52282,31.876981 38.951249,34.139887 27.999858,45 16.611519,33.70589 Z m 0.247905,-8.773944 6.937005,4.462015 c 0.246677,0.162088 0.521802,0.243179 0.796927,0.243274 0.274841,0 0.549683,-0.0809 0.796549,-0.242896 v 0 l 6.937383,-4.46192 5.304212,2.709191 L 27.999953,36.273786 14.961809,25.430026 Z M 27.999953,11 42.826456,16.45978 27.999953,25.995681 13.173544,16.459023 Z" />
    <path class="color-primary" d="m 27.999953,11 14.826503,5.45978 -14.816768,9.529663 V 11.030244 h -0.09187 z" />
    <path class="color-primary" d="m 35.733885,22.72159 5.304212,2.709191 -13.028409,10.834877 10e-6,-8.839286 c 0.258501,-0.0018 0.51671,-0.07517 0.75135,-0.220272 l 0.03545,-0.02259 z" />
    <path class="color-primary" d="m 35.522744,31.877173 3.428429,2.262906 -10.941485,10.850187 v -7.286795 h 0.0098 l 0.012,-1.89e-4 0.02816,-9.45e-4 0.004,-9.5e-5 c 0.168988,-0.0074 0.337503,-0.0448 0.496944,-0.112847 v 0 l 0.0046,-0.0019 0.02514,-0.01115 0.0096,-0.0044 0.01833,-0.0087 0.01938,-0.0094 0.0083,-0.0043 0.02656,-0.0138 0.0029,-0.0014 c 0.08951,-0.04792 0.174753,-0.105948 0.253954,-0.173807 v 0 z" />
  </g>
</svg>
