<svg width="56" height="56" viewBox="0 0 56 56"
  xmlns="http://www.w3.org/2000/svg">
  <g>
    <path fill="#ff0000" d="M 7.9999999,18.362951 23.288923,32.682378 38.629997,18.362951 c -3.402451,0 -5.311356,0 -5.726714,0 -0.623039,0 -0.948069,0.149782 -1.372849,0.526458 -0.424781,0.376675 -6.310865,5.861216 -6.853379,6.390737 -0.542515,0.529521 -1.690355,0.529521 -2.206409,0.04277 -0.516054,-0.48675 -6.796426,-6.333178 -7.022215,-6.526572 -0.225789,-0.193394 -0.577888,-0.433395 -1.118628,-0.433395 -0.360494,0 -2.470428,0 -6.3298031,0 z" />
    <path fill="#a0a0a0" d="m 18.406984,18.447156 c 0.247043,0 8.120054,0 8.376036,0 0.255982,0 0.360843,0.188124 0.201871,0.336054 -0.15897,0.147929 -3.564791,3.372456 -3.85433,3.647192 -0.28954,0.274737 -0.717076,0.274737 -1.062093,-0.04833 -0.345018,-0.323065 -3.744423,-3.473079 -3.870512,-3.61859 -0.126089,-0.145511 -0.03801,-0.316327 0.209028,-0.316327 z" />
    <path fill="#a0a0a0" d="m 45.085039,18.377064 c 0.0424,0 0.491577,0 1.347542,0 1.283949,0 2.150073,1.873026 1.095798,2.90084 -1.054275,1.027815 -16.348468,15.272647 -17.013602,15.906093 -0.665136,0.633446 -1.723765,0.523019 -2.167586,0.153615 -0.295879,-0.24627 -0.897991,-0.803584 -1.806338,-1.671942 z"/>
    <path fill="#f9f9f9" d="M 38.629997,18.362951 23.288923,32.682378 26.540853,35.66567 45.085039,18.377064 Z" />
  </g>
</svg>
