<svg xmlns="http://www.w3.org/2000/svg" width="56" height="56" viewBox="0 0 56 56">
  <path fill="var(--v-primary-base, #e05d2d)" d="M36 15.8q-.564 0-1.13.154a3.1 3.1 0 0 0-1.01.469q-.448.318-.723.793-.275.477-.275 1.12 0 .576.217.98.218.405.57.676.352.27.799.441.447.172.916.289.457.128.904.234.447.105.799.246t.57.354a.74.74 0 0 1 .217.553.8.8 0 0 1-.164.521 1.2 1.2 0 0 1-.41.318 1.9 1.9 0 0 1-.529.16 4 4 0 0 1-.529.041 2.8 2.8 0 0 1-.705-.088 1.8 1.8 0 0 1-.592-.27 1.3 1.3 0 0 1-.406-.476 1.54 1.54 0 0 1-.152-.717h-1.79q-.013.774.281 1.34.294.564.793.928c.499.364.716.421 1.15.535q.651.17 1.35.17c.572 0 1.07-.066 1.51-.199q.654-.2 1.09-.559.44-.358.664-.852c.224-.494.223-.684.223-1.07q0-.705-.301-1.16a2.5 2.5 0 0 0-.711-.72 3.2 3.2 0 0 0-.828-.396 8 8 0 0 0-.652-.17q-.787-.2-1.27-.33c-.483-.13-.582-.172-.766-.258s-.306-.179-.369-.28a.75.75 0 0 1-.094-.399q0-.27.117-.447.116-.176.3-.293.18-.117.405-.164c.225-.047.297-.047.445-.047q.34 0 .63.059c.29.059.362.105.511.199q.224.141.357.389.136.246.16.623h1.79q0-.728-.275-1.24a2.4 2.4 0 0 0-.746-.842 3.2 3.2 0 0 0-1.08-.475 5.3 5.3 0 0 0-1.26-.148zm-20 .195v8.39h1.84v-3.28h1.85q.692 0 .998.305.306.306.398.963.07.504.107 1.06.036.551.188.951h1.84a1.2 1.2 0 0 1-.193-.428 4 4 0 0 1-.094-.535 9 9 0 0 1-.04-.553l-.026-.469q-.024-.317-.088-.635c-.064-.318-.111-.405-.205-.582q-.141-.264-.365-.457c-.224-.193-.336-.226-.562-.289v-.023q.704-.282 1.02-.822.31-.54.31-1.28 0-.481-.17-.898a2.2 2.2 0 0 0-.493-.734 2.3 2.3 0 0 0-.775-.498 2.7 2.7 0 0 0-1.02-.184H16zm-7.81.002v8.39h1.84v-3.01h1.942q.786 0 1.34-.229c.554-.229.669-.354.9-.605q.346-.376.504-.863c.158-.487.16-.655.16-.992q0-.517-.16-1a2.3 2.3 0 0 0-.504-.857q-.347-.376-.9-.605c-.553-.229-.814-.229-1.34-.229h-3.78zm16.2 0v5.21c0 1.14.311 1.99.934 2.54q.932.823 2.64.822c1.12 0 2-.276 2.63-.828.634-.552.951-1.4.951-2.53v-5.22h-1.84v5.22c0 .627-.124 1.09-.375 1.38q-.377.44-1.36.44-.564.001-.9-.157-.334-.16-.521-.412a1.1 1.1 0 0 1-.248-.582 4 4 0 0 1-.059-.67V16h-1.84zm18.6 0-3.17 8.39h1.86l.658-1.87h3.14l.635 1.87h1.91l-3.14-8.39h-1.89zm-33 1.43h1.43q.317 0 .611.047c.294.047.369.091.518.182q.223.135.357.383.135.247.135.646 0 .398-.135.645a1 1 0 0 1-.357.383q-.224.134-.518.182c-.294.048-.399.047-.611.047H9.99v-2.51zm7.81 0h2.02q.635 0 .953.275.316.276.316.887 0 .634-.316.916-.317.282-.953.283H17.8zm26.1.635h.022l1.06 3.08h-2.17l1.09-3.08zm-35.8 7.3v9.5h39.8v-9.5zm12.7 2.32q.37 0 .709.084c.339.084.428.144.605.268q.264.184.42.471.155.288.156.697h-1a.84.84 0 0 0-.09-.35q-.075-.139-.2-.219c-.126-.08-.18-.09-.288-.111a2 2 0 0 0-.355-.033q-.125 0-.25.027-.126.026-.229.092c-.103.066-.124.1-.168.166s-.066.149-.066.25q0 .139.053.225.052.085.207.16c.155.075.249.096.432.145q.274.073.717.186.132.027.367.096.233.07.465.22.23.153.4.407.168.255.168.65 0 .324-.125.602c-.125.278-.208.345-.373.479a1.8 1.8 0 0 1-.615.314 3 3 0 0 1-.85.11q-.39 0-.756-.095c-.366-.095-.46-.164-.648-.301q-.28-.205-.445-.521c-.165-.316-.164-.464-.16-.754h1q0 .239.085.404c.085.165.134.199.23.268a1 1 0 0 0 .333.152q.192.05.396.049.14 0 .297-.024.159-.022.297-.088a.64.64 0 0 0 .23-.182.46.46 0 0 0 .094-.295.4.4 0 0 0-.12-.31 1 1 0 0 0-.32-.198 3 3 0 0 0-.45-.14q-.252-.06-.51-.132-.265-.066-.516-.162a1.4 1.4 0 0 1-.447-.248 1.2 1.2 0 0 1-.32-.38 1.14 1.14 0 0 1-.123-.552q0-.364.156-.63c.156-.267.237-.329.404-.448s.357-.207.568-.264.424-.086.635-.086zm18.3 0q.39 0 .736.111.346.112.621.326c.275.214.334.321.453.533q.178.317.225.727h-1a.9.9 0 0 0-.117-.328 1.06 1.06 0 0 0-.546-.436 1.1 1.1 0 0 0-.365-.063q-.351 0-.596.135c-.245.135-.294.212-.396.363q-.152.229-.221.52c-.069.291-.07.393-.07.6q0 .297.07.578c.07.281.12.356.221.506q.15.226.396.361.245.135.596.135.475 0 .742-.29.267-.291.326-.767h1q-.04.442-.205.8c-.165.357-.256.441-.436.608a1.8 1.8 0 0 1-.633.383q-.364.132-.801.131-.541 0-.975-.188a2.1 2.1 0 0 1-.73-.52 2.3 2.3 0 0 1-.455-.775 2.9 2.9 0 0 1-.16-.963q0-.526.16-.979.159-.452.455-.789c.296-.337.442-.4.73-.529q.434-.191.975-.19m-29 .113h2.54q.317 0 .572.102t.436.281c.181.179.215.256.279.412s.096.327.096.508q-.001.416-.176.719-.175.304-.572.463v.014a.8.8 0 0 1 .52.42q.08.148.118.326.036.179.049.357.007.112.013.264.007.152.024.312.015.159.052.3c.037.142.062.175.11.24h-1.04a2 2 0 0 1-.106-.534 8 8 0 0 0-.06-.596q-.053-.37-.225-.541c-.172-.171-.303-.172-.562-.172h-1.04v1.84h-1.04v-4.72zm4.76 0h3.53v.871H15.9v1.01h2.29v.807H15.9v1.16h2.54v.871h-3.58zm8.54 0h3.53v.871h-2.49v1.01h2.29v.807h-2.29v1.16h2.54v.871H23.4zm5.56 0h1.06l1.76 4.72H30.7l-.355-1.05h-1.77l-.369 1.05h-1.04l1.79-4.72zm3.22 0h2.544q.317 0 .57.102c.253.102.316.162.438.281s.214.256.277.412q.096.235.096.508-.001.416-.176.719-.175.304-.572.463v.014a.8.8 0 0 1 .52.42q.08.148.118.326.036.179.048.357.007.112.014.264.005.152.022.312.017.159.054.3.036.143.107.24H35.2a2 2 0 0 1-.105-.534 8 8 0 0 0-.06-.596q-.052-.37-.225-.541c-.173-.171-.302-.172-.562-.172h-1.04v1.84h-1.04v-4.72zm9.64 0h1.04v1.81h1.91v-1.81h1.04v4.72h-1.04v-2.04h-1.91v2.04h-1.04zm-30.7.807v1.33h1.14q.356 0 .535-.16.178-.16.178-.516 0-.343-.178-.498t-.535-.154h-1.14zm22.1 0v1.33h1.14q.357 0 .535-.16t.178-.516q0-.343-.178-.498t-.535-.154h-1.14zm-3.75.355-.615 1.73h1.22l-.594-1.73h-.014zm-12.3 6.87q-.77 0-1.18.418-.547.495-.547 1.48 0 .969.547 1.48.406.419 1.18.418.77 0 1.18-.418.544-.515.545-1.48 0-.986-.545-1.48-.408-.418-1.18-.418m3.49.004q-.626.019-.959.318a1.03 1.03 0 0 0-.355.803q0 .528.363.777.215.148.789.275l.389.084q.341.074.498.168a.31.31 0 0 1 .158.275q0 .305-.322.418a1.4 1.4 0 0 1-.441.058q-.452 0-.639-.223a.7.7 0 0 1-.137-.367h-.717q0 .561.406.881.405.32 1.12.32.694 0 1.08-.324c.386-.324.381-.49.381-.818q.001-.479-.32-.732-.206-.163-.621-.26l-.631-.15q-.364-.085-.477-.148a.31.31 0 0 1-.176-.287q0-.21.178-.328c.178-.118.277-.117.475-.117q.267 0 .447.09.27.137.289.461h.723q-.02-.572-.426-.873-.406-.3-.98-.3-.044-.002-.086 0zm21.6 0q-.626.019-.959.318a1.03 1.03 0 0 0-.355.803q0 .528.363.777.214.148.787.275l.389.084q.342.074.5.168a.31.31 0 0 1 .156.275q0 .305-.32.418a1.4 1.4 0 0 1-.441.058q-.453 0-.641-.223a.7.7 0 0 1-.137-.367h-.717q0 .561.408.881.405.32 1.12.32.694 0 1.08-.324c.386-.324.381-.49.381-.818q.002-.479-.32-.732-.207-.163-.621-.26l-.631-.15q-.365-.085-.479-.148a.31.31 0 0 1-.174-.287q0-.21.176-.328c.176-.118.279-.117.477-.117q.266 0 .445.09.27.137.291.461h.723q-.02-.572-.426-.873-.407-.3-.982-.3-.043-.002-.084 0zm-19.5.105v3.59h2.72v-.646h-1.99v-.924h1.74v-.625h-1.74v-.762h1.9v-.637h-2.63zm7.76 0v3.59h.746v-1.29h.748q.586 0 .9-.264.316-.263.316-.9.001-.584-.316-.861-.318-.277-.852-.277h-1.54zm3.33 0v3.59h.732v-1.41h.734q.314 0 .428.115.114.114.119.457l.004.334a1.8 1.8 0 0 0 .082.504h.828v-.09a.3.3 0 0 1-.141-.207 2 2 0 0 1-.02-.334v-.242q0-.378-.104-.56a.67.67 0 0 0-.352-.286.72.72 0 0 0 .426-.35 1.08 1.08 0 0 0 .063-.88 1.1 1.1 0 0 0-.182-.304.9.9 0 0 0-.336-.25q-.197-.086-.566-.094h-1.72zm3.59 0v2.21q0 .573.178.893.332.585 1.27.584.931 0 1.26-.584.177-.32.178-.893v-2.21h-.762v2.21h-.002q0 .37-.088.54-.135.303-.59.304-.457 0-.594-.303-.086-.17-.086-.541v-2.21zm7.96 0-1.28 3.59h.785l.244-.738h1.32l.238.738h.814l-1.27-3.59h-.85zm-31.4.002v2.51q0 .26-.049.37-.08.186-.33.185-.252 0-.328-.168c-.076-.168-.08-.308-.086-.586v-.084h-.71v.084q0 .634.233 1c.233.366.462.367.918.367s.773-.151.947-.453q.154-.269.154-.727v-2.5H14zm12.1.004v3.59h.746v-1.51h1.59v-.625h-1.59v-.826h1.82v-.631h-2.56zm-8.96.52q.447 0 .709.33.262.331.262.937t-.262.936q-.263.328-.709.328c-.446 0-.534-.11-.711-.328q-.267-.33-.268-.936 0-.608.268-.938a.87.87 0 0 1 .711-.328m14.2.098h.678q.255 0 .398.12.144.118.145.397-.002.28-.145.41-.141.13-.398.13h-.678v-1.06zm3.32 0h.83q.23 0 .346.063.206.111.207.439 0 .3-.213.404a.9.9 0 0 1-.361.059h-.809zm11.2.195.453 1.41h-.92zm-37.9.451v2.32h.443v-.217q.09.127.168.178a.6.6 0 0 0 .344.084.62.62 0 0 0 .531-.262q.19-.264.189-.664 0-.387-.193-.63a.64.64 0 0 0-.533-.247.56.56 0 0 0-.311.08.7.7 0 0 0-.189.183v-.826H7.96zm1.81.604.631 1.79q.004.019-.03.104-.033.086-.072.111-.04.03-.102.038c-.062.008-.08.005-.125.003l-.056-.002v.36l.205.007q.298 0 .396-.119.1-.117.27-.607l.589-1.69h-.477l-.355 1.27-.375-1.27h-.5zm-.99.354q.244.001.334.23.049.12.049.302a.64.64 0 0 1-.098.37.31.31 0 0 1-.27.138q-.203.001-.302-.145a.63.63 0 0 1-.1-.365.8.8 0 0 1 .05-.307.34.34 0 0 1 .337-.223"/>
</svg>
