<svg width="56" height="56" viewBox="0 0 56 56"
  xmlns="http://www.w3.org/2000/svg">
  <g>
    <path fill="var(--v-logo-base, #000000)" d="m 15.12158,18.231485 c 2.627872,-3.463604 6.544278,-5.724183 10.857868,-6.266814 v 5.982799 l -8.040642,1.911908 z m 2.039025,5.816543 10.841703,-2.57923 5.101028,1.251515 -20.002309,11.547654 c -1.688026,-4.008544 -1.685717,-8.525081 0,-12.535935 z m 5.738367,9.231658 20.000001,-11.547654 c 1.688025,4.008544 1.688025,8.527391 0,12.535935 L 38.827848,31.917335 28.023091,34.01397 Z m 5.124119,4.775154 10.038102,-1.914217 2.817228,1.627893 c -1.276988,1.68793 -2.851866,3.082607 -4.623024,4.130924 -2.459301,1.457023 -5.295,2.251343 -8.236924,2.25596 C 22.956702,44.16 18.183581,41.797841 15.12158,37.768516 l 2.817226,-1.627893 z m 1.997461,-20.10737 v -5.982799 c 4.315898,0.542631 8.227686,2.800901 10.857869,6.266814 l -2.817228,1.627893 z M 27.999998,7.9999998 C 16.955086,7.9999998 7.9999998,16.95457 7.9999998,28.001153 7.9999998,39.04543 16.955086,48 27.999998,48 39.047223,48 48,39.04543 48,28.001153 48,16.95457 39.047223,7.9999998 27.999998,7.9999998 Z" />
  </g>
</svg>
