<svg xmlns="http://www.w3.org/2000/svg" width="56" height="56" viewBox="0 0 56 56">
  <path fill="var(--v-primary-base, #475a91)" d="m9.875 13.563 3.813 3.812h7.562l1.875 1.875-.937.938-.938.937h-5.687l-3.75-3.75V28.75l3.75-3.812h5.687l.938.937.937.938-.937.937-.938 1h-7.562l-1.876 1.875-1 .938-.937.937-.937.938-.938.937h5.688l.937-.937.938-.938h7.562l1-.937.938-.938.937-.937.938-.938v-3.812l-1.875-1.875.937-1 .938-.938.937-.937.938-.938-.938-.937-.937-.938-1.875-1.937-.938-.938-1-.937zm15.375 0 1 .937.938.938.937 1 .938.937H38.5l1 .938.938.937v5.688l.937.937.938.938 1.874 1.937V17.375l-3.75-3.812zm3.813 7.562v9.5l.937.938.938.937h9.5l.937.938.938.937H48l-.937-.937-.938-.938-.937-.937-1-.938-2.813-2.875-.937-.937H34.75l.938.937.937 1h-3.75v-5.687l-1.937-1.938ZM11.688 39.938l.75.812H14l.375.375-.187.188L14 41.5h-1.187l-.75-.75v2.313l.75-.813H14l.188.188.187.187-.187.25-.188.188h-1.562l-.376.374-.187.188-.187.188-.25.187-.188.188h1.188l.187-.188.188-.187h1.562l.188-.188.187-.187.188-.188.187-.187v-.813l-.375-.375.188-.187.187-.188.188-.187.187-.188-.187-.187-.188-.188-.375-.437-.187-.188-.188-.187Zm10.062 0 .813.812h.75v-.437l-.375-.376zm8.938 0 .187.187.188.188.187.25.25.187h1.875l.188.188.25.187v1.125l.187.188.188.187.374.438V40.75l-.75-.812zm9.687 0 .75.812v2.688l.438.374h1.874l-.75-.75h-.75v-2.75l-.374-.374h-.438Zm3.5 0-.375.374-.062 2.313-.75.063 1.562 1.5h1.125l-1.125-1.126v-2.374l.75-.75Zm-20.937 1.187-.438.375.375.375v1.563l.813.75v-3.063Zm8.562.375v1.938l.188.187.187.188h1.938L34 44l.188.188h1.124L35.126 44l-.187-.187-.188-.188-.187-.187-.563-.563-.187-.25h-1.188l.188.25.187.188h-.75v-1.188l-.375-.375Zm12-29.687v.312h.5v1.438h.375v-1.438h.5v-.312zm1.625 0v1.75h.375v-1a1.1 1.1 0 0 0-.062-.438h.062v.25l.438 1.188h.312l.438-1.188c0-.059.055-.116.062-.227v1.415h.375v-1.75h-.562l-.376 1.062a.5.5 0 0 1-.062.25.38.38 0 0 0-.062-.25l-.376-1.062z"/>
</svg>
