<svg width="56" height="56" viewBox="0 0 56 56"
  xmlns="http://www.w3.org/2000/svg">
  <g>
    <path fill="var(--v-primary-base, #003DFF)" d="M45.49,36.31h-1.54s-.14,0-.22,0c-.11,0-.75-.03-1.07-.54l-11.68-19.3-1.45,3.88,2.84,7.65c.15.3.26.89-.2,1.4l-3.53,3.88c-.22.28-.47.34-.64.34-.29,0-.53-.19-.66-.37l-3.51-3.86c-.46-.51-.35-1.1-.2-1.4l2.84-7.65-1.45-3.88-11.67,19.29c-.34.54-1.01.55-1.08.55h0c-.08,0-.19,0-.22,0h-1.55c-.68,0-1.23-.56-1.23-1.24s.55-1.24,1.23-1.24h1.23s.07-.04.11-.08l12.67-20.94s.36-.41.83-.41c.21,0,.52.08.79.43l.06.11,1.81,4.84,1.88-4.96c.28-.35.58-.43.79-.43.47,0,.79.36.83.41l.04.06,12.63,20.88s.09.07.12.08h1.21c.68,0,1.24.56,1.24,1.24s-.56,1.24-1.24,1.24ZM27.99,22.91l-1.97,5.29s-.02.11.06.2l1.9,2.09,1.9-2.09c.09-.1.08-.17.07-.2l-1.97-5.3ZM8.36,43.52l2.38-3.57.07-.12c.34-.5.51-.83.51-.98,0-.08-.02-.14-.06-.18-.04-.04-.1-.06-.19-.06-.2,0-.45.12-.76.38-.31.25-.77.7-1.37,1.35-.13.13-.28.3-.44.51-.21.26-.35.38-.41.38-.03,0-.04,0-.06-.02-.02-.02-.03-.03-.03-.05,0-.05.03-.11.08-.2.06-.08.17-.22.33-.41l.58-.63c.58-.63,1.03-1.06,1.33-1.28.3-.22.57-.33.82-.33.22,0,.39.08.52.23.13.15.19.37.19.63s-.06.57-.17.88c-.11.32-.3.68-.55,1.09.82-1.04,1.47-1.77,1.95-2.2.48-.43.89-.64,1.22-.64.22,0,.39.07.52.22.14.15.2.33.2.55,0,.32-.06.64-.18.97-.12.33-.31.68-.58,1.07.97-1.1,1.67-1.85,2.12-2.23.45-.39.81-.58,1.09-.58.21,0,.37.08.5.25.13.17.19.38.19.65,0,.46-.3,1.1-.91,1.92-.09.14-.17.24-.22.31-.33.45-.55.79-.66,1.01-.11.22-.17.39-.17.53,0,.11.02.19.07.25.05.06.12.09.22.09.15,0,.4-.13.74-.4.34-.27.74-.65,1.23-1.16.14-.14.3-.32.49-.54.19-.21.31-.32.35-.32.03,0,.06.01.08.03.02.02.04.04.04.06,0,.09-.27.41-.79.96l-.11.11c-.5.52-.92.9-1.26,1.16-.34.25-.6.38-.77.38-.26,0-.47-.12-.63-.36-.16-.24-.24-.55-.24-.94,0-.28.07-.57.22-.88.15-.3.46-.76.95-1.38.07-.08.16-.2.28-.34.35-.44.52-.72.52-.87,0-.08-.02-.14-.05-.17-.03-.03-.08-.05-.15-.05-.26,0-.8.43-1.6,1.28-.81.85-1.78,2.02-2.93,3.51l-1.27.13,2.36-3.57c.24-.36.4-.62.47-.76.07-.14.1-.26.1-.36,0-.08-.02-.14-.06-.17-.04-.03-.11-.05-.2-.05-.47,0-1.82,1.37-4.03,4.12l-.53.66-1.29.13ZM19.57,40.85c-.1.13-.18.23-.24.28-.06.06-.11.08-.16.08-.03,0-.05,0-.07-.01-.02,0-.02-.03-.02-.06,0-.04.06-.14.19-.3.13-.16.3-.36.53-.6.56-.61,1.12-1.09,1.69-1.41.57-.33,1.11-.49,1.63-.49.3,0,.55.08.73.24.18.16.28.36.28.61,0,.51-.33,1-.99,1.47-.66.47-1.55.84-2.66,1.09-.04.22-.06.38-.07.48-.01.1-.02.18-.02.25,0,.27.06.48.19.62.13.15.31.23.54.23.31,0,.64-.1.99-.31.35-.21.77-.55,1.25-1.03.2-.2.41-.43.64-.69.23-.26.37-.39.41-.39.03,0,.05,0,.07.03.02.02.03.04.03.06,0,.05-.05.15-.17.29-.11.14-.36.41-.75.81-.53.54-1,.92-1.41,1.15-.4.23-.79.35-1.16.35-.45,0-.82-.19-1.11-.56-.29-.37-.44-.85-.44-1.42,0-.12,0-.24.03-.37.02-.13.04-.26.08-.4ZM20.55,41.46c.81-.18,1.51-.53,2.09-1.05.58-.52.87-1.02.87-1.48,0-.1-.03-.19-.09-.26-.06-.07-.14-.11-.23-.11-.4,0-.86.28-1.4.84-.53.56-.95,1.25-1.24,2.06ZM25.91,39.49c-.33.34-.66.72-1.01,1.13-.35.41-.56.62-.62.62-.02,0-.05,0-.06-.02-.02-.02-.03-.03-.03-.05,0-.05.03-.11.08-.2.06-.08.17-.22.33-.41l.58-.63c.37-.4.7-.77,1-1.12.3-.35.49-.59.58-.71l4.62-5.49,1.29-.28-6.75,8.95c-.39.61-.63,1.03-.73,1.23-.1.21-.16.37-.16.49,0,.09.03.18.09.25.06.07.14.1.23.1.22,0,.47-.09.74-.28.28-.19.76-.63,1.44-1.32.14-.14.3-.31.48-.52.18-.21.3-.32.35-.32.03,0,.06,0,.08.03.02.02.03.04.03.06,0,.05-.05.14-.15.27-.1.12-.33.37-.68.74-.61.63-1.07,1.05-1.39,1.27-.31.22-.59.33-.84.33-.29,0-.53-.1-.71-.31-.18-.21-.27-.49-.27-.84,0-.48.44-1.39,1.31-2.72l.14-.23ZM29.91,39.49c-.33.34-.66.72-1.01,1.13-.35.41-.56.62-.62.62-.02,0-.04,0-.06-.02-.02-.02-.03-.03-.03-.05,0-.05.03-.11.08-.2.05-.08.17-.22.33-.41l.58-.63c.37-.4.7-.77,1-1.12.3-.35.49-.59.58-.71l3.89-5.53,1.19-.24-5.92,8.95c-.38.61-.63,1.03-.73,1.23-.1.21-.15.37-.15.49,0,.09.03.18.09.25.06.07.14.1.23.1.22,0,.47-.09.74-.28.28-.19.75-.63,1.44-1.32.13-.14.3-.31.48-.52.18-.21.3-.32.35-.32.03,0,.05,0,.07.03.02.02.03.04.03.06,0,.05-.05.14-.15.27-.1.12-.33.37-.68.74-.61.63-1.07,1.05-1.39,1.27-.31.22-.59.33-.84.33-.3,0-.53-.1-.71-.31-.18-.21-.27-.49-.27-.84,0-.48.44-1.39,1.31-2.72l.14-.23ZM36.4,41.84s.04,0,.08.02c.09.02.16.04.21.04.24,0,.49-.07.76-.22.27-.14.52-.34.75-.59l.23-.28s.03-.02.07-.03c.03-.01.06-.02.08-.02s.04,0,.05.03c.01.02.02.05.02.08,0,.03,0,.05,0,.06,0,.01,0,.02-.01.03l-.21.24c-.25.3-.54.54-.86.7-.32.17-.65.25-1,.25-.1,0-.18,0-.25,0-.06,0-.12-.01-.16-.02-.43.47-.86.83-1.27,1.09-.42.26-.8.39-1.13.39-.39,0-.69-.16-.9-.49-.21-.33-.32-.8-.32-1.41,0-.11.01-.24.04-.38.02-.14.06-.29.11-.46-.1.13-.18.23-.24.28-.06.06-.11.08-.15.08-.03,0-.05,0-.07-.01-.02,0-.02-.03-.02-.06,0-.04.05-.11.14-.23.09-.12.29-.35.61-.71.55-.6,1.1-1.06,1.66-1.4.56-.34,1.08-.51,1.54-.51.39,0,.69.12.92.36.23.24.34.56.34.97,0,.32-.08.65-.24,1-.16.35-.41.76-.76,1.22ZM33.34,42.65c0,.22.04.39.14.49.09.11.23.16.42.16.2,0,.46-.1.78-.3.32-.2.63-.46.94-.79.4-.43.71-.88.94-1.36.23-.48.35-.92.35-1.31,0-.29-.06-.51-.18-.67-.12-.16-.29-.25-.51-.25-.27,0-.56.12-.87.37-.31.25-.64.62-.98,1.11-.32.46-.57.92-.75,1.37-.18.45-.27.85-.27,1.18ZM41.87,41.82c-.48.57-.93,1-1.34,1.31-.41.31-.76.46-1.04.46-.3,0-.54-.1-.73-.31-.18-.21-.28-.49-.28-.84,0-.48.44-1.38,1.32-2.7l.13-.19c-.34.33-.69.69-1.02,1.09-.34.4-.54.59-.6.59-.03,0-.04,0-.06-.02-.02-.02-.03-.03-.03-.05,0-.05.03-.11.08-.2.06-.08.17-.22.33-.41l.58-.63c.24-.27.47-.52.69-.74.22-.23.44-.45.66-.67l1.25-.07-1.8,2.83-.12.19c-.51.83-.77,1.34-.77,1.54,0,.09.03.17.08.23.06.07.13.1.21.1.48,0,1.12-.43,1.9-1.27.78-.85,1.62-2.03,2.51-3.55l1.23-.07-2.04,3.22c-.22.35-.37.62-.45.79-.08.18-.12.31-.12.42,0,.16.04.27.11.35.08.08.19.12.34.12.56,0,1.16-.29,1.79-.86.64-.58,1.08-1.27,1.33-2.07.08-.25.14-.6.19-1.06.07-.68.26-1.02.59-1.02.16,0,.29.05.37.15.08.1.12.25.12.46,0,.3-.14.72-.42,1.25-.28.53-.67,1.08-1.15,1.67.02,0,.07,0,.15.03.08.02.14.03.18.03.23,0,.47-.07.73-.22.26-.14.51-.34.74-.59l.24-.28s.03-.03.06-.04c.03,0,.06-.01.08-.01.03,0,.05,0,.06.03,0,.02.01.05.01.08v.07s0,.02-.02.02l-.19.24c-.28.32-.57.55-.89.71-.31.16-.63.24-.97.24-.1,0-.18,0-.24,0-.06,0-.13-.01-.18-.02-.5.47-.99.83-1.46,1.08-.47.25-.89.38-1.26.38-.3,0-.53-.11-.71-.34-.17-.22-.26-.53-.26-.91,0-.06,0-.14.01-.23,0-.09.02-.18.04-.28Z"/>
  </g>
</svg>
