<?xml version="1.0" encoding="UTF-8" standalone="no"?>
<!-- Created with Inkscape (http://www.inkscape.org/) -->

<svg
   width="40"
   height="40"
   viewBox="0 0 40 40"
   version="1.1"
   id="svg1632"
   xmlns="http://www.w3.org/2000/svg"
   xmlns:svg="http://www.w3.org/2000/svg">
  <defs
     id="defs1629" />
  <path
     d="m 19.198787,38.290368 c -1.909311,0 -3.819269,0.02462 -5.72858,-0.0052 C 10.240511,38.234651 7.8848096,36.813196 6.3136938,33.926878 4.4892558,30.574732 2.5041429,27.309403 0.59094502,24.005201 0.4522981,23.765484 0.29486258,23.529007 0.20091958,23.271149 -0.31025995,21.865892 0.14973684,21.07677 1.6295012,20.981532 c 1.1396258,-0.07321 2.2889699,0.01685 3.4337788,0.0058 1.409793,-0.01296 2.3466315,0.702305 3.0081198,1.876268 0.9711763,1.723368 1.9157895,3.462934 2.9200082,5.166865 0.940078,1.595088 1.406553,1.961142 2.620686,1.931339 0.250082,-0.0065 0.621319,0.255914 0.727572,0.493687 0.561066,1.254301 1.44737,1.212189 2.477504,1.20571 2.187252,-0.01296 4.375152,0.01231 6.561757,-0.0298 0.78329,-0.0149 1.328807,0.22028 1.694861,0.928416 0.589573,1.140274 1.257541,2.241675 1.816016,3.396202 0.695826,1.438947 0.182703,2.27666 -1.442835,2.316181 -2.081648,0.05118 -4.165887,0.01231 -6.249478,0.01231 0.0013,0.0026 0.0013,0.0039 0.0013,0.0058 z"
     style="fill:#20a539"
     id="path3851" />
  <path
     d="m 18.46344,1.7303421 c 2.223534,0 4.447067,-0.016197 6.669953,0.00583 1.512159,0.014901 2.262407,1.0152324 1.718186,2.4250253 -0.43473,1.1266682 -0.978951,2.2429703 -1.674777,3.2219212 -0.309688,0.4353773 -1.103345,0.707488 -1.690327,0.7327555 -2.046014,0.087464 -4.097858,0.04276 -6.14776,0.027859 -1.526411,-0.011014 -2.520912,0.1917733 -2.919359,1.5419611 -0.08228,0.2779417 -0.447688,0.5092358 -0.911572,0.5111798 -1.20247,0.0052 -1.51475,0.08099 -2.381617,1.556214 -1.12602,1.916437 -2.2423221,3.840001 -3.3022584,5.793368 C 7.3315177,18.453493 6.6952968,18.859068 5.6509097,18.779378 4.6142972,18.700336 3.565375,18.799462 2.5261709,18.744392 0.65184601,18.645914 -0.16189479,17.385782 0.73542289,15.776441 2.8313237,12.016129 4.9576751,8.2687753 7.2220255,4.6088854 8.4335663,2.6503357 10.256709,1.7206238 12.732269,1.703131 c 1.948183,-0.013605 3.819917,0.022676 5.731171,0.022676 0,6.479e-4 0,0.00259 0,0.00454 z"
     style="fill:#71ba2b"
     id="path3853" />
  <path
     d="m 38.644341,23.538077 c -1.892465,3.437018 -3.992254,6.728911 -5.963761,10.122521 -0.224815,0.386786 -0.49563,0.762558 -0.811149,1.076781 -0.737939,0.734051 -1.617764,0.745065 -2.257224,-0.08293 -0.738586,-0.957571 -1.382582,-1.997422 -1.983817,-3.048936 -0.453518,-0.793657 -0.06673,-1.531595 0.360871,-2.24297 1.216076,-2.023986 2.39911,-4.067409 3.617129,-6.090099 1.184978,-1.740861 0.984134,-2.054436 0.26952,-3.218034 -0.151605,-0.246843 -0.165858,-0.704248 -0.02462,-0.99126 0.5967,-1.218668 0.523489,-1.402667 -0.409462,-2.791079 -0.964049,-1.642383 -1.917085,-3.424061 -2.982852,-5.069035 -1.265315,-1.9527193 -1.429878,-1.8004668 0.05442,-4.6051514 0.0039,-0.00777 0.01037,-0.014253 0.0149,-0.022028 1.687087,-3.1001192 3.077444,-1.9656764 4.288984,0.1341118 1.680608,2.5403484 1.917086,3.0256127 3.496624,5.7110866 0.830586,1.413033 1.696157,2.982853 2.380321,4.098507 1.703932,2.779417 1.794636,3.757072 -0.04989,7.018514 z"
     style="fill:#0a68af"
     id="path3855" />
  <path
     d="m 25.813022,19.275656 c -1.041795,0 -2.084239,-0.02527 -3.124738,0.0058 -1.461624,0.04406 -2.571447,-0.579207 -3.311977,-1.790748 -1.249118,-2.043422 -2.462603,-4.110168 -3.641749,-6.194407 -0.624559,-1.103993 -0.191774,-2.0486058 1.057344,-2.0460143 2.455476,0.00518 4.92067,0.1120838 7.361245,0.3744763 1.383877,0.149013 2.518968,1.056049 3.28347,2.217703 1.199879,1.824438 2.322012,3.704594 3.396849,5.605482 0.537095,0.949796 0.06673,1.731143 -1.063175,1.796579 -1.314555,0.0771 -2.637531,0.01814 -3.956621,0.01814 -6.48e-4,0.0045 -6.48e-4,0.0091 -6.48e-4,0.01296 z"
     style="fill:#21a0d5"
     id="path3857" />
  <path
     d="m 17.998908,21.727893 c -1.191456,2.114689 -2.329787,4.079718 -3.570482,6.165252 -0.78653,1.321681 -1.469398,1.311315 -2.257224,-0.03045 C 10.959661,25.799836 9.800599,23.705879 8.6000722,21.636541 7.9657949,20.543563 7.9560767,19.454472 8.5696217,18.373803 9.750712,16.292804 10.935042,14.2131 12.163428,12.160607 c 0.745065,-1.24523 1.550383,-1.297061 2.263054,-0.08163 1.313907,2.239731 2.117281,3.96893 3.441554,6.203478 0.824754,1.390356 0.763853,2.323308 0.130872,3.445441 z"
     style="fill:#0c69af"
     id="path3859" />
  <path
     d="m 20.188104,30.353804 c -1.077429,0 -2.154858,0.02397 -3.231639,-0.0065 -1.088444,-0.0311 -1.439596,-0.526728 -0.971177,-1.465511 1.101401,-2.206688 2.227421,-4.403011 3.415638,-6.564348 0.650475,-1.183034 1.777791,-1.774551 3.108542,-1.806297 2.500828,-0.05961 5.003599,-0.06997 7.505074,-0.03952 1.182386,0.01425 1.517342,0.623263 0.941374,1.627481 -1.297061,2.260464 -2.581165,4.531293 -3.982535,6.72632 -0.347266,0.543573 -1.080021,1.052161 -1.709763,1.164245 -1.666355,0.29673 -3.383892,0.202787 -5.075514,0.36411 -0.0039,-0.05507 0.0032,0.05507 0,0 z"
     style="fill:#173075"
     id="path3861" />
</svg>
