<svg xmlns="http://www.w3.org/2000/svg" width="56" height="56" viewBox="0 0 56 56">
  <path fill="#595959" d="M36.621 22.291h5.756zm-11.94-7.439a8.55 8.55 0 0 0-5.13 7.44h-.01v21.373q-.001.068-.013.135.01.12.01.24a2.96 2.96 0 1 1-5.905-.291l-.004-.084v-21.42q0-.06.01-.116c.193-5.884 3.923-10.873 9.133-12.91l.003.01c.323-.121.672-.229.995-.229a2.97 2.97 0 0 1 2.97 2.97c0 1.38-.843 2.511-2.06 2.883z"/>
  <path fill="#007cc2" d="M28.005 36.984c-2.152 0-4.194-.474-6.027-1.321l.005-.01a2.893 2.893 0 1 1 2.584-5.175 8.548 8.548 0 0 0 11.815-5.736c.09-.84-.125-2.007-1.865-2.344-.758-.129-1.607.109-2.074 1.31q-.068.278-.168.542l-.011.047-.006-.003A4.57 4.57 0 0 1 28 27.212c-2.525 0-4.572-2.057-4.572-4.594s2.047-4.594 4.572-4.594a4.57 4.57 0 0 1 4.08 2.52c.19.268.746.833 1.95.617.809-.126 2.114-1.129 1.497-2.673a8.6 8.6 0 0 0-3.877-3.566l.013-.026a2.94 2.94 0 0 1-1.476-2.546c0-1.622 1.316-2.98 2.939-2.98.634 0 1.221.244 1.701.586 4.498 2.43 7.554 7.184 7.554 12.654 0 7.939-6.436 14.374-14.376 14.374"/>
</svg>
