<svg
  id="b3a281bf-eb06-4584-afdf-9473defee5db"
  data-name="Layer 1"
  xmlns="http://www.w3.org/2000/svg"
  viewBox="0 0 574.58 495.43"
  width="40"
  height="40"
>
  <title>annex-logo-1c-notype</title>
  <path class="color-primary" d="M468.51,548.76l-4.27-4.27L460,540.22,455.7,536l-3.44-3.44h-54l9.48,9.48h33.41l4.27,4.27,4.27,4.27,4.27,4.27,4.27,4.27,4.27,4.27,8.54,8.54,18.7,18.69h17.18l15.44-15.44,10.31-10.31,20.62-20.62,10.31-10.31,1.39-1.38H544.34L543,533.89l-20.62,20.62L512,564.82,500.85,576h-5.1l-14.43-14.42L472.78,553Zm29.79,9.17,3.41-3.42L512,544.2l11.7-11.69H472.88l1.67,1.67,17.08,17.08Zm239.2-21L610.69,663.49,594.5,647.3l-45.33,45.33H516.36L481.9,727.1l-83-83.05H365.43L253.89,532.51H233.28L359.39,658.63h33.42l89.09,89.09,40.5-40.51h32.81l39.29-39.29,16.18,16.18L750.44,544.57A42.61,42.61,0,0,1,737.5,536.88ZM357,532.51l38.64,38.64H429l4.27,4.27,4.27,4.27,4.27,4.27,8.54,8.54,27,27h41.82L543,595.75l10.31-10.31,10.31-10.31,10.31-10.31,10.31-10.31L594.5,544.2l10.31,10.31,5.93,5.93,28-27.93H585.58l-1.39,1.38L573.88,544.2l-10.31,10.31-10.31,10.31L543,575.13l-10.31,10.31-19.71,19.71H483.67l-23-23-8.54-8.54-4.27-4.27-4.27-4.27-4.27-4.27-4.27-4.27H401.67l-24.06-24.06Zm-82.48,0,97,97h33.42l4.27,4.27,72.74,72.74,24.15-24.16,4.27-4.27h32.81L584.19,637l10.31-10.31L604.81,637l5.89,5.89L721.25,532.51H700.61l-89.9,89.76-5.9-5.9L594.5,606.06l-10.31,10.31-10.31,10.31-36.79,36.79H504.28L500,667.74,495.74,672,481.9,685.86l-62.43-62.43-4.28-4.27-4.27-4.27H377.51l-82.38-82.38Zm41.24,0,67.8,67.8H417l4.27,4.27,4.27,4.27,4.27,4.27,52.13,52.12,3.53-3.54,4.27-4.27,4.27-4.27,4.27-4.27h32.81l32.52-32.52,10.31-10.31,10.31-10.31,10.31-10.31,10.31,10.31,5.91,5.91L680,532.51H659.34l-48.61,48.54-5.92-5.92L594.5,564.82l-10.31,10.31-10.31,10.31-10.31,10.31-10.31,10.31L525,634.31h-32.8l-4.28,4.27-4.27,4.27-1.76,1.77-41.82-41.81-4.27-4.27-4.27-4.27L427.27,590,423,585.73H389.59l-53.22-53.22Zm65.83-107.66-21.47,21.47a22,22,0,1,1-11.64-9l27.07-27.07h85.68a21.61,21.61,0,0,1,5.17-8.24h0a22,22,0,1,1-5.17,22.82Zm92.95-7.29a7.38,7.38,0,0,0,12.61,5.21,7.38,7.38,0,0,0,0-10.43,7.38,7.38,0,0,0-10.43,0h0A7.3,7.3,0,0,0,474.53,417.56ZM346.85,453a7.38,7.38,0,1,0,0,10.44A7.36,7.36,0,0,0,346.85,453Zm38.42,5.22a21.95,21.95,0,0,1,42.65-7.29H540.3a21.94,21.94,0,0,1,36.22-8.24h0a22,22,0,1,1-36.22,22.82H427.92a21.95,21.95,0,0,1-42.65-7.29Zm170.5,5.22A7.38,7.38,0,0,0,566.21,453h0a7.38,7.38,0,1,0-10.44,10.44Zm-155.92-5.22a7.38,7.38,0,1,0,7.38-7.38A7.39,7.39,0,0,0,399.85,458.18Zm203.32,7.29V416.71H536.35l-45-45a21.91,21.91,0,0,1-25-4.26h0a22,22,0,1,1,35.31-6.05l40.69,40.69h75.36v48.76h14.92a22,22,0,0,1,36.23-8.24h0a22,22,0,1,1-36.23,22.82ZM646,458.18a7.38,7.38,0,0,0,12.6,5.22A7.38,7.38,0,0,0,648.15,453,7.32,7.32,0,0,0,646,458.18ZM487.13,346.74a7.38,7.38,0,1,0-10.43,10.44h0a7.39,7.39,0,0,0,10.44,0A7.4,7.4,0,0,0,487.13,346.74ZM780.87,520.09h0a21.9,21.9,0,0,1-36.21-8.24H212.71l12.63-12.55,134-134h33.42l89.09-89.09,40.5,40.5h32.81L594.5,356l16.18-16.18,98.84,98.6a22.07,22.07,0,1,1-10.32,10.29l-88.51-88.29-16.19,16.2-45.33-45.34H516.36L481.9,296.78l-83,83.05H365.43L248,497.27H744.66a21.71,21.71,0,0,1,5.15-8.24,22,22,0,0,1,31.06,31.06Zm-69.29-61.91A7.38,7.38,0,1,0,719,450.8,7.39,7.39,0,0,0,711.58,458.18Zm59,41.16a7.38,7.38,0,1,0,0,10.44A7.36,7.36,0,0,0,770.56,499.34ZM588.77,274.24a22,22,0,1,1,22,22A22,22,0,0,1,588.77,274.24Zm14.58,0a7.38,7.38,0,1,0,7.38-7.38A7.39,7.39,0,0,0,603.35,274.24Z" transform="translate(-212.71 -252.28)" />
</svg>