<svg xmlns="http://www.w3.org/2000/svg" width="56" height="56" viewBox="0 0 56 56">
  <defs>
    <linearGradient id="a" x1="16307.02" x2="16560.25" y1="10169.99" y2="11711.59" gradientUnits="userSpaceOnUse">
      <stop offset="0" style="stop-opacity:1;stop-color:#008fd7"/>
      <stop offset="1" style="stop-opacity:1;stop-color:#2f318b"/>
    </linearGradient>
    <linearGradient id="f" x1="16056.93" x2="17174.58" y1="10898.57" y2="11411.16" gradientTransform="translate(-169.222 -101.623)scale(.01222)" gradientUnits="userSpaceOnUse" href="#a"/>
    <linearGradient id="b" x1="17110.82" x2="15537.24" y1="11707.93" y2="9414.64" gradientTransform="translate(-169.222 -101.623)scale(.01222)" gradientUnits="userSpaceOnUse" href="#a"/>
    <linearGradient id="e" x1="17234.91" x2="15842.57" y1="11919.81" y2="10475.48" gradientTransform="translate(-169.222 -101.623)scale(.01222)" gradientUnits="userSpaceOnUse" href="#a"/>
    <linearGradient id="c" x1="14530.5" x2="17721.949" y1="11831.54" y2="11410.16" gradientTransform="translate(-169.222 -101.623)scale(.01222)" gradientUnits="userSpaceOnUse" href="#a"/>
    <linearGradient id="d" x1="16332.07" x2="16632.949" y1="9489.76" y2="10669.65" gradientTransform="translate(-169.222 -101.623)scale(.01222)" gradientUnits="userSpaceOnUse" href="#a"/>
    <linearGradient id="g" x1="16709.061" x2="15843.02" y1="11779.85" y2="10092.21" gradientTransform="translate(-169.222 -101.623)scale(.01222)" gradientUnits="userSpaceOnUse" href="#a"/>
    <linearGradient id="h" x1="16307.02" x2="16560.25" y1="10169.99" y2="11711.59" gradientTransform="translate(-169.222 -101.623)scale(.01222)" gradientUnits="userSpaceOnUse" href="#a"/>
  </defs>
  <path fill="url(#b)" d="M9.574 33.862c3.381 6.967 11.347 11.078 19.278 10.544a24.7 24.7 0 0 1-8.644-5.585c-1.49-1.496-2.656-3.073-3.492-4.655-1.742-1.216-3.258-2.742-4.422-4.543-2.174-3.366-2.73-7.09-1.884-10.468-2.778 4.25-3.284 9.661-.836 14.707m23.482 9.808q.183-.053.365-.109l-.917-.176q.275.147.552.285m4.277-1.823q1.095-.642 2.049-1.409c-2.953-1.265-5.799-2.903-8.142-4.745q-.306.177-.63.336l.352.223 6.81 4.688zm2.98-2.214c4.788-4.467 6.319-11.313 3.271-17.594-2.28-4.7-6.65-8.101-11.685-9.652-14.933-4.6-25.604 8.996-16.337 19.196-2.918-4.945-1.1-11.107 4.968-13.215 5.543-1.927 12.014.582 14.45 5.603 1.922 3.96.76 8.302-2.537 10.905a36 36 0 0 0 3.592 2.482 43 43 0 0 0 4.277 2.275"/>
  <path fill="url(#c)" d="M9.574 33.862c3.381 6.967 11.347 11.078 19.278 10.544a24.7 24.7 0 0 1-8.644-5.585c-1.49-1.496-2.656-3.074-3.492-4.655-1.742-1.216-3.258-2.742-4.422-4.543-2.174-3.366-2.73-7.09-1.884-10.468-2.778 4.25-3.284 9.661-.836 14.707m23.482 9.808q.183-.053.365-.109l-.917-.176q.275.147.552.285m4.278-1.824a17 17 0 0 0 2.048-1.408 39.5 39.5 0 0 1-4.821-2.466q-.41.102-.83.185l4.041 2.783zm2.979-2.212c3.763-3.51 5.514-8.491 4.611-13.512.39 4.991-3.195 9.404-8.698 11.352a43 43 0 0 0 4.087 2.16"/>
  <path fill="url(#d)" d="M42.961 20.876c-2.401-4.098-6.452-7.069-11.062-8.489C17.13 7.838 6.533 21.085 15.266 31.244c-.752-1.247-1.248-2.607-1.43-4.042-.842-6.668 5.426-12.42 13.997-12.846 6.353-.315 12.19 2.386 15.128 6.52"/>
  <path fill="url(#e)" d="M48 43.109c-5.43 1.168-13.083-.788-18.81-5.137-6.747-5.124-8.363-11.7-3.836-15.007-1.529 3.623 1.348 9.06 7.809 13.733 4.561 3.299 9.97 5.538 14.837 6.411"/>
  <path fill="url(#f)" d="M48 43.109c-10.75.353-28.632-11.687-22.646-20.144-1.529 3.623 1.348 9.06 7.809 13.733 4.561 3.299 9.97 5.538 14.837 6.411"/>
  <path fill="url(#g)" d="M38.94 44.318c-5.693 1-13.092-1.512-18.222-6.58-6.346-6.271-6.817-14.085-1.051-17.449 2.306-1.345 5.261-1.774 8.383-1.405-.911.245-1.766.59-2.543 1.044-5.765 3.364-5.15 11.321 1.375 17.768 3.437 3.396 7.829 5.696 12.058 6.622"/>
  <path fill="url(#h)" d="M38.94 44.318c-16.41-.468-28.288-22.372-10.89-25.434-.911.245-1.766.59-2.543 1.044-5.765 3.364-5.15 11.321 1.375 17.768 3.437 3.396 7.829 5.696 12.058 6.622"/>
</svg>
