<svg xmlns="http://www.w3.org/2000/svg" width="56" height="56" viewBox="0 0 56 56">
  <path fill="var(--v-primary-base, #32e0df)" d="M16.776 39.116h-4.927C9.293 39.116 8 37.823 8 35.298V11.865c0-2.494 1.324-3.818 3.787-3.818h23.618c2.464 0 3.788 1.324 3.788 3.818v4.742c0 .03.061.092.123.277.985 0 2.032-.03 3.079 0s2.002-.062 2.956.123A3.14 3.14 0 0 1 48 20.18v24.449c-.03 1.94-1.478 3.325-3.51 3.325H20.286c-2.032-.03-3.387-1.354-3.48-3.356-.061-.893-.03-1.786-.03-2.679zm4.403 0v2.648c0 1.417.4 1.817 1.848 1.817h18.721c1.51 0 1.879-.4 1.879-1.94V23.258c0-1.663-.339-2.032-1.971-2.032H23.858c-2.587 0-2.679.092-2.679 2.648 0 1.601.339 1.94 1.97 1.94h12.472c2.248 0 3.572 1.324 3.602 3.572.031 2.247-.03 3.972-.03 5.973-.031 2.464-1.324 3.757-3.819 3.757zM34.82 16.884v-2.556c0-1.509-.4-1.909-1.94-1.909H14.25c-1.508 0-1.877.4-1.877 1.94v18.445c0 1.6.369 1.97 1.97 1.97H32.05c2.71 0 2.771-.092 2.771-2.833 0-1.385-.4-1.786-1.755-1.786H20.409c-2.278 0-3.664-1.354-3.664-3.664s.03-3.91.03-5.85c.032-2.464 1.356-3.757 3.82-3.757z"/>
</svg>
