<svg xmlns="http://www.w3.org/2000/svg" width="56" height="56" viewBox="0 0 56 56">
  <path fill="#20a539" d="M27.199 46.29c-1.91 0-3.82.025-5.729-.005-3.23-.05-5.585-1.472-7.156-4.358-1.825-3.352-3.81-6.618-5.723-9.922-.139-.24-.296-.476-.39-.734-.511-1.405-.051-2.194 1.429-2.29 1.14-.073 2.288.017 3.433.006 1.41-.013 2.347.703 3.008 1.877.972 1.723 1.916 3.463 2.92 5.166.94 1.596 1.407 1.962 2.621 1.932.25-.007.621.256.728.493.56 1.255 1.447 1.213 2.477 1.206 2.187-.013 4.375.013 6.562-.03.783-.014 1.329.22 1.695.929.59 1.14 1.257 2.241 1.816 3.396.696 1.439.183 2.277-1.443 2.316-2.082.051-4.166.013-6.25.013q.002.002.002.005"/>
  <path fill="#71ba2b" d="M26.463 9.73c2.224 0 4.448-.016 6.67.006 1.513.015 2.263 1.015 1.719 2.425-.435 1.127-.98 2.243-1.675 3.222-.31.435-1.104.708-1.69.733-2.047.087-4.098.043-6.148.028-1.527-.011-2.521.192-2.92 1.542-.082.278-.447.509-.911.51-1.203.006-1.515.082-2.382 1.557a196 196 0 0 0-3.302 5.793c-.492.907-1.129 1.313-2.173 1.233-1.037-.079-2.086.02-3.125-.035-1.874-.098-2.688-1.358-1.79-2.968 2.095-3.76 4.222-7.507 6.486-11.167 1.212-1.959 3.035-2.888 5.51-2.906 1.948-.013 3.82.023 5.731.023z"/>
  <path fill="#0a68af" d="M46.644 31.538c-1.892 3.437-3.992 6.729-5.963 10.123a5.2 5.2 0 0 1-.812 1.076c-.738.734-1.617.745-2.257-.083-.738-.957-1.382-1.997-1.984-3.048-.453-.794-.066-1.532.361-2.243 1.216-2.024 2.4-4.068 3.617-6.09 1.185-1.741.985-2.055.27-3.219-.152-.246-.166-.704-.025-.99.597-1.22.524-1.404-.41-2.792-.963-1.642-1.916-3.424-2.982-5.069-1.265-1.953-1.43-1.8.054-4.605l.015-.022c1.687-3.1 3.078-1.966 4.29.134 1.68 2.54 1.916 3.026 3.496 5.711.83 1.413 1.696 2.983 2.38 4.099 1.704 2.779 1.795 3.757-.05 7.018"/>
  <path fill="#21a0d5" d="M33.813 27.276c-1.042 0-2.084-.026-3.125.005-1.461.045-2.571-.579-3.312-1.79a213 213 0 0 1-3.641-6.195c-.625-1.104-.192-2.048 1.057-2.046 2.455.005 4.92.112 7.361.375 1.384.149 2.52 1.056 3.284 2.217a98 98 0 0 1 3.396 5.606c.538.95.067 1.731-1.063 1.797-1.314.077-2.637.018-3.956.018z"/>
  <path fill="#0c69af" d="M25.999 29.728a296 296 0 0 1-3.57 6.165c-.787 1.322-1.47 1.311-2.258-.03-1.211-2.063-2.37-4.157-3.57-6.226q-.952-1.641-.031-3.263a311 311 0 0 1 3.593-6.213c.745-1.246 1.55-1.297 2.263-.082 1.314 2.24 2.118 3.969 3.442 6.203.825 1.39.764 2.324.13 3.446"/>
  <path fill="#173075" d="M28.188 38.354c-1.077 0-2.155.024-3.232-.007-1.088-.03-1.44-.526-.97-1.465a186 186 0 0 1 3.415-6.565c.65-1.183 1.778-1.774 3.108-1.806 2.501-.06 5.004-.07 7.506-.04 1.182.015 1.517.624.94 1.628-1.296 2.26-2.58 4.531-3.982 6.726-.347.544-1.08 1.053-1.71 1.165-1.666.296-3.383.202-5.075.364-.004-.055.003.055 0 0"/>
</svg>
