<svg xmlns="http://www.w3.org/2000/svg" width="56" height="56" viewBox="0 0 56 56">
  <path fill="red" d="m8 18.363 15.289 14.32 15.341-14.32h-5.727c-.623 0-.948.15-1.373.526a929 929 0 0 0-6.853 6.391c-.542.53-1.69.53-2.206.043s-6.797-6.333-7.023-6.527-.577-.433-1.118-.433z"/>
  <path fill="#a0a0a0" d="M18.407 18.447h8.376c.256 0 .36.188.202.336-.16.148-3.565 3.373-3.854 3.647-.29.275-.718.275-1.063-.048s-3.744-3.473-3.87-3.619c-.126-.145-.038-.316.209-.316m26.678-.07h1.348c1.284 0 2.15 1.873 1.095 2.9-1.054 1.029-16.348 15.274-17.013 15.907s-1.724.523-2.168.154q-.444-.37-1.806-1.672z"/>
  <path fill="#f9f9f9" d="m38.63 18.363-15.341 14.32 3.252 2.983 18.544-17.289Z"/>
</svg>
