<svg xmlns="http://www.w3.org/2000/svg" width="56" height="56" viewBox="0 0 20 20">
  <defs>
    <clipPath id="a" clipPathUnits="userSpaceOnUse">
      <path d="M0 800h800V0H0Z"/>
    </clipPath>
    <clipPath id="b" clipPathUnits="userSpaceOnUse">
      <path d="M284.941 580.678h167.588v-203.92H284.941Z"/>
    </clipPath>
    <clipPath id="c" clipPathUnits="userSpaceOnUse">
      <path d="M155.926 390.276h142.675V173.023H155.926Z"/>
    </clipPath>
    <clipPath id="d" clipPathUnits="userSpaceOnUse">
      <path d="M553.411 592.406h93.656V420.223h-93.656z"/>
    </clipPath>
    <clipPath id="e" clipPathUnits="userSpaceOnUse">
      <path d="M553.778 309.675h95.314V168.291h-95.314z"/>
    </clipPath>
  </defs>
  <g clip-path="url(#a)" transform="matrix(.0269 0 0 -.0269 -.759 20.759)">
    <path d="M659.824 328.8c-1.206-40.148-4.068-80.293-5.923-120.44 1.186-18.324-12.32-33.735-28.916-39.98-97.782-47.199-213.382-51.389-316.901-21.666-68.415 20.208-135.412 65.558-159.007 135.8-14.31 39.465-7.18 81.132-5.867 121.863 1.309 23.808 2.352 47.628 3.858 71.424 27.144-20.264 53.528-41.786 81.139-61.275L488.6 293.742c55.618 16.23 111.238 32.452 166.854 48.69 2.285-4.217 3.877-8.847 4.369-13.632" style="fill:#ac3724;fill-opacity:1;fill-rule:nonzero;stroke:none"/>
    <path d="M658.227 605.004c2.456-15.29-.586-30.935-.73-46.384-1.968-30.502-2.466-61.17-5.423-91.559-6.44-18.902-23.471-31.154-36.3-45.703-20.288-20.38-51.851-15.66-75-3.298-57.808 24.397-126.746 29.465-184.551 2.572-14.739-6.213-31.65-17.776-10.91-27.791 45.711-34.481 108.333-37.44 162.327-24.528 30.098 4.963 56.106 27.73 87.595 23.819 25.113-3.34 39.4-26.065 55.738-42.792 8.434-9.494 9.892-22.26 8.524-34.302-27.503-12.287-54.7-25.702-82.393-37.289-53.487-5.06-107.016-11.12-160.475-15.56L286.28 286.551c-27.146 19.714-55.241 38.516-81.798 58.796l-32.363 49.466c-9.861-3.14-20.635-7.49-29.938-9.89 2.049 33.217 2.81 66.535 5.891 99.672 9.857 73.972 70.464 130.465 136.911 157.539 88.156 36.236 188.401 37.883 280.055 14.421 28.655-8.815 58.958-17.323 83-35.882 4.655-4.235 8.4-9.6 10.188-15.67" style="fill:#f27121;fill-opacity:1;fill-rule:nonzero;stroke:none"/>
    <path d="m314.131 405.877-15.897 35.337 11.324 82.034 50.572 33.087 49.28 12.983 106.674-4.833 65.177-22.354 67.428 44.115-7.747-120.617-47.325-45.406-27.886 5.828-88.526 35.965-106.343-21.43-48.948-39.246z" style="fill:#bc3e26;fill-opacity:1;fill-rule:nonzero;stroke:none"/>
    <path d="M633.657 596.396c-7.217-14.385-20.564-25.248-31.883-36.64-24.023-14.497-47.863 9.26-71.544 13.638-60.677 18.727-130.644 18.774-187.218-12.507-48.038-26.072-71.829-88.803-50.171-139.595 18.982-49.269 72.532-77.578 123.284-83.377 54.555-8.499 109.805 4.762 159.376 27.32 17.94 7.425 32.787-6.12 43.285-18.916 4.984-7.14 18.092-13.866 14.317-24.001-24.463-18.717-55.977-26.537-85.272-34.994-84.32-19.644-175.46-15.542-256.164 16.703-58.417 23.403-111.91 73.428-118.525 138.847-8.294 60.1 26.65 118.564 76.112 150.691 78.247 51.78 177.651 60.462 268.493 46.824 38.201-6.495 76.416-17.203 110.198-36.565l4.286-3.91zm-2.308-43.849c-1.342-25.923-2.727-51.853-4.067-77.777-7.137-14.43-20.55-25.352-31.89-36.76-24.023-14.5-47.864 9.261-71.545 13.638-61.377 18.894-132.44 19.075-189.162-13.67-26.543-29.093-26.813 29.576-20.792 47.67 13.682 49.572 68.125 71.156 115.16 73.778 46.586 4.7 92.87-7.43 135-26.555 24.633-9.955 51.556-.966 67.296 19.676m.998-262.83c-1.504-28.9-2.967-56.593-4.508-86.102-19.604-21.72-53.4-27.032-80.59-36.564-84.778-21.219-176.778-17.645-258.564 13.818-59.394 22.974-114.472 72.753-121.777 139.017-2.348 18.917-.06 37.9.663 56.838 41.257-74.13 126.195-109.94 206.63-121.582 86.97-12.715 178.734-3.658 258.194 35.496zm25.68 315.945c-10.142 25.098-40.079 30.966-62.17 41.134-91.367 31.79-193.563 34.1-285.878 4.766-72.319-23.145-142.524-76.468-159.55-153.975-5.718-32.473-5.177-65.614-7.499-98.449-1.803-43.237-8.501-88.144 10.838-128.9 32.221-74.927 111.145-116.461 187.615-132.093 98.143-19.767 204.9-12.091 294.043 35.961 16.758 8.648 18.886 27.54 18.995 44.233 1.688 36.82 4.37 73.64 5.403 110.46-3.643 22.173-23.894 35.267-37.78 51.092-23.799 21.796-58.008 11.158-83.316-1.719-59.73-23.061-132.372-25.492-187.63 10.316-15.184 8.266-24.221 21.37-1.72 28.327 50.479 27.812 112.974 26.674 166.957 10.17 28.38-8.227 58.207-30.377 87.881-13.867 17.049 11.38 30.615 27.647 43.395 43.511 8.322 16.478 5.415 35.567 7.34 53.494 1.19 30.436 4.025 60.897 4.096 91.315-.23 1.432-.59 2.84-1.02 4.224" style="fill:#3c2215;fill-opacity:1;fill-rule:nonzero;stroke:none"/>
    <g clip-path="url(#b)" opacity=".63" style="display:inline">
      <path d="M452.53 580.679c-11.728-5.326-19.044-17.377-31.727-21.102-10.76-3.114-21.71-6.794-29.973-14.763-14.463-12.248-24.052-33.77-15.07-51.96 6.551-13.967 21.994-21.096 28.15-35.408 3.17-6.92 8.892-15.297-2.194-15.958-22.924-9.364-45.631-20.002-65.845-34.43-6.585-4.869 7.565-10.917 10.848-15.334 8.204-3.287.536-4.713-3.354-6.636l-18.94-8.33c-9.882 8.488-17.662 18.997-24.909 29.735-4.843 10.4-10.308 21.994-12.362 33.872-8.067 37.86 5.64 79.169 34.584 104.83 20.085 19.387 48.587 25.164 75.142 29.8 18.423 2.95 37.03 4.619 55.65 5.683" style="fill:#3c2215;fill-opacity:1;fill-rule:nonzero;stroke:none"/>
    </g>
    <g clip-path="url(#c)" opacity=".63" style="display:inline">
      <path d="M262.968 175.008c68.019-21.115-68.127 133.565 35.633 114.789l-45.074 21.062-73.624 79.417-16.857-11.029-7.12-47.989.664-52.525 37.623-42.789 20.435-27.554s-9.074-15.565 48.32-33.382" style="fill:#3c2215;fill-opacity:1;fill-rule:nonzero;stroke:none"/>
    </g>
    <g clip-path="url(#d)" opacity=".63" style="display:inline">
      <path d="M553.411 422.805s84.617 28.881 10.662 134.56l32.754-24.308 50.24 59.35-4.502-132.938-48.948-39.246z" style="fill:#3c2215;fill-opacity:1;fill-rule:nonzero;stroke:none"/>
    </g>
    <g clip-path="url(#e)" opacity=".63" style="display:inline">
      <path d="M553.778 271.388s67.464-81.039 33.75-103.097l53.817 20.766 7.747 120.618z" style="fill:#3c2215;fill-opacity:1;fill-rule:nonzero;stroke:none"/>
    </g>
  </g>
</svg>
