<svg xmlns="http://www.w3.org/2000/svg" width="56" height="56" viewBox="0 0 56 56">
  <path fill="var(--v-logo-base, #76fb00)" d="M18.053 8c-.058.004-.06.043-.06.098 0 .065 2.5 6.244 5.546 13.707 3.046 7.484 5.549 13.684 5.549 13.793s-1.045.24-2.328.283l-2.35.066 2.438.043c2.175.044 2.458.088 2.675.457.414.805.217 1-1.459 1.631-2.066.784-2.98 1.22-2.828 1.371.066.066 1.176-.304 2.46-.783 1.283-.5 2.327-.87 2.349-.847.587.979.522 1.13-1.088 2.914-.892.979-1.61 1.85-1.61 1.959s.762-.588 1.72-1.524l1.697-1.697.369.957c.217.5.871 1.59 1.48 2.394l1.088 1.479h4.307V11.014H24.8L21.494 9.49C18.9 8.3 18.227 7.99 18.053 8m11.056 13.457c.087 0 .674.827 1.284 1.85 1.066 1.806 1.087 1.913 1.087 3.545l-.021 1.675-.848-.978c-1.283-1.458-2.242-3.395-2.242-4.482 0-.892.327-1.61.74-1.61m7.028 23.496c-1.414 0-1.806.066-1.698.262.087.152.588.849 1.11 1.523.848 1.11 1.044 1.262 1.719 1.262h.74v-3.047Z"/>
</svg>
