<svg xmlns="http://www.w3.org/2000/svg" width="56" height="56" viewBox="0 0 56 56">
  <path fill="#647e98" d="M8 11.468v8.031l14.857 14.63 6.572-.286H34L48 19.5v-8.031h-.571L28.286 30.975 8.57 11.468Zm.867 21.92v9.058h1.8v-9.059zm5.401 0-3.295 3.26.056 1.43v1.088l3.24 3.26h1.533v-.056l-4.319-4.491 4.32-4.435v-.057zm2.896 0v9.039h1.362v-9.04zm22.619 2.724q-.53 0-1.04.201a2.6 2.6 0 0 0-.9.597q-.391.398-.628.996t-.237 1.391q0 .68.184 1.249.185.57.566.99.382.42.97.656.59.235 1.386.235.311.001.61-.034.3-.034.56-.086t.462-.115a2 2 0 0 0 .32-.122l-.187-1.138q-.241.103-.663.195t-.93.092q-.866 0-1.32-.397-.458-.397-.515-1.121h3.982q.012-.115.018-.259t.006-.26q0-1.53-.699-2.3t-1.945-.77m-13.808.123q-.695 0-1.32.104-.623.103-1.05.219v7.974h1.399V42.19a2.9 2.9 0 0 0 1.376.334 2.7 2.7 0 0 0 1.14-.23 2.3 2.3 0 0 0 .838-.646q.336-.416.515-.992.18-.578.18-1.27 0-.727-.213-1.31a2.8 2.8 0 0 0-.615-.992 2.7 2.7 0 0 0-.965-.63 3.6 3.6 0 0 0-1.285-.22m6.812 0q-.694 0-1.32.104-.624.103-1.052.219v7.974h1.4V42.19a2.96 2.96 0 0 0 1.377.334 2.7 2.7 0 0 0 1.139-.23q.503-.231.84-.646.334-.416.514-.992.179-.578.178-1.27 0-.727-.213-1.31a2.8 2.8 0 0 0-.613-.992 2.7 2.7 0 0 0-.967-.63 3.5 3.5 0 0 0-1.283-.22m13.503 0q-.746 0-1.358.133a8 8 0 0 0-1.018.284v5.775h1.409v-4.858q.104-.034.366-.082.262-.046.495-.047.407 0 .716.065.309.063.484.121l.244-1.182a3 3 0 0 0-.28-.076 6 6 0 0 0-.734-.115 4 4 0 0 0-.324-.018m-25.906.123v6.069h1.362v-6.069zm19.41.916q.313 0 .539.108.224.109.38.299.155.191.236.45t.08.546h-2.597q.036-.265.128-.518.092-.254.26-.449.167-.195.409-.317.242-.12.566-.119m-13.958.16q.936.001 1.36.521.422.518.422 1.454 0 .877-.352 1.395-.353.52-1.117.52-.348 0-.654-.109a2.2 2.2 0 0 1-.491-.237v-3.45q.209-.057.423-.076.212-.017.409-.018m6.812 0q.937.001 1.36.521.42.518.42 1.454.001.877-.352 1.395-.352.52-1.115.52-.348 0-.654-.109a2.2 2.2 0 0 1-.493-.237v-3.45q.208-.057.423-.076.214-.017.41-.018"/>
  <path fill="#b12f35" d="m8 11.468 18.857 18.59v3.719h-5.77c-.687 0-.801.571-.801.857s.114.857.8.857h8.057c.286 0 .571-.285.571-.571v-4.861L48 11.468h-3.429L28.286 28.057l-16.857-16.59Zm7.822 21.974-4.143 4.243h-.624l.002-1.55-.002-.057c0-.057-.057-.113-.17-.113s-.17.056-.17.113H10.6v1.893h.113c0 .114.114.229.227.229h.738l4.143 4.299v-.802l-3.575-3.756 3.575-3.679z"/>
</svg>
