<svg xmlns="http://www.w3.org/2000/svg" viewBox="7 10 42 35"><path d="m25.834 31.4-.297-.297-.296-.297-.3-.295-.24-.24h-3.764l.66.661h2.33l.297.298.298.298.298.298.298.297.297.298.596.595 1.303 1.303h1.198l1.077-1.076.719-.719 1.437-1.438.719-.718.097-.097h-1.44l-.093.093-1.438 1.438-.724.719-.777.78h-.356l-1.006-1.006-.595-.598Zm2.077.64.238-.238.717-.719.816-.815H26.14l.116.116 1.191 1.191zm16.677-1.464-8.84 8.824-1.13-1.129-3.16 3.16H29.17l-2.402 2.404-5.787-5.79h-2.333l-7.777-7.777H9.434l8.793 8.793h2.33l6.21 6.211 2.825-2.824h2.287l2.74-2.74 1.127 1.129 9.744-9.728a3 3 0 0 1-.902-.536zm-26.528-.308 2.694 2.694h2.326l.297.298.298.297.298.298.595.595 1.883 1.883h2.915l1.662-1.656.719-.719.718-.719.72-.718.718-.72.715-.718.72.719.413.413 1.952-1.947h-3.707l-.096.096-.72.719-.718.719-.719.719-.715.718-.72.72-1.373 1.373H26.89l-1.603-1.603-.596-.596-.297-.297-.298-.298-.298-.298-.297-.297h-2.328l-1.677-1.678zm-5.75 0 6.762 6.763h2.33l.298.298 5.071 5.07 1.684-1.684.298-.297h2.287l2.86-2.865.718-.719.72.719.41.41 7.707-7.695h-1.439l-6.268 6.258-.41-.411-.72-.72-.718.72-.72.718-2.564 2.565h-2.288l-.298.298-.297.297-.965.967-4.353-4.353-.298-.298-.298-.297h-2.33l-5.743-5.744zm2.875 0 4.727 4.727h2.331l.298.298.297.297.298.298 3.635 3.634.246-.247.297-.298.298-.297.298-.298h2.287l2.268-2.267.718-.72.72-.718.718-.719.719.72.412.411 4.827-4.821h-1.44l-3.39 3.384-.412-.413-.719-.718-.718.718-.72.72-.718.718-.719.719-1.97 1.97h-2.287l-.298.297-.298.298-.123.123-2.916-2.915-.297-.297-.298-.298-.297-.298-.298-.298h-2.329l-3.71-3.71zm4.59-7.506-1.498 1.497a1.534 1.534 0 1 1-.811-.628l1.887-1.887h5.974a1.5 1.5 0 0 1 .36-.574 1.534 1.534 0 1 1-.36 1.59zm6.48-.508a.515.515 0 0 0 .879.363.515.515 0 0 0 0-.727.515.515 0 0 0-.727 0 .5.5 0 0 0-.153.364zm-8.903 2.47a.515.515 0 1 0 0 .728.513.513 0 0 0 0-.727m2.679.364a1.53 1.53 0 0 1 2.973-.508h7.836a1.53 1.53 0 0 1 2.525-.574 1.534 1.534 0 1 1-2.525 1.59h-7.836a1.53 1.53 0 0 1-2.973-.508m11.887.364a.515.515 0 0 0 .728-.727.515.515 0 1 0-.728.727m-10.87-.364a.515.515 0 1 0 .514-.514.515.515 0 0 0-.515.512zm14.175.509v-3.403h-4.659l-3.137-3.137a1.53 1.53 0 0 1-1.743-.297 1.534 1.534 0 1 1 2.462-.422l2.836 2.837h5.255v3.4h1.04A1.534 1.534 0 0 1 39.803 24a1.534 1.534 0 1 1-2.526 1.591zm2.986-.511a.515.515 0 0 0 .878.364.515.515 0 0 0-.728-.725.5.5 0 0 0-.15.36m-11.076-7.77a.515.515 0 1 0-.728.728.515.515 0 0 0 .728 0 .516.516 0 0 0 0-.728m20.479 12.086a1.527 1.527 0 0 1-2.525-.574H8l.88-.875 9.343-9.343h2.33l6.211-6.211 2.824 2.823h2.288l2.742 2.74 1.128-1.128 6.892 6.874a1.539 1.539 0 1 1-.72.717l-6.17-6.155-1.13 1.13-3.16-3.162H29.17l-2.402-2.405-5.787 5.79h-2.333l-8.188 8.188h34.627a1.5 1.5 0 0 1 .36-.574 1.534 1.534 0 0 1 2.165 2.165m-4.83-4.316a.515.515 0 1 0 .516-.515.515.515 0 0 0-.517.515m4.113 2.87a.515.515 0 1 0 0 .727.513.513 0 0 0-.002-.728zM34.219 12.26a1.534 1.534 0 1 1 1.534 1.534 1.534 1.534 0 0 1-1.534-1.534m1.016 0a.515.515 0 1 0 .515-.514.515.515 0 0 0-.515.514" style="stroke:none"/></svg>