<svg xmlns="http://www.w3.org/2000/svg" viewBox="70 30 410 420"><path stroke="currentColor" stroke-width="8" d="m462.25 219-169.25.75M469.25 201l-133-1M263.25 137l.25-97.75M247.75 137.5V38.75M232.75 138.25l.25-99M216 137.75l.5-100.25M172.25 219.75l-97 1M173 201.25l-98.25.25M172.75 183.5l-97.5-.25"/><path fill="none" stroke="currentColor" stroke-width="8" d="M175.25 165.25H193v72h-17.75zM292.5 197.25l5-1.625 5.125-1.875 4.75-2.625 4.25-2.5 5.625-3 5.375-3.75 5-3.25 4.625-3.25 5.75-4.125 4.75-5.125 4.625-4.375 5.25-5 4.75-5 3.75-5.25 4.25-5.25 4.5-5.625 3.75-5.375 3.625-6 3.25-6.25 3-6.5 2.5-6.125 2.375-6.75 2-6.375 1.75-6.125 1.5-7 1.25-6.75L396 65.25l.625-7.5.125-6.875.25-2.75"/><path fill="none" d="M199.75 163.5h84v75.75h-84z"/><circle cx="242" cy="201.25" r="29.5" fill="none" stroke="currentColor" stroke-width="8"/><path fill="currentColor" d="m442.25 306.25-10-16.75-18.75-14.75-22-3.5-16.75 4.5-12.25 8.5L354 297l-4 16.25 2.5 17.5 6.75 12.25 13.5 10.5 18 7.75L410.5 368l11.5 10 4 16-7.25 15-14.5 8.75-13.5.75-12-3.25-8.75-7.75-7-11-16.25 7.25 4.5 11.75 8.5 10 13.75 6.75 17.5 5.5 13.75-.5 13.75-4.75 9.25-7L438 414l4.75-15.25.5-14.75-4.25-13-6.75-10.5-10.5-8.25-14.75-6.5-16.5-6.5-13.5-6-8-10-1.75-14.5 10-12.75 14.25-7 16.25 2.5 12.75 9.5 9.25 11.5zM99.875 302.875l6.25-10.125 9.5-8.75 10.625-6.125 15.25-5.25 15.5-.375 13.75 4.375L182.875 286l7.375 12.125 4.5 15.5L193.375 331l-8 10.75-8.625 8.75-4.875 1.375 10.375 4.875 9.375 10.5 4.125 12.875 2 11.625L195.5 406l-6.625 12.375L177.125 429l-16.625 7.125-17.25.25-13.875-4L119 425.75l-10.625-9.875-7.5-11.375 16.375-8.5 8.375 12.625L137.75 417l14 2 13.5-1.75 9.5-7.625 5.625-11.125 2.125-11.375-3.875-12.875-8.25-8.125-10.5-5.625-16.5.25-.75-18.5 17.375-.5 9.125-6.375 7.25-8 1.5-12.875-4.75-14.375-11.375-7.75-11.125-3.25-14.875 2.75-10.875 6.25-6.25 7.875-4.625 7.75zM214 441.5l-.25-165.5 44 58.75 15.75 29.5 19.25-33L333 275l1.5 167h-18.25l1-121.5-40.5 73.5L232 323.25l.25 118z"/><path fill="none" stroke="currentColor" stroke-width="8" d="M193.5 155h97v90h-97z"/><path fill="none" d="M219 250h47.75v6H219z"/><path fill="none" stroke="currentColor" stroke-width="8" d="M223.75 263.25 242.5 283l16-20zM214.75 246h55.75v13.25h-55.75zM294 218.875l6.75-2.125 6.625-2 6.75-2.875 5.625-2.625 6-3.125L331.5 203l5.625-3.5 5.875-4.125 5.75-4 5.875-4.625 5.75-4.5 5.375-4.75 5.25-4.75 4.875-5.25 4.75-5.875 4.25-6 4.125-6.25 3.875-6.125 3.5-6.625 3.5-6.75 3.375-6.5 2.875-6.75 2.625-7 1.25-6.75L411.625 96l1.5-7.625 1-6.875 1.375-7.125.75-7.125M290.625 222.688l5.344-5.125M291.75 173.5l5.75-3 5.5-3.25 6.25-3.25 4.75-3.5 5-3.75 5.25-4 5-4.25 5.25-5.75 3.75-4.75 4-5.25 4-5.25 3.75-4.75 4.25-5.5 3.25-5.25 3.25-6.25 2.75-6.25 2.5-6.25 2.25-6.75 2-6.5 2.25-6.25 1.25-7 1.5-6.75.5-7v-5.5l.25-5.25M203 138.5h78.25v16.75H203z"/><path stroke="currentColor" stroke-width="3" d="M160 128"/><path stroke="currentColor" stroke-width="8" d="m469.5 183.75-108-1.75"/></svg>