<svg xmlns="http://www.w3.org/2000/svg" viewBox="0 0 748 340"><g style="stroke:none"><path d="M19.33 80.56v14.12c0 5.56 2.53 10.6 5.31 10.6h58.7c0 1.4 0 28.08-.13 27.94-.09-.12-43.08-.06-67.28-.02C7.59 133.2 0 118.04 0 101.38V72.5c0-16.66 7.58-31.82 15.91-31.82h79.2c8.33 0 15.91 15.16 15.91 31.82v101.42H91.41c.18 0 .07-66.78.02-93.42-.01-5.54-2.53-10.56-5.29-10.56h-61.5c-2.78 0-5.31 5.06-5.31 10.6ZM608.11 91.5V80.56c0-5.56-2.53-10.6-5.31-10.6h-41.31c-2.78 0-5.31 5.06-5.31 10.6v52.66h-19.33c-.11-.1-.09-34.04-.05-60.82.02-16.62 7.57-31.74 15.87-31.74 16.42 0 41.83-.02 58.24 0 8.3 0 15.86 15.06 15.9 31.68.03 9.7.06 18.14.06 19.16h-18.78ZM478.5 105.3h25.29c2.78 0 5.3-5.04 5.3-10.6V78.2h17.12v23.2c0 16.66-7.58 31.82-15.92 31.82h-41.36c-8.33 0-15.91-15.16-15.91-31.82V52.94h-8.29v-23.5h8.29V9.28h20.16v20.16h35.9v23.48h-35.9v41.76c0 5.56 2.53 10.6 5.3 10.6ZM392.7 52.94V94.7c0 5.56 2.53 10.6 5.3 10.6h25.29c2.78 0 5.3-5.04 5.3-10.6V78.2h17.12v23.2c0 16.66-7.58 31.82-15.91 31.82h-41.36c-8.33 0-15.91-15.16-15.91-31.82V52.94h-8.28v-23.5h8.28V9.28h20.16v20.16h35.9v23.48h-35.9ZM339.13 133.24V80.58c0-5.56-2.53-10.6-5.31-10.6h-66.16c-2.78 0-5.3 5.06-5.3 10.6V94.7c0 5.56 2.53 10.6 5.3 10.6h63.46v27.94c-.23.08-47 .04-72.47 0-8.33 0-15.9-15.16-15.9-31.82V72.5c0-16.66 7.58-31.82 15.91-31.82h84.16c8.33 0 15.91 15.16 15.91 31.82v60.72h-19.61ZM143.94 105.3c14.04 0 51.32.04 65.27 0 2.78 0 5.31-5.08 5.3-10.64-.02-17.72.07-51.62.07-54h19.33v60.72c0 16.66-7.58 31.82-15.91 31.82h-82.23c-8.33 0-15.91-15.16-15.91-31.82v-60.7c-.14.5 17.83.02 18.78 0V94.7c0 5.56 2.53 10.6 5.3 10.6M661.69 105.3h-1.88c-2.78 0-5.31-5.04-5.31-10.6V80.88c0-5.6 2.56-10.66 5.36-10.6 9.99.18 31.91.04 48.12-.1l14.69-29.38c-21.57.06-52.61.16-71.26.1-8.34-.02-15.96 15.06-15.96 31.74v28.78c0 14.46 5.71 27.78 12.66 31.04z"/><path d="m732.97 41.22-14.42 28.84c1.29 0 2.48-.02 3.52-.04 2.79-.04 5.33 5.04 5.33 10.6V94.7c0 5.56-2.53 10.6-5.3 10.6h-49.89l-13.97 27.94h72.31c8.33 0 15.91-15.16 15.91-31.82V72.58c0-15.02-6.17-28.8-13.49-31.36M99.88 293.36v-14.12c0-5.56-2.53-10.6-5.31-10.6h-58.7c0-1.4 0-28.08.13-27.94.09.12 43.08.06 67.28.02 8.34 0 15.93 15.16 15.93 31.82v28.88c0 16.66-7.58 31.82-15.91 31.82H24.11c-8.33 0-15.91-15.16-15.91-31.82V200h19.61c-.18 0-.07 66.78-.02 93.42.01 5.54 2.53 10.56 5.29 10.56h61.5c2.78 0 5.31-5.06 5.31-10.6ZM155.22 305.3h-1.88c-2.78 0-5.31-5.04-5.31-10.6v-13.82c0-5.6 2.56-10.66 5.36-10.6 9.99.18 31.91.04 48.12-.1l14.69-29.38c-21.57.06-52.61.16-71.26.1-8.34-.02-15.96 15.06-15.96 31.74v28.78c0 14.46 5.71 27.78 12.66 31.04z"/><path d="m226.5 241.22-14.42 28.84c1.29 0 2.48-.02 3.52-.04 2.79-.04 5.33 5.04 5.33 10.6v14.08c0 5.56-2.53 10.6-5.3 10.6h-49.89l-13.97 27.94h72.31c8.33 0 15.91-15.16 15.91-31.82v-28.84c0-15.02-6.17-28.8-13.49-31.36M245.78 333.24h33.66l16.55-23.62 16.54 23.62h33.66l-33.37-47.64 31.42-44.84h-33.66l-14.59 20.82-14.6-20.82h-33.66l31.42 44.84z"/></g></svg>