<svg xmlns="http://www.w3.org/2000/svg" viewBox="0 0 768 768">
  <path d="M225.984 660.852c46.387 0 88.559-10.418 123.536-41.922 13.394 9.675 28.277 15.133 50.605 15.133 21.086 0 37.457-6.946 66.73-6.946 27.036 0 40.434 6.946 62.016 6.946 51.098 0 68.961-26.297 68.961-55.32 0-46.884-35.723-74.915-107.168-81.118 25.555-12.402 49.117-22.074 65.492-28.027 29.766 19.843 72.684 31.75 104.438 31.5C727.316 500.605 768 479.766 768 411.05c0-84.34-64-147.844-139.41-148.586l-54.078-73.18c-41.176-55.316-85.336-86.324-141.89-86.324-43.907 0-103.692 24.309-103.692 58.789 0 28.777 32.746 49.363 64.496 69.457 37.21 23.32 87.566 52.344 134.203 79.383-6.45 5.703-10.918 8.183-17.363 8.183-7.442 0-17.614-3.718-30.762-11.41-100.465-56.558-160.246-102.449-237.645-102.449-92.03 0-158.511 47.379-190.015 138.172C21.086 349.536 0 369.629 0 400.636c0 38.45 31.008 58.294 63.008 60.028 23.816 38.45 89.55 72.438 174.14 65.488l23.567 19.598c-6.203 3.227-12.156 4.219-19.352 4.219-16.37-.25-32-5.457-50.851-5.457-34.48 0-58.79 20.09-58.79 50.11 0 42.417 37.704 66.23 94.262 66.23m239.63-69.211c-31.009 0-50.606 4.964-64.497 4.964-11.164 0-23.816-1.738-36.219-11.906l-110.882-93.523c-79.38 3.476-137.676-17.363-171.164-65.985-25.301 2.977-43.657-6.695-43.657-27.535 0-18.851 16.371-31.996 43.907-30.511 25.3-83.844 81.117-122.79 158.261-122.79 81.117 0 164.465 65.239 224.992 99.473 16.625 9.922 34.73 13.149 46.887 13.149 27.29 0 48.617-17.118 67.969-51.848L416.246 203.426c-17.363-11.164-42.418-29.766-42.418-36.465 0-14.637 34.235-25.55 59.29-25.55 39.19 0 72.683 23.07 101.948 60.03l76.16 91.04c70.2-3.227 123.036 50.355 123.036 118.82 0 43.906-20.336 57.304-72.43 57.304-32.5 0-68.469-13.148-99.473-32.746-45.398 11.41-93.027 32.993-131.476 61.52a441 441 0 0 0-13.395 1.488l-17.86-43.66c-37.456-90.047-97.487-120.805-158.265-120.805-9.922 0-21.332.246-31.504 2.48-12.402 2.727-16.867 9.18-16.867 17.364 0 9.43 6.946 15.629 16.867 15.383 10.668-.5 17.614-1.738 29.77-1.738 56.309 0 97.734 30.015 131.969 111.875l24.062 55.32c18.852-3.969 36.711-6.95 64.742-6.95 50.606 0 100.711 13.4 100.711 47.63 0 13.148-11.41 22.078-32.242 22.078-24.066 0-41.426-6.203-63.258-6.203m178.855-196.957c10.91.246 19.84-9.43 20.34-20.098.242-10.664-7.942-19.594-19.102-19.844-10.668-.246-19.844 8.934-20.094 19.348-.496 10.918 8.188 20.344 18.856 20.594M167.44 594.867c0-9.922 6.7-17.613 21.086-17.613 14.141 0 29.52 3.969 46.637 3.969 22.82 0 38.945-1.985 53.828-12.153l32.496 26.79c-22.82 20.59-56.558 31.257-96.742 31.257-34.73 0-57.305-12.406-57.305-32.25m0 0"/>
</svg>
