<svg xmlns="http://www.w3.org/2000/svg" viewBox="0 0 1128 792">
  <path d="M772 7c-1.4.4-5.2 1.3-8.5 2-8.1 1.7-15.4 4-16.1 5.1-.3.5-1.2.9-2 .9s-2.7.8-4.2 1.9c-1.5 1-8.1 5-14.7 8.9-12.4 7.3-21.3 15.1-36.9 32.2-3.8 4.1-12.5 13.4-19.5 20.5-6.9 7.2-16.4 17.1-21 22-4.6 5-16.1 16.9-25.5 26.5s-19.5 20.1-22.4 23.2c-5.1 5.5-5.5 5.8-10.2 5.8h-4.9l-.3 4.2c-.3 3.8-.6 4.3-2.8 4.4-7.3.2-9.1.5-8.6 1.3.6.8-5.4 8.1-6.7 8.1-.4 0-.7-.7-.7-1.5s-.5-1.5-1-1.5c-.6 0-1.4-.8-1.7-1.8-.4-.9-4.5-5.7-9.1-10.6-4.7-5-9.1-10.5-9.8-12.3-.8-1.8-1.9-3.3-2.4-3.3s-10.1-9.1-21.4-20.3c-11.2-11.1-24.4-23.9-29.3-28.4-8.4-7.7-23.7-23.1-41.7-42-5.6-5.9-10.8-10-18.9-15-23.7-14.7-34.6-19-62.5-24.4-9.6-1.8-26 .3-30.7 4.1-.5.4-2.5 1.1-4.2 1.5-1.8.3-3.3 1.1-3.3 1.6 0 1.4 3.8 1.1 7.1-.7 1.6-.8 3.8-1.3 4.7-1s5.8 1 10.7 1.6c15.6 1.8 31.4 5.2 40.5 8.7 5.6 2.2 9.7 4.1 25.5 12.1 7.6 3.9 16.5 10.1 22 15.3 3.3 3.2 7.8 7.3 10 9.1s5.5 5.1 7.5 7.3c8.9 10.1 33.1 33.4 45.9 44.1 5 4.2 11 10.2 25.6 25.8 7.2 7.6 15.6 16.4 18.8 19.5 11.3 10.8 14.6 17.1 11.4 21.5-1.3 1.7-1.6 1.6-4.8-2.4-1.9-2.3-6-7-9.1-10.4-5.1-5.4-5.7-6.6-5.8-10.4V156h-5.2l-5.3.1-15.5-15.9c-8.5-8.6-21.8-21.1-29.5-27.7s-23.9-21.7-36-33.6c-31.1-30.7-37.6-35.6-58-44.1-22.1-9.3-31.9-11.6-50.6-11.9-9.5-.1-9.6-.1-14.2 3.4-2.5 1.9-6.8 4.2-9.6 5.2-2.7.9-5.5 2.3-6.1 3.1-.7.7-1.8 1.4-2.6 1.4-.7 0-3.4 1.1-6 2.5s-5.3 2.5-6 2.5c-1.3 0-3.4 3-3.4 4.9 0 .6.7 1.1 1.5 1.1s1.5.4 1.5 1c0 1.3-5.4 4-8 4-1.1 0-2 .4-2 1 0 .5-2.4 1.6-5.2 2.5-5.3 1.6-10.6 5-9.5 6.1.3.4 4.2.3 8.7-.1 6.4-.6 8.6-1.2 10.2-2.9l2.1-2.1-.6 2.2c-.7 3 .5 3.2 14.3 3.1 19.8-.1 58.5 9 76.5 18 8.5 4.2 14.1 8.8 11.9 9.6-.8.3-2.5-.4-3.7-1.5-3.2-3-11.2-6.9-14.2-6.9-1.4 0-5.1-.8-8.2-1.9-6.2-2-19.6-4.6-31.5-6.2-22.1-2.8-26.5-3.1-43.8-2.6-26 .8-32.7 3.1-43.6 15-10.6 11.7-15.9 25.6-18.1 47.2-1.3 13.1 1.2 37.7 5 49.5 4.2 12.6 13.2 29.4 19.6 36.5 1.4 1.6 3.4 4 4.2 5.3 2.6 3.6 48.8 51.3 57.2 59 3.8 3.5 4.4 5 2.7 8-1.3 2.3-6 13.1-6 13.8 0 .2-1.8 4.4-4.1 9.2-7.9 16.8-9.9 21.2-9.9 21.7 0 .4-1.2 3.2-2.6 6.3s-2.9 6.6-3.4 7.7-2.2 4.9-3.8 8.5c-3.5 7.6-6.4 14.2-9.3 20.7-1.1 2.7-3.1 7-4.3 9.8-1.3 2.7-3.1 6.9-4.2 9.2-1 2.4-2.1 4.3-2.4 4.3s-1.4-1.9-2.4-4.3c-1-2.3-2.4-5.6-3.1-7.2-.7-1.7-2.9-6.5-4.9-10.8-2-4.4-3.6-8.1-3.6-8.4s-.9-2.4-1.9-4.7c-2.6-5.5-7.4-16.2-9.6-21.1-.9-2.2-2.6-6-3.7-8.5s-2.4-5.4-2.8-6.5c-1-2.4-6.3-14.1-9.6-21.2-1.3-2.8-2.4-5.4-2.4-5.7s-1.4-3.6-3.1-7.3c-1.7-3.8-3.7-8.2-4.4-9.8-4.8-11-6.9-15.6-8.9-20-1.3-2.8-3.3-7.3-4.4-10-1.1-2.8-3.7-8.6-5.7-13-3.9-8.6-4.3-9.5-7.5-17-1.2-2.8-3-6.8-4-9s-2.5-5.6-3.3-7.5-2.7-6.2-4.2-9.5c-4.1-9-5.1-11.4-8.9-20.3-2-4.6-5.2-11.9-7.2-16.2l-3.7-8H0v14.6c0 11.3.3 14.9 1.4 16 1.2 1.1 5.9 1.4 24.5 1.4H49v322H25.9c-18.6 0-23.3.3-24.5 1.4-1.1 1.1-1.4 4.7-1.4 16V542h136v-14.8c0-10.2-.4-15.2-1.2-16-.9-.9-7.8-1.2-25-1.2H86V365.5c0-95.7.3-144.5 1-144.5.6 0 1 .7 1 1.6s.6 2.8 1.4 4.2c2.6 5 11.6 24.9 11.6 25.7 0 .2 1.4 3.4 3.1 7.2 1.6 3.7 3.4 7.7 3.9 8.8.4 1.1 2.1 4.9 3.7 8.5s4.2 9.4 5.8 13 4.2 9.4 5.8 13 3.2 7.4 3.7 8.5c.4 1.1 2 4.7 3.5 8s3.3 7.3 4 9c.7 1.6 2.3 5.1 3.4 7.7 4.8 10.9 6.3 14.4 7.1 16.3.5 1.1 2.1 4.9 3.8 8.5 3.6 8.1 8.9 20.1 11.4 26 2 4.6 2.7 6.2 7.3 16.5 1.5 3.3 3.3 7.5 4.1 9.2.8 1.8 2 4.8 2.8 6.5.8 1.8 2.6 6 4.1 9.3s3 6.9 3.5 8c.8 2 5.6 12.6 9 20 1 2.2 3 6.8 4.4 10.2 3.5 8.3 7.5 17.5 8.5 19.3.7 1.3 5.6 1.5 33.3 1.8 36.9.3 33.7 1 37.8-8.8 1.2-3 3.5-8.2 5-11.5s3.7-8.3 4.9-11c1.2-2.8 2.6-5.9 3.1-7 1.7-3.9 6.2-14.1 7.7-17.5 3.3-7.5 4.2-9.7 6.7-15 4.3-9.4 7.6-17 7.6-17.6 0-.2 1.3-3.2 2.9-6.7 3-6.4 7.3-15.9 9.6-21.2.7-1.7 2.5-5.6 3.9-8.7s2.6-5.9 2.6-6.2c0-.2 1.6-4 3.6-8.3 6.4-14 7.7-16.8 8.5-18.8 2.9-7.3 6-13.5 6.6-13.4.5 0 2.3 1.9 4.1 4.2 1.9 2.3 11.2 12.1 20.8 21.8l17.4 17.6v5.9c0 7.1-.8 8.4-11.6 19-4.5 4.3-11.9 12.2-16.4 17.4-9.7 11-33.5 35.4-60.4 61.9-19.7 19.3-35.3 36.7-38.2 42.3-.9 1.8-2 3.5-2.3 3.8-1.3 1-8.8 16.6-11.4 23.5-6.2 17-7.2 23.4-7.2 45.5.1 15.6.5 22.3 1.8 28.1 2.2 10 2.1 9.8 7.7 21.4 7 14.4 11 19.9 24.5 33.7 12 12.2 14.9 14.6 27.5 23.2 3.6 2.5 9.8 6.8 13.8 9.5 4 2.8 7.7 5.1 8.2 5.1s2.4.9 4.2 2c6.4 3.7 19.2 6.1 35.7 6.5 12.9.3 15.6.2 16.9-1.1.9-1 2.7-1.4 4.4-1.2 1.6.3 3.3-.1 3.9-.9.6-.7 3.1-1.3 5.5-1.3 2.3 0 4.6-.5 4.9-1 .3-.6 2.4-1 4.6-1 2.1 0 3.9-.5 3.9-1 0-.6.6-1 1.3-1 2.5 0 11.3-5 14.2-8 1.6-1.6 3.4-3 3.9-3 .6-.1 2.7-1.4 4.6-3 1.9-1.7 4-3 4.7-3s1.3-.4 1.3-.8c0-.5 1.1-1.4 2.5-2 4.7-2.2 15-11 26.6-22.8 12.9-13.4 28.4-28.1 34.8-33.4 5.9-4.9 15.8-15.1 23.1-24 7.2-8.8 36.7-39 38-39 .5 0 1.8-1.4 3-3 2.7-3.8 4-3.8 8.1.1 1.9 1.8 5.9 5 8.9 7.3 3 2.2 7.9 6.5 10.8 9.6 4.1 4.3 5.5 5.2 6.2 4.1.7-1.2 1.9-.6 6.4 2.8 5.3 4.1 33.1 31.2 38.7 37.6 1.4 1.7 6.1 6.3 10.5 10.4 4.3 4.1 13 12.3 19.2 18.3 6.2 5.9 12 10.8 12.8 10.8.9 0 1.4-.4 1.2-.9-.5-1.5-17.6-19.9-33.5-36.1-8.3-8.5-17.3-18-19.9-21s-9-10-14.3-15.5-10-10.7-10.6-11.6c-.5-1-3.2-4.2-6-7.2-2.7-3-6.6-7.4-8.5-9.7s-5.6-6.3-8.2-9c-2.7-2.6-4.8-5.1-4.8-5.4 0-1.4 2.1-.4 4.7 2.3 10.2 10.7 13.7 14 21.3 20.1 4.7 3.8 12.6 11.3 17.5 16.7 14.6 15.9 35.9 37.7 53 54.3 8.8 8.5 24 23.4 33.7 33.1 19.8 19.7 27.3 25 41.8 29.4 3 .9 6.6 2.2 7.9 2.8 1.5.8 7.8 1.2 17 1.2 17.4 0 17.1.1 27.3-13.5 3.4-4.7 6.6-8.7 7.1-8.8.4-.2 1.4-1.7 2.2-3.3 1.5-2.7 1.4-2.9-.7-3.3-1.3-.3-9-.7-17.3-.9-8.2-.3-17.5-1-20.5-1.7-6.3-1.4-33-14.8-42.8-21.5-4.2-2.8-16.6-13.9-23.7-21-8.2-8.2-33-34.6-37.6-40.1-7.9-9.3-25.2-28.7-32.9-36.9-5.9-6.3-7.1-8-5.7-8.3 1-.2 2.9-.1 4.3.2 2.9.8 19.4 17.2 36.9 36.6 35.3 39.5 57.6 60.8 71.7 68.4 2.9 1.6 7.8 4.2 10.8 5.9 3 1.6 6 3.3 6.5 3.7.6.4 1.9 1 3 1.3s5.2 1.4 9 2.5c10.1 2.9 19.9 4.2 31.4 4.2 11.4 0 10.5-.7 10.1 9-.1 3.4-1.3 8.3-3.3 12.9-1.7 4.1-3.1 8.8-3.2 10.5-.2 5-2 7.1-8.5 10-3.3 1.5-6 3.1-6 3.7 0 1.2 1.7 1.2 2.5-.1.3-.6 1.6-1 2.8-1 1.1 0 3.6-1.4 5.4-3.2 2.8-2.7 3.4-2.9 4.9-1.7 1.3 1.1 1.8 1.1 2.1.1.3-.6 1.7-1.2 3.2-1.2s3.6-.9 4.6-2 2.3-2 3-2c.6 0 2.2-1.1 3.5-2.5s2.9-2.5 3.5-2.5c.7 0 2-.9 3-2s2.3-2 3-2c.6 0 2.4-1.3 4-3 1.6-1.6 3.4-3 4-3s3.3-2.3 6-5.1c2.8-2.8 5.8-5.4 6.7-5.8 2.4-.9 27.8-26.1 27.8-27.5 0-.7 1.6-2.7 3.5-4.6 1.9-1.8 3.2-3.7 2.9-4.1-.2-.4.4-1.4 1.3-2.1 2.6-1.9 7.3-16.4 7.3-22.4 0-4.1.9-6.9 4.3-13.5l4.2-8.4v-19.1c0-12.7-.4-19.9-1.2-21.5-.7-1.3-1.4-4.3-1.7-6.7-1.3-9.6-1.9-12.2-2.7-12.8-.5-.3-.9-1.6-.9-2.9s-.4-2.7-1-3c-.5-.3-1-1.4-1-2.3 0-2.9-9.4-20.3-14.9-27.7-2.9-3.8-9.5-11.4-14.7-16.9-10.7-11.2-10.4-10-5.3-21.3 1.6-3.7 3.4-7.7 3.9-8.8s2.1-4.7 3.5-8c1.5-3.3 3.4-7.6 4.2-9.5 2.5-5.7 4-9 8.2-18.2 2.3-4.8 4.1-9 4.1-9.3s1.4-3.6 3.1-7.3c1.6-3.7 3.4-7.6 3.9-8.7.4-1.1 1.7-4 2.8-6.5s3-6.8 4.2-9.5c1.2-2.8 3.5-7.7 5.1-11.1 1.6-3.3 2.9-6.3 2.9-6.7 0-.6 1.6-4.2 8.2-18.7 1.1-2.5 2.4-5.4 2.9-6.5.4-1.1 2.2-5.2 4-9 1.7-3.9 4.7-10.6 6.6-14.9 3.8-8.9 5-11.6 8.6-19.6 1.4-3 3.5-7.8 4.7-10.5 3.3-7.6 4.5-10.3 8.4-18.8 2-4.3 3.6-8.4 3.6-9.2 0-.7.7-1.8 1.5-2.5s1.5-1.9 1.5-2.6c0-.8.4-2.2 1-3.2 1-1.8 4.7-10.3 6.9-16 .8-1.7 1.8-3.2 2.3-3.2.6 0 .7.7.4 1.6s-.6 66.1-.6 145V510h-23.8c-17.2 0-24.1.3-25 1.2-.8.8-1.2 5.8-1.2 16 0 14.5 0 14.8 2.3 15.3 1.2.3 46.3.4 100.2.3l98-.3.3-14.9c.2-10.1-.1-15.3-.9-16.2-.9-1.1-5.9-1.4-25-1.4H1077V188h23.8c17.2 0 24.1-.3 25-1.2.8-.8 1.2-5.8 1.2-16V156H966.2l-3.2 6.7c-1.7 3.8-3.5 7.7-4 8.8s-2 4.7-3.5 8-3.4 7.6-4.2 9.5c-.9 1.9-2.6 5.7-3.9 8.5-4.4 9.7-8.4 18.6-8.4 19.1 0 .3-1.1 2.9-2.4 5.7-3.3 7-7.9 17.3-10.1 22.2-.9 2.2-2.6 6-3.7 8.5s-2.4 5.4-2.8 6.5c-.5 1.1-2.2 4.9-3.8 8.5-1.7 3.6-4 8.7-5.2 11.5-2.5 5.8-4.7 10.7-8.4 18.7-1.4 3.1-2.6 5.9-2.6 6.3 0 .5-3.2 7.5-8.6 19-1.3 2.8-2.4 5.4-2.4 5.7 0 .4-1.9 4.7-4.1 9.5-2.3 4.9-4.5 9.7-4.9 10.8-.5 1.1-2.1 4.9-3.8 8.5-1.6 3.6-4.4 9.9-6.2 14s-4.2 9.3-5.2 11.5-3.3 7.3-4.9 11.2c-3.1 7.4-4.5 8.8-5.5 5.5-.9-2.8-4.4-11.3-7.1-17.2-2.3-5-3.3-7.3-7.8-17.5-.7-1.7-2.9-6.4-4.9-10.6-1.9-4.2-4.4-9.8-5.4-12.5-1.1-2.7-3.2-7.6-4.6-10.9-1.5-3.3-3.1-6.9-3.6-8s-2.5-5.5-4.4-9.7c-2-4.2-3.6-7.9-3.6-8.3s-1.6-3.9-3.5-7.9-3.5-7.6-3.5-8.1c0-.4-1.8-4.5-4-9.1s-4.2-9.5-4.6-10.9c-.3-1.4-1-2.8-1.5-3.1s-.7-.9-.4-1.4c.3-.4-.2-1.3-1-2s-1.5-1.8-1.5-2.4c0-.7-.9-2.9-2-5.1-2.5-5-2.5-5.9.3-8.8 1.2-1.3 5.8-6.4 10.2-11.3 8.6-9.6 12.3-13.3 26.1-26.3 18.4-17.4 20.8-19.8 26.8-27.3 8.5-10.6 21.6-30.3 21.6-32.5 0-.2 1.4-3.3 3-6.8 1.7-3.6 3.3-8.8 3.6-11.7s.9-7.7 1.4-10.7c.6-3 1-7.5 1-10 0-4.3.1-4.4 1.7-2.8 2.2 2.1 3.2 20.1 1.4 23.6-.9 1.6-.9 2.1 0 2.1.8 0 .9 2.1.5 7.2-.4 4-.7 8.5-.7 10 0 1.4-.6 3.2-1.4 3.8-.8.7-1.5 2.4-1.5 3.9 0 3-11.6 22.1-16.5 27.2-.8.9-1.5 2.2-1.5 3.1 0 .8-1.9 3.5-4.1 5.9-9.8 10.4-9.4 10-7.9 10.9.8.5 2.2.4 3.4-.2 3.6-1.9 16.5-15.8 22.2-23.8 6.8-9.8 8.3-11.1 9.1-8.2.6 2.5 3.3 3 3.3.7 0-.8.7-1.5 1.5-1.5s1.5-.8 1.5-1.7c0-1.3.3-1.4 1.1-.6s.7 1.7-.5 3.4c-.9 1.3-1.6 3.1-1.6 4 0 2.2-10 17.9-16.6 26.2-3 3.7-5.2 7.2-4.9 7.8.4.5-.5 2.5-2 4.5-2.2 2.9-2.4 3.5-1 4 1.9.8 10.3-6.3 17.9-14.9 10.5-12 11.5-13.2 14.8-18.5 1.8-2.9 5-7.2 7.1-9.5 2.1-2.4 3.6-4.9 3.3-5.9-.2-1.1.1-1.5 1-1.1 1.4.5 1.9 2.5.8 3.6-.3.3-.7 2.6-.9 5.1-.1 2.6-.7 5.2-1.3 5.9-.5.6-2.3 4.4-4 8.4-1.7 3.9-4.7 9.7-6.6 12.7-2 3.1-3.1 5.6-2.6 5.6s1.9-1.8 3-4 2.4-4 2.8-4c.5 0 1.9-2.2 3.3-5 1.3-2.7 2.7-5 3.2-5 .4 0 .7-.7.7-1.5s.9-3 2-5 2-4.2 2-4.9c0-1.3 1.4-4.4 3.4-7.5.5-.8 1-3 1.2-4.9.2-1.8.7-3.9 1.2-4.6.5-.6 1-3.1 1.1-5.6.2-2.5.7-4.8 1.3-5.1.6-.4.5-1.5-.4-2.9-1-1.8-1-2.4 0-2.7 1.5-.6 1.7-10.9.2-11.8-.5-.3-1-4.6-1-9.5s-.4-9.2-1-9.5c-.5-.3-1-2.8-1-5.5s-.4-5.1-.9-5.5c-.6-.3-4-6-7.7-12.8-3.6-6.7-7.3-13-8.2-14-.8-.9-2-2.5-2.6-3.6-2.9-4.9-6.8-10.3-9.6-13.1-1.6-1.7-3-3.8-3-4.8 0-3.4-23.8-24.9-35.1-31.7-16.3-9.8-29.7-16.5-33.1-16.5-1.3 0-6.7-.9-12.1-2-10.3-2.1-32.6-2.7-37.7-1m46 8.9c3.9.6 2.8.8-8.5 2-7.1.7-17 1.6-22 2-4.9.5-11 1.6-13.4 2.5s-5.9 1.6-7.8 1.6-4.1.6-4.8 1.4c-.8.7-3.2 1.6-5.5 2-4.4.7-10 4.2-10 6.2 0 .6-.8 1.8-1.9 2.5-11 8.1-34.5 28.7-50.1 43.9-6.4 6.3-14 13.7-16.9 16.3-2.8 2.7-5.1 5.3-5.1 5.8s-.6.9-1.2.9c-2 .1-13.6 15.2-13.7 17.8-.1 2.1 4.3-1.1 13-9.1 4.1-3.8 9.1-8.1 11.1-9.5 2-1.5 4.2-3.6 4.8-4.7s2.6-3 4.3-4.3c4-2.6 5.8-4.4 11.6-11.1 2.5-2.8 5.3-5.1 6.3-5.1s2.4-1.1 3-2.5c.6-1.3 1.9-2.7 2.8-3s3.2-1.9 5.1-3.6c7-6.3 18.2-15.4 20-16.4 1-.5 2.4-2.2 3-3.7s1.5-2.6 1.9-2.3c1.1.7.1 4.6-1.6 6.6-1.7 1.9-.6 3.3 1.3 1.8.7-.6 1.3-.7 1.3-.3 0 .5-2.3 2.7-5.1 4.9-5.1 4-16.5 13.4-26.6 22.1-2.8 2.4-5.6 4.4-6.2 4.4s-1.1.4-1.1 1c0 .5-1.1 1-2.5 1s-2.5.4-2.5 1c0 .5-.9 1-1.9 1-1.1 0-2.3.9-2.6 2.1-.4 1.1-1.5 2.3-2.4 2.7-2.9 1.1-14.1 11.4-14.1 13 0 1.3-3.5 4.9-31.7 32.2-18.8 18.2-17.2 17.1-25.5 16.8l-7.1-.3 9.5-8.5c10.4-9.3 11.4-10.2 17.3-14.5 6.6-4.8 9.5-7.8 9.5-9.7 0-2.4-1.7-2.3-3 .2-1.2 2.2-5 4.6-5 3.1 0-.5 2-2.9 4.4-5.3 4.2-4.2 11.6-14 11.6-15.5.1-1.8 9-14.2 13.5-18.8 1.7-1.6 4.2-4.6 5.6-6.5 1.5-1.9 6.8-7.8 11.8-13s9.1-9.8 9.1-10.2.9-.8 2-.8c1.3 0 1.8-.5 1.4-1.5-.4-.9 1.1-3.3 4-6.2 5.7-5.8 6.9-5.2 1.7.8-6.2 6.9-3.5 6.5 4.1-.7 8.4-7.9 20.4-16.2 29.8-20.6 17.8-8.4 23.1-9.9 38.2-10.7 7-.4 13-1 13.4-1.4.9-.9 17.5-.8 23.4.2m17 10c0 1.7-2 2.3-8.3 2.7-6.1.3-6.2.3-2.9-1.1 1.8-.8 3.9-1.2 4.7-.9.7.3 2.2.1 3.2-.5 2.3-1.3 3.3-1.4 3.3-.2m-26 3c4.9.2 5.9.5 4 1.1-3.5 1.1-23.8 1.2-24.4.1-1.1-1.7 2.7-1.9 20.4-1.2M324 36c0 .5-.5 1-1.1 1-.5 0-.7-.5-.4-1 .3-.6.8-1 1.1-1 .2 0 .4.4.4 1m27.3.9c13.3.3 46.5 9.8 49.2 14.1.3.5 3.6 3 7.3 5.5 22.1 14.9 29 20.7 52.9 44.8 8.9 8.9 21.7 21.1 28.4 27.2 6.8 6 15.8 14.6 20.1 19l7.7 8-5.6.3c-5.1.3-5.9 0-8.2-2.5-1.5-1.5-5.7-5.5-9.6-8.8-3.8-3.3-9.3-8.3-12.3-11-2.9-2.8-6.5-5.7-7.8-6.5s-2.4-1.8-2.4-2.2c0-1.2-7.8-8.8-9-8.8-.5 0-1-1-1-2.3s-1.3-3.2-3.2-4.7c-1.8-1.4-6.6-6.1-10.8-10.5-12.3-13.1-18.2-18.7-25-24-3.5-2.8-8.4-6.8-10.9-9-2.5-2.3-5.7-4.8-7.1-5.8-1.4-.9-4.4-3-6.8-4.7-2.3-1.6-4.8-3-5.5-3s-1.7-.4-2.3-.8c-.5-.5-2.9-1.5-5.4-2.2-2.5-.8-6.4-2.3-8.8-3.3-5.9-2.5-21.3-6.3-29.2-7.2-3.6-.3-7.4-.9-8.5-1.2-1.8-.6-1.8-.7.5-1.3 1.4-.4 3.6-.3 5 0 1.4.4 5.1.8 8.3.9m492.7 4c0 .5-3.9 1.2-8.7 1.5-4.9.4-10.8.9-13.2 1.1-7 .8-3.7-.9 4.2-2.1 9.1-1.4 17.7-1.7 17.7-.5m-535.2 4.8c-.3 2.5-.7 2.7-5.5 3-7.2.4-7.1-1.6.2-4.3 4.9-1.9 5.7-1.7 5.3 1.3m7.6 1.4c2.1 1 2.3 1.5 1.5 3-.5 1.1-2 1.9-3.2 1.9-1.3 0-2.8.5-3.5 1.2-1.7 1.7-1.6-2.5 0-5.2 1.5-2.3 1.9-2.4 5.2-.9m24.1 3.8c2.2.5 6.5 1.4 9.5 2.1 3 .6 7.8 1.6 10.5 2.2 2.8.6 10.4 3.4 17 6.1 21.2 8.7 21.7 9 35.5 19 3.4 2.5 36.3 35.1 54.9 54.4.7.8 2 1.2 2.8.9s1.1-.1.8.4c-.3.6.2 1 1.2 1s6.1 4.3 11.3 9.5l9.5 9.5h-4.4c-4.1 0-4.7-.4-11.4-7.5-5-5.4-7.3-7.2-7.9-6.3-.6 1-1.4.7-3.5-1.3-3.8-3.5-24.3-24.2-38.8-39.1-15.6-16.1-25.7-23.3-49.5-35.3-15-7.7-34.4-13.6-49.1-15.2-3.2-.3-5.6-1-5.3-1.5.6-1 10.4-.3 16.9 1.1m501.6 5.6c0 .5-2 1.3-4.3 1.7-4.4.7-12 2.2-17.3 3.3-1.6.4-2.5.3-1.9-.2.6-.4 1.3-1.6 1.7-2.6.4-1.2 1.5-1.8 2.9-1.6 1.3.1 3-.1 3.8-.4 1.4-.6 10.8-1.4 13.8-1.3.7.1 1.3.5 1.3 1.1M757 63.6c0 1.7-2.6 4.7-5.9 6.8-3.2 2.1-17.8 14.2-21.6 17.9-.7.7-1.6 2.3-1.9 3.5-.4 1.2-1.1 2.2-1.5 2.2-.5 0-1.9 1-3.3 2.2-1.3 1.3-3.8 3.4-5.5 4.8-8.3 6.8-17.8 15.4-26.9 24.5-10.4 10.2-20.7 20.1-28.2 26.8-4 3.6-4.6 3.8-9.8 3.5l-5.6-.3 11.8-10.6c6.6-5.8 17.8-16.1 24.9-23 13.6-12.9 18.9-17.6 29-25.6 3.3-2.6 8.6-7.2 11.7-10.2 3.2-3 7.4-6.5 9.3-7.9s3.5-2.9 3.5-3.4c0-.4.7-.8 1.6-.8s2.6-.9 3.8-2c5.6-5.2 14.6-10.4 14.6-8.4m41.4 3.6c-2.2 1-4.4 1.8-5.1 1.8-5 .1-37.7 19.7-47.8 28.7-6.8 5.9-12.3 10.1-14.2 10.7-1.2.4-2.5 1.8-3 3.1-.8 2.4-11.7 11.7-17.2 14.7-2.5 1.4-3.1 2.3-3.1 5 0 2.9-.6 3.6-5.3 6.3-2.8 1.6-5.7 2.9-6.4 2.9-.6-.1-1.4 1.2-1.7 2.8-.3 1.7-2.7 5.2-5.3 7.9-4.5 4.6-5.1 4.9-9.8 4.9l-5-.1 3.5-3c8.1-6.9 16.9-15.5 17-16.4 0-1.7 25.6-25.5 27.3-25.5 1.2 0 7.7-6.5 7.7-7.7 0-.7.3-1.3.8-1.3.4 0 4-2.6 8-5.8s9-6.7 11-7.7c2-1.1 7.2-4.5 11.5-7.7s11.7-7.6 16.5-9.9c4.8-2.2 9.6-4.4 10.7-5 3.6-1.7 10.9-2.6 12.4-1.5 1.1.8.5 1.4-2.5 2.8M765 64.8c0 .4-1.3 1.6-3 2.5-3.3 2-3.9 1.3-1.3-1.5 1.6-1.8 4.3-2.5 4.3-1m83 7.7c1.4 1.6 1.4 1.6-5.5 3.4-2.2.6-6.4 1.1-9.2 1.1-6.8 0-12.7 1.4-23.5 5.6-4.8 1.9-9.6 3.4-10.6 3.4s-2.2.4-2.8.8c-.5.4-2.6 1.4-4.8 2.1-2.1.7-5.4 2.4-7.3 3.7-2 1.3-4 2.4-4.5 2.4-.9 0-5 2.9-11.7 8.5-6.3 5.2-12.9 11.4-30.1 28.1-24.8 24.4-24.9 24.4-30 24.4h-4.2l3.4-2.8c1.8-1.5 3.5-3.1 3.7-3.7.2-.5 2.2-2.5 4.5-4.5 10.3-9 23.6-21.9 34.5-33.3 4.4-4.6 18.6-16.7 19.7-16.7.4 0 2.1-1 3.8-2.3s6.5-4 10.6-6.2c4.1-2.1 8.6-4.5 10-5.2s4.1-1.6 6-1.9c1.9-.4 3.7-1.1 4-1.5s2.3-.9 4.5-1c2.2-.2 4.7-.6 5.5-1 2.9-1.5 10.9-2.9 16.2-2.9 2.9 0 5.9-.4 6.6-.9 2.3-1.4 9.9-1.2 11.2.4M288.3 89.7c.8 14 3 24.5 7.8 36.5 4.1 10.3 8.8 18.3 13.8 23.5 4.8 5.1 3.7 5.2-1.5.3-7.9-7.6-14.9-18-19.3-28.4l-4.1-9.9V97.6c0-13.9.5-18.6 2-18.6.4 0 1 4.8 1.3 10.7m20.2 6.8c1.9 7.4 4.1 15.4 4.9 17.7.9 2.4 2.2 6.2 3.1 8.5 1.7 4.8 9.3 19.5 10.5 20.3 1.3.8 7.1 11.2 6.8 12.1-.5 1.4-2-.2-9.4-9.6-8.9-11.5-12.5-17.4-15.6-26.1-4.5-12.3-4.7-13.7-5.3-26.9-.8-15.9.2-15.2 5 4M859 82c0 .5-.4 1-1 1-.5 0-1-.5-1-1 0-.6.5-1 1-1 .6 0 1 .4 1 1M272.2 94.8c-.4 13.4 1.3 25.4 4.3 31.3.8 1.5 1.5 3.3 1.5 3.9 0 4.6 14.7 23.9 17.2 22.4 1.4-.9 13.1 9.8 38 34.7 21.9 21.9 22.7 22.9 21.6 25.4-.6 1.4-1.4 2.5-1.7 2.5-.7 0-32.9-32.2-45-45-6.9-7.3-8.1-9-6.1-9 .5 0 .7-.7.4-1.5-.8-1.9-2.2-1.9-2.6-.1-.2 1.1-1.5.4-4.5-2.2-2.3-2-6.3-5.4-8.8-7.6-8.2-6.8-13.2-15-17.1-27.6-1.9-6.2-1.9-30.6 0-35.1 1.2-2.7 2.5-4.9 3-4.9.1 0 0 5.8-.2 12.8m52.6-9.6c.7 1.8 2.4 7.4 3.7 12.5 4.9 18.5 14.2 39.9 18.2 41.8 2.2 1.1 5.1 4.1 11.8 12 2.2 2.6 5.1 6 6.5 7.5 8.2 8.9 8.9 10.1 7.7 12.8-.6 1.5-1.4 3.1-1.9 3.6-1 1.3-6.2-4.2-12.3-12.9-2.7-3.9-5.2-7.2-5.5-7.5-.4-.3-3.9-4.9-7.9-10.3-12.3-16.7-21.7-39-22.8-54.5-.6-8.7.3-10.6 2.5-5m527.1 2c-.1 5.1-.1 5.2-1 1.8-.7-3.2-.4-7 .7-7 .2 0 .4 2.4.3 5.2M838 85.9c0 1-.7 2.4-1.5 3.1s-1.5 1.9-1.5 2.7-.5 1.1-1 .8c-1.3-.8-.2-7.7 1.3-8.7 1.5-.9 2.7 0 2.7 2.1m-492.7 9.3c-.1 4.3.2 7.5.9 7.9.6.4.8 1.3.6 2-.6 1.8-3.1-3-4.8-9.3-1.4-5.4-.9-7.8 1.8-7.8 1.6 0 1.7.8 1.5 7.2m482.7-.8c0 1.7-2.7 3-5.6 2.7-1.1-.1-3.2.9-4.7 2.3-2.1 2-2.3 2.5-1.1 3 .9.3 2 .4 2.5 0 .5-.3.9.2.9 1 0 .9-4.4 5.9-9.8 11.3-5.5 5.4-12 12.9-14.7 16.8-6.4 9.4-8.3 11.8-13.3 17.5-2.4 2.6-3.9 5.1-3.3 5.4 1.7 1.1 23.1-22.1 28.6-30.9 2.8-4.5 7.4-8.5 9.7-8.5 1.2 0 3-.8 4-1.7 1.1-1 .2 1.2-2 4.7-2.1 3.6-5 9-6.5 12.1-1.4 3.1-3.3 6.2-4.2 6.9-.8.7-1.5 2-1.5 2.9-.1.9-2.3 4.1-5.1 7.1s-6.4 7.5-8.2 10c-1.7 2.5-4.4 5.8-5.9 7.3-3.3 3.3-3.5 4.7-.9 4.7 2.3 0 9.1-5.3 15.4-11.9 2.7-2.8 5.5-5.1 6.4-5.1 1.8 0 30.1-27.7 30.9-30.3 1-3.2 2.9-1.2 2.6 2.7-.8 7.9-9.5 19.3-34.2 44.5-4.1 4.2-9.9 10.2-12.8 13.3-2.9 3.2-5.6 5.8-6 5.8s-3.4 2.7-6.6 5.9c-8.5 8.6-6.4 9.7 2.4 1.2 4.1-3.9 7.6-7.1 7.7-7.1.2 0 1.1-.7 2.1-1.6.9-.8 4.4-3.6 7.8-6.2s6.8-5.4 7.7-6.2 5.8-5.3 10.9-10 11.4-10.9 13.8-13.8c11.5-13.7 13.9-16.3 14.3-16 .2.2 1.1-.3 2-1.1 2.6-2.1 4.9.2 3.6 3.7-3.8 10.4-14.2 23.7-37.9 48.4-4.1 4.2-8.6 9.1-9.9 10.8-1.3 1.6-2.9 3-3.6 3-1.4 0-4.1 5.7-3.2 6.6.3.3 4-2.7 8.3-6.8 9.9-9.5 12.9-12.2 19.9-18.3 11.7-10.2 20.3-19.3 28.3-30 11.4-15.2 13-16.9 14.9-15.3 1.4 1.1 1.5 1 1-.7-.6-1.6-.2-2 1.8-2.1 2-.2 2.5.3 2.5 2.1 0 1.3-.5 2.7-1 3-.6.4-2.3 3.2-3.9 6.4-1.6 3.1-3.6 6.3-4.5 7-.9.8-1.6 2.1-1.6 3.1s-.7 2.3-1.5 3-1.5 1.7-1.5 2.2c0 1.3-4.8 7.5-9 11.8-1.9 1.9-7.4 8-12.2 13.5-4.7 5.5-11.5 12.8-15 16.1-3.4 3.4-8.5 8.8-11.3 12-2.7 3.3-6.9 7.8-9.2 10.1s-4.8 5.1-5.5 6.2C798.2 232.6 787 244 786 244c-.5 0-1-.6-1-1.3 0-.8-1.1-3.6-2.5-6.3s-2.5-5.6-2.5-6.4-2-5.5-4.5-10.4c-2.5-4.8-4.5-9.4-4.5-10 0-.7-1.6-4.1-3.5-7.6-1.9-3.6-3.5-7.5-3.5-8.6 0-1.2 1.8-4.1 4-6.5 3.5-3.9 5-6.9 3.5-6.9-1.6 0-5.5 3.5-5.5 4.9 0 .9-.9 2.2-2 2.9-1.7 1.1-2.1 1-2.7-.5-.4-1-.9-2-1.2-2.3-.5-.4-7.6-17.5-9.6-23.1-.4-1 1.1-2.7 5-5.3 3-2.1 5.5-4.2 5.5-4.7s2.5-2.7 5.5-5 5.5-4.5 5.5-4.9c0-1.1-4.9-3-7.9-3-1.5 0-4.3 1.1-6.2 2.5-1.9 1.3-4.8 3-6.4 3.8-1.7.8-4.6 3.5-6.5 6l-3.5 4.6h-14l2.5-2c10.6-8.6 26.4-24 29.7-29.1 1.4-2.1 2.8-3.8 3.2-3.8.3 0 3.5-2.7 7.1-6.1 4.2-3.9 10-7.8 16.5-11.2 12.8-6.6 18.1-8.4 26.9-9.5 11.2-1.5 14.6-1.4 14.6.2m-572 3c-2.5 6.6-.3 28.1 4.9 49.1 3.8 15 12.1 32.1 21.4 44 5.9 7.5 31.2 34.2 48.1 50.7 5.6 5.5 7.7 8.1 7.2 9.3-.3.9-.6 2.1-.6 2.6 0 2.8-4.2-.8-18.7-15.9-8.8-9.2-20-20.8-24.8-25.7-9-9.3-18-20-22.8-27.2-3.1-4.5-10.6-22.7-10.7-25.6 0-1-.4-2.7-1-3.7-.5-1-1.7-5.6-2.5-10.2-.9-4.5-2-10.5-2.6-13.2-1.9-8-1.5-29.9.6-34.2 1.9-4.1 3.1-4.1 1.5 0m107.6 1.4c-.9.9-3.7-.8-3.1-1.8.5-.8 1.1-.7 2.1.1.8.6 1.2 1.4 1 1.7m471.4-.5c0 1.9-8.3 12.6-9.7 12.7-.7 0-1.3-.2-1.3-.5 0-1.2 5.7-9.1 8-11.2 3-2.7 3-2.7 3-1m-458.4 9.5c3.8 4.1 9.5 9.9 12.8 13 3.2 3.2 9.4 10 13.7 15.2 4.4 5.2 10.2 11.7 12.9 14.5l5 5-6 .3c-4.5.2-6.4-.1-8.2-1.5-4.2-3.3-37.3-36.8-39.7-40.1-2.1-3.1-2.2-3.4-.7-5.1.9-1 1.6-2.8 1.6-4 0-1.8-.4-2.1-2-1.6-1.5.5-2 .2-2-1.2 0-1.1.5-2.4 1.2-3.1 1.5-1.5 2.8-.5 11.4 8.6m475.4-6.6c0 .7-.5 2-1 2.8-.8 1.2-1 .9-1-1.3 0-1.5.5-2.7 1-2.7.6 0 1 .6 1 1.2m-606.3 17c-.3.7-.5.2-.5-1.2s.2-1.9.5-1.3c.2.7.2 1.9 0 2.5m112 1.6c2.5 1.6 8.6 6.8 10.2 8.6.9 1.1 6.8 7.3 13.1 13.8 6.3 6.6 11.7 12.4 11.8 12.9.2.5-2.3.9-5.5.9-6.8-.1-7.7-.7-16.8-12-7.9-9.8-11.5-15.6-11.5-18.3 0-1.2-.9-2.8-2-3.5s-2-1.7-2-2.2c0-1.2 1-1.3 2.7-.2M245 128.2c.1 6.3 1.4 20.6 2.8 30.8.5 3 1.9 8.6 3.1 12.5 6.6 20.5 14 30.2 52.6 69.3 14.3 14.4 26.1 26.8 26.2 27.5.2.7-.5 2.2-1.5 3.5l-1.7 2.2-14.5-14.7c-13.7-14-32.5-33.9-43.7-46.4-17.7-19.8-26.3-43.7-26.3-73.4 0-7.2.3-14 .6-15.3 1.2-4.2 2.4-2.2 2.4 4M469.5 155c.3.5-.3 1-1.5 1s-1.8-.5-1.5-1c.3-.6 1-1 1.5-1s1.2.4 1.5 1m-187.4 7.7c9.6 12.8 20.4 24.5 43.8 47.8 18.5 18.3 20.1 20.2 19.6 22.7-.4 1.6-.9 2.8-1.2 2.8-.8 0-33.3-33.1-42.9-43.6-10.4-11.5-24.4-31.2-24.4-34.3 0-1.9.6-1.3 5.1 4.6m49.1 4.1c.7 1.1 2.4 2.5 3.7 3.1 2.5 1.4 10 6.8 14.1 10.3 13.7 11.6 15.6 13.7 13.1 15.2-.8.6-5.4-3.3-21-18-4.2-3.9-8.3-7.5-9.1-8s-2.6-2.2-4-3.8c-2.4-2.7-2.4-2.8-.3-1.7 1.2.6 2.8 1.9 3.5 2.9m217.4 21.3c3.1 4.4 6.3 8.3 7 8.6 2 .7 1.7 2.7-.7 4.9-1.7 1.6-2.2 1.6-2.9.4-.6-.8-1-1.8-1-2.1 0-.4-2.4-3.1-5.4-6-5.1-5.1-5.3-5.6-4.9-9.7.3-2.3.9-4.2 1.4-4.2s3.4 3.6 6.5 8.1m19.2-2.4c-4.1 6-7.2 8.7-7.6 6.8-.6-2.7 2.9-8.2 6.1-9.7 4.9-2.4 5-2.1 1.5 2.9m-61.4 7.5c8.5 8.8 17 18.2 19.1 21.2 3.8 5.5 5.5 6.8 8.1 6.2 3.8-1 2.8 1.2-1.6 3.4-4.2 2.1-6 2-6-.5 0-.8-7.4-8.8-16.5-17.8-9.1-8.9-16.5-16.6-16.5-17s1.9-.7 4.2-.7c3.6 0 4.7.6 9.2 5.2m23.2.2c3.2 2.9 7.3 7.6 8.9 10.4 1.7 3 3.8 5.2 5 5.4 1.1.2 2.1 1 2.3 1.9.2 1.3-1.2 2.5-6.2 4.8-.5.2-.6-1-.3-2.8.6-2.7.4-3.1-1.4-3.1-1.1 0-2.6-.6-3.2-1.3-.7-.7-5.4-5.6-10.6-11l-9.5-9.7h4.5c4.1 0 5.2.5 10.5 5.4m97.4-4.6c0 .4-1.1 2.3-2.5 4.2-7.7 10.5-8.6 11-10.2 5.7-.6-2-.6-4.6 0-7l.9-3.7h5.9c3.3 0 5.9.4 5.9.8m-42.9 2.5c-1 .9-1.1.8-.5-.6.3-1 .9-1.5 1.2-1.2s0 1.1-.7 1.8m50.3 16.5c-.4 2.7-1.1 3.9-1.9 3.6-.7-.3-1.6-.1-2 .5-1 1.7-2.5 1.3-2.5-.7 0-2.4 5.2-9.3 6.3-8.3.4.4.5 2.6.1 4.9M499 210.6c2.5 2.7 6.3 7.2 8.5 9.9 4.9 6 8.5 9.4 10.7 10 3.2 1.1 2.8 3.5-1.4 8.1-2.2 2.4-4.3 4.2-4.6 3.9-.3-.2 0-1 .5-1.7.6-.7 1.4-2.7 1.8-4.5.6-3 .4-3.3-3.2-4.9-2.1-1-4.2-1.8-4.6-1.8-1.1-.1-8.7-7.8-8.7-8.7 0-.4-1.3-2.1-3-3.9-2.6-2.8-3-4-3-8.7 0-4.4.2-5.2 1.3-4.1.6.7 3.2 3.6 5.7 6.4m51-2.2c0 .3-.4.8-1 1.1-.5.3-1 .1-1-.4 0-.6.5-1.1 1-1.1.6 0 1 .2 1 .4m22 10.3c-.1.5-1.2 2.1-2.6 3.8-2.7 3.1-2.8 2.8-.5-1.8 1.3-2.5 3.1-3.7 3.1-2m51.2 2.5c-.7.7-1.2.8-1.2.2 0-1.4 1.2-2.6 1.9-1.9.2.3-.1 1.1-.7 1.7m-233.5 2c-.3.8-.6.5-.6-.6-.1-1.1.2-1.7.5-1.3.3.3.4 1.2.1 1.9m110.2 17.4c.5.5 1.3 2 2 3.1.6 1.2 2 2.5 3.1 2.8 2.8.9 1.8 3.6-3.1 8.5-4.4 4.3-4.5 4.3-2.4-.7.8-1.9 1.5-3.8 1.5-4 0-.3-2-2.4-4.4-4.7-4.3-4-5.4-7.1-4.7-13.1.1-.8 5 4.1 8 8.1m180.6-2.6c2.9 5.7 3.1 7.3 1.1 8.9-1.1.9-2.2.9-5-.3-3.3-1.4-3.6-1.8-3.6-5.7 0-4 2.1-7.9 4.1-7.9.5 0 2 2.2 3.4 5M384 240.3c3 2.4 6 7 6 9.3 0 1.3-.2 2.4-.5 2.4-1.3 0-9.5-8.6-9.5-10 0-3 1.6-3.7 4-1.7m300.8 9.9c-.4 2.7-2.8 3.6-2.8 1 0-2 .8-3.2 2.2-3.2.5 0 .8 1 .6 2.2m3.4 6.4c1.1 2.5 1.6 5 1.1 5.4-1.5 1.5-4.1-1.5-4.3-5-.4-6.6.4-6.7 3.2-.4m-300.6 15.6c1.6 2.3 2.4 4.6 2.2 6.5l-.3 2.8-5-5c-2.7-2.8-6.9-7.3-9.1-10-3.5-4.2-4-5.4-3.2-7.4.9-2.4 1-2.4 6.9 3.5 3.3 3.2 7.1 7.5 8.5 9.6M608 260c0 .5-.9 1.4-2.1 2-1.9 1.1-2 1-.9-.9 1.1-2.2 3-2.9 3-1.1m-114 2.7c0 .5-.4 1.5-1 2.3-1.1 1.8-2.5.7-1.7-1.5.6-1.5 2.7-2.1 2.7-.8m182.8 8.5c.2.9-.4 1.8-1.3 2.1-1.1.5-1.5 0-1.5-1.9 0-2.8 2.3-2.9 2.8-.2m17.7-.2c1 1.1 1.4 2 1 2s-.1.8.8 1.7c.8 1 1.9 3 2.2 4.5.6 2.4.4 2.8-1.4 2.8-1.3 0-4.6 2.6-8.7 7-3.7 3.8-7.1 6.7-7.7 6.3-.5-.3-.7-.2-.4.4.3.5-.7 2.5-2.2 4.4-2.7 3.1-2.9 3.2-3.5 1.2-.4-1.1-.7-4.6-.8-7.8-.2-5.8 1.1-8.1 4-7 .8.3 1.6-.4 1.9-1.6s1.1-1.8 1.9-1.5 1.4-.1 1.4-1c0-.8 1.6-3 3.5-4.8 2.3-2.2 3.5-4.3 3.5-6 0-3.1 2-3.4 4.5-.6m-322.8 13.2c3.2 4 8.1 9.7 10.9 12.8 6.2 6.6 7.4 8.8 7.4 13.2v3.3l-4.8-5.1c-11.9-12.9-21.9-24-22.5-25.1-.8-1.3 1.1-6.3 2.4-6.3.4 0 3.4 3.2 6.6 7.2m262.3.8c0 .5-.5 1-1.1 1-.5 0-.7-.5-.4-1 .3-.6.8-1 1.1-1 .2 0 .4.4.4 1m70 6.2c2.6 5.5 2.6 6.1-1.2 9.1-1.8 1.4-9.4 8.5-16.8 15.8l-13.5 13.3-.3-4.4c-.3-4.3-.2-4.5 8.2-12.9 9.2-9.3 12.4-12.9 17.6-20.4 1.8-2.6 3.5-4.7 3.6-4.7.2 0 1.3 1.9 2.4 4.2m-331.8 21.9c2.1 2.4 6 6.8 8.7 9.7 7.8 8.2 9.1 10.2 9.1 13.8 0 1.9-.4 3.4-.8 3.4-.9 0-19.2-18.4-27.8-27.9-2.7-3-5.7-6.3-6.7-7.4-1-1-1.7-2.1-1.4-2.5.2-.4.9-2.1 1.6-3.8l1.2-3.2 6.2 6.8c3.4 3.7 7.9 8.7 9.9 11.1m340.1-2.7c1.5 4.4 1.5 4.4-1.6 8.1-4.4 5.3-7.6 8.5-8.7 8.5-.6 0-1 .4-1 .9 0 1.8-14.2 17.1-15.9 17.1-.6 0-1.5.9-2.1 2s-1.5 1.8-2.1 1.5c-.5-.4-.9-.1-.9.4 0 .6-1.5 2.7-3.4 4.7l-3.3 3.5-.7-3.2c-.3-1.7-.6-5-.6-7.2 0-3.8.6-4.7 8.3-12.2 13.5-13.1 29.8-28.5 30.2-28.5.2 0 1 2 1.8 4.4M628 323c0 .5-.4 1-1 1-.5 0-1-.5-1-1 0-.6.5-1 1-1 .6 0 1 .4 1 1m-5 2.7c0 1.5-4.8 6.8-5.5 6.1-.4-.4.3-2 1.6-3.7 2.3-2.9 3.9-3.9 3.9-2.4m97.4 2.5c.9 1.7 1.6 3.7 1.6 4.4 0 1.3-47.7 48.4-49.1 48.4-.5 0-.9-2.4-.9-5.4v-5.5l10.7-9.8c5.9-5.4 16.4-15.5 23.3-22.5 6.9-6.9 12.6-12.7 12.7-12.7.1-.1.9 1.3 1.7 3.1m-85.4 5.7c0 4.5-.4 5.2-4.9 9.7-5.4 5.4-12.9 11.8-19.6 16.9-1.5 1.1-4.8 3.8-7.3 6-2.6 2.3-6.1 5.2-7.8 6.6s-2.9 3-2.6 3.7c.2.7-.3 1.2-1.1 1.2s-2.2 1.1-3.1 2.5-2.3 2.5-3.1 2.5c-.7 0-2.2 1-3.2 2.3-1.7 2.1-6.6 5.7-7.8 5.7-1 0-.5-1.7 1.3-3.6 1-1 2.9-3.9 4.2-6.4 1.7-3.1 3.8-5.1 6.6-6.5 2.2-1.1 5.1-3.7 6.4-5.7 3.1-4.9 39.1-39.6 41.3-39.8.4 0 .7 2.2.7 4.9m95.2 17.7c.2 2-1 3.6-5.2 7.2-3 2.6-10 8.9-15.4 14.2-14.5 13.9-15.7 15-16.3 15-.3 0-4.4 3.7-9 8.2-10.7 10.6-11 10.7-11.9 6.3-.9-4.9.2-8.3 3.9-11.9 11.9-11.5 34-32.1 35.6-33.2 1.1-.8 4.7-4.3 8.2-7.9l6.2-6.5 1.9 3c1 1.7 1.9 4.2 2 5.6m-98.4 13.8c-1.8 1.6-4.6 4.1-6.3 5.5-1.6 1.5-6.7 5.5-11.2 9-4.5 3.4-8.5 7.1-8.8 8-.3 1-3 3.5-6 5.6-3 2-5.5 4.1-5.5 4.5 0 .3-1.1 1.3-2.5 2s-2.5 1.9-2.5 2.6c0 .6-.7 1.4-1.5 1.8-.8.3-1.5 1.5-1.5 2.6 0 1.4-.7 2-2.2 2-1.7 0-2.8 1.1-4.1 4-1.2 2.6-2.7 4.2-4.3 4.6-1.3.3-2.4 1.1-2.4 1.7 0 1.4-39.7 40.7-41.1 40.7-.6 0-2.7 1.8-4.6 4-2.6 2.8-4.2 3.9-5.4 3.5-1.3-.5-3.2.8-6.4 4.2-2.4 2.6-4.5 5.3-4.5 6 0 .6-1.2 2.1-2.6 3.2-1.7 1.3-2.3 2.5-1.8 3.3 1.4 2.1.4 7.2-1.9 9.5-2.7 3-3.9 2.9-3.1-.2.8-3.3-1.5-3.3-4.6 0-1.9 2-2.6 2.2-4.3 1.4-1.7-1-1.9-1.8-1.3-6.2.7-6.2 2.7-9.1 8.5-12.4 3.1-1.7 5.2-2.2 7.2-1.8 2.5.6 3.3 0 8.1-5.9 2.9-3.6 6-6.6 6.9-6.6 1.8 0 10.1-7.8 9.5-8.9-1.3-2.1 27.8-32.2 54.3-56.1 4.6-4.1 11.1-10.4 14.5-13.9 6.5-6.8 17.1-15.8 27.6-23.5l6.5-4.8.3 3.8c.3 3.3-.1 4.3-3 6.8m-66.8-1.5c0 .6-.4 1.3-1 1.6-.5.3-1 1.7-1 3 0 1.8-1 3-3.8 4.4-2.1 1.1-4.3 3-4.9 4.3s-3.6 4.4-6.7 6.8c-3.1 2.5-9.3 8-13.7 12.2-4.4 4.3-8.5 7.8-9 7.8-1.4 0-1.1-2.7.6-4.4.8-.8 1.5-1.8 1.5-2.2s5.1-5.6 11.3-11.6c10.9-10.5 16-14.4 17.8-13.2.5.3.9-.1.9-.8s1.4-3 3.1-5.1c3-3.6 4.9-4.7 4.9-2.8m173 4c0 .9.7 2.9 1.5 4.5 1.9 3.5 1.9 5.6.2 5.6-.8 0-2.4 1.1-3.7 2.5s-3 2.5-3.8 2.5c-1 0-.6-.8 1.2-2.5 1.4-1.3 2.6-2.7 2.6-3 0-1.2-2.1-.3-4.4 2-1.4 1.4-2.8 2.5-3.2 2.5-1.7 0-31.9 24.1-38 30.4-4.1 4.1-14.4 13.8-16.6 15.5-1.6 1.2-1.8 1-1.8-1.7s2.4-5.4 17.3-20c9.4-9.4 20.6-19.9 24.7-23.3 4.1-3.5 7.7-6.6 8-6.9s3.2-2.7 6.5-5.5c3.3-2.7 6.2-5.4 6.3-5.8.6-1.2 3.2 1.4 3.2 3.2m-103 15.5v5.4l-15.2 12.8c-14.4 12-47.6 44-75.1 72.4-13.4 13.8-17.7 18.7-17.7 20.2 0 2.4-8.2 12.7-11.3 14.2-4.1 1.9-23.7 2.4-23.7.6 0-1.7 7.2-8.4 11.3-10.5 2-1.1 3.7-2.3 3.7-2.7 0-.5.7-.8 1.5-.8s1.5-.4 1.5-.9 1.1-1.6 2.5-2.5c2.1-1.4 3.2-1.5 6.5-.6 5.3 1.4 8.4-.3 7.6-4.2-.6-2.9.4-4.3 11.4-16.2 7.6-8.1 23.8-23.8 28.7-27.8 2.3-1.8 6.2-5.7 8.8-8.5 2.6-2.9 14.5-14.6 26.4-26 30.4-29.1 31.5-30.1 32.4-30.2.4-.1.7 2.3.7 5.3m-60 .5c0 .8-3.3 3.9-12.3 11.4-2.1 1.8-6.2 5.6-9.2 8.4-2.9 2.9-5.7 5.3-6.2 5.3-.4.1-3.7 2.8-7.3 6-3.5 3.3-7.1 6-7.8 6-.9 0-1.3.7-.9 1.9.3 1.4.1 1.8-.9 1.4-.8-.3-1.4-1.1-1.4-1.7 0-2 28.4-29.6 30.5-29.6.6 0 2-.9 3-2s2.4-2 3-2c.7 0 1.5-.6 1.8-1.4s1.8-2.1 3.4-2.9c3.4-1.8 4.3-2 4.3-.8m-185.2 15.2c.1 9.1-.9 11.2-9.5 18.2-3.7 3-8.4 7.2-10.3 9.2l-3.5 3.7 3.4-2c1.9-1.1 6.4-4.7 10-7.9 9-8.1 9.1-8.1 9.1-3.7 0 2.9-.7 4.3-3.7 7.1-2.1 1.9-5.1 4-6.8 4.7-1.6.8-4.6 2.7-6.5 4.5-1.9 1.7-3.8 3.1-4.1 3.1s-1.8 1.1-3.3 2.5-3.5 2.5-4.5 2.5c-2 0-28.5 25.9-51.7 50.5-21.7 23.1-23 24.6-24.5 29-.7 2.2-2.1 4.8-3.1 5.8s-1.8 2.4-1.8 3.2c0 .7-.9 1.6-1.9 2-1.1.3-2.7 2.2-3.6 4.3-1 2-2.4 4.1-3.1 4.5-2.1 1.2-1.7 3.5.7 4.2 1.6.5 3.1-.3 6.4-3.7 4.8-4.9 11.3-12.3 16.5-18.7 6.7-8.3 23.3-27.6 28.4-32.9 19.2-20.1 34.5-34.8 52.1-49.8 4.4-3.8 8.2-7.2 8.3-7.6.4-.8 5.6-3.8 6.7-3.8.3 0 .5 1.9.5 4.2-.1 6-3 11.8-7.8 15.3-3.1 2.3-4 3.6-4 5.8.1 1.6-.7 3.4-1.8 4.2-2.2 1.7-4.4 1.9-4.4.5 0-1.3-44.5 42-49.9 48.6-6.5 7.8-13.7 16-14.8 16.7-.7.4-1.3 1.4-1.3 2.2s-1 2-2.2 2.6c-1.3.7-3.2 2.4-4.3 3.8s-4.2 4.6-6.8 7.1c-7.3 6.7-15.7 20.5-15.7 25.6 0 .8-.9 3.4-2.1 5.7-2.4 5-4.7 13.6-6.3 23.4-.6 3.9-1.4 7.5-1.8 7.9-1.2 1.1-.9-23.4.3-28.6.6-2.5 1.3-6.1 1.6-8s.9-3.7 1.2-4c1.4-1 4.3-10.1 3.7-11.5-.3-.9-1.9-1.5-3.9-1.5-2.7 0-4 .7-6 3.3-3.2 4.3-5.7 10.2-5.7 13.8 0 1.5-.4 3.1-1 3.4-.5.3-1 2.8-1 5.5s-.4 7-1 9.7c-.5 2.6-1.2 8.8-1.6 13.7-.9 12.5-2.5 8.9-3.1-6.8-1.1-25.2 5.1-56.7 12.6-64.3 3-3 6.7-8.1 9.1-12.5 2.1-3.8 67.9-70.5 73.7-74.8 5-3.6 27.3-25.7 27.3-27 0-.5-.9-.6-2-.3s-2 .1-2-.3c0-.9 19-19.3 20.1-19.4.3 0 .6 3.2.7 7.1M571 394c-.6 1.1-1.4 2-1.9 2-.4 0-2.2 1.3-4.1 3-1.8 1.6-3.6 2.7-3.9 2.4-.6-.6 8.7-9.4 10.1-9.4.5 0 .4.9-.2 2m162 4.2c0 .6-.7.5-1.5-.2s-1.5-1.7-1.5-2.2c0-.6.7-.5 1.5.2s1.5 1.7 1.5 2.2m-103.2 20.6c-2.9 3-7.7 7.8-10.7 10.6s-6.1 5.9-7 6.8c-.9 1-3.8 3.9-6.4 6.5-11.2 11-33.4 33.4-35.9 36.3-1.5 1.6-3 3-3.2 3-.9 0-7.6 7.3-7.6 8.2 0 1.3-2.8.9-3.3-.5-.4-1-.7-1-1.8 0-1.1 1.1-1 1.3.4 1.3 2.3 0 2.1 1.2-.5 3.7-1.3 1.1-3 3-3.8 4.2-.8 1.3-2.7 3.6-4.2 5.2-1.6 1.6-2.8 3.5-2.8 4.3 0 2.2-1.6 2.8-4.4 1.5l-2.5-1.2 2.4-1.9c1.4-1.1 2.5-2.6 2.5-3.4 0-2-3.8-1.7-4.4.3-1.2 3.5-6.8 6.3-12.9 6.3-3.1 0-5.7-.4-5.7-.9 0-.9 8.2-7.4 13.6-10.7 5.2-3.1 39.2-35.7 62.1-59.4 13.9-14.4 27.8-27.7 32.3-31 1.8-1.4 4.5-3.5 5.9-4.7l2.6-2.1.3 6 .3 6.1zM522 407.1c0 .5-.7.9-1.5.9-1.5 0-2-1.2-.9-2.3.8-.8 2.4.1 2.4 1.4m236 15c5 5.1 12 16.9 12 20 0 .6-2.3-1.7-5-5.2-2.8-3.5-5.8-7.3-6.8-8.4s-2.5-3.1-3.4-4.5c-.8-1.4-4.8-5.8-8.7-9.8-3.9-4.1-7.1-7.8-7.1-8.4 0-1.3 11.8 8.8 19 16.3m-63-4.9c-2.6 3.5-3.9 6-3.6 7.3.4 1.4-.6 3.2-2.9 5.7-1.9 2-3.5 4.1-3.5 4.7s-.4 1.1-.8 1.1c-.5 0-2.8 1.8-5.2 4s-4.7 3.7-5.1 3.3c-.5-.5-.9-2.5-1.1-4.7-.2-4-.3-3.9 15.3-18.3 1.3-1.2 4.2-4 6.4-6.2 5.3-5.4 5.6-3.6.5 3.1m22.5-1.4c-.7.8-3.5-.7-3.5-1.8 0-.6.7-.6 2 .2 1 .7 1.7 1.4 1.5 1.6m-359.5 5c0 .4-1 1.3-2.2 2.1-6.4 4-7.1 4.1-3.4.7 3.8-3.5 5.6-4.4 5.6-2.8m373.8 6.1c3.8 3.2 12.4 11.9 19.2 19.2 6.8 7.4 16 17.2 20.4 21.9 14.5 15.1 30 32.3 38.9 43 4.8 5.8 11.9 14.1 15.7 18.5 14.9 17.3 19.2 23.2 24.4 34 8.7 17.8 13.6 35.7 15.6 56 1.3 14.1 1.3 23.1-.1 29.5-1.5 7.2-2.9 6.2-2.2-1.8.8-10.3-1.3-32.4-4.2-43.7-8.6-33.5-22.2-55.3-56.7-91-4.7-5-10.4-11.2-12.5-13.9s-6.4-7.7-9.5-11.1c-3.1-3.5-7.6-8.9-10-12.2s-6-7.6-8-9.5c-3.3-3.4-13-14.5-22.6-26.1-2.4-2.9-5.7-6.8-7.5-8.7-7.8-8.5-9-10-8.4-10 .4 0 3.7 2.7 7.5 5.9M536 428c0 .5-.2 1-.4 1-.3 0-.8-.5-1.1-1-.3-.6-.1-1 .4-1 .6 0 1.1.4 1.1 1m99 5.4v5.4l-8.2 7.9c-4.6 4.4-13.5 12.9-19.8 18.9S593 479 590 482c-3.1 3-13 12.8-22 21.7-9.1 8.8-18.6 18.4-21.2 21.3l-4.8 5.2v-6c0-5.9.1-6.1 3-6.7 1.7-.4 3-1.1 3-1.7s17.3-18.4 38.4-39.7c21.1-21.2 40.4-40.7 42.7-43.4 2.4-2.6 4.7-4.7 5.1-4.7s.8 2.4.8 5.4M524.5 430c.3.5-.1 1-1 1s-1.3-.5-1-1c.3-.6.8-1 1-1s.7.4 1 1M689 441c0 .5-.4 1-1 1-.5 0-1-.5-1-1 0-.6.5-1 1-1 .6 0 1 .4 1 1m-169 4.9c0 1.2-25.6 25.1-26.9 25.1-.6 0-1.1-1.9-1.1-4.6 0-3.8.6-5.4 3.8-9.3 5-6.4 11.2-11.8 11.2-9.8 0 .8-1.9 3.2-4.2 5.3-5.4 4.8-9.9 13.4-7 13.4 1.3 0 9.7-7.3 16.1-14.3 6-6.3 8.1-7.9 8.1-5.8m222.7 21.2c10.3 10.4 19 19.5 19.2 20.2s2 3.1 4 5.4c2 2.2 7 8.1 11.1 12.9 4.1 4.9 14.1 15.7 22.3 24.2 11.9 12.3 28.7 32.6 28.7 34.6 0 .2 1.9 3.5 4.2 7.2 11.1 18.2 17.4 38.6 18.4 59.7.7 13.3.6 13.8-1.2 13.5-2.6-.4-3.2-2.3-3.3-9.2-.2-17.4-9.1-46.8-19-62.6-4.4-7.2-24.4-31.4-34.2-41.5-10.6-11-19.6-21-31.9-35.5-5.8-6.8-13.4-15.6-17-19.6-3.6-3.9-8.7-9.9-11.5-13.3-2.7-3.4-5.6-6.8-6.2-7.6-.7-.7-1.3-1.8-1.3-2.3 0-.6-.3-1.2-.7-1.4-.5-.2-1.9-1.8-3.1-3.6l-2.4-3.4 2.5 1.7c1.4.9 11 10.2 21.4 20.6M698.8 453c.8 0 1.3.2 1 .5-.5.5 14.7 15.8 33 33.1 4.6 4.4 10 9.7 12 11.9 2 2.1 7.1 7.3 11.2 11.5s10.2 10.7 13.5 14.6c3.3 3.8 7.8 8.9 10 11.5 2.2 2.5 5.1 5.8 6.4 7.5 1.3 1.6 4.9 5.6 8 8.9 17.1 18.4 28.3 36.4 33.1 53.5 4 14.3 6.5 38 4.1 39.4-.4.3-1.4-2.2-2.1-5.7-3.7-19.1-9.1-38.1-13-45.8-4.6-8.9-23.9-34.7-35.1-46.8-3.5-3.8-9.8-10.9-13.9-15.7-7.1-8.3-15.9-17.8-35-37.9-13.9-14.8-19.3-20.8-23-25.5-4.1-5.2-4.2-5.3-9.7-11.2-2.3-2.5-3.9-4.9-3.5-5.2.4-.4.8-.2 1 .3.2.6 1.1 1.1 2 1.1m-64.5 11.4c-.4.8-6.6 7.4-13.7 14.7-10.8 11.2-18.1 18.2-34.6 33.3-.8.8-3.7 3.7-6.5 6.6-2.7 2.9-7.6 7.2-10.7 9.7-6.2 4.9-7.2 6.7-6.2 10.7.9 3.9 3.3 3.2 9.6-2.7 12.8-11.9 13-12 12.6-4-.2 4.6-.8 6.4-2.8 8.5-1.4 1.6-3.5 2.8-4.7 2.8-1.4 0-3.2 1.4-5 4-1.5 2.2-3.3 4-3.9 4s-1.7 1.1-2.4 2.5-1.9 2.5-2.6 2.5c-.6 0-2.4 1.7-4 3.7-1.5 2.1-3.2 4-3.7 4.2-.4.2-1.2 1.4-1.7 2.7-.6 1.4-1.7 2.3-2.7 2.2-3.5-.3-5.3.2-5.3 1.4 0 .7-2.6 3.5-5.7 6.3-3.1 2.7-9.1 8.3-13.2 12.3-4.2 4.1-13.2 12.4-20.1 18.5-15.2 13.6-34 32.5-34 34.2 0 1.5-11.4 12.5-13 12.5-.6 0-.8.4-.5 1 .5.9-1.3 2.8-12.3 12.8-1.4 1.2-3.3 2.2-4.3 2.2-1.1 0-1.9.4-1.9 1 0 .5-.8 1-1.8 1-2 0-13.3 6.5-14.4 8.3-.4.6-.9.9-1.2.7-.4-.5 35.9-36.8 48-48.1 2.7-2.5 9.2-9.6 14.4-15.9s11.9-14 14.9-17.3c4.1-4.4 5.1-6.1 4.1-6.7-.7-.5-1-1.5-.6-2.6.4-1 .1-2.1-.5-2.5-.8-.4.2-1 2.4-1.4 2.3-.5 3.9-1.4 4.2-2.6.4-1 1.3-1.9 2.2-1.9s1.3-.6 1-1.4.3-2.3 1.4-3.4c1-1.2 1.9-2.7 1.9-3.5s.8-2.3 1.8-3.3c2.5-2.8 17.9-13.4 18.5-12.8.7.7-1.2 6.4-2.7 8.2-1.1 1.4-1.3 1.6-8.6 9.7-2.8 3.1-3.3 4.1-1.5 2.5 4.9-4 10.9-10.2 13.5-14 1.4-1.9 4.4-5.2 6.7-7.4 2.3-2.1 5.4-5.8 6.9-8.1 1.5-2.4 3.8-4.8 5.1-5.4 1.7-.8 2.3-1.7 1.9-2.7-.3-.9-.6-2-.6-2.5 0-2.1-2.6-.6-7.9 4.4-3.1 2.9-7.6 6.9-10.1 8.9-11.6 9.6-13.2 10.8-13.8 10.8-1.2 0-16.2 13-20.1 17.4-1.4 1.6-5.7 6.1-9.6 10.1-3.8 3.9-9.1 9.4-11.6 12.1s-8.8 8.7-13.9 13.4c-5.2 4.7-11.2 10.3-13.5 12.5-9.7 9.5-21.8 19.8-32.5 27.6-14.5 10.5-17 12-17 10.1 0-.7 1.1-2.1 9.5-11.4 1.7-1.8 5.7-5.6 9-8.3 3.3-2.8 10-8.9 15-13.7 4.9-4.8 13-12.2 18-16.5 11.5-9.9 21.4-19.3 27.9-26.3 20.2-21.5 47-46.6 50.5-47.1 1.9-.3 2.7-1.3 3.4-3.9.5-1.9 1.8-4.1 3-4.9s3.6-2.9 5.2-4.5c1.7-1.6 4.7-3.4 6.7-4.1 4.7-1.3 12-7.8 36.8-32.2 24.6-24.2 29.3-28.7 36.1-34.5l5.4-4.7.3 4.4c.2 2.5-.1 5.1-.5 5.9M390 461.7c0 2-11 13-16.6 16.5-6.1 3.9-45.7 42.2-58 56.1-6.1 6.9-6.7 7.7-6.2 8.2.8.8 3.8-.6 3.8-1.7 0-1 5.1-5.7 6.3-5.8 1.5 0 .4 1.6-5.1 7.6-2.9 3.3-5.8 6.6-6.5 7.4-1.5 1.8-6.7 9.9-6.7 10.5 0 .2-2.2 3.7-4.9 7.8-2.8 4.1-5.6 9-6.4 10.8-.8 1.9-2.1 4-3 4.7s-2.5 4.6-3.7 8.5c-1.1 4-2.6 8.9-3.2 10.9-.6 2.1-1.4 3.8-1.8 3.8-2.6 0-1.6-26.9 1.3-34.5.8-2.2 1.8-5.2 2.1-6.8.4-1.6 1.3-2.7 2.2-2.7 1.2 0 1.5.6.9 2.2-1.2 4.1-1.6 10-.5 9.3.5-.3 1-1.3 1-2.1s1.1-3.2 2.5-5.4 2.5-4.3 2.5-4.6c0-.4 1.8-3.3 4-6.5s4-6.6 4-7.6c0-.9 1-2.7 2.1-3.9 2.1-2.3 3.6-4.5 6.1-9.4 1.5-2.9 1.5-2.8 11.7-14.6 4.4-5 9.6-10.6 11.7-12.5s4.7-4.3 5.9-5.4c3.6-3.3 11.1-9.8 14.6-12.7 1.9-1.6 7.8-6.4 13.3-10.9 11-9 24.4-18.9 25.7-18.9.5 0 .9.8.9 1.7m245 15c0 .9-.5 4.5-1.1 8-.9 5-1.7 6.7-3.8 8.2-1.5 1.1-3.7 3.9-4.9 6.3-1.2 2.3-3.4 5.8-5 7.6-2.7 3.3-2.8 3.3-10.4 3l-7.8-.3 10.8-11c5.9-6.1 13-13.8 15.7-17.2 5.2-6.5 6.5-7.5 6.5-4.6m-245 3.4c0 5.2-1.2 7.4-7.2 12.9-2.6 2.5-4.8 5.1-4.8 5.8 0 .6-.4 1.2-.8 1.2-.5 0-3.1 2.2-5.8 5l-4.9 5h-6.7c-3.8 0-6.8-.2-6.8-.4 0-.3 1.9-2.4 4.3-4.8 2.3-2.4 5.1-5.4 6.2-6.8 2.3-2.9 24.6-22 25.8-22 .4 0 .7 1.8.7 4.1m332.6 24.6c13.8 13.6 27.3 27.5 30 30.8 2.6 3.3 8.5 9.8 13 14.5 13.5 14 22.4 25.1 28.7 36 7 12.1 20.7 41.5 20.7 44.4 0 .8.4 1.7.9 2 .4.3 1.1 4.9 1.4 10.3s.9 10.7 1.2 11.8.1 2.7-.4 3.5c-2.4 3.7-41.2-5.8-56.1-13.8-14.9-7.9-31.3-21-40.1-31.9-3-3.6-6.7-8-8.3-9.7s-5-5.6-7.4-8.6c-2.5-3-9.7-11.1-16.2-18-6.4-6.9-15.2-16.6-19.5-21.5-4.4-5-8.6-9.5-9.5-10.2-1.2-1-.5-1.2 3.9-1.3h5.3l22.7 23.2c12.5 12.8 28.8 29.8 36.3 37.8 18.1 19.4 23.6 24.3 35.8 32.2 8.3 5.3 11.5 6.7 24 10.5 17.4 5.3 21.2 6.3 23.8 6.3 2.1 0 2.3-.4 2-4.3-.3-3.7-.6-4.3-2.7-4.5-4.1-.3-16.1-4.2-26.1-8.4-24-10-31.6-15.9-57.8-45.3-6.4-7.2-16.4-18-22.2-24-5.8-6.1-12.9-13.9-15.8-17.3l-5.4-6.2h12.9l6.4 7.2c3.5 4 12.7 14 20.4 22.2 19.1 20.5 19.5 20.9 27.7 30.7 4 4.7 9.1 9.9 11.3 11.6 4.5 3.5 14.8 8.9 24.3 12.7 3.5 1.4 9.5 4.4 13.4 6.6 3.8 2.2 7.6 4 8.3 4s1.5.6 1.8 1.2c.3 1 .8 1 1.6.2 1.5-1.4.4-6.3-1.5-7.1-.8-.3-1.4-1.4-1.4-2.4s-.6-1.9-1.4-1.9-3.9-1.3-7-2.9c-3.1-1.7-11.3-4.9-18.4-7.1-13.9-4.6-18-7.1-25.2-15.7-2.5-3-5.5-6.4-6.6-7.6-1.2-1.2-5.3-6.5-9.2-11.7-3.9-5.3-8.1-10.7-9.5-12-1.3-1.4-7.3-8.1-13.1-15l-10.8-12.5 6.4-.5c6-.5 6.3-.6 6.9-3.5.3-1.7.4-4.2.1-5.8-.2-1.5-.2-2.7.1-2.7.6 0 9.2 9.8 17.7 20.1 3.7 4.5 17.5 18.6 21.1 21.6.6.4 5.6 5.5 11.2 11.3s12.2 12.2 14.6 14.3 6.5 6.8 9.2 10.5c2.6 3.7 6.2 8.6 7.9 10.9 2.9 4.1 5 5.5 5 3.3 0-1.1-9.3-17.2-12.2-21-1-1.4-3.9-5.6-6.4-9.3-5.1-7.8-14-19.2-22.4-28.7-3.1-3.6-10.6-12.1-16.7-19-6-6.9-12.5-14.3-14.4-16.4-1.9-2.2-6-6.9-9.3-10.5-3.2-3.6-7.5-8.6-9.4-11.1-2-2.5-6.3-7.5-9.7-11.1-8.2-9.1-14.5-16.6-14.5-17.3 0-1.8 5.7 3.4 28.6 26.1m-210.1-20.9c.1 4.2-1.9 3.5-2.3-.7-.3-2.4 0-3.2 1-2.9.7.3 1.3 1.9 1.3 3.6m355.3 3.9c14.3 15 24 31.1 30.7 50.7 3.8 11.3 6.5 23.4 6.4 29.6 0 2.8-.5 1.8-2.3-4.5-3.7-12.8-5.5-17.5-9.7-25.9-8.1-16-17.8-30.8-29.2-44.4-5.3-6.5-5.7-7.2-4.6-9.6.7-1.4 1.4-2.6 1.7-2.6s3.4 3 7 6.7m-44.4 7c3.5 3.8 7.5 8.1 8.8 9.8 1.2 1.6 2.7 3.5 3.3 4.1 13.8 14.6 33 44.2 38.3 59.4 4.5 12.7 5.2 15.4 5.2 18.6 0 1.7.4 3.4.9 3.9 2.7 3.1 4.3 42.4 2.1 52.1-1.5 6.1-5.1 15.6-5.8 15-.2-.3.3-2.8 1.2-5.6 3.4-10.4 3.1-42.4-.6-58-1.8-7.6-5.8-20.1-8.9-27.5-1.6-3.9-2.9-7.4-2.9-7.8 0-2.5-15.1-22.8-28.7-38.8-8.7-10.1-17.6-20.7-19.8-23.4-7.5-9.2-7.2-8.5-3.2-8.5 3.1 0 4.4.9 10.1 6.7m24.7-2.9c6.8 7.2 18 21.9 21.9 29 .8 1.5 3 4.9 4.9 7.5 6.1 8.9 14.7 29.1 17.1 40.1.5 2.2 1.6 7.5 2.6 11.6 2.5 11.3 2.6 47.9.1 53.5l-1.7 4 .5-5c2.1-21.4 1.8-26.7-3-50.5-2.1-10.5-4.9-19.3-10.7-33.5-4.4-10.8-23.4-38.3-35.7-51.5l-8.3-9h4.3c3.8 0 4.9.6 8 3.8M385 497c0 .5-.5 1-1.1 1-.5 0-.7-.5-.4-1 .3-.6.8-1 1.1-1 .2 0 .4.4.4 1m313.5 8.8 3.9 4.4-2.8-.4c-2.2-.2-3.8-1.6-6.3-5.2-1.8-2.6-3.3-5.2-3.3-5.8 0-1.3 3.8 1.8 8.5 7m-310.7-5.6c-.2.6-1 1.4-1.6 1.6-.7.2-1-.2-.6-1.2.7-1.8 2.8-2.2 2.2-.4M629 503c0 2-2.9 3.5-4.2 2.2-1-1 2-5.4 3.3-4.7.5.4.9 1.4.9 2.5m-357.7.7c-.7 2-5.4 7.2-6.5 7.3-1.5 0-.8-1.6 2.3-5.3 3.2-3.9 5.3-4.9 4.2-2M390 507c0 2.8-.3 3-3.5 3-4.2 0-4.4-1.1-.9-3.9 3.6-2.8 4.4-2.6 4.4.9m-51.6 32.1c-.9 1-1.4 2.5-1.1 3.3.4.9.1 1.3-.7 1-1.6-.6-13.5 11.2-20.5 20.5-9.1 12-10.1 13.5-10.1 15.1 0 .9-.4 2-.9 2.6-.8.8-3.4 9.9-6.4 22.1-.8 3.1-1.5 4.3-2.9 4.3-1.8 0-1.8.1-2.3 11.3-.1 1.5-.7 3.3-1.3 3.9-1.9 1.9-1.6-17.5.3-21.2 1.1-2.2 1.4-4.6.9-9.9-.8-8.2 0-12.1 2.4-12.1 1.1 0 3.5-3.1 6.7-8.3 2.7-4.5 5.5-8.8 6.2-9.5s1.3-1.9 1.3-2.6 1.2-2.3 2.6-3.7c1.4-1.3 3.5-3.9 4.7-5.9 1.9-3.2 11-14.2 19.1-22.9l3.1-3.5.3 6.8c.2 5.3-.1 7.3-1.4 8.7m61.2 3.9h14.3l-2.2 2.3c-1.2 1.3-2.7 2-3.2 1.6-1.2-.9-15.8 9.7-18.2 13.1-1.5 2.1-1.5 2.4.2 3.6 1 .8 1.5 2 1.1 2.9-.3.9 0 2.4.6 3.5 1 1.6.8 2.3-1.5 4.4-1.5 1.4-2.7 3.2-2.7 3.9 0 .8-.8 2.5-1.9 3.8-1.6 2-2.1 2.1-3.5 1-1.4-1.2-1.6-1.1-1.6.8 0 1.2.6 2.1 1.5 2.1 1.2 0 1.4.7.9 2.7-.6 2.5-.4 2.4 2.2-1.2 1.6-2.2 3.5-5.2 4.3-6.7.7-1.5 7.5-8.9 15-16.6s15-15.5 16.8-17.4c2.7-3.1 3.8-3.6 9-4 3.2-.3 6.6-.2 7.6.1 1.6.6 1.2 1.3-2.8 5.2-2.6 2.4-6.1 6-7.9 7.9-1.7 1.9-8.3 8.9-14.7 15.5S399.1 586 396.4 589s-6.1 6.7-7.4 8.1c-3.9 4-11.5 12.9-11.8 14-.4 1 .6 1.1 3 .1.9-.4 10.8-9.7 22.1-20.7 11.2-11.1 21.7-20.9 23.3-22 1.6-1 4.4-3.3 6.3-5.2 1.9-1.8 4-3.3 4.8-3.3.7 0 1.3-.4 1.3-1 0-1.6 6.1-8 9.1-9.6 3.3-1.7 4.3-1.8 3.4-.4-1.4 2.3 1.7.7 4.9-2.5 3.3-3.3 3.9-3.5 10.2-3.5h6.7l-4.7 4.2c-2.6 2.4-10.6 10-17.9 17-7.2 7.1-13.7 12.8-14.4 12.8s-1.6.6-2 1.3c-.4.8-2.9 2.6-5.5 4.1-2.5 1.5-4.8 3.3-5.1 4s-1.7 1.6-3.1 2c-2.2.5-10 6.3-21.1 15.5-1.1.9-4.9 4-8.5 7-3.6 2.9-7.8 6.9-9.3 8.7-1.6 1.9-3.5 3.4-4.3 3.4-1.4 0-2.5-3.2-2.1-6.4.3-2.5-6.8-5.2-9-3.4-.8.6-3.7 1.1-6.4.9-6.2-.3-9.9-3.3-9.9-8 0-3.3 3-11.1 4.2-11.1.5 0 .8-.7.8-1.5 0-3 8.1-13.4 19.7-25.2 9.5-9.7 11.1-12 8.9-12.9-1.5-.6-7.2 2-7.8 3.5-.1.5-4.8 5.6-10.3 11.3s-11.8 13-13.9 16.3c-2.2 3.3-4.2 6.2-4.6 6.5-.3.3-1.5 2.1-2.7 4-1.1 1.9-4.9 8.3-8.4 14.1s-7.9 13.8-9.8 17.7c-3.8 7.8-5.6 8.9-6.6 4.2-.6-2.9.9-12.8 2.5-15.9.4-.9 1.6-4.2 2.6-7.4 2.5-7.8 6.9-14.3 22.7-33.7.7-.8 3.6-5.1 6.6-9.5 2.9-4.4 7.6-10.5 10.5-13.5s5.8-6.5 6.4-7.7c1.4-2.5 4.7-3.3 11.1-2.7 2.4.2 10.8.4 18.7.4m-41.7 1.7c-2.8 3.8-10.7 10.6-16.2 14.3-3.3 2.1-5.4 4-4.9 4.4.6.3 1.7.3 2.5 0s1.7-.1 2 .3c.5.8-.9 3.2-11.5 19.2-4.6 7-8.6 15.2-12.8 26.1-1.8 4.7-3.9 9.9-4.6 11.7-.8 1.7-1.4 3.6-1.4 4.2 0 1.2-1.8 4.7-3.7 7.1-.6.8-1.5 3-2 4.9-1.1 4.1-3 5.2-3.5 1.9-.6-4.7 1.1-22.6 3.1-30.9 2.2-9.6 3.5-13 6.6-17.4 1.1-1.6 2.5-3.7 3-4.6.6-.9 3.6-5.6 6.8-10.4s6.1-9.3 6.4-10.1 1.1-1.4 1.8-1.4c.8 0 2.8-2.6 4.6-5.8 1.8-3.1 5.5-7.8 8.2-10.5 4.8-4.5 5.1-4.7 10.9-4.7 5.6 0 5.9.1 4.7 1.7m97.1-1.4c0 .2-1 1.2-2.1 2.3-2.2 1.9-2.2 1.9-.8-.4 1.2-1.9 2.9-3 2.9-1.9m34.4 5.9c-3.2 3.5-9.4 9.4-13.6 13.2-4.3 3.8-7.8 7.5-7.8 8.3 0 1-.6 1.3-1.7.9-1.2-.5-4.3 2.1-11.7 9.6-5.6 5.7-13.2 13-17 16.3s-7.4 6.4-8 7c-5.6 5-18.5 15.4-20.3 16.3-1.2.7-2.7 1.8-3.5 2.4-4.6 4.4-19.3 12.8-22.4 12.8-3.4 0-1.7-4.9 3.3-9.5 4-3.7 12.8-11.3 17.3-15 2.5-2 7.6-6.4 11.3-9.8 3.8-3.4 8.1-6.9 9.5-7.7 5.7-3.3 11.8-7.3 13.7-9.1 1.1-1 5.8-5.1 10.5-9.2s14.4-13.1 21.5-20l13-12.7h11.8zm28.5-.5c-3.4 3.2-7 6.1-8 6.5-1.1.4-1.9 1.6-1.9 2.7 0 2.1-5.4 8.1-7.3 8.1-.7 0-3.7 3.4-6.7 7.5s-6 7.5-6.7 7.5-3.4 2.2-6 5c-2.6 2.7-5.2 5-5.8 5s-1.6.9-2.3 2-1.6 2-2.1 2c-.4 0-2.8 1.9-5.3 4.2-2.4 2.4-6.2 5.7-8.4 7.4-2.1 1.8-6.7 5.6-10.2 8.5-3.5 3-8 6.7-10 8.2s-6.1 5.1-9.1 8.1c-3.1 2.9-6.9 6.1-8.6 7.2-1.6 1-3.4 2.3-4 2.7-5.4 4.4-17.3 12.7-18.2 12.7-1.9 0-2.5-1.9-1.1-3.5 3.2-3.9 4.1-4.5 5.8-4.5 1 0 2.5-.8 3.2-1.8.7-.9 2.5-2.3 4-3.1s3-2.2 3.3-3.2 1.2-1.9 2-2.1c2.1-.5 27.8-25.2 26.6-25.6-1.8-.6-1.3-2.3 1.5-4.8 3.5-3.3 5-3 2.5.5-3.1 4.3-2.6 4.6 1.9 1.1 2.5-2 4-4 4-5.4 0-3.7 48.2-52.6 51.9-52.6.5 0 1.4-1.4 2.1-3l1.2-3h17.9zm113.2 8c8.4 6.9 25.2 23.8 31.2 31.4 2.3 3 7.2 8.3 10.7 11.9 3.6 3.6 12.4 12.6 19.6 20 19.3 20 27.9 27.7 40.5 36.2 18.1 12.2 35.4 20.3 49.6 23.3 1.7.3 3.6 1.2 4.2 1.9s2.5 1.3 4.3 1.4c7.8.4 13.3 1.7 13.3 3.2 0 1.2-1.8 1.6-8.5 1.8-4.7.2-10.1-.1-12-.7-1.9-.5-4.8-1.3-6.4-1.6-2.3-.5-2.7-.9-1.6-1.5.8-.5 2.5-.7 3.6-.4 1.2.3 2.5.1 2.8-.5.8-1.3-6.2-1.5-8.1-.3s-8.2.2-7.7-1.2c.3-.8-1.6-1.6-5.4-2.4-3.2-.7-7.8-2.2-10.3-3.3-2.4-1.2-6.6-3-9.4-3.9-2.7-1-4.9-2.3-4.7-2.9.1-.6-.5-1.1-1.4-1.1-1.6 0-14.3-7.9-17.8-11.2-2.7-2.5-3.9-2.2-2.5.4 2 3.8 11 12.7 15.8 15.7 2.5 1.5 6.2 3.8 8.1 5l3.5 2.3-4.4-.7c-4.1-.5-14-6.3-15-8.7-.1-.5-1.8-2.6-3.7-4.6s-3.4-4.1-3.4-4.5c0-.5-2.6-3.6-5.8-7-12.4-13.2-24.1-25.9-34.2-37.2-5.8-6.5-12.5-13.9-14.9-16.4s-9.6-10.9-16.1-18.6-15.3-17.5-19.4-21.8c-4.2-4.4-7.6-8.3-7.6-8.7 0-1 3-1.9 4.8-1.4.7.2 4.4 2.9 8.3 6.1m-156.2 71c-1 1.7-8.4 7.8-11.8 9.7-.9.5 1.1-1.8 4.4-5.2 5.8-5.9 9.9-8.4 7.4-4.5M850 651.9c-.1.9-.7 2.9-1.5 4.6l-1.3 3-.1-5.2c-.1-4.3.2-5.1 1.4-4.7.8.4 1.5 1.4 1.5 2.3"/>
  <path d="M781.2 171.3c-.6.7-.7 1.8-.3 2.6.7 1 1 .8 1.6-.8.8-2.7.2-3.6-1.3-1.8m-5.2 3.2c-1.6 1.9-.5 5.4 1.2 3.7 1.4-1.4 2.1-5.2.9-5.2-.5 0-1.4.7-2.1 1.5m-2.5 29.5c-.3.5-.2 1 .4 1 .5 0 1.3-.5 1.6-1 .3-.6.2-1-.4-1-.5 0-1.3.4-1.6 1m22.5 4c0 .6.7 1 1.5 1s1.5-.2 1.5-.4-.7-.6-1.5-1c-.8-.3-1.5-.1-1.5.4m-3 3.6c0 .8.5 1.2 1 .9.6-.3 1-1 1-1.6 0-.5-.4-.9-1-.9-.5 0-1 .7-1 1.6m-290.4 274c-.4 1-.1 1.4.6 1.2 1.5-.5 2.3-2.8 1-2.8-.5 0-1.3.7-1.6 1.6m13.2 99.2c-3.6 2.7-6.5 6.2-5.1 6.2 1-.1 4-2.7 7.2-6.3 3.1-3.4 2.6-3.4-2.1.1M293 602.7c0 .4.5 1.5 1 2.3.8 1.3 1 1.3 1-.2 0-.9-.4-2-1-2.3-.5-.3-1-.3-1 .2m150.9-46.5c-1.2 2.3-1.2 2.3 1 .4 2.3-2.1 2.6-2.6 1.1-2.6-.5 0-1.5 1-2.1 2.2m47.5 9.3c-3.5 3.6-6.4 7-6.4 7.6 0 1.3 11.7-9.8 13.1-12.4 1.8-3.2-.3-1.7-6.7 4.8m-38.4 34c-.7.8-.8 1.5-.2 1.5.5 0 1.5-.7 2.2-1.5s.8-1.5.2-1.5c-.5 0-1.5.7-2.2 1.5M384 9.9c0 .8 1.4 1.2 11.6 2.7 6.2.9 6.5-1.2.4-2.5-6.2-1.3-12-1.4-12-.2m141 104.5c0 .9.5 1.6 1 1.6.6 0 1-.4 1-.9 0-.6-.4-1.3-1-1.6-.5-.3-1 .1-1 .9m4 3.4c0 1.2 1.9 2.6 2.6 1.9.2-.2-.2-1-1.1-1.7-.9-.8-1.5-.8-1.5-.2m5 5.2c0 .5.5 1 1.1 1 .5 0 .7-.5.4-1-.3-.6-.8-1-1.1-1-.2 0-.4.4-.4 1m351.1 24.6c0 1.1.3 1.4.6.6.3-.7.2-1.6-.1-1.9-.3-.4-.6.2-.5 1.3M557 151.9c0 1.6 12.9 12.3 14 11.6 1.5-.9-.6-3.5-6-7.7-4.9-3.7-8-5.2-8-3.9m290 55.6c-1.9 1.9-3.1 3.5-2.7 3.5 2.1 0 8.7-4.2 8.7-5.5 0-2.4-2.3-1.7-6 2m18.7 9.2c-.4.3-.7 1.1-.7 1.7s.5.5 1.2-.2c.6-.6.9-1.4.7-1.7-.3-.3-.9-.2-1.2.2m21.3 6.8c-.7.9-.8 1.5-.2 1.5.5 0 1.2-.7 1.6-1.5.3-.8.4-1.5.2-1.5s-.9.7-1.6 1.5m-95.3 490c-3.2.7-6.1 1.6-6.5 2-.4.5.1.5 1.1.2 1-.4 4-.7 6.7-.7 3.3 0 5-.5 5.4-1.5.3-.8.2-1.5-.2-1.4s-3.3.7-6.5 1.4m-11.9 3.2c.6.2 1.8.2 2.5 0 .6-.3.1-.5-1.3-.5s-1.9.2-1.2.5"/>
</svg>
