<svg xmlns="http://www.w3.org/2000/svg" viewBox="0 0 670 376">
  <g style="fill-opacity:1;fill-rule:nonzero">
    <path fill="#fff" stroke="#fff" d="M137 18c-3.55-6.52-4.37-15.21 6-13.76 7.56 1.05 19.1 12.96 22 19.76h2c2.4-7.04 14.36-18.7 22-19.76 5.05-.7 9.63 2.19 8.53 7.76-.45 2.27-2.32 4.99-3.53 7 4.87-3.73 19.42-13.77 22.79-2.96.23 1.55.17 3.36 0 4.96 5.97-1.67 23.94-7.4 21.75 5-.27 1.54-.91 2.63-1.54 4 5.24 0 20.92.46 24.26 4.43 2.22 2.64 1.56 5.59.74 8.57 7.4 1.04 13.01 1.56 14 10 5.05.71 17.12 3.82 20.57 7.41 3.69 3.85 1.49 7.23 1.23 11.59-.16 2.58.41 4.32-.52 7-.6 1.7-1.33 2.56-2.28 4 4.38.62 12.43 2.26 15.57 5.41l6.01 9.59c3.9 6.02 7.3 10.21-.58 15 1.13 4.36.87 4.94-1 9 7.63 2.67 8.77 9.54 3.77 12.86-3.46 2.3-9.73 2.14-13.77 2.14 7.34 8.3 3.55 8.12 5.39 12.42 1.15 2.7 4.52 4.93 5.87 8.58 1.12 3.02.14 5.35.52 8 .39 2.8 2.12 5.04 1.89 7.99-.23 2.94-1.79 4.05-3.19 6.29-3.62 5.77-1.26 8.46-11.48 8.72-.45 7.65-1.92 5.75-3.45 10.17-1.83 5.32 1.05 8.95-7.55 10.83 6.9 10.47-.53 17.9-11 11-2.17 7.51-.69 9.27-1.75 11.89-1.61 3.98-5.1 3.39-7.64 5.69-5.33 4.82-2.8 12.17-14.61 9.42-3.35 9.28-10.42 5.32-16.45 14.17-1.29 1.89-1.71 3.62-2.11 5.83-1.89 10.54-1.13 4.81-3.9 13-.63 1.85-.68 4.11-1.71 5.77-2.58 4.17-8.17 3.63-11.53.8L216 281c0 14.35 2.93 39.96 6.34 54 .94 5.12 4.82 16.39 0 20.26-6.74 5.88-13.52-6.9-20.34-4.77-7.11 2.21-18.37 16.33-26 20.06-3.8 1.86-8.82 1.5-13 1.45-11.25-.15-14.4-5.83-22-12.91L125 345c-2.53-2.15-5.82-4.9-9-5.97-2.9-.98-16.89 1.66-14.53-8.99 1.08-4.85 6.53-5.81 9.6-11.05 1.44-2.48 2.18-7.09 2.81-9.99 1.27-8.09 3.56-20.57 0-28-.77 1.72-1.6 3.37-2.82 4.89-3.28 4.08-9.6 5.99-12.9.88-.84-1.3-1.24-3.3-1.75-4.77l-3.19-8c-2.16-6.93.3-9.53-5.98-15.14-3.91-3.5-5.38-2.57-9.2-5l-6.21-4.87C68.83 247.31 61.17 247 59 237c-8.28-.97-9.04-5.8-7-13l-3-3c-10.48 6.9-15.63-1-11-11-8.6-1.88-5.72-5.51-7.55-10.83-1.53-4.42-3-2.52-3.45-10.17-2.59-.07-5.46.05-7.57-1.74-2.08-1.76-2.02-3.84-2.94-6.09-.88-2.15-2.51-3.92-3.05-6.21L14.73 159c1.31-3.79 4.89-6.77 5.89-9.42 2.04-5.4-2.34-2.93 5.38-12.58-4.04 0-10.31.16-13.77-2.14-5-3.32-3.86-10.19 3.77-12.86-1.87-4.06-2.13-4.64-1-9-11.24-4.07-3.17-12.22.67-18.42 1.94-3.15 2.09-5.04 5.44-7.22C25.39 84.57 31.2 83.77 36 82c-5.91-3.55-2.91-6.55-3.23-12-.2-3.38-1.36-5.59.97-8.79 3.73-5.13 11.97-5.09 17.12-7.86 3.55-1.9 2.97-4.36 5.57-6.65 2.86-2.53 8.85-3.39 12.57-3.7-.82-2.98-1.48-5.93.74-8.57C73.08 30.46 88.76 30 94 30c-.63-1.37-1.27-2.46-1.54-4-2.27-12.82 16.71-6.17 22.75-5-.17-1.6-.23-3.41 0-4.96C118.4 5.82 131.7 15.2 137 18Zm146 310h86c5.03.01 10.61.08 14.61 3.65 6.24 5.56 5.94 19.59-.72 24.7-3.72 2.86-7.48 2.64-11.89 2.65H269c-13.3-.02-16.98-4.99-17-18v-52c0-6.56-.9-18.33 1.92-23.96 3.32-6.62 9.56-7.03 16.08-7.04h102c11.19.15 16.45 5.81 15.96 17-.42 9.74-5.52 13.87-14.96 14h-90v4h69c4.94.01 9.83-.11 13.84 3.42 5.8 5.21 6 19.04 0 24.19-4.05 3.55-7.79 3.38-12.84 3.39h-70zm137-25v32c0 5.33.66 12.3-2.09 16.98-4.73 8.09-19.1 9.86-25.49 2.8-3.53-3.9-3.41-8.89-3.42-13.78v-64c0-2.55-.12-5.58.7-8 2.91-8.58 12.09-11.45 20.3-9.61 4.2.94 9.33 4.87 13 7.27l22 14.67c2.01 1.34 8.1 5.62 10 6.17 4.22 1.22 11.45-5.14 15-7.5 6.67-4.45 27.98-19.66 34-21.37 7.32-2.08 16.37.83 19.26 8.37.87 2.27.74 5.56.74 8v70c-.12 8.51-4.27 13.29-13 13.9-6.15.43-13.44-1.79-15.99-7.92-1.48-3.54-1.01-11.85-1.01-15.98v-32c-5.84 3.89-26.31 18.36-31 20.03-2.56.92-5.3 1.07-8 .93-6.47-.34-9.93-3.7-15-7.24zm116-44.47c14.93-2.46 20.98 3.87 21 18.47v32c0 4.23-.62 10.38 1.74 13.96 3.4 5.16 7.78 5.03 13.26 5.04h38c4.48 0 12.25.73 15.95-1.74 5.21-3.48 5.04-8.71 5.05-14.26v-32c0-4.42-.55-11.11 1.45-14.98 3.13-6.06 9.3-7.3 15.55-6.98 10.42.55 12.99 6.82 13 15.96v50c-.07 15.15-9.05 28.86-24 33.08-5.44 1.53-9.4 1.91-15 1.92h-56c-10.14-.02-21.14-2.35-28.91-9.33-8.02-7.2-11.07-19.28-11.09-29.67v-45c.01-8.63.89-13.54 10-16.47Z" opacity=".3"/>
    <path stroke="#000" d="M140 10c5.37 1.71 8.72 4.52 12.71 8.43C165.98 31.39 166.52 44.58 160 61h-2c-4.89-6.87-6.75-9.4-14-14 5.58 6.13 9.23 11.57 10 20l-8-6c4.4 6.27 10.14 15.06 7 23-2.42-5.61-4.27-9.28-8.44-13.91C119.58 42.4 82.06 68.11 63.59 90c-3.81 4.52-6.62 7.83-9.59 13 6.03-5.75 11.34-10.21 19-13.69 18.23-8.28 32.26-4.15 46 9.69 7.46 7.52 11.42 13.29 15.57 23 3.34 7.81 6.33 18.49 6.43 27 .06 5.43-.5 10.73 1 16l16.28-42 5.29-22L166 88l3.42 20c3.51 15.89 13.66 44.03 21.58 58l-.91-13c.35-6.1 1.68-15.13 3.34-21 5.76-20.31 24.17-46.92 47.57-46.92 5.79 0 14.83 2.67 20 5.29 7.23 3.67 11.38 8.02 17 13.63-11.73-20.4-40.95-46.56-66-45.99-10.42.24-20.12 6.08-26.67 13.99-2.94 3.55-4.42 8.49-8.33 11 .8-9.77 2.65-14.47 9-22l-9 6c1.88-9.22 4.54-13.21 11-20-6.21 3.33-10.47 7.95-14 14h-2c-10.15-21.55-2.34-40.54 19-51-3.98 9.4-9.85 13.3-11 26l31-19c-4.33 8.06-10.2 10.4-13 20l24-10.57L233 25c-10.39 5.06-17.69 9.87-26 18 11.03-4.74 18.7-7.26 31-6.99L256 38v2c-13.34 0-27.21 2.47-39 9 12.91-2.31 23.02-2.51 36-1.05 5.11.57 12.6 1.47 17 4.05-9.1.08-20.66 1.35-29 5 14.91 0 39.75-.47 52 9-12.47-1.01-25.78-4.64-37 3 10.25 0 28.32.66 36 8-10.05-1.33-13.79-3.12-24 0 7.06 1.29 15.6 1.85 21 7h-17c4.28 4.22 6.47 2.6 12 3.29 6.64.81 17.94 2.39 23 6.71-9.15 0-15.8-1.01-24 4 7.13 0 21.91-.11 28 3l-18 3c6.19 0 15.92-.76 21 3l-27 3 1 5c5.7-1.62 18.01-1.23 23 2l-21 4.22-8 1.78c9.85 0 25.86 1.18 34 7l-34 4c8.22 1.88 16.51 5.42 22 12l-19-6c6.56 7.44 18.64 8.29 26 22-8.93-4.3-12.71-7.65-23-10 6.31 6.32 18.99 10.28 24 22l-20-11c6.14 6.14 12.83 11.72 16 20l-19-13 8 10-9-5c4.42 6.25 7.74 8.24 10 16l-12-8c4.91 8.78 5.94 9.78 8 20l-11-12-3.89 8c-1.62 5.74 6.56 7.56 9.89 18l-18-10 6 11-12-3c4.07 4.17 10.09 9.61 8 16l-8-8 3 10-9-7 7 11-12-8c3.91 4.56 6.27 7.13 8 13l-6-4-4 9c-2.41-.59-2.42.21-4 2l-3-4-6 10-1-7c-2.64 9.81-4.9 13.01-5 24-4.57-3.55-1.97-7.86-4-15v20l-4-8 2 15-11-18-2 5-3-2-1 16c-.1 22.37 4.62 44.2 9 66-4.1-2.74-9.03-7.19-14-7.77-4.75-.56-8.38 2.26-12 4.93-7.43 5.46-17.04 17.33-26 17.8-8.96.46-11.59-2.86-18-8.38l-24-21.07c-9.23-6.87-10.13-2.78-17-5.51 3.33-2.38 6.51-4.39 8.59-8.04 2.92-5.14 4.02-15.02 4.49-20.96.87-10.86 2.18-25.77-2.08-36l1 5-5-4c-2.8 6.27-6.56 12.72-12 17 1.8-5.4 4.15-10.28 3-16-1.09 4.56-1.45 5.81-5 9 1.55-6.15 2.77-11.78 1-18-.02 5.44.17 9.32-3 14-.38-8.27-2.22-16.62-6-24l-1 6-7-10v4l-3-3-2 1c-4.38-7.53-4.13-7.46-11-5 1.96-6.14 4.59-8.49 9-13l-12 8 6-11-9 7 3-10-9 8c1.22-7.73 3.86-11.25 10-16l-13 4 7-12-19 10 10.14-16L48 191l-11 13c1.28-9.11 2.98-12.43 8-20l-12 8c2.95-10.33 6.4-10.25 10-17l-9 5 8-10-19 13c4.49-9.21 8.92-12.92 16-20l-20 11c5.19-10.99 17.91-15.79 24-22l-23 10c3.88-5.42 8.4-9.68 14-13.3 5.41-3.51 8.43-3.8 13-8.7l-19 6c6.99-8.88 13.14-8.7 22-13-6.8 0-29.57-1.5-35-4 18.52-7.12 26.46-4.86 34-7l-14-2.79L21 116c5.88-1.67 16.1-2.68 22-1l2-4-29-5 21-3-17-3 28-3-12-2.91L23 93c6.29-2.1 12.41-4.07 19-5 6.85-.97 12.37-.02 18-4l-18-1 20-7-11-.68L39 76c15.1-8.36 27.37-5.26 37-8-6.56-2.19-15.04-4.3-22-3.91-4.78.27-11.59 2.38-16 .91 10.71-4.26 22.37-7.86 34-8 5.67-.06 11.5.56 17-1l-13-2.71L60 51l30-3.96h10l15 .96-24-6.58L74 39c16.11-5.32 33.53-3.15 49 3L98 24c15.4 2.08 22.54 7.2 36 13l-13-20 31 19c-1.79-11.56-6.08-16.53-12-26Zm-14 33h-1l1 1zm81 0h-1l1 1zm-80 1h-1l1 1zm17 2h-1l1 1zm45 0h-1l1 1zm-45 13h-1l1 1zm43 1h-1l1 1zm92 44h-1l1 1zm1 1h-1l1 1zm-228 1h-1l1 1zm6 9h-5zm220-1-4 2zm-193 2.3c-44.48 8.41-50.23 73.71-11 93.33 4.48 2.24 10.99 3.82 16 4.19 15.19 1.1 21.49-7.05 30.2-17.82 2.29-2.85 4.64-5.71 6.28-9 4.5-9.04 4.63-18.2 4.52-28-.22-18.7-12.44-37.19-31-42.08-4.62-1.21-10.26-1.09-15-.62Zm149 .02c-26.67 5.99-37.2 31.71-33.08 56.68.6 3.63 1.21 7.57 2.55 11 2.18 5.61 5.65 9.45 9.45 14 8.03 9.61 11.96 14.82 25.08 15.82 2.81.21 5.26-.26 8-.74 21.65-3.81 36.75-24.62 37-46.08.25-21.72-8.11-41.03-30-48.91-6.32-2.27-12.39-2.49-19-1.77ZM90 130.31c2.21-.14 3.72-.37 6 0 26.51 1.64 21.36 41.85-3 39.35-21.44-2.2-25.66-32.36-3-39.35ZM250 136c13.84 8.31 4.78 36.18-15 33.5-16.38-2.22-22.7-20.69-13.07-32.32 4.84-5.85 10.89-7.11 18.07-7.18.96 5.91 4.09 9.04 10 10zm-31 77-38.58-44c-2.45-2.84-10.88-13.37-14.35-13.37-3.27 0-12.29 10.65-14.65 13.37L113 213c17.07.16 22.05 8.37 29.85 22l7.9 14c2.61 5 9.12 19.71 15.25 19.71 6.37 0 12.17-13.73 15-18.71 9.68-17.03 15.14-36.79 38-37Zm-73-31c1.05 3.77-2.28 14.92-3.68 18.98-.69 1.98-2.2 5.22-4.91 3.85-5.19-2.62.21-12.79 2.38-15.83 1.83-2.57 4.02-4.75 6.21-7Zm39 0c5.02 3.63 9.65 8.89 11.36 15 .7 2.49.59 10.05-3.96 7.83-1.87-.91-2.71-4-3.24-5.83zm60 45c-14.23-5.69-31.46-12.88-43.68 1.04L178.58 261c-2.86 4.04-6.9 10.93-12.58 10.64-6.59-.33-15.02-14.35-18.66-19.64-4.22-6.14-15.46-23.73-20.35-27.44-10.42-7.91-30.41-4.15-39.99 3.44 12.52-1.65 27.7-6.61 37.96 3.1l25.33 33.9c3.67 5.13 7.76 12.32 14.71 12.88 8.16.65 12.96-7.06 17.14-12.88l16.44-23c3.42-4.84 6.42-9.9 11.42-13.35 6.48-4.47 16.57-3.29 24-2.22 3.87.55 7.23 1.82 11 .57Zm-178-5h-1l1 1zm198 0h-1l1 1zm-190 2h-1l1 1zm183 0h-1l1 1zm1 1h-1l1 1zm-180 3h-1l1 1zm168 0h-1l1 1zm30 106h89c6.4.01 14.36-.12 15.62 8 1.47 9.5-6.48 10.99-13.62 11h-83c-7.22 0-21.83 2.4-25.69-5.04-1.49-2.88-1.31-6.79-1.31-9.96v-61c.14-11.64 4.47-12.98 15-13h83c8.01 0 23.96-2.71 25.62 8 1.47 9.5-6.48 10.99-13.62 11h-91v17h75c7.59.01 12.82.47 11.89 10-.73 7.45-5.73 7.97-11.89 8h-75zm137-43v47c-.01 3.54.23 7.82-1.85 10.87-3.78 5.52-12.68 5.07-15.84-.92-1.49-2.84-1.31-6.81-1.31-9.95v-60c.1-7.22 3.69-13.91 12-12.76 4.05.56 9.52 4.77 13 7.09l24 16.34c3.37 2.24 9.91 7.86 14 6.78 2.03-.53 8.84-5.34 11-6.78L494 272c3.26-2.17 9.36-6.66 13-7.4 9.32-1.9 10.99 6.51 11 13.4v62c0 2.99.31 7.16-1.74 9.57-3.18 3.74-11.69 3.16-14.52-.72-2.02-2.75-1.73-6.6-1.74-9.85v-48l-27 18.14c-3.64 2.59-10.7 8.11-15 8.6-4.92.55-10.11-3.44-14-6.08zm125-26.39c10.4-1.11 11.89 5.72 12 14.39v37c.02 4.8.14 8.99 3.42 12.89 4.26 5.08 9.54 5.1 15.58 5.11h49c5.64-.03 10.5-.4 14.35-5.19 3.01-3.72 3.59-8.21 3.65-12.81v-38c.01-3.31-.28-7.03 1.74-9.87 3.66-5.15 11.51-4.61 14.52-.83 2.04 2.55 1.73 6.61 1.74 9.7v32c0 18.25.84 35.91-21 42.08-5.44 1.53-9.4 1.91-15 1.92h-52c-8.23-.1-17.55-1.9-23.99-7.33C531.25 335.76 532 321.91 532 308v-21c0-8.6-2.53-18.72 7-22.39Z" opacity=".8"/>
  </g>
</svg>
