<svg xmlns="http://www.w3.org/2000/svg" viewBox="100 40 590 530"><path d="M308.952 144.792c3.181.458 6.417.372 9.621.125 5.01-.385 10.029-1.171 14.738-2.925 14.892-5.548 25.041-20.778 26.585-36.595.218-2.233.285-4.49.017-6.717-1.8-14.971-18.135-25.809-32.358-26.151-13.578-.326-25.017 8.395-33.737 18.036-2.19 2.422-4.218 5.007-5.84 7.841-4.963 8.672-5.755 19.695-1.746 28.847 4.007 9.151 12.83 16.116 22.72 17.539m41.546-26.882c-2.222 4.346-5.346 8.191-8.706 11.704-3.857 4.032-8.781 8.017-14.328 7.422l15.797-18.671c2.267-2.68 4.735-5.274 6.706-8.183.948-1.399 1.8-3.726 3.31-4.504 1.486 3.292-1.269 9.279-2.779 12.232m-6.012-29.878c.39-.154.829.007 1.21.182 4.427 2.037 7.696 6.407 8.4 11.228-5.319 5.203-9.757 10.952-14.759 16.493-6.512 7.283-13.498 14.315-19.701 21.798-.305.367-.615.74-1.009 1.009-.73.497-1.655.582-2.535.652-.969.077-1.945.153-2.91.045-3.71-.416-6.781-2.374-9.538-4.705q-.006-.005.015-.039c.447-.754 10.023-11.901 10.834-12.844a679 679 0 0 1 19.86-22.097c3.26-3.471 6.706-7.09 9.437-11.04.187-.273.39-.561.696-.682m-7.66-4.65c.341-.477.613-.994.63-1.57-.016.565 4.495 1.956 4.543 3.638.047 1.648-4.531 5.196-5.679 6.365-4.113 4.186-8.39 8.211-12.39 12.508a537 537 0 0 0-17.117 19.296c-1.303 1.542-2.6 3.094-4.036 4.514-.901.891-1.966 1.775-3.233 1.823-1.266.048-2.596-1.216-2.129-2.394.751-1.894 3.539-4.038 4.906-5.572a772 772 0 0 1 5.282-5.864c3.501-3.85 7.318-7.527 10.626-11.54 5.832-7.074 12.304-13.551 18.135-20.613.157-.191.316-.387.462-.591m-45.302 25.377c.685-5.333 2.748-10.319 5.945-14.629 5.04-6.794 14.015-14.674 23.304-16.555 4.176-.846 8.416-.479 12.39 1.745-12.85 15.279-29.371 27.597-39.674 44.698.32-.531-1.788-6.063-1.931-7.09a30.7 30.7 0 0 1-.034-8.169m148.246 19.589c3.181.458 6.417.372 9.621.125 5.01-.385 10.029-1.171 14.738-2.925 14.892-5.548 25.041-20.778 26.585-36.595.218-2.233.285-4.49.017-6.717-1.8-14.971-18.135-25.809-32.359-26.151-13.578-.326-25.016 8.395-33.737 18.036-2.19 2.421-4.218 5.007-5.84 7.84-4.963 8.672-5.755 19.695-1.746 28.847s12.832 16.117 22.721 17.54m41.546-26.881c-2.222 4.346-5.346 8.191-8.706 11.704-3.857 4.032-8.781 8.017-14.328 7.422l15.797-18.671c2.267-2.68 4.735-5.274 6.706-8.183.948-1.399 1.8-3.726 3.31-4.504 1.486 3.292-1.269 9.278-2.779 12.232m-6.011-29.878c.39-.154.829.006 1.21.182 4.427 2.037 7.696 6.407 8.4 11.228-5.319 5.203-9.757 10.952-14.759 16.493-6.512 7.283-13.498 14.315-19.702 21.797-.305.367-.615.74-1.009 1.009-.73.497-1.655.582-2.535.652-.969.077-1.945.153-2.911.045-3.71-.417-6.781-2.374-9.538-4.706q-.006-.005.015-.039c.447-.754 10.023-11.901 10.834-12.844a679 679 0 0 1 19.86-22.097c3.26-3.471 6.706-7.09 9.437-11.04.188-.272.391-.559.698-.68m-7.661-4.651c.341-.477.613-.994.63-1.571-.016.565 4.495 1.956 4.543 3.638.047 1.648-4.531 5.196-5.679 6.365-4.113 4.186-8.39 8.211-12.39 12.508a537 537 0 0 0-17.117 19.296c-1.303 1.542-2.6 3.094-4.036 4.514-.901.891-1.966 1.775-3.232 1.823s-2.596-1.216-2.129-2.394c.751-1.894 3.539-4.038 4.906-5.572a772 772 0 0 1 5.282-5.864c3.501-3.85 7.318-7.527 10.626-11.54 5.832-7.074 12.304-13.551 18.135-20.613.157-.19.315-.386.461-.59m-45.302 25.377c.685-5.333 2.748-10.319 5.945-14.629 5.04-6.794 14.015-14.674 23.304-16.555 4.176-.846 8.416-.479 12.39 1.745-12.85 15.279-29.371 27.597-39.674 44.697.32-.531-1.788-6.063-1.931-7.09a30.7 30.7 0 0 1-.034-8.168m-6.907 66.566a49.4 49.4 0 0 0-21.641 14.157c-3.885-3.497-8.473-5.558-13.504-6.783-2.178-.53-9.052-1.954-6.436-5.899 3.216-4.849 16.63 2.121 19.413 4.339 3.315-2.711 6.059-5.988 10.166-7.655 3.993-1.619 9.088-1.333 12.002 1.841M681.282 339.97c-1.841-3.728-3.934-7.346-6.121-10.88-4.148-6.704-8.94-12.794-13.791-18.984-1.659-2.117-2.751-4.913-4.515-6.851-3.143-3.455-3.843-2.749-3.757-7.991.248-15.09-.334-30.255-2.001-45.258-3.329-29.967-11.628-59.472-27.488-85.308a185 185 0 0 0-15.939-22.138c-5.394-6.431-9.02-13.512-14.925-19.698.61-3.399 4.501-16.169 1.336-19.137l2.758 2.57c2.155-11.093 4.001-23.682-2.726-32.762-2.971-4.01-7.291-6.787-11.643-9.229-16.206-9.092-36.013-14.758-53.321-7.996-4.491 1.755-8.618 4.29-12.496 7.134-1.378 1.01-5.402 3.17-7.651 5.235-1.807-2.634-3.778-5.1-5.948-7.136-5.036-4.724-12.64-8.165-18.961-10.986-12.536-5.594-26.774-6.815-40.098-3.548-8.927 2.189-17.051 7.701-24.139 13.591-3.341-.79-6.927-.524-10.102.785a20.2 20.2 0 0 1 2.393-7.508c.545-.984-.179-2.284-1.201-2.753s-2.207-.339-3.32-.181a100.6 100.6 0 0 0-27.518 8.041 6.72 6.72 0 0 1 2.662-5.047c-2.981 2.221-10.388 2.523-14.097 4.037-3.455 1.41-10.487 3.742-12.707 6.898-.508.723-.968 1.434-1.087 2.136-.424-.196-.839-.413-1.265-.604-12.536-5.594-26.774-6.815-40.098-3.548-9.48 2.324-18.069 8.39-25.456 14.683-6.362 5.42-12.137 12.039-15.608 19.711-1.437 3.177-2.107 6.826-3.32 10.144-.124.34-.216.69-.331 1.033-.844-.824-2.202-1.404-4.416-1.716-6.67-.943-13.683 1.287-19.478 4.466-5.382 2.958-10.302 6.938-14.028 11.844-2.347 3.091-10.077 15.273-1.739 11.907.687.708.626 1.896.14 2.754s-1.301 1.47-2.075 2.08c-5.13 4.041-9.399 9.051-13.63 14.025-8.023 9.429-14.33 18.309-19.906 29.406a180 180 0 0 0-7.698 17.604c-1.398 3.727-6.218 12.736-5.332 16.634-1.448-6.371-1.051-12.784-2.415-19.024l-2.052-9.25s-2.312-8.052-4.696-15.9c-2.367-7.853-4.841-15.491-4.792-14.783-4.604-12.673-9.239-20.322-6.491 1.156 1.293 12.732 4.069 30.603 4.069 30.603l2.371 10.71c3.953 18.104 7.649 36.275 11.222 54.484a2534 2534 0 0 0-12.391-50.084l-2.386-9.162-5.248-15.71c-2.626-7.761-5.321-15.314-5.251-14.609-4.954-12.516-9.801-20.063-6.454 1.348 1.663 12.701 5.085 30.48 5.085 30.48l2.767 10.623a2500 2500 0 0 1 18.357 76.037 2015 2015 0 0 0-32.511-68.224l-4.258-8.463s-4.217-7.236-8.445-14.258c-4.209-7.034-8.456-13.84-8.236-13.167-7.515-11.176-13.861-17.504-6.019 2.692 4.336 12.049 11.416 28.701 11.416 28.701l4.93 9.802a2009 2009 0 0 1 41.746 88.978l2.35 5.424c.85 1.963 3.941 6.267 3.066 8.345-2.585-.53-3.134-4.759-4.24-6.701a1084 1084 0 0 1-5.654-10.095c-3.727-6.715-7.444-13.438-11.372-20.038l-18.803-31.728-4.806-8.113-9.28-13.653-3.267-4.796c-.898-1.422-1.75-2.972-2.479-4.234-1.46-2.561-2.46-4.181-2.358-3.827-1.852-2.919-3.789-5.541-5.739-7.339-1.891-1.835-3.932-2.665-4.751-2.479-.831.221-.456.965.431 2.654.897 1.703 2.202 4.751 3.982 9.729 1.017 2.99 1.966 6.253 3.421 9.808.414.971.755 1.673 1.126 2.483l1.088 2.327 2.088 4.389a602 602 0 0 0 4.71 9.592l5.614 9.486 18.81 31.776c6.185 10.397 11.908 21.267 18.103 32.055 3.183 5.534 6.48 11.056 10.051 16.469-4.477 5.585-7.711 12.132-8.716 19.184-1.413 9.918 2.097 20.765 10.07 26.832 2.848 2.167 5.839 2.934 9.213 3.891-2.174 5.291-2.12 11.456.145 16.709 2.265 5.252 6.713 9.523 12.053 11.573 1.961.753 4.323 1.169 6.05-.027-2.122 1.47 5.565 9.878 6.665 10.685 3.952 2.897 9.748 4.453 14.634 4.961.677.07 1.355.103 2.034.119-1.404 1.089-2.232 2.818-2.611 4.171-.164.447-.133.547-.052.825l5.787 18.873 15.375 50.14 2.769 9.03s11.672 31.291 11.511 29.883c5.268 12.354 10.309 19.816 6.415-1.527-1.988-12.671-6.13-30.343-6.13-30.343l-3.221-10.522-11.25-36.777c.49.518.98 1.037 1.476 1.548 7.133 15.155 13.407 30.851 19.736 46.624l3.537 8.779s3.59 7.571 7.28 14.932a522 522 0 0 0 5.12 9.907c1.426 2.6 2.343 4.199 2.256 3.852 3.397 5.849 6.817 10.339 8.3 10.859 1.554.495 1.199-2.965-2.139-13.207-3.634-12.201-9.239-29.359-9.239-29.359l-4.105-10.182c-3.152-7.861-6.309-15.762-9.591-23.643.982.734 1.976 1.45 2.971 2.165 5.577 9.117 11.149 18.287 16.911 27.39 1.694 2.68 3.389 5.359 5.144 8.014l3.128 4.21 7.015 9.052c5.161 6.47 10.513 12.55 10.195 11.905a66 66 0 0 0 6.434 6.157c1.861 1.542 3.319 2.494 4.116 2.567 1.628.123.471-3.167-5.062-12.375l-15.045-26.699a471 471 0 0 1-5.901-9.178 957 957 0 0 1-4.27-6.826c1.326.723 2.674 1.412 4.015 2.112a302 302 0 0 0 6.861 8.321c2.638 3.197 5.491 6.2 7.493 8.405 2.057 2.171 3.437 3.438 3.242 3.135a126 126 0 0 0 3.574 3.273 60 60 0 0 0 3.271 2.506c1.983 1.408 3.511 2.248 4.309 2.258 1.298 0-1.411-3.904-1.615-4.206-.506-.749-3.172-5.593-3.505-5.732 12.513 5.224 24.923 10.186 37.72 14.586a182 182 0 0 0 17.159 4.987c11.612 2.756 23.503 4.302 35.436 4.552 22.784.478 45.636-3.501 66.966-11.508 10.394-3.901 19.799-9.285 29.69-14.196 9.463-4.699 13.879-3.054 21.681 3.821 8.056 7.099 18.325 7.135 25.037-1.939 3.514-4.751 5.078-10.647 6.183-16.453 11.655.781 23.844-3.149 31.849-11.657s11.128-21.732 6.5-32.457c-1.389-3.218-3.388-6.128-5.375-9.015-.929-1.35-2.393-2.576-3.717-3.868 3.218.805 7.156-.055 10.444-1.22 18.198-6.448 34.618-16.988 50.853-27.436 6.559-4.221 13.164-8.478 18.791-13.88 18.42-17.687 23.672-47.637 12.364-70.534m-88.191-192.106c5.38 5.446 9.739 12.596 13.688 19.108 8.324 13.727 14.58 28.655 19.154 44.024 7.112 23.898 10.23 48.815 11.825 73.697.068 1.062.176 2.159.117 3.223-.049.893-.386 1.582.166 2.412-.565-.849-2.882-1.355-3.798-1.717-1.419-.56-2.81-1.198-4.227-1.769a138 138 0 0 0-7.214-2.676c-.628-.213-1.835-.358-2.285-.868-.674-.764-.07-2.399-.121-3.3-.098-1.745-.181-3.507-.355-5.247a217 217 0 0 0-3.614-26.308 215.5 215.5 0 0 0-11.456-38.325c-6.48-16.044-16.921-30.065-28.507-42.831-1.877-2.068-4.11-3.692-6.002-5.697a45.2 45.2 0 0 0-7.072-6.061c-2.445-1.7-3.403-4.743-4.916-7.266-1.899-3.167-3.86-6.298-5.943-9.347 4.817 2.997 10.834 3.979 16.481 3.139 4.276-.636 8.339-2.244 12.076-4.441.01.028-.003.07.024.082 3.371 1.454 10.757 8.932 11.979 10.168m5.707 276.882c.033-6.392-.315-15.413-.315-15.413l-.614-6.082a844 844 0 0 1-.827-9.42c1.273-.339 2.543-.692 3.818-1.023a625 625 0 0 1 15.319-3.79l-.004 5.46s.249 4.185.599 8.279c.32 4.094.755 8.093.797 7.74.45 3.112 1.014 5.66 1.572 6.435a137 137 0 0 1-20.399 12.071c.072-1.041.096-2.42.054-4.257m-31.102-7.303c-.083-5.454-.568-12.77-.711-14.838a677 677 0 0 1 24.239-7.213l.606 7.003.674 6.783 1.424 8.178c.749 4.039 1.561 7.975 1.582 7.619.486 1.963.998 3.688 1.47 4.867a138 138 0 0 1-4.382 1.948c-5.848 2.46-11.705 6.098-16.968.934-2.996-2.94-5.558-6.673-7.955-10.485.086-1.075.103-2.625.021-4.796m-11.635-45.284c.636-.168 1.27-.342 1.905-.511.424 8.609 1.287 17.199 2.374 25.702l.143 1.083a585 585 0 0 0-8.456 2.801c-.123.067-.326.315-.366.378-.075.12-.132.232-.195.348a91 91 0 0 0-3.199-1.843l-12.144-6.744c-1.671-.928-3.362-1.87-4.75-3.184-2.897-2.742-2.072-3.942 1.034-5.444 2.951-1.427 5.709-3.213 8.263-5.265a62 62 0 0 0 5.348-4.879l.078.028c.22.091.271.078.411.043zm-3.383-5.264a158 158 0 0 0 4.914-6.7q.077 1.381.103 2.824c.01.841.059 1.681.079 2.522-1.079.286-2.156.582-3.235.867zm8.765 37.489 1.201 5.798c.51 2.368 1.029 4.691 1.372 6.13-.599-.97-1.198-1.925-1.797-2.843-1.708-2.615-3.468-5.238-5.629-7.476a599 599 0 0 1 4.853-1.609M586.192 319l.456 7.397c-2.981.889-5.951 1.81-8.901 2.795-1.162.392-2.32.797-3.478 1.201 2.615-5.845 5.035-11.78 7.392-17.711.544-1.37 1.14-2.808 2.314-3.699.531-.403 1.285-.659 2.007-.658a5 5 0 0 0-.273.429c-.132.198-.129.25-.122.395zm-6.55 15.833a281 281 0 0 1 7.381-2.353l1.524 24.717a3105 3105 0 0 1-24.87 6.761c-.006-.352-.028-.703-.032-1.055-.071-3.122-.166-6.522-1.207-9.996 3.024-4.805 5.743-9.786 8.245-14.881a258 258 0 0 1 8.959-3.193m-15.778 35.233a3098 3098 0 0 0 25.056-6.808l.207 3.366c.482 7.578.99 15.162 1.589 22.747a684 684 0 0 0-24.491 7.236l-.001-.009c-1.124-8.843-1.975-17.673-2.36-26.532m32.693 17.746a1485 1485 0 0 1-1.45-20.751l-.333-5.416c1.07-.298 2.142-.586 3.212-.885l18.746-5.306q-.03 1.48-.06 2.959l-.387 19.727-.051 4.767a640 640 0 0 0-16.221 3.983c-1.154.298-2.303.617-3.456.922m20.301-38.566-19.758 5.593c-.899.251-1.8.493-2.699.744l-1.525-24.81a259 259 0 0 1 14.983-3.734c1.518-.347 3.047-.642 4.572-.958 0 0 2.034-.542 4.622-1.184.051 8.094-.04 16.216-.195 24.349m-4.819-29.137c-1.815.378-3.637.722-5.445 1.134a264 264 0 0 0-14.09 3.463l-.373-6.072-.282-4.613c2.858-3.59 4.963-7.764 6.211-12.182 6.197 2.444 12.379 5.038 18.327 8.034.39 3.015.553 6.107.62 9.253q.001.223.003.446c-2.877.275-4.971.537-4.971.537M303.622 199.18c1.859 5.464 5.103 10.424 9.261 14.415 2.121 2.036 4.487 3.549 6.874 5.226.983.69 1.812 1.227 2.883 1.795.861.456 2.868 2.396 3.68 2.48-7.682-.795-14.883-3.42-22.754-2.063-1.391.24-2.766.569-4.129.941-3.949-13.364-6.084-27.263-6.283-41.197-.021-1.474-.056-2.962-.17-4.435.755-.457 1.393-.851 1.797-1.087 3.284-1.916 7.008-3.284 10.827-4.036-4.273 8.576-5.076 18.876-1.986 27.961m23.613.23c5.372 5.885 13.986 11.114 22.085 9.56 4.217-.809 8.286-2.442 11.935-4.696 1.028-.635 9.011-7.993 9.058-7.978 13.791 4.264 29.367 2.57 42.182-4.156 1.271 1.95 1.584 4.263-.329 6.147-2.894 2.849-10.132.404-13.692.631a86 86 0 0 0-6.09.603 206.4 206.4 0 0 0-43.033 10.662c-12.826 4.687-23.556 10.991-33.921-1.995-4.438-5.559-6.588-12.652-7.383-19.721-.656-5.84-.452-11.729-.212-17.608a33.4 33.4 0 0 1 5.36-.291c1.59.049 12.424-.312 13.157.955.719 1.241-2.202 4.601-2.72 5.855-1.025 2.481-1.533 5.176-1.564 7.857-.06 5.138 1.678 10.351 5.167 14.175m86.049 17.071c-5.746-4.304-13.02-7.473-20.233-7.971 6.322-1.162 12.646-1.821 19.081-1.48 5.313.282 11.31 1.619 13.948 6.239a38.3 38.3 0 0 0-10.911 7.835c1.142-1.471-.394-3.506-1.885-4.623m-118.791 7.154a46 46 0 0 0-8.183 4.281c-1.77-5.022-2.404-32.736-1.702-47.743.56-.075 1.186-.246 1.854-.487a310 310 0 0 0 8.031 43.949m-9.474 13.846c9.56-5.728 21.479-9.584 32.641-7.198 9.754 2.085 12.118 10.856 19.218 17.223 7.823 7.015 18.52 12.044 27.458 17.624 1.574.982 3.245 1.39 4.961 1.38a10 10 0 0 0-.202 1.933c0 6.346-.286 12.125 1.781 18.179.227.664.456 1.347.432 2.048-.03.86-.437 1.656-.855 2.407-4.287 7.688-10.699 13.887-17.534 19.317-6.195 4.921-12.245 10.675-19.999 12.696-5.714 1.489-11.742 1.483-17.585.626-19.997-2.935-46.652-20.221-48.595-42.329-.447-5.082.438-10.192 1.682-15.14 2.56-10.178 7.153-23.107 16.597-28.766m67.202 80.49c4.289-3.079 9.08-6.894 11.807-11.479 2.762-4.645 6.585-8.539 9.17-13.377-.365.683.821 4.827.784 5.964-.073 2.273-.098 4.417.129 6.743.525 5.377 1.221 10.752 2.552 15.996 1.851 7.291 4.996 14.393 10.093 19.926-5.479-15.946-7.318-33.343-8.849-50.014 3.363 3.834 6.863 7.761 10.836 10.927 2.916 2.324 6.087 4.238 9.645 5.403 2.783.912 5.7 1.323 8.6 1.731 6.208.873 12.45 1.748 18.717 1.587-1.911.05-6.334 20.982-6.935 23.14-.985 3.536-2.001 7.14-4.048 10.187-2.328 3.463-5.85 5.972-9.591 7.819-10.778 5.319-22.435 5.236-33.323.318-5.196-2.347-9.998-5.493-14.575-8.87-4.744-3.5-9.749-6.855-14.077-10.859-2.086-1.93-3.997-4.038-5.788-6.244 5.211-2.348 10.111-5.495 14.853-8.898m57.364-16.493c-19.033-5.417-30.978-17.427-37.664-35.29 7.366-1.71 15.073-9.759 19.258-13.865 10.972-10.765 22.938-20.114 35.087-29.721 3.977-3.145 7.689-7.835 7.126-13.289-.279-2.703-2.224-4.896-4.074-6.887l-12.153-13.082c5.662-3.748 10.609-8.553 14.327-14.38.133 4.102-.589 8.882.412 13.01.825 3.401 3.079 6.248 5.273 8.975 4.214 5.238 13.412 8.028 20.812 7.303-4.569 1.431-9.192 2.913-13.8 3.729-1.6.283-3.238.446-4.794.937-.965.304-2.833.594-3.634 1.143-.482.331-.729 1.075-.342 1.513 6.417.389 12.759.056 19.172.863 6.666.838 13.23 2.321 19.778 3.792 9.536 2.142 23.638 7.199 29.674 15.368 6.99 9.46 9.045 27.264 7.912 38.556-1.775 17.68-12.494 31.251-29.934 34.04-11.667 1.865-23.551 1.773-35.364 1.499-12.468-.29-25.076-.8-37.072-4.214m63.304-146.82 19.91-.706c2.747 7.151.875 15.294-1.596 22.598-2.509 7.414-6.318 14.875-12.682 19.738-3.935 3.007-8.754 4.529-13.537 5.882 5.567-2.876 9.779-8.24 11.138-14.265 2.493-11.048 1.342-22.886-3.233-33.247m24.577 63.955c.692-1.277-18.518-7.949-20.316-8.461a91 91 0 0 0-11.333-2.474c3.952-1.32 7.956-2.498 11.798-4.108 3.933-1.648 8.483-3.743 10.675-7.569 1.993-3.476 4.225-6.985 5.982-10.602 4.154-8.549 5.601-18.438 3.82-27.793-.259-1.358-.633-2.763-1.55-3.787l10.588-.375c.299 10.693.635 21.414-.382 32.076-1.095 11.483-3.787 22.952-9.282 33.093m8.239-72.246c-.107.016-.302.08-.523.158 2.116-1.59 4.091-3.37 5.843-5.344 6.013-6.779 9.086-14.675 10.807-23.196 3.617 5.991 9.638 10.405 14.222 15.529 7.323 8.186 13.19 17.65 17.469 27.757 4.624 10.921 7.179 22.604 9.576 34.163-1.77-8.535-11.077-19.695-17.322-25.465-7.18-6.634-14.849-14.076-23.314-19.178-3.429-2.067-6.822-3.717-10.72-4.286-1.859-.271-4.174-.423-6.038-.138m34.957-85.611c7.282-1.504 14.935-1.96 22.095.048 9.731 2.729 17.754 9.802 23.753 17.935 4.237 5.745 7.713 13.335 4.741 19.824l-3.724-.953c.367 4.227.676 8.494.135 12.702-1.099 8.537-5.856 16.542-12.83 21.587-6.636 4.801-15.184 6.818-23.28 5.604-6.065-8.634-13.101-16.375-22.553-22.216-1.736-1.073-4.208-2.625-6.178-3.422.235-2.031.325-4.009.289-5.955.589.287 1.306.142 1.96.013 5.599-1.099 11.442 1.082 15.971 4.552 4.53 3.47 7.975 8.131 11.358 12.727 1.586-6.077-1.517-12.61-6.191-16.806-4.674-4.195-10.694-6.514-16.588-8.684 4.913-7.108 14.656-10.455 22.9-7.866 3.44 1.08 10.622 6.626 14.243 5.44 5.347-1.751-.033-7.855-2.726-9.573-8.123-5.182-18.539-7.426-27.591-4.124-7.092 2.587-12.827 9.063-14.242 16.317-.64-3.162-1.588-6.309-2.837-9.53a85 85 0 0 0-3.491-7.801c-1.223-2.406-2.573-4.965-4.06-7.488 8.672-5.963 18.533-10.201 28.846-12.331m-36.765 19.931a37 37 0 0 0-.115-3.293c6.932 8.554 10.123 15.389 11.306 27.09 1.714 16.953-4.655 30.955-16.464 41.27a62 62 0 0 0-4.313-.045c-18.13.45-36.427 4.549-51.99 13.858-17.21 10.293-31.889 27.115-51.841 29.121-14.281 1.436-28.224-5.337-39.561-14.138-5.231-4.061-10.245-8.67-16.454-10.973-5.378-1.994-11.262-2.099-16.991-1.815-7.023.349-14.113 1.272-20.62 3.938a50 50 0 0 0-3.76 1.752c-5.898-7.543-10.411-16.224-13.102-25.391 3.382 5.283 8.261 9.716 13.795 12.71 9.99 5.403 21.793 6.63 33.11 5.67 6.038-.512 11.101-2.174 16.536-4.933 5.707-2.897 11.345-6.216 15.595-11.002a37 37 0 0 0 2.122-2.626c4.494-6.087 7.516-13.688 10.139-20.592 2.583-6.802 3.769-15.472 3.869-22.77.041-2.95-.246-5.923-.992-8.781q-.185-.706-.422-1.422c10.993 11.437 18.192 27.519 11.067 42.571-3.324 7.021-5.881 15.022-10.73 21.252-6.438 8.272-15.735 13.764-24.977 18.71 6.637-2.457 13.363-4.96 19.119-9.077 3.784-2.707 6.819-6.045 9.499-9.667 7.193-2.064 14.518-3.666 21.923-4.74 4.498-.652 9.129-1.093 13.558-.142 3.552 4.699 5.819 5.233 11.681 6.042-6.378-7.711-11.275-16.722-14.191-26.284a38.3 38.3 0 0 0 11.835 9.961c9.99 5.403 21.793 6.63 33.11 5.67 6.038-.512 11.101-2.174 16.536-4.933 5.707-2.897 11.345-6.216 15.595-11.002a37 37 0 0 0 2.122-2.626c4.494-6.087 7.516-13.688 10.139-20.592 2.581-6.803 3.766-15.473 3.867-22.771m-111.134 26.474a40 40 0 0 1 4.38-.942c.119 4.936 1.141 9.826 2.583 14.554a85.4 85.4 0 0 0 8.644 19.286c-6.79.068-13.626.261-20.287 1.652-2.338.488-3.57.807-4.608 1.545 1.059-1.793 2.101-3.596 3.149-5.384 4.215-7.187 6.755-15.456 6.901-23.809.042-2.36-.262-4.654-.762-6.902m26.709-34.154c5.051-5.838 10.995-10.984 17.844-14.545 11.329-5.891 24.979-6.15 37.173-3.121 8.124 2.018 15.676 7.649 21.921 13.853.945 3.296 1.116 6.788.306 10.147-1.285 5.329-1.219 11.025-2.411 16.445-1.25 5.686-3.143 11.245-5.872 16.396-6.272 11.836-17.643 19.488-31.034 21.15-12.383 1.537-25.024-1.758-36.091-7.524-3.495-1.821-6.884-3.902-9.815-6.536-1.161-1.043-2.224-2.184-3.243-3.366a64.3 64.3 0 0 1-.402-13.557c.86-11.017 4.363-20.949 11.624-29.342m-58.037-5.64c4.274-2.355 8.98-3.9 13.83-4.473a12.12 12.12 0 0 1-1.863 9.002 83.9 83.9 0 0 1 27.943-13.017 604 604 0 0 1-3.055 12.526c3.652-3.337 9.001-4.642 13.804-3.513-3.705 4.039-6.918 8.551-9.161 13.51-1.437 3.177-2.107 6.826-3.32 10.144a41.2 41.2 0 0 0-2.153 8.908 68 68 0 0 0-6.433.996c-1.356-3.591-3.082-7.073-4.804-10.48-2.869-5.675-9.515-10.478-14.581-14.17-4.009-2.922-8.262-5.516-12.671-7.8.854-.503 1.685-1.204 2.464-1.633m-84.066 50.829c.859-11.017 4.362-20.949 11.623-29.342 5.051-5.838 10.995-10.984 17.844-14.545 17.224-8.956 41.098-5.163 56.833 5.493.289.196.576.402.864.605 3.353 4.868 4.829 11.014 3.443 16.766-1.285 5.329-1.219 11.025-2.411 16.445-1.25 5.686-3.143 11.245-5.872 16.396-6.272 11.836-17.643 19.488-31.034 21.15-12.383 1.537-25.024-1.758-36.091-7.524-3.495-1.821-6.884-3.902-9.815-6.536-1.854-1.666-3.491-3.551-5.003-5.536a64.2 64.2 0 0 1-.381-13.372m-38.629 12.84c5.991-9.915 17.017-14.756 28.187-14.371a38 38 0 0 0-.287 4.14c-.043 5.363 1.04 10.685 2.605 15.815a85.4 85.4 0 0 0 12.792 25.503c-4.989 6.377-8.07 14.237-8.652 22.315-5.974-.922-12.065-1.882-17.446-4.635-4.35-2.226-9.309-6.431-10.365-11.477-.974-4.654.058-8.785-2.559-13.361-1.893-3.31-5.019-5.868-6.465-9.396-1.928-4.703-.439-10.182 2.19-14.533m-47.238 103.936c3.239-15.29 8.865-30.062 16.537-43.676a155 155 0 0 1 12.749-19.153c2.47-3.171 10.573-16.443 14.802-10.819 2.836 3.772 3.488 10.794 5.041 15.238.341.975.686 1.975.67 3.007-.024 1.637-.94 3.109-1.809 4.496-13.531 20.296-22.5 44.475-27.652 68.203-3.087 14.218-5.398 28.817-4.641 43.41.232 4.469.62 8.789 1.568 13.115.743 3.391 2.606 7.347-.67 10.274-.884.79-2.016 1.232-3.118 1.669-.974.387-1.943.789-2.911 1.196l.187-.422c.213-.426.194-.529.144-.814l-3.649-19.402c-3.171-16.845-6.375-33.697-9.696-50.536.548-5.299 1.344-10.573 2.448-15.786m16.361 180.866c.217-.572.497-1.163.4-1.767-.255-1.585-2.465-1.656-4.068-1.568-5.101.279-10.264-2.311-13.089-6.568s-3.207-10.02-.968-14.612c2.827-5.798-5.294-7.922-8.345-12.37-3.312-4.827-4.911-10.884-4.426-16.715.845-10.163 7.228-19.315 15.514-25.26 6.873-4.931 19.019-11.385 27.706-9.47 7.677 1.692 17.129 5.615 17.766 14.616.314 4.436-1.814 8.968-5.428 11.559 2.011 2.587 5.538 3.29 8.57 4.533 7.931 3.252 13.501 11.573 13.483 20.145-.004 1.704-.204 3.439.212 5.091.922 3.659 4.654 6.146 5.415 9.842.476 2.313-.305 4.679-1.076 6.911l-3.612 10.463c-.956 2.77-1.684 5.663-3.675 7.9-1.108 1.245-2.418 2.292-3.721 3.332-.63.503-1.263 1.008-1.962 1.408-1.253.716-2.699.919-3.951 1.59-7.548 4.047-41.755 9.374-34.745-9.06m43.996 9.996-.03-.045c-.061-.092-.205-.137-.283-.059.567-.394 1.135-.788 1.745-1.11 4.091-2.16 6.926-6.093 8.664-10.325 4.703-11.45 3.42-21.626 2.35-33.441 5.445.417 13.647 9.734 17.727 13.472 5.12 4.691 9.695 10.055 13.627 15.777 2.151 3.131 3.196 6.563 4.971 9.758.014.025 5.231 7.858 5.545 5.269a47.5 47.5 0 0 0-2.44-21.665c3.02-2.196 6.08-4.415 9.546-5.805 2.218-.889 8.597-2.964 9.995.088 1.034 2.258-4.245 7.45-5.453 9.243-4.18 6.202-7.879 12.757-10.719 19.685-2.791 6.808-4.768 13.947-5.655 21.259-.708 5.836 1.957 15.403.723 20.947a199 199 0 0 1-13.489-8.968 160 160 0 0 1-2.395-1.783c-6.337-4.81-12.309-10.083-18.057-15.578a386 386 0 0 1-8.491-8.397 672 672 0 0 1-4.164-4.277c-1.247-1.289-2.742-2.578-3.717-4.045m29.518 62.889c-3.896-6.382-7.813-12.777-11.808-19.147 4.613 6.616 9.098 13.392 13.615 20.214-.607-.348-1.204-.713-1.807-1.067m220.332 21.355c-29.311 20.531-67.475 25.066-102.895 19.958-31.69-4.571-61.773-16.161-91.213-28.304-1.079-.445-2.147-.912-3.218-1.374l-1.337-2.258c-2.047-3-4.097-5.995-6.111-9.047-5.674-8.517-11.309-17.193-17.253-25.753 2.936 2.44 5.94 4.799 9.058 6.999 17.162 12.111 37.396 20.255 57.164 27.064 7.467 2.572 15.09 4.892 22.951 5.65 11.768 1.134 23.387 3.534 35.182 4.417 10.552.789 19.881-1.909 30.355-2.477 3.262-.177 6.58-.365 9.649-1.487.391-.143.795-.328 1.084-.614 4.692 3.098 9.582 5.896 14.667 8.296 3.79 1.789 7.722 3.39 11.864 4.028 12.172 1.873 21.565-4.621 32.146-9.11.763 1.468-.738 3.062-2.093 4.012m-154.59-48.924c2.535-4.95 5.442-9.69 8.855-14.094 10.544-13.602 24.223-21.105 41.169-22.539 5.971-.505 12.2-1.622 18.028-.205a94 94 0 0 1 17.545 6.173 95 95 0 0 1 19.829 12.437c2.95 2.405 5.5 5.7 8.514 7.969-4.023.897-7.834 2.839-10.123 6.202-.925 1.359-1.571 2.901-2.579 4.2-4.309 5.557-12.895 4.597-19.304 7.492-5.343 2.414-9.042 7.584-10.998 13.111-1.863 5.268-2.343 10.903-2.745 16.483-2.019.094-4.001.148-5.912.102a221 221 0 0 1-38.238-4.265c-7.096-1.425-26.185-3.21-31.043-8.858-4.481-5.209 4.41-19.145 7.002-24.208m175.706 47.268c-3.754-2.329-7.245-4.92-11.16-7.031-5.738-3.094-11.955-4.658-17.101-9.023-.813-.69-1.684-1.455-2.748-1.52-1.73-.105-2.998 1.71-3.276 3.421-.678 4.17 3.581 7.224 6.436 9.477-6.499.312-12.914 1.362-19.404 1.808-6.557.45-13.524-.178-18.95-3.886-3.136-2.143-5.636-5.236-9.09-6.816s-8.542-.741-9.597 2.908c.391.302.803.578 1.198.875-6.777-1.449-14.329-.784-21.51-.37.523-.597.954-1.361 1.264-2.065 2.626-5.967 6.054-11.705 10.918-16.046s11.31-7.176 17.814-6.731a37.8 37.8 0 0 1 13.683-15.61c1.917-1.232 3.994-2.304 6.247-2.646 3.77-.572 9.466.023 13.266.401.33.033.677.08.943.279.824.613.242 1.89.212 2.916-.047 1.582 1.504 2.842 3.072 3.051s3.126-.352 4.609-.905c5.601-2.087 10.854-4.142 16.683-5.112 2.981-.496 5.883-1.62 8.921-1.834 2.228-.137 5.566.61 7.435 1.6-1.263.869-2.458 2.045-2.864 3.589-2.294 8.714-3.866 17.772-2.832 26.723.442 3.832 1.394 7.623 2.907 11.175 1.405 3.299 4.615 6.281 5.586 9.615 1.191 4.101.191 3.527-2.662 1.757m67.796-25.433c-2.672 8.169-11.494 12.524-19.758 14.887a98.3 98.3 0 0 1-28.874 3.766c-17.043-.326-15.486-29.21-12.007-40.073 1.639-5.116 2.939-8.258 7.924-10.137 3.76-1.417 13.625-5.094 17.482-3.242-11.615-5.575-25.234-4.813-37.927-2.612-12.694 2.201-25.323 5.729-38.198 5.294-2.132-.072-4.265-.251-6.397-.4-5.513-10.619-20.042-20.113-30.15-25.466-12.08-6.397-25.66-9.763-39.347-9.309-18.821.624-37.768 7.773-51.805 20.453a77.6 77.6 0 0 0-19.419 27.379c-1.419 3.377-.892 9.784-2.625 12.474-3.588 5.568-16.707-.691-27.298-7.087 5.378-16.113 10.815-32.265 18.32-47.501 2.998-6.086 7.237-14.694 13.563-18.01 5.748-3.013 12.965 1.783 19.201 2.93 10.805 1.987 22.534 1.497 31.994-4.09a252.4 252.4 0 0 1-42.216-4.816c-7.895-1.583-15.904-3.627-22.561-8.157-4.709-3.205-9.48-7.181-12.868-11.761-1.508-2.038-2.846-3.917-4.641-5.75-1.489-1.522-6.333-4.707-6.832-6.702l1.044 4.314c-14.136-13.041-28.134-26.782-37.155-43.767s-12.476-37.925-4.786-55.554a28.2 28.2 0 0 0-12.843 4.316c4.815-20.7 21.196-38.226 41.398-44.707-.195.148-.398.283-.591.434-15.189 11.9-22.943 28.639-23.065 48.011-.125 19.998 10.442 35.931 28.193 44.326 10.187 4.818 21.109 8.94 32.37 8.53.074-.003.146-.011.219-.014.987.827 1.951 1.735 2.671 2.213 1.682 1.117 3.272 2.287 4.93 3.4 4.187 2.808 8.845 5.056 13.279 7.444 23.009 12.391 47.158 28.328 72.168 9.849 2.346-1.733 4.53-3.697 7.02-5.217 7.798-4.763 17.537-4.646 26.289-7.274 6.717-2.017 12.821-5.65 18.762-9.378 12.157-7.63 23.278-16.894 35.376-24.509 4.526-2.849 8.286-3.963 11.699-8.431 3.945-5.164 6.688-11.273 8.702-17.42 4.297-13.119 5.656-28.004-.507-40.357-2.547-5.106-6.276-9.558-10.496-13.398-2.073-1.886-4.496-3.291-6.756-4.969l4.399-16.497c1.33-4.989 2.664-9.995 3.335-15.115.312-2.38-.121-5.235.204-7.39a194 194 0 0 0 2.125-24.867c.034-1.612.023-3.261-.303-4.829a106.5 106.5 0 0 1 17.746 11.975c11.575 9.658 20.047 24.639 28 37.284 6.802 10.815-2.182 8.34-10.187 9.053a76 76 0 0 0-12.068 2.064c-3.114.795-8.571 4.162-11.576 3.981 5.635.339 11.244 1.017 16.841 1.745 9.978 1.299 20.036 2.791 29.41 6.449s18.123 9.703 23.275 18.346c.538.903.997 2.168.245 2.904-.375.367-.933.454-1.449.554-3.758.731-7.134 3.23-8.931 6.611 1.451-.77 2.806 1.179 3.274 2.754a90.7 90.7 0 0 1 3.705 23.385c.115 4.31.336 9.241-.803 13.398-.339 1.236-.808 2.545-1.869 3.262-1.111.751-2.564.656-3.904.626-13.693-.302-17.487 18.655-21.444 28.806a110.5 110.5 0 0 1-24.588 37.721 31.2 31.2 0 0 0-6.633-13.618c-9.499 14.995-23.518 27.086-39.747 34.279l.548-10.635a292.7 292.7 0 0 1-54.883 30.543c15.178-.261 30.235-5.413 42.391-14.505l-3.243 4.84a69.8 69.8 0 0 0 20.073-3.892c1.369-.482 2.964-.89 4.233-1.596.932-.519 1.515-1.214 2.621-1.496 2.262-.578 4.799.328 6.863 1.199 11.004 4.644 27.57 11.465 34.506 21.374 8.151 11.645 19.134 20.845 28.086 31.82a109.4 109.4 0 0 1 12.614 19.317c3.205 6.27 5.842 13.544 3.652 20.238m74.634-80.093c-6.47 8.95-15.264 15.964-24.458 22.084-16.676 11.1-35.064 19.609-54.304 25.189-.482-.889-.748-1.849-.641-2.924.444-4.457 4.707-7.435 8.693-9.479 4.989-2.558 10.275-4.689 14.635-8.214 5.376-4.346 11.817-7.002 17.761-10.433 12.604-7.275 23.278-19.392 29.998-32.217 5.551-10.593 7.254-25.13 4.123-36.68-3.414-12.595-11.9-23.384-22.116-31.503s-22.134-13.804-34.174-18.834c-1.398-.584-2.862-1.171-4.373-1.06a4.06 4.06 0 0 0-1.746.56c.888-4.281.995-8.721.218-13.025a48 48 0 0 1 5.472.089c4.402 1.994 9.227 3.168 13.867 4.638 22.482 7.123 42.507 23.085 52.352 44.515s8.509 48.181-5.307 67.294m-43.145-13.67.015-1.588a676 676 0 0 1 7.309-1.628l6.26-1.314 7.956-2.109 1.543-.398c.173 2.296.305 3.933.347 3.705.171 1.658.379 3.173.615 4.346-4.536 6.869-10.266 12.939-16.47 18.375a136 136 0 0 1-9.616 7.657c.298-.973.572-2.763.797-5.675.67-6.355 1.244-15.367 1.244-15.367zm20.893-48.891c.042.673.069 1.346.109 2.018-4.469.858-8.363 1.72-8.363 1.72l-11.918 3.452c.147-7.995.226-16.004.16-24.041 2.862-.657 5.129-1.147 4.858-1.155 2.431-.588 4.539-1.215 5.645-1.763.33.26.676.498 1.002.764a67.5 67.5 0 0 1 8.381 8.134 5 5 0 0 0-.442.669c-.129.199-.125.251-.116.395zm-15.4-21.293a82 82 0 0 0-4.645.115l-.001-.16c-.04-1.883-.117-3.787-.252-5.703a94 94 0 0 1 8.899 5.834c-1.013-.069-2.305-.104-4.001-.086m-4.893 34.694 12.958-3.753s3.885-1.401 7.704-2.803c.32 6.033.593 12.069.761 18.108l.116 4.702.603 7.698c-4.973.434-9.584 1.041-9.584 1.041l-5.929 1.231-7.157 1.584.022-2.309.391-20.02q.059-2.74.115-5.479m28.019 23.564c-.316.012-.643.027-.971.043.294-3.729.436-6.699.436-6.699l-.131-5.523c-.183-6.71-.486-13.416-.854-20.118 1.011-.39 1.619-.641 1.469-.627.464-.194.907-.387 1.338-.578 1.807 4.183 3.028 8.593 3.472 13.162.665 6.847-.45 13.752-2.764 20.251a83 83 0 0 0-1.995.089m.719 3.174c-.772 1.804-1.61 3.581-2.555 5.293l-.021.036c.212-1.488.397-3.106.557-4.721 1.137-.306 1.834-.508 1.678-.507.116-.034.226-.068.341-.101m-1.508-39.311c-.302.045-.614.094-.927.144-.027-.448-.044-.897-.071-1.345l-.169-2.438a53 53 0 0 1 1.943 3.512c-.263.043-.495.078-.776.127" style="stroke:none"/></svg>