<svg xmlns="http://www.w3.org/2000/svg" viewBox="-50 -270 1440 1440"><g style="stroke:none;stroke-width:30"><path d="M-7 1112a24 24 0 1 0 39.5 27L205 996.8a24 24 0 0 0 3.8-33A262.3 262.3 0 0 0 84 874a24 24 0 0 0-30.9 16.5zM237.5 938A300.7 300.7 0 0 0 91.7 836.1 24 24 0 0 1 75.8 807l80.8-185.5 1.5-.7a24 24 0 0 1 37.4-17.3l.9-.4A555.3 555.3 0 0 1 413 751.3a54.8 54.8 0 0 1 1.6 71.3l-7.5 7.6a54.8 54.8 0 0 1-9.9 6.5l-.6 2.1-124.9 103a24 24 0 0 1-34.2-3.8M510.8 725.3l-.1 1L499 738a24 24 0 0 1-35.4-1.6 603.3 603.3 0 0 0-228.7-169.6 24 24 0 0 1-12.2-32.7l68.1-138.6a104.4 104.4 0 0 1 152.4-40.3 1399 1399 0 0 1 179.2 144.9 72.3 72.3 0 0 1 3.1 101.5zM1024.2 363.5A156.1 156.1 0 0 0 897.1 383l-146.8 95.6a61.9 61.9 0 0 1-79.2-93.9 622.3 622.3 0 0 1 545.1-193.1 83.9 83.9 0 0 1 18.8 161.1 332.1 332.1 0 0 1-210.8 10.8M553.3 294.7a931.6 931.6 0 0 0 157.8-421.4 112.4 112.4 0 0 1 15.5-45.4 50.3 50.3 0 0 1 51.2-55.2l47.3 1a112.4 112.4 0 0 1 92.3 173L652.7 360.6a59.6 59.6 0 0 1-99.4-65.9M381.4 228.8A5088 5088 0 0 0 404.3-3h-.2a172.3 172.3 0 0 0-126.3-169.7 131.5 131.5 0 0 1 257.3 41 4062 4062 0 0 1-25.3 375.6 64.7 64.7 0 0 1-128.4-15.1"/></g></svg>