<svg xmlns="http://www.w3.org/2000/svg"
     xmlns:xlink="http://www.w3.org/1999/xlink"
     viewBox="0 0 670 376">
  <g style="fill-opacity:1;fill-rule:nonzero">
  <path id="mmu_EMU_glow"
        fill="white" stroke="white" stroke-width="1" opacity="0.3"
        d="M 137.00,18.00
           C 133.45,11.48 132.63,2.79 143.00,4.24
             150.56,5.29 162.10,17.20 165.00,24.00
             165.00,24.00 167.00,24.00 167.00,24.00
             169.40,16.96 181.36,5.30 189.00,4.24
             194.05,3.54 198.63,6.43 197.53,12.00
             197.08,14.27 195.21,16.99 194.00,19.00
             198.87,15.27 213.42,5.23 216.79,16.04
             217.02,17.59 216.96,19.40 216.79,21.00
             222.76,19.33 240.73,13.60 238.54,26.00
             238.27,27.54 237.63,28.63 237.00,30.00
             242.24,30.00 257.92,30.46 261.26,34.43
             263.48,37.07 262.82,40.02 262.00,43.00
             269.40,44.04 275.01,44.56 276.00,53.00
             281.05,53.71 293.12,56.82 296.57,60.41
             300.26,64.26 298.06,67.64 297.80,72.00
             297.64,74.58 298.21,76.32 297.28,79.00
             296.68,80.70 295.95,81.56 295.00,83.00
             299.38,83.62 307.43,85.26 310.57,88.41
             310.57,88.41 316.58,98.00 316.58,98.00
             320.48,104.02 323.88,108.21 316.00,113.00
             317.13,117.36 316.87,117.94 315.00,122.00
             322.63,124.67 323.77,131.54 318.77,134.86
             315.31,137.16 309.04,137.00 305.00,137.00
             312.34,145.30 308.55,145.12 310.39,149.42
             311.54,152.12 314.91,154.35 316.26,158.00
             317.38,161.02 316.40,163.35 316.78,166.00
             317.17,168.80 318.90,171.04 318.67,173.99
             318.44,176.93 316.88,178.04 315.48,180.28
             311.86,186.05 314.22,188.74 304.00,189.00
             303.55,196.65 302.08,194.75 300.55,199.17
             298.72,204.49 301.60,208.12 293.00,210.00
             299.90,220.47 292.47,227.90 282.00,221.00
             279.83,228.51 281.31,230.27 280.25,232.89
             278.64,236.87 275.15,236.28 272.61,238.58
             267.28,243.40 269.81,250.75 258.00,248.00
             254.65,257.28 247.58,253.32 241.55,262.17
             240.26,264.06 239.84,265.79 239.44,268.00
             237.55,278.54 238.31,272.81 235.54,281.00
             234.91,282.85 234.86,285.11 233.83,286.77
             231.25,290.94 225.66,290.40 222.30,287.57
             222.30,287.57 216.00,281.00 216.00,281.00
             216.00,295.35 218.93,320.96 222.34,335.00
             223.28,340.12 227.16,351.39 222.34,355.26
             215.60,361.14 208.82,348.36 202.00,350.49
             194.89,352.70 183.63,366.82 176.00,370.55
             172.20,372.41 167.18,372.05 163.00,372.00
             151.75,371.85 148.60,366.17 141.00,359.09
             141.00,359.09 125.00,345.00 125.00,345.00
             122.47,342.85 119.18,340.10 116.00,339.03
             113.10,338.05 99.11,340.69 101.47,330.04
             102.55,325.19 108.00,324.23 111.07,318.99
             112.51,316.51 113.25,311.90 113.88,309.00
             115.15,300.91 117.44,288.43 113.88,281.00
             113.11,282.72 112.28,284.37 111.06,285.89
             107.78,289.97 101.46,291.88 98.16,286.77
             97.32,285.47 96.92,283.47 96.41,282.00
             96.41,282.00 93.22,274.00 93.22,274.00
             91.06,267.07 93.52,264.47 87.24,258.86
             83.33,255.36 81.86,256.29 78.04,253.86
             78.04,253.86 71.83,248.99 71.83,248.99
             68.83,247.31 61.17,247.00 59.00,237.00
             50.72,236.03 49.96,231.20 52.00,224.00
             52.00,224.00 49.00,221.00 49.00,221.00
             38.52,227.90 33.37,220.00 38.00,210.00
             29.40,208.12 32.28,204.49 30.45,199.17
             28.92,194.75 27.45,196.65 27.00,189.00
             24.41,188.93 21.54,189.05 19.43,187.26
             17.35,185.50 17.41,183.42 16.49,181.17
             15.61,179.02 13.98,177.25 13.44,174.96
             13.44,174.96 14.73,159.00 14.73,159.00
             16.04,155.21 19.62,152.23 20.62,149.58
             22.66,144.18 18.28,146.65 26.00,137.00
             21.96,137.00 15.69,137.16 12.23,134.86
             7.23,131.54 8.37,124.67 16.00,122.00
             14.13,117.94 13.87,117.36 15.00,113.00
             3.76,108.93 11.83,100.78 15.67,94.58
             17.61,91.43 17.76,89.54 21.11,87.36
             25.39,84.57 31.20,83.77 36.00,82.00
             30.09,78.45 33.09,75.45 32.77,70.00
             32.57,66.62 31.41,64.41 33.74,61.21
             37.47,56.08 45.71,56.12 50.86,53.35
             54.41,51.45 53.83,48.99 56.43,46.70
             59.29,44.17 65.28,43.31 69.00,43.00
             68.18,40.02 67.52,37.07 69.74,34.43
             73.08,30.46 88.76,30.00 94.00,30.00
             93.37,28.63 92.73,27.54 92.46,26.00
             90.19,13.18 109.17,19.83 115.21,21.00
             115.04,19.40 114.98,17.59 115.21,16.04
             118.40,5.82 131.70,15.20 137.00,18.00 Z
           M 283.00,328.00
           C 283.00,328.00 369.00,328.00 369.00,328.00
             374.03,328.01 379.61,328.08 383.61,331.65
             389.85,337.21 389.55,351.24 382.89,356.35
             379.17,359.21 375.41,358.99 371.00,359.00
             371.00,359.00 269.00,359.00 269.00,359.00
             255.70,358.98 252.02,354.01 252.00,341.00
             252.00,341.00 252.00,289.00 252.00,289.00
             252.00,282.44 251.10,270.67 253.92,265.04
             257.24,258.42 263.48,258.01 270.00,258.00
             270.00,258.00 372.00,258.00 372.00,258.00
             383.19,258.15 388.45,263.81 387.96,275.00
             387.54,284.74 382.44,288.87 373.00,289.00
             373.00,289.00 283.00,289.00 283.00,289.00
             283.00,289.00 283.00,293.00 283.00,293.00
             283.00,293.00 352.00,293.00 352.00,293.00
             356.94,293.01 361.83,292.89 365.84,296.42
             371.64,301.63 371.84,315.46 365.84,320.61
             361.79,324.16 358.05,323.99 353.00,324.00
             353.00,324.00 283.00,324.00 283.00,324.00
             283.00,324.00 283.00,328.00 283.00,328.00 Z
           M 420.00,303.00
           C 420.00,303.00 420.00,335.00 420.00,335.00
             420.00,340.33 420.66,347.30 417.91,351.98
             413.18,360.07 398.81,361.84 392.42,354.78
             388.89,350.88 389.01,345.89 389.00,341.00
             389.00,341.00 389.00,277.00 389.00,277.00
             389.00,274.45 388.88,271.42 389.70,269.00
             392.61,260.42 401.79,257.55 410.00,259.39
             414.20,260.33 419.33,264.26 423.00,266.66
             423.00,266.66 445.00,281.33 445.00,281.33
             447.01,282.67 453.10,286.95 455.00,287.50
             459.22,288.72 466.45,282.36 470.00,280.00
             476.67,275.55 497.98,260.34 504.00,258.63
             511.32,256.55 520.37,259.46 523.26,267.00
             524.13,269.27 524.00,272.56 524.00,275.00
             524.00,275.00 524.00,345.00 524.00,345.00
             523.88,353.51 519.73,358.29 511.00,358.90
             504.85,359.33 497.56,357.11 495.01,350.98
             493.53,347.44 494.00,339.13 494.00,335.00
             494.00,335.00 494.00,303.00 494.00,303.00
             488.16,306.89 467.69,321.36 463.00,323.03
             460.44,323.95 457.70,324.10 455.00,323.96
             448.53,323.62 445.07,320.26 440.00,316.72
             440.00,316.72 420.00,303.00 420.00,303.00 Z
           M 536.00,258.53
           C 550.93,256.07 556.98,262.40 557.00,277.00
             557.00,277.00 557.00,309.00 557.00,309.00
             557.00,313.23 556.38,319.38 558.74,322.96
             562.14,328.12 566.52,327.99 572.00,328.00
             572.00,328.00 610.00,328.00 610.00,328.00
             614.48,328.00 622.25,328.73 625.95,326.26
             631.16,322.78 630.99,317.55 631.00,312.00
             631.00,312.00 631.00,280.00 631.00,280.00
             631.00,275.58 630.45,268.89 632.45,265.02
             635.58,258.96 641.75,257.72 648.00,258.04
             658.42,258.59 660.99,264.86 661.00,274.00
             661.00,274.00 661.00,297.00 661.00,297.00
             661.00,297.00 661.00,324.00 661.00,324.00
             660.93,339.15 651.95,352.86 637.00,357.08
             631.56,358.61 627.60,358.99 622.00,359.00
             622.00,359.00 566.00,359.00 566.00,359.00
             555.86,358.98 544.86,356.65 537.09,349.67
             529.07,342.47 526.02,330.39 526.00,320.00
             526.00,320.00 526.00,275.00 526.00,275.00
             526.01,266.37 526.89,261.46 536.00,258.53 Z" />
  <path id="mmu_EMU"
        fill="black" stroke="black" stroke-width="1" opacity="0.8"
        d="M 140.00,10.00
           C 145.37,11.71 148.72,14.52 152.71,18.43
             165.98,31.39 166.52,44.58 160.00,61.00
             160.00,61.00 158.00,61.00 158.00,61.00
             153.11,54.13 151.25,51.60 144.00,47.00
             149.58,53.13 153.23,58.57 154.00,67.00
             154.00,67.00 146.00,61.00 146.00,61.00
             150.40,67.27 156.14,76.06 153.00,84.00
             150.58,78.39 148.73,74.72 144.56,70.09
             119.58,42.40 82.06,68.11 63.59,90.00
             59.78,94.52 56.97,97.83 54.00,103.00
             60.03,97.25 65.34,92.79 73.00,89.31
             91.23,81.03 105.26,85.16 119.00,99.00
             126.46,106.52 130.42,112.29 134.57,122.00
             137.91,129.81 140.90,140.49 141.00,149.00
             141.06,154.43 140.50,159.73 142.00,165.00
             142.00,165.00 158.28,123.00 158.28,123.00
             158.28,123.00 163.57,101.00 163.57,101.00
             163.57,101.00 166.00,88.00 166.00,88.00
             166.00,88.00 169.42,108.00 169.42,108.00
             172.93,123.89 183.08,152.03 191.00,166.00
             191.00,166.00 190.09,153.00 190.09,153.00
             190.44,146.90 191.77,137.87 193.43,132.00
             199.19,111.69 217.60,85.08 241.00,85.08
             246.79,85.08 255.83,87.75 261.00,90.37
             268.23,94.04 272.38,98.39 278.00,104.00
             266.27,83.60 237.05,57.44 212.00,58.01
             201.58,58.25 191.88,64.09 185.33,72.00
             182.39,75.55 180.91,80.49 177.00,83.00
             177.80,73.23 179.65,68.53 186.00,61.00
             186.00,61.00 177.00,67.00 177.00,67.00
             178.88,57.78 181.54,53.79 188.00,47.00
             181.79,50.33 177.53,54.95 174.00,61.00
             174.00,61.00 172.00,61.00 172.00,61.00
             161.85,39.45 169.66,20.46 191.00,10.00
             187.02,19.40 181.15,23.30 180.00,36.00
             180.00,36.00 211.00,17.00 211.00,17.00
             206.67,25.06 200.80,27.40 198.00,37.00
             198.00,37.00 222.00,26.43 222.00,26.43
             222.00,26.43 233.00,25.00 233.00,25.00
             222.61,30.06 215.31,34.87 207.00,43.00
             218.03,38.26 225.70,35.74 238.00,36.01
             238.00,36.01 256.00,38.00 256.00,38.00
             256.00,38.00 256.00,40.00 256.00,40.00
             242.66,40.00 228.79,42.47 217.00,49.00
             229.91,46.69 240.02,46.49 253.00,47.95
             258.11,48.52 265.60,49.42 270.00,52.00
             260.90,52.08 249.34,53.35 241.00,57.00
             255.91,57.00 280.75,56.53 293.00,66.00
             280.53,64.99 267.22,61.36 256.00,69.00
             266.25,69.00 284.32,69.66 292.00,77.00
             281.95,75.67 278.21,73.88 268.00,77.00
             275.06,78.29 283.60,78.85 289.00,84.00
             289.00,84.00 272.00,84.00 272.00,84.00
             276.28,88.22 278.47,86.60 284.00,87.29
             290.64,88.10 301.94,89.68 307.00,94.00
             297.85,94.00 291.20,92.99 283.00,98.00
             290.13,98.00 304.91,97.89 311.00,101.00
             311.00,101.00 293.00,104.00 293.00,104.00
             299.19,104.00 308.92,103.24 314.00,107.00
             314.00,107.00 287.00,110.00 287.00,110.00
             287.00,110.00 288.00,115.00 288.00,115.00
             293.70,113.38 306.01,113.77 311.00,117.00
             311.00,117.00 290.00,121.22 290.00,121.22
             290.00,121.22 282.00,123.00 282.00,123.00
             291.85,123.00 307.86,124.18 316.00,130.00
             316.00,130.00 282.00,134.00 282.00,134.00
             290.22,135.88 298.51,139.42 304.00,146.00
             304.00,146.00 285.00,140.00 285.00,140.00
             291.56,147.44 303.64,148.29 311.00,162.00
             302.07,157.70 298.29,154.35 288.00,152.00
             294.31,158.32 306.99,162.28 312.00,174.00
             312.00,174.00 292.00,163.00 292.00,163.00
             298.14,169.14 304.83,174.72 308.00,183.00
             308.00,183.00 289.00,170.00 289.00,170.00
             289.00,170.00 297.00,180.00 297.00,180.00
             297.00,180.00 288.00,175.00 288.00,175.00
             292.42,181.25 295.74,183.24 298.00,191.00
             298.00,191.00 286.00,183.00 286.00,183.00
             290.91,191.78 291.94,192.78 294.00,203.00
             294.00,203.00 283.00,191.00 283.00,191.00
             283.00,191.00 279.11,199.00 279.11,199.00
             277.49,204.74 285.67,206.56 289.00,217.00
             289.00,217.00 271.00,207.00 271.00,207.00
             271.00,207.00 277.00,218.00 277.00,218.00
             277.00,218.00 265.00,215.00 265.00,215.00
             269.07,219.17 275.09,224.61 273.00,231.00
             273.00,231.00 265.00,223.00 265.00,223.00
             265.00,223.00 268.00,233.00 268.00,233.00
             268.00,233.00 259.00,226.00 259.00,226.00
             259.00,226.00 266.00,237.00 266.00,237.00
             266.00,237.00 254.00,229.00 254.00,229.00
             257.91,233.56 260.27,236.13 262.00,242.00
             262.00,242.00 256.00,238.00 256.00,238.00
             256.00,238.00 252.00,247.00 252.00,247.00
             249.59,246.41 249.58,247.21 248.00,249.00
             248.00,249.00 245.00,245.00 245.00,245.00
             245.00,245.00 239.00,255.00 239.00,255.00
             239.00,255.00 238.00,248.00 238.00,248.00
             235.36,257.81 233.10,261.01 233.00,272.00
             228.43,268.45 231.03,264.14 229.00,257.00
             229.00,257.00 229.00,277.00 229.00,277.00
             229.00,277.00 225.00,269.00 225.00,269.00
             225.00,269.00 227.00,284.00 227.00,284.00
             227.00,284.00 216.00,266.00 216.00,266.00
             216.00,266.00 214.00,271.00 214.00,271.00
             214.00,271.00 211.00,269.00 211.00,269.00
             211.00,269.00 210.00,285.00 210.00,285.00
             209.90,307.37 214.62,329.20 219.00,351.00
             214.90,348.26 209.97,343.81 205.00,343.23
             200.25,342.67 196.62,345.49 193.00,348.16
             185.57,353.62 175.96,365.49 167.00,365.96
             158.04,366.42 155.41,363.10 149.00,357.58
             149.00,357.58 125.00,336.51 125.00,336.51
             115.77,329.64 114.87,333.73 108.00,331.00
             111.33,328.62 114.51,326.61 116.59,322.96
             119.51,317.82 120.61,307.94 121.08,302.00
             121.95,291.14 123.26,276.23 119.00,266.00
             119.00,266.00 120.00,271.00 120.00,271.00
             120.00,271.00 115.00,267.00 115.00,267.00
             112.20,273.27 108.44,279.72 103.00,284.00
             104.80,278.60 107.15,273.72 106.00,268.00
             104.91,272.56 104.55,273.81 101.00,277.00
             102.55,270.85 103.77,265.22 102.00,259.00
             101.98,264.44 102.17,268.32 99.00,273.00
             98.62,264.73 96.78,256.38 93.00,249.00
             93.00,249.00 92.00,255.00 92.00,255.00
             92.00,255.00 85.00,245.00 85.00,245.00
             85.00,245.00 85.00,249.00 85.00,249.00
             85.00,249.00 82.00,246.00 82.00,246.00
             82.00,246.00 80.00,247.00 80.00,247.00
             75.62,239.47 75.87,239.54 69.00,242.00
             70.96,235.86 73.59,233.51 78.00,229.00
             78.00,229.00 66.00,237.00 66.00,237.00
             66.00,237.00 72.00,226.00 72.00,226.00
             72.00,226.00 63.00,233.00 63.00,233.00
             63.00,233.00 66.00,223.00 66.00,223.00
             66.00,223.00 57.00,231.00 57.00,231.00
             58.22,223.27 60.86,219.75 67.00,215.00
             67.00,215.00 54.00,219.00 54.00,219.00
             54.00,219.00 61.00,207.00 61.00,207.00
             61.00,207.00 42.00,217.00 42.00,217.00
             42.00,217.00 52.14,201.00 52.14,201.00
             52.14,201.00 48.00,191.00 48.00,191.00
             48.00,191.00 37.00,204.00 37.00,204.00
             38.28,194.89 39.98,191.57 45.00,184.00
             45.00,184.00 33.00,192.00 33.00,192.00
             35.95,181.67 39.40,181.75 43.00,175.00
             43.00,175.00 34.00,180.00 34.00,180.00
             34.00,180.00 42.00,170.00 42.00,170.00
             42.00,170.00 23.00,183.00 23.00,183.00
             27.49,173.79 31.92,170.08 39.00,163.00
             39.00,163.00 19.00,174.00 19.00,174.00
             24.19,163.01 36.91,158.21 43.00,152.00
             43.00,152.00 20.00,162.00 20.00,162.00
             23.88,156.58 28.40,152.32 34.00,148.70
             39.41,145.19 42.43,144.90 47.00,140.00
             47.00,140.00 28.00,146.00 28.00,146.00
             34.99,137.12 41.14,137.30 50.00,133.00
             43.20,133.00 20.43,131.50 15.00,129.00
             33.52,121.88 41.46,124.14 49.00,122.00
             49.00,122.00 35.00,119.21 35.00,119.21
             35.00,119.21 21.00,116.00 21.00,116.00
             26.88,114.33 37.10,113.32 43.00,115.00
             43.00,115.00 45.00,111.00 45.00,111.00
             45.00,111.00 16.00,106.00 16.00,106.00
             16.00,106.00 37.00,103.00 37.00,103.00
             37.00,103.00 20.00,100.00 20.00,100.00
             20.00,100.00 48.00,97.00 48.00,97.00
             48.00,97.00 36.00,94.09 36.00,94.09
             36.00,94.09 23.00,93.00 23.00,93.00
             29.29,90.90 35.41,88.93 42.00,88.00
             48.85,87.03 54.37,87.98 60.00,84.00
             60.00,84.00 42.00,83.00 42.00,83.00
             42.00,83.00 62.00,76.00 62.00,76.00
             62.00,76.00 51.00,75.32 51.00,75.32
             51.00,75.32 39.00,76.00 39.00,76.00
             54.10,67.64 66.37,70.74 76.00,68.00
             69.44,65.81 60.96,63.70 54.00,64.09
             49.22,64.36 42.41,66.47 38.00,65.00
             48.71,60.74 60.37,57.14 72.00,57.00
             77.67,56.94 83.50,57.56 89.00,56.00
             89.00,56.00 76.00,53.29 76.00,53.29
             76.00,53.29 60.00,51.00 60.00,51.00
             60.00,51.00 90.00,47.04 90.00,47.04
             90.00,47.04 100.00,47.04 100.00,47.04
             100.00,47.04 115.00,48.00 115.00,48.00
             115.00,48.00 91.00,41.42 91.00,41.42
             91.00,41.42 74.00,39.00 74.00,39.00
             90.11,33.68 107.53,35.85 123.00,42.00
             123.00,42.00 98.00,24.00 98.00,24.00
             113.40,26.08 120.54,31.20 134.00,37.00
             134.00,37.00 121.00,17.00 121.00,17.00
             121.00,17.00 152.00,36.00 152.00,36.00
             150.21,24.44 145.92,19.47 140.00,10.00 Z
           M 126.00,43.00
           C 126.00,43.00 125.00,43.00 125.00,43.00
             125.00,43.00 126.00,44.00 126.00,44.00
             126.00,44.00 126.00,43.00 126.00,43.00 Z
           M 207.00,43.00
           C 207.00,43.00 206.00,43.00 206.00,43.00
             206.00,43.00 207.00,44.00 207.00,44.00
             207.00,44.00 207.00,43.00 207.00,43.00 Z
           M 127.00,44.00
           C 127.00,44.00 126.00,44.00 126.00,44.00
             126.00,44.00 127.00,45.00 127.00,45.00
             127.00,45.00 127.00,44.00 127.00,44.00 Z
           M 144.00,46.00
           C 144.00,46.00 143.00,46.00 143.00,46.00
             143.00,46.00 144.00,47.00 144.00,47.00
             144.00,47.00 144.00,46.00 144.00,46.00 Z
           M 189.00,46.00
           C 189.00,46.00 188.00,46.00 188.00,46.00
             188.00,46.00 189.00,47.00 189.00,47.00
             189.00,47.00 189.00,46.00 189.00,46.00 Z
           M 144.00,59.00
           C 144.00,59.00 143.00,59.00 143.00,59.00
             143.00,59.00 144.00,60.00 144.00,60.00
             144.00,60.00 144.00,59.00 144.00,59.00 Z
           M 187.00,60.00
           C 187.00,60.00 186.00,60.00 186.00,60.00
             186.00,60.00 187.00,61.00 187.00,61.00
             187.00,61.00 187.00,60.00 187.00,60.00 Z
           M 279.00,104.00
           C 279.00,104.00 278.00,104.00 278.00,104.00
             278.00,104.00 279.00,105.00 279.00,105.00
             279.00,105.00 279.00,104.00 279.00,104.00 Z
           M 280.00,105.00
           C 280.00,105.00 279.00,105.00 279.00,105.00
             279.00,105.00 280.00,106.00 280.00,106.00
             280.00,106.00 280.00,105.00 280.00,105.00 Z
           M 52.00,106.00
           C 52.00,106.00 51.00,106.00 51.00,106.00
             51.00,106.00 52.00,107.00 52.00,107.00
             52.00,107.00 52.00,106.00 52.00,106.00 Z
           M 58.00,115.00
           C 58.00,115.00 53.00,115.00 53.00,115.00
             53.00,115.00 58.00,115.00 58.00,115.00 Z
           M 278.00,114.00
           C 278.00,114.00 274.00,116.00 274.00,116.00
             274.00,116.00 278.00,114.00 278.00,114.00 Z
           M 85.00,116.30
           C 40.52,124.71 34.77,190.01 74.00,209.63
             78.48,211.87 84.99,213.45 90.00,213.82
             105.19,214.92 111.49,206.77 120.20,196.00
             122.49,193.15 124.84,190.29 126.48,187.00
             130.98,177.96 131.11,168.80 131.00,159.00
             130.78,140.30 118.56,121.81 100.00,116.92
             95.38,115.71 89.74,115.83 85.00,116.30 Z
           M 234.00,116.32
           C 207.33,122.31 196.80,148.03 200.92,173.00
             201.52,176.63 202.13,180.57 203.47,184.00
             205.65,189.61 209.12,193.45 212.92,198.00
             220.95,207.61 224.88,212.82 238.00,213.82
             240.81,214.03 243.26,213.56 246.00,213.08
             267.65,209.27 282.75,188.46 283.00,167.00
             283.25,145.28 274.89,125.97 253.00,118.09
             246.68,115.82 240.61,115.60 234.00,116.32 Z
           M 90.00,130.31
           C 92.21,130.17 93.72,129.94 96.00,130.31
             122.51,131.95 117.36,172.16 93.00,169.66
             71.56,167.46 67.34,137.30 90.00,130.31 Z
           M 250.00,136.00
           C 263.84,144.31 254.78,172.18 235.00,169.50
             218.62,167.28 212.30,148.81 221.93,137.18
             226.77,131.33 232.82,130.07 240.00,130.00
             240.96,135.91 244.09,139.04 250.00,140.00
             250.00,140.00 250.00,136.00 250.00,136.00 Z
           M 219.00,213.00
           C 219.00,213.00 180.42,169.00 180.42,169.00
             177.97,166.16 169.54,155.63 166.07,155.63
             162.80,155.63 153.78,166.28 151.42,169.00
             151.42,169.00 113.00,213.00 113.00,213.00
             130.07,213.16 135.05,221.37 142.85,235.00
             142.85,235.00 150.75,249.00 150.75,249.00
             153.36,254.00 159.87,268.71 166.00,268.71
             172.37,268.71 178.17,254.98 181.00,250.00
             190.68,232.97 196.14,213.21 219.00,213.00 Z
           M 146.00,182.00
           C 147.05,185.77 143.72,196.92 142.32,200.98
             141.63,202.96 140.12,206.20 137.41,204.83
             132.22,202.21 137.62,192.04 139.79,189.00
             141.62,186.43 143.81,184.25 146.00,182.00 Z
           M 185.00,182.00
           C 190.02,185.63 194.65,190.89 196.36,197.00
             197.06,199.49 196.95,207.05 192.40,204.83
             190.53,203.92 189.69,200.83 189.16,199.00
             189.16,199.00 185.00,182.00 185.00,182.00 Z
           M 245.00,227.00
           C 230.77,221.31 213.54,214.12 201.32,228.04
             201.32,228.04 178.58,261.00 178.58,261.00
             175.72,265.04 171.68,271.93 166.00,271.64
             159.41,271.31 150.98,257.29 147.34,252.00
             143.12,245.86 131.88,228.27 126.99,224.56
             116.57,216.65 96.58,220.41 87.00,228.00
             99.52,226.35 114.70,221.39 124.96,231.10
             124.96,231.10 150.29,265.00 150.29,265.00
             153.96,270.13 158.05,277.32 165.00,277.88
             173.16,278.53 177.96,270.82 182.14,265.00
             182.14,265.00 198.58,242.00 198.58,242.00
             202.00,237.16 205.00,232.10 210.00,228.65
             216.48,224.18 226.57,225.36 234.00,226.43
             237.87,226.98 241.23,228.25 245.00,227.00 Z
           M 67.00,222.00
           C 67.00,222.00 66.00,222.00 66.00,222.00
             66.00,222.00 67.00,223.00 67.00,223.00
             67.00,223.00 67.00,222.00 67.00,222.00 Z
           M 265.00,222.00
           C 265.00,222.00 264.00,222.00 264.00,222.00
             264.00,222.00 265.00,223.00 265.00,223.00
             265.00,223.00 265.00,222.00 265.00,222.00 Z
           M 75.00,224.00
           C 75.00,224.00 74.00,224.00 74.00,224.00
             74.00,224.00 75.00,225.00 75.00,225.00
             75.00,225.00 75.00,224.00 75.00,224.00 Z
           M 258.00,224.00
           C 258.00,224.00 257.00,224.00 257.00,224.00
             257.00,224.00 258.00,225.00 258.00,225.00
             258.00,225.00 258.00,224.00 258.00,224.00 Z
           M 259.00,225.00
           C 259.00,225.00 258.00,225.00 258.00,225.00
             258.00,225.00 259.00,226.00 259.00,226.00
             259.00,226.00 259.00,225.00 259.00,225.00 Z
           M 79.00,228.00
           C 79.00,228.00 78.00,228.00 78.00,228.00
             78.00,228.00 79.00,229.00 79.00,229.00
             79.00,229.00 79.00,228.00 79.00,228.00 Z
           M 247.00,228.00
           C 247.00,228.00 246.00,228.00 246.00,228.00
             246.00,228.00 247.00,229.00 247.00,229.00
             247.00,229.00 247.00,228.00 247.00,228.00 Z
           M 277.00,334.00
           C 277.00,334.00 366.00,334.00 366.00,334.00
             372.40,334.01 380.36,333.88 381.62,342.00
             383.09,351.50 375.14,352.99 368.00,353.00
             368.00,353.00 285.00,353.00 285.00,353.00
             277.78,353.00 263.17,355.40 259.31,347.96
             257.82,345.08 258.00,341.17 258.00,338.00
             258.00,338.00 258.00,277.00 258.00,277.00
             258.14,265.36 262.47,264.02 273.00,264.00
             273.00,264.00 356.00,264.00 356.00,264.00
             364.01,264.00 379.96,261.29 381.62,272.00
             383.09,281.50 375.14,282.99 368.00,283.00
             368.00,283.00 277.00,283.00 277.00,283.00
             277.00,283.00 277.00,300.00 277.00,300.00
             277.00,300.00 352.00,300.00 352.00,300.00
             359.59,300.01 364.82,300.47 363.89,310.00
             363.16,317.45 358.16,317.97 352.00,318.00
             352.00,318.00 277.00,318.00 277.00,318.00
             277.00,318.00 277.00,334.00 277.00,334.00 Z
           M 414.00,291.00
           C 414.00,291.00 414.00,338.00 414.00,338.00
             413.99,341.54 414.23,345.82 412.15,348.87
             408.37,354.39 399.47,353.94 396.31,347.95
             394.82,345.11 395.00,341.14 395.00,338.00
             395.00,338.00 395.00,278.00 395.00,278.00
             395.10,270.78 398.69,264.09 407.00,265.24
             411.05,265.80 416.52,270.01 420.00,272.33
             420.00,272.33 444.00,288.67 444.00,288.67
             447.37,290.91 453.91,296.53 458.00,295.45
             460.03,294.92 466.84,290.11 469.00,288.67
             469.00,288.67 494.00,272.00 494.00,272.00
             497.26,269.83 503.36,265.34 507.00,264.60
             516.32,262.70 517.99,271.11 518.00,278.00
             518.00,278.00 518.00,340.00 518.00,340.00
             518.00,342.99 518.31,347.16 516.26,349.57
             513.08,353.31 504.57,352.73 501.74,348.85
             499.72,346.10 500.01,342.25 500.00,339.00
             500.00,339.00 500.00,291.00 500.00,291.00
             500.00,291.00 473.00,309.14 473.00,309.14
             469.36,311.73 462.30,317.25 458.00,317.74
             453.08,318.29 447.89,314.30 444.00,311.66
             444.00,311.66 414.00,291.00 414.00,291.00 Z
           M 539.00,264.61
           C 549.40,263.50 550.89,270.33 551.00,279.00
             551.00,279.00 551.00,316.00 551.00,316.00
             551.02,320.80 551.14,324.99 554.42,328.89
             558.68,333.97 563.96,333.99 570.00,334.00
             570.00,334.00 619.00,334.00 619.00,334.00
             624.64,333.97 629.50,333.60 633.35,328.81
             636.36,325.09 636.94,320.60 637.00,316.00
             637.00,316.00 637.00,278.00 637.00,278.00
             637.01,274.69 636.72,270.97 638.74,268.13
             642.40,262.98 650.25,263.52 653.26,267.30
             655.30,269.85 654.99,273.91 655.00,277.00
             655.00,277.00 655.00,309.00 655.00,309.00
             655.00,327.25 655.84,344.91 634.00,351.08
             628.56,352.61 624.60,352.99 619.00,353.00
             619.00,353.00 567.00,353.00 567.00,353.00
             558.77,352.90 549.45,351.10 543.01,345.67
             531.25,335.76 532.00,321.91 532.00,308.00
             532.00,308.00 532.00,287.00 532.00,287.00
             532.00,278.40 529.47,268.28 539.00,264.61 Z" />
</g>
</svg>
