<svg xmlns="http://www.w3.org/2000/svg" viewBox="10 45 190 100"><g style="fill-opacity:1;fill-rule:nonzero"><path fill="#fff" stroke="#fff" stroke-width=".04282" d="M87.932 132.857h24.451c1.386 0 2.754-.121 3.685 1.156.15.206.3.528.383.77.114.338.17.585.171.942.001.516.037 1.04-.104 1.542-.35 1.248-1.417 2.096-2.722 2.098H84.207c-.878-.001-1.798-.47-2.29-1.199a3.1 3.1 0 0 1-.393-.856c-.092-.291-.143-.764-.143-1.07v-19.484c.014-1.207.52-2.207 1.627-2.75.39-.193.764-.29 1.199-.29h29.589c1.59.002 2.824 1.291 2.826 2.869.001.516.037 1.039-.104 1.541-.4 1.424-1.541 2.139-2.979 2.141H87.932v3.04h21.111c.946.002 1.891.51 2.379 1.328.133.223.257.52.324.77.146.548.13.943.123 1.5-.02 1.719-1.292 2.934-2.997 2.954h-20.94zm37.468-9.806v12.246c0 1.016.039 2.058-.622 2.912-.505.653-1.372 1.11-2.204 1.113h-.985c-.49-.006-1.197-.238-1.584-.536-.818-.63-1.154-1.54-1.156-2.547V116.97c.001-.9.416-1.447 1.028-2.055.575-.573 1.345-1.07 2.183-1.07h.6c.675.007 1.383.436 1.927.799l1.755 1.17 7.066 4.724 2.055 1.37c.146.098.786.546.9.57.13.03.239-.06.342-.127l.6-.4 2.483-1.67 6.809-4.582c.985-.664 2.237-1.661 3.383-1.93.326-.077.77-.057 1.113-.053.391.004.769.157 1.113.332.388.196.552.348.857.652.675.674.983 1.354.985 2.313v19.012l-.046.471v.343a2.83 2.83 0 0 1-.81 1.627c-.127.126-.237.239-.386.338a3.3 3.3 0 0 1-.9.384c-.506.134-1.1.098-1.627.092-.324-.004-.553-.068-.856-.172-1.25-.427-1.882-1.549-1.884-2.826v-10.534l-.043-.642v-2.055l-2.312 1.555-4.753 3.228-1.071.73c-.785.577-1.669 1.293-2.698 1.295h-.6c-.392-.005-.766-.159-1.113-.332-.692-.345-.782-.47-1.37-.914l-.813-.567-4.325-2.926-1.627-1.099zm33.4-9.329h1.2a2.81 2.81 0 0 1 2.665 1.92c.14.423.203.927.204 1.37v12.12c.001 1.057.337 2.297 1.199 2.974.673.53 1.767.75 2.612.75h14.559c.944 0 2.177-.259 2.861-.949.688-.693.948-1.912.95-2.862v-12.29c.002-1.374.737-2.55 2.098-2.935.526-.15 1.124-.11 1.67-.104.292.003.583.074.856.173 1.169.425 1.883 1.505 1.885 2.738v13.189l-.04.514c-.154 2.253-.856 4.656-2.487 6.295-.511.514-.883.84-1.499 1.228a9.5 9.5 0 0 1-2.398 1.047c-.831.237-2.095.464-2.954.465h-16.529l-1.199-.117c-1.92-.274-3.732-.9-5.181-2.234l-.378-.347c-.478-.515-.839-.973-1.188-1.584-.768-1.342-1.195-2.96-1.307-4.496l-.04-.428-.042-.857v-11.561c0-1.278-.07-2.331.942-3.296a2.4 2.4 0 0 1 .557-.392c.306-.162.645-.256.985-.331Zm-71.724 5.689h26.334c.687-.004 1.432-.176 1.884-.73.483-.592.475-1.25.472-1.968-.003-.55-.178-1.136-.56-1.541-.408-.43-1.003-.6-1.581-.6H84.378c-.265 0-.428.022-.685.093-1.12.308-1.454 1.293-1.456 2.348v17.599c0 1.146-.22 2.917.942 3.583.159.09.337.173.514.221.257.071.42.092.685.093h28.433c.744 0 1.554.077 2.184-.408.77-.593.781-1.409.77-2.29-.008-.722-.336-1.445-.984-1.803-.37-.203-.95-.294-1.37-.295H87.076v-4.71H108.1c.932 0 1.99 0 2.549-.9.093-.15.181-.344.232-.513.11-.36.131-.74.13-1.114 0-.591-.153-1.266-.564-1.71-.386-.42-1.022-.601-1.576-.602H87.076zm61.276 1.97v3.64l.043.642v10.448c.001.512.109 1.18.443 1.584.622.754 1.411.738 2.298.728.427-.005.995-.167 1.327-.442.529-.438.644-.967.69-1.613l.038-.514v-18.028c0-1.19.03-1.987-1.028-2.787-.199-.151-.406-.267-.642-.351-.375-.134-.555-.12-.942-.116-.716.009-1.351.401-1.927.785l-1.584 1.07-7.494 5.04-2.27 1.527-.599.411c-.068.048-.191.145-.275.144-.083 0-.212-.096-.282-.142l-.599-.4-2.312-1.54-7.408-4.954-1.67-1.113c-.513-.342-1.027-.692-1.67-.7h-.343c-.858.01-1.91.837-2.264 1.585-.142.298-.176.53-.177.856v18.156c0 .976-.085 2.15.814 2.793.182.13.387.21.6.275.201.063.43.098.642.101h.685c.205-.003.401-.038.6-.092 1.148-.316 1.485-1.31 1.498-2.392v-14.559l1.285.885 1.755 1.185 5.267 3.569 1.2.823c.584.442 1.138.93 1.883 1.089.187.04.448.03.643.029.835-.01 1.637-.653 2.27-1.135l1.241-.85 5.053-3.439 2.098-1.427zm10.663-6.797c-.419.07-.825.193-1.156.473-.515.437-.678 1.224-.686 1.87v12.204l.043.857.04.428c.054.756.19 1.493.383 2.226.203.767.514 1.505.922 2.184.304.507.67.976 1.1 1.383 1.403 1.325 3.037 1.915 4.92 2.177l1.328.123h16.1l.514-.04c1.29-.09 2.882-.43 4.026-1.044.695-.374 1.433-.9 1.962-1.485 1.258-1.394 1.836-3.137 2.075-4.968l.116-1.327v-12.846c0-.6-.19-1.287-.644-1.705-.59-.543-1.314-.525-2.054-.522-.499.003-1.08.185-1.452.527-.482.443-.645 1.196-.646 1.828v12.29c-.002 1.194-.394 2.546-1.284 3.379-.825.77-2.101 1.115-3.212 1.117h-14.902c-1.148-.002-2.466-.376-3.293-1.203-.793-.792-1.201-2.102-1.203-3.208v-12.118c0-.395-.06-.957-.194-1.327-.444-1.22-1.67-1.38-2.803-1.273Z" opacity=".7"/><path fill="#fff" stroke="#fff" stroke-width=".04282" d="M52.006 50.726c-.059-.378-.265-.924-.411-1.284-.422-1.035-.985-1.952-1.617-2.87l-.504-.685c-.281-.37-.578-.695-.432-1.198a.907.907 0 0 1 1.122-.609c.191.055.467.243.643.354l1.156.786c1.458 1.053 3.065 2.645 3.945 4.222.236.423.487.957.65 1.413l.244.728c.09-.402.253-.821.416-1.2.912-2.114 2.59-3.795 4.422-5.143l1.07-.725c.222-.14.475-.32.729-.392.459-.13.95.11 1.108.566.192.55-.166.885-.471 1.284l-.472.642c-.809 1.131-1.73 2.784-2.007 4.154l1.799-1.377c1.251-.913 2.11-1.524 3.468-2.3l1.414-.727c.307-.137.414-.234.77-.219.5.022.888.438.852.94-.027.401-.334.671-.593.943l-.947 1.027-.878 1.028-.49.642.943-.46 1.07-.488c1.373-.606 3.246-1.265 4.71-1.578l.772-.163c.568-.113 1.196-.226 1.502.42a.8.8 0 0 1 .078.3c.048.698-.558.906-1.067 1.146-.857.405-2.53 1.297-3.254 1.85.985-.184 1.778-.32 2.783-.388l.514-.04h2.013l.514.04 2.355.255 1.242.228c.247.05.595.103.813.223.308.17.492.488.467.84a.85.85 0 0 1-.219.512c-.363.418-.7.338-1.19.344l-.428.038-2.227.213-1.499.262.643.043c2.273.004 4.684.3 6.894.851.357.09 1.148.242 1.413.45.546.43.502 1.188-.086 1.508-.288.157-.517.062-.813.146.412.009 1.445.227 1.884.324 1.4.31 3.01.81 4.325 1.377.255.11.795.323.983.492a.906.906 0 0 1-.084 1.419c-.45.319-1.277.019-1.798-.069l-2.099-.25-.428-.039c-.528-.006-1.067-.115-1.584.043.433.004 1.187.172 1.627.272 1.256.284 2.487.704 3.64 1.28.272.136.516.232.685.503.306.49.035 1.136-.514 1.294-.541.157-1.195-.186-1.67-.137.248.058.376.134.6.246.433.216.805.44.766.995-.016.239-.107.377-.253.557.33.015 1.03.177 1.37.263l2.184.622c.3.1 1.158.377 1.37.545.401.315.53.852.198 1.267-.171.214-.317.226-.497.386.207.01.356.046.557.086.602.12 1.166.326 1.11 1.07-.014.166-.065.277-.125.429.338.085.627.08.894.346a.906.906 0 0 1-.295 1.474c-.181.074-.987.13-1.242.161l-2.14.282-1.114.177c.702 0 2.5.19 3.169.353.399.097.737.423.766.846.042.6-.416.887-.938.993l-2.14.317c-.309.046-.698.084-.986.189.397.009 1.01.18 1.413.272 1.002.23 1.98.53 2.955.855.533.178 1.19.322 1.238 1.014a.85.85 0 0 1-.124.514c-.31.497-.94.472-1.456.51l-3.469.382-1.841.221c.323.092.654.307.942.48q.881.528 1.67 1.187c.207.172.689.574.828.774a.91.91 0 0 1-.272 1.285c-.223.14-.406.104-.642.17.27.146.496.382.728.582.477.412 1.27 1.244 1.688 1.731.279.326.61.649.577 1.114-.038.553-.579.912-1.109.79-.257-.059-.46-.233-.685-.362l1.516 1.584c.181.215.46.517.562.77.22.554-.143 1.197-.75 1.238-.387.027-.652-.19-.942-.408l-1.157-.786a16 16 0 0 1 1.32 1.884c.181.303.415.614.389.985-.042.6-.69.974-1.238.75-.25-.102-.49-.387-.685-.579l-1.027-.9a.97.97 0 0 1-.771.772c.273.42.499.867.697 1.327.132.305.258.559.243.9a.88.88 0 0 1-.94.851c-.399-.027-.654-.358-.942-.595.32.8.738 2.144.728 2.998-.006.485-.303.902-.814.937-.58.041-.802-.385-1.062-.809-.398-.647-1.074-1.653-1.593-2.184-.127.345-.66 1.105-.899 1.413.18.136.854.866 1.034 1.07.712.81 1.394 1.706 1.907 2.656.108.199.25.458.266.685a.883.883 0 0 1-.809.938c-.5.039-.832-.297-1.199-.58-.5-.387-1.489-1.135-2.013-1.429.228.408.714.985.681 1.456a.8.8 0 0 1-.099.343c-.388.714-1.141.456-1.738.257.48.721 1.068 1.895 1.026 2.783a.897.897 0 0 1-1.111.834c-.25-.058-.38-.19-.557-.363-.012.524-.244.773-.728.942.166.683-.258 1.15-.942 1.156.096.243.161.418.114.685-.09.512-.602.82-1.099.706-.364-.084-.863-.566-1.199-.791l-.632 1.37c-.123.246-.264.537-.482.711-.299.24-.523.147-.672.232-.107.061-.21.225-.398.342-.435.27-.858.108-1.199-.214l-.562 1.027c-.17.306-.283.563-.637.718-.255.094-.469.045-.728 0l-.205.952-.205 1.114-.193 1.584v.428a.94.94 0 0 1-.724.728c.172.608-.1 1.138-.728 1.285l.277.685c.095.414-.068.846-.448 1.053a.8.8 0 0 1-.343.099c-.546.038-.87-.43-1.173-.81a22 22 0 0 1-1.441-2.055c-.182-.29-.552-.89-.64-1.199-.222.159-.283.255-.471.42-.095.082-.218.15-.268.27l-.079.723-.082 1.114v.6l-.042.684.042.9v1.07l.082 1.113.21 2.612a78 78 0 0 0 1.13 7.75l.576 2.699.31 1.37c.043.584-.304 1.11-.937 1.066-.488-.034-.874-.602-1.242-.912-.666-.562-1.328-1.013-2.184-1.22-.18-.042-.46-.097-.642-.086-.7.04-1.033.323-1.585.695l-1.712 1.262c-.962.776-1.88 1.611-2.784 2.453-.703.655-1.153 1.197-2.055 1.61-1.079.495-1.687.455-2.826.442-.769-.01-1.928-.5-2.527-.971l-1.798-1.725c-1.394-1.333-2.864-2.603-4.325-3.861-.933-.804-1.83-1.71-2.912-2.313-.586-.327-1.378-.628-2.055-.637-.807-.009-1.172.288-1.67.2a.885.885 0 0 1-.724-.927c.037-.532.544-.794.938-1.057.63-.42 1.627-1.064 1.865-1.812.294-.924.547-2.245.707-3.212.195-1.176.332-2.365.384-3.554l.043-.557v-.6l.04-.513-.042-2.141-.043-.6-.128-1.755c-.333-.064-.572-.309-.728-.6l-.715 1.2-1.383 1.969c-.303.423-.652.979-1.242.938a.8.8 0 0 1-.343-.1c-.753-.41-.433-1.186-.171-1.78-.645-.059-.856-.483-.856-1.07-.662-.127-.685-.662-.686-1.2 0-.644-.166-1.879-.29-2.526l-.266-1.242a.8.8 0 0 1-.3.082c-.755.059-.9-.54-1.193-1.067l-.477-.856c-.39.27-.72.511-1.199.214-.177-.11-.287-.27-.428-.342-.158-.08-.358-.008-.642-.231-.225-.177-.294-.346-.429-.583-.15-.266-.61-1.193-.685-1.456-.374.192-.824.661-1.199.748-.785.181-1.327-.585-1.027-1.305-.446-.004-.818-.181-.952-.642-.046-.16-.033-.387-.033-.557-.494-.094-.681-.478-.685-.942-.166.161-.285.285-.514.352a.91.91 0 0 1-1.109-.566c-.05-.141-.05-.28-.047-.428.012-.538.355-1.452.612-1.927l.372-.642c-.268.06-.549.2-.813.212a1 1 0 0 1-.428-.062.9.9 0 0 1-.296-.198c-.476-.476-.213-.973.073-1.451l.351-.557c-.392.191-1.333.877-1.713 1.162-.254.19-.853.7-1.113.774a.903.903 0 0 1-1.134-1.08c.056-.24.363-.756.5-.984.433-.716.907-1.378 1.453-2.013l.767-.856c.083-.087.296-.274.316-.386.021-.121-.161-.327-.231-.428-.18-.262-.496-.7-.6-.985h-.086l-.984 1.328-.789 1.284c-.212.27-.487.45-.84.424a.884.884 0 0 1-.811-.852c-.011-.255.09-.805.144-1.07.137-.689.322-1.36.582-2.013-.213.213-.43.48-.728.566a.898.898 0 0 1-1.154-.909c.009-.246.117-.462.212-.685l.77-1.498c-.43-.15-.654-.35-.727-.814l-1.113 1.028c-.192.191-.381.418-.643.509-.544.19-1.154-.181-1.195-.766-.023-.334.198-.705.364-.985l.764-1.156.538-.728-1.027.723c-.236.173-.48.386-.771.453-.53.122-1.07-.237-1.11-.79-.03-.429.23-.685.485-.986l1.524-1.627c-.297.18-.491.307-.856.243-.604-.106-.9-.783-.626-1.313.118-.226.477-.607.656-.814l1.383-1.406.899-.778c-.258 0-.454.016-.685-.128-.511-.318-.558-.937-.167-1.37.581-.646 1.717-1.467 2.48-1.91l.898-.489-.985-.081-3.34-.354-1.156-.121c-.629-.03-1.522-.067-1.58-.9-.054-.773.702-.977 1.28-1.17l2.441-.74.857-.213.856-.189-2.098-.367-1.156-.18a.89.89 0 0 1-.638-.78c-.041-.584.416-.906.937-.996l1.713-.24c.311-.032.837-.055 1.114-.135l-2.998-.378-1.584-.199c-.604-.246-.773-1.025-.213-1.512.273-.238.568-.225.898-.308-.06-.152-.112-.263-.115-.429a1 1 0 0 1 0-.3c.195-.802 1.163-.709 1.785-.899-.935-.22-1.017-1.277-.257-1.695l1.456-.517 2.141-.599c.34-.078.864-.214 1.199-.229-.1-.189-.195-.337-.21-.557-.051-.737.696-.986 1.238-1.241-.458.037-1.176.308-1.585.166-.693-.24-.872-1.235-.085-1.674 1.07-.596 2.696-1.144 3.896-1.42l1.756-.327-.77-.043-.729.043-2.055.183-1.884.288c-.52-.013-.932-.41-.895-.942.04-.593.558-.786 1.023-.985l.685-.282a24.7 24.7 0 0 1 3.64-1.146l1.07-.224 1.028-.189c-.283 0-.6.036-.856-.103a.908.908 0 0 1-.248-1.394c.25-.28.707-.355 1.062-.446 1.5-.385 3.042-.65 4.581-.805l.685-.074.943-.05.428-.04c.44-.005 1.1.06 1.498-.085l-1.455-.203-2.398-.23-.429-.045h-.47c-.438-.08-.82-.385-.853-.85a.88.88 0 0 1 .51-.86c.33-.16 1.545-.35 1.97-.421l2.44-.264.514-.04h2.184l.514.04 1.67.18c.268.039.695.173.942.123l-1.285-.762-1.97-1.046c-.448-.212-.939-.384-.98-.975a.9.9 0 0 1 .043-.343c.251-.722.947-.623 1.537-.505l.77.168c1.461.365 2.893.8 4.283 1.383l1.67.743.985.48-.954-1.198-1.194-1.285c-.31-.342-.812-.752-.845-1.242-.04-.575.427-.964.98-.94.283.013.524.164.771.287l1.413.746c1.707.974 3.612 2.308 5.139 3.547Zm-2.099-5.823c0 .182.198.37.306.513l.794 1.114c.776 1.165 1.412 2.42 1.8 3.768q.18.632.269 1.285c.017.123.072.346 0 .452-.12.175-.48.083-.642.024-.41-.15-1.078-.741-1.456-1.027-1.363-1.032-2.73-2.012-4.197-2.892-.47-.282-1.747-1.003-2.226-1.14.244.386.588.693.892 1.029 1.07 1.182 2.626 2.614 2.705 4.324-.621-.05-.93-.274-1.456-.545l-1.542-.771c-1.406-.699-3.07-1.29-4.582-1.718l-1.584-.383c-.19-.038-.504-.132-.685-.094l1.713.87c.942.509 1.864 1.072 2.74 1.687a23 23 0 0 1 2.87 2.368l1.327 1.413-.771-.57c-.43-.3-1.07-.688-1.542-.918-1.677-.818-3.46-1.252-5.31-1.431l-1.027-.079h-1.756l-.514.04c-.987.067-1.98.157-2.954.346-.318.061-1.075.17-1.328.3l.771.042.428.04 2.141.205c3.112.406 6.209 1.235 8.95 2.795l-2.227-.41-2.055-.24-.9-.078-.813-.042-1.499-.03-.428.03h-.856l-.557.04c-.962.043-1.915.143-2.869.284-.948.14-1.894.311-2.826.538-.274.066-.874.169-1.07.337h1.498l.814.042.428.04c1.519.106 3.039.368 4.496.816.63.194 1.43.47 2.013.772-.501-.09-2.051-.214-2.57-.215l-.728-.042h-1.67l-.942.042-.428.04-1.413.125c-1.371.164-2.741.415-4.068.802l-2.484.84c-.268.109-.837.317-1.027.506.997-.182 1.985-.358 2.997-.432l.428-.04.814-.042h1.028l.514.043h.385l2.055.268c.597.111 1.28.288 1.799.608.09.056.348.232.377.33.019.066-.01.112-.047.163-.152.209-.312.215-.544.215h-.214l-.643-.043c-2.225-.003-4.47.22-6.594.928-.527.176-1.781.637-2.184.956l1.756-.293c1.398-.167 2.762-.225 4.153.054.452.09 1.205.257 1.585.496-1.664 0-3.445.354-5.01.913l-1.07.421c-.18.077-.364.125-.472.294.289-.07 1.438-.168 1.756-.172.854-.01 1.55.015 2.398.14l.899.16c-.198.242-.547.7-.814.838-.215.111-.37.06-.595.064l-1.075.04-.513.04c-1.747.119-3.456.46-5.139.939l-1.413.452c-.206.078-.438.128-.6.282l.814-.043.642-.043c1.294-.002 2.602.053 3.854.41.614.176 1.41.461 1.927.832l-1.755.086-.814.043-.728.042-.428.04-1.842.144-1.755.248-.985.168v.085h.856c.921.002 2.666.308 3.597.505l1.97.48-.428-.04h-.557l-.685-.045h-.642l-.685.043-1.67.092-1.756.219-1.07.16v.085l2.055.207 3.725.532 2.398.375-.6 1.241c-.186-.053-1.027-.126-1.241-.128-1.162-.013-2.317.026-3.469.19l-.984.14c-.19.029-.357.023-.514.14l2.184.326 2.397.483.942.22c.217.086.198.22.318.299.098.063.372.042.496.043.549.007 2 .36 2.527.557l-.643-.043h-1.927l-.514.039a23.5 23.5 0 0 0-4.667.8c-.74.205-2.021.576-2.698.874.185.107.788.12 1.028.13l1.67.176 3.297.34 1.028.084h.557l.513.04h.857l.6-.042c.196-.002.274.013.47-.043-.17.2-.334.468-.556.611-.149.096-.456.138-.643.19l-1.327.433c-1.062.412-2.046 1.002-2.955 1.683-.317.238-.891.672-1.113.98l1.413-.642c1.113-.463 2.832-1.06 4.025-1.157-.059.22-.244.69-.4.847-.144.148-.63.321-.842.413l-1.413.723c-1.121.61-2.609 1.824-3.511 2.728-.268.268-1.058 1.109-1.199 1.413l.9-.6a17 17 0 0 1 1.626-.974 17 17 0 0 1 2.613-1.08l1.241-.344c-.05.189-.103.577-.207.72-.089.121-.536.342-.692.426l-1.327.81c-1.322.881-2.178 1.635-3.298 2.754-.312.313-1.082 1.083-1.241 1.456l.899-.636 1.07-.72c1.143-.745 3.084-1.727 4.41-2.027-1.596 1.386-2.743 2.342-4.04 4.068-.348.463-.91 1.281-1.14 1.799.206-.106.421-.385.6-.555l1.155-1.01c1.182-.945 2.1-1.43 3.383-2.16l.129.727c-.244.114-.516.376-.728.554l-1.028.945c-.221.222-.441.431-.557.728l.9-.613 1.455-.928c.031.17.139.668.078.811-.051.122-.352.352-.463.448a5.7 5.7 0 0 0-.682.71c-.531.64-1.33 1.9-1.545 2.698.29-.17.475-.4.728-.617a14 14 0 0 1 1.67-1.249c.26-.161.564-.363.857-.446.01.123.096.41.067.489l-.47.581a5.7 5.7 0 0 0-.657 1.028c-.416.827-.65 1.539-.85 2.44l-.189 1.071c.164-.104.242-.305.337-.47l.508-.814c.658-.946 1.172-1.503 1.982-2.313.078.25.361.7.505.942.495.831.81 1.265 1.422 2.013-.256.183-.581.538-.814.77a15 15 0 0 0-1.87 2.27c-.202.303-.684 1.051-.785 1.37l1.328-.978c.61-.446 1.727-1.157 2.398-1.494.258-.13.703-.373.984-.392.129-.01.315.003.382.134.095.181-.297.649-.406.804l-1.389 2.226 2.698-.89c.315-.066.805-.14 1.113-.052-.305.161-.899.689-1.156.942-.91.9-1.734 2.068-1.841 3.383l1.203-1.32c.44-.428.925-.837 1.452-1.155l.856-.437c-.814.707-1.29 1.42-1.627 2.441-.109.33-.206.68-.214 1.028.253-.19.564-.606.814-.857.585-.588 1.257-1.15 2.012-1.508.274-.13.819-.357 1.113-.333-.348.179-.732.504-1.027.764a8.4 8.4 0 0 0-1.67 1.977c-.176.292-.496.831-.557 1.156l1.199-1.106a8 8 0 0 1 1.756-1.217c.353-.177 1.021-.455 1.413-.375-.32.122-.763.5-1.028.728a9.5 9.5 0 0 0-1.875 2.184c-.173.285-.507.801-.566 1.113.339-.174.824-.576 1.156-.813.098-.07.36-.28.47-.281.171-.002.406.479.482.623l.665 1.328c.104.206.195.472.396.6l-.086-1.328.332.685.653 1.156c.224-.377.089-.916.471-1.456l1.17 1.756.714 1.284v-1.113l-.04-.514v-.728l.507.985c.184.358.335.736.473 1.113.596 1.632.859 3.408.859 5.139.219-.164.378-.916.443-1.2.116-.504.242-1.412.242-1.926v-1.199c0-.242-.024-.494.043-.728l.282 1.285c.116.751.105 1.182.103 1.927 0 .477-.127 1.404-.222 1.884l-.206 1.027c.26-.22.456-.677.61-.984.337-.674.574-1.377.785-2.099l.275-.985v1.028c-.001.7-.241 2.091-.423 2.783l-.42 1.37-.27.772c.236-.197.742-.95.958-1.242a21 21 0 0 0 1.538-2.398c.188-.342.5-.914.587-1.285h.085c.133.271.479.731.67.985.134.179.245.362.444.471-.1-.53-.438-1.613-.3-2.098.147.326.366.466.598 1.199.226.711.281 1.448.351 2.184l.122 2.312.042.6v1.37l-.042.642c-.003 1.295-.146 2.614-.331 3.897l-.508 2.697c-.108.489-.26 1.202-.503 1.628-.373.65-1.13 1.247-1.742 1.669-.241.166-.677.407-.856.6l.728-.167c.331-.062.567-.047.9-.047 1.151.002 2.527.725 3.425 1.408l.942.807 4.496 3.955 1.07 1.02.514.475c.58.578 1 1.075 1.756 1.435.855.407 1.396.417 2.312.406.305-.004.567-.07.857-.153 1.233-.353 1.842-1.104 2.74-1.941 1.2-1.118 2.431-2.207 3.769-3.16.773-.551 1.573-1.2 2.569-1.212 1.197-.013 2.252.554 3.169 1.285l1.027.9-.486-2.099-.752-3.811-.548-3.683-.32-3.168-.165-2.313-.041-.556v-1.028l-.043-.557v-.728l.041-.428v-.728l.041-.514.082-1.07c.112-1.112.156-2.217.95-3.083l-.386 2.055c.32-.235.974-1.169 1.156-1.542l.59 1.242c.456.865.965 1.689 1.533 2.484.238.332.7 1.015 1.003 1.242l-.555-1.542a14.3 14.3 0 0 1-.605-3.254l-.039-.514c0-.253-.026-.526.043-.77.024.289.197.899.282 1.198.19.67.384 1.342.693 1.97.168.342.35.79.652 1.028l-.245-1.414c-.222-1.503-.29-3.42.33-4.838-.093 1.156-.088 2.589.138 3.725.066.332.234 1.068.42 1.328l.176-1.713c.197-1.409.394-2.304.902-3.64.19-.498.53-1.254.848-1.67v.9c-.001.335-.116 1.033 0 1.327a15.8 15.8 0 0 1 1.927-3.04l.3 1.584c.296-.324.799-1.388 1.07-1.842l-.128 1.328c.188-.12.376-.599.482-.814.292-.593.595-1.384 1.017-1.884l.685.532.985.71a9.57 9.57 0 0 0-3.426-4.11c1.228.223 1.884.603 2.826 1.424.474.414.902.911 1.414 1.273-.072-.382-.363-.864-.566-1.2-.73-1.206-1.484-1.837-2.56-2.697l.642.217a6 6 0 0 1 1.67.995q.516.438.983.93c.18.187.327.43.559.556-.19-1.005-.518-2.023-1.176-2.826l-.537-.557c.949.409 1.687 1.014 2.396 1.756.27.282.739.927.987 1.113-.11-1.335-.943-2.524-1.885-3.424l-1.027-.9 1.027.07 2.655.828c-.078-.267-.301-.575-.456-.813l-.768-1.156c-.104-.148-.513-.669-.506-.814.008-.178.243-.316.403-.332.214-.021.774.28.985.386.85.425 1.635.948 2.398 1.515.308.228 1.027.84 1.327.958-.474-1.064-1.677-2.581-2.485-3.426l-.726-.728c-.086-.086-.265-.212-.215-.35l.641-.892c.345-.5.924-1.426 1.158-1.97.661.661 1.228 1.288 1.768 2.056l1.015 1.541c-.025-1.145-.664-2.91-1.242-3.896a8 8 0 0 0-.65-.942c-.06-.075-.292-.333-.305-.404-.015-.083.14-.32.185-.41.63.274 1.818 1.138 2.355 1.596l.813.716c-.055-.308-.233-.66-.374-.942-.373-.746-.604-1.15-1.15-1.798a6 6 0 0 0-.702-.697c-.136-.117-.377-.295-.44-.46-.07-.183.044-.504.054-.727l1.5.913.941.628c-.2-.515-1.098-1.317-1.541-1.67-.156-.124-.652-.463-.728-.603-.082-.153-.002-.528 0-.724 1.469.836 2.088 1.126 3.468 2.226l1.028.9c.214.211.46.515.728.642-.27-.56-1.001-1.593-1.395-2.098-1.018-1.305-2.504-2.777-3.83-3.769l.686.215c1.494.498 2.732 1.21 4.068 2.02l1.027.696c.21.15.395.327.643.41-.249-.372-.633-.778-.935-1.114-1.011-1.123-2.185-2.102-3.433-2.953l-1.499-.907c-.156-.086-.6-.275-.688-.396-.08-.11-.14-.555-.168-.711l.728.188.813.241c.757.235 1.52.556 2.227.91l1.713 1.003c.243.156.66.477.9.57-.287-.491-1.268-1.504-1.714-1.896-1.055-.93-1.687-1.452-2.911-2.172a14 14 0 0 0-1.5-.759c-.147-.064-.71-.266-.791-.342-.102-.093-.363-.754-.407-.912 1.05.192 2.08.448 3.083.816l1.542.634.77.349c-.15-.269-.723-.693-.985-.9a12.1 12.1 0 0 0-3.254-1.839 9 9 0 0 0-1.07-.317c-.215-.049-.5-.08-.684-.198-.184-.12-.396-.453-.515-.643l.77.043.643.043c1.912.003 3.797-.261 5.695-.465l1.627-.174c.26-.02.863-.037 1.07-.132-.584-.257-1.955-.642-2.612-.82-1.584-.43-3.2-.741-4.838-.854l-.514-.039h-1.97c-.235.003-.328.06-.557 0l.728-.176 1.07-.234 1.371-.174.814-.355 1.498-.412 2.441-.358 1.028-.218-1.67-.264-1.37-.121-.685-.043h-1.071l-.856.048h-.455l-.241-.39-.46-.814.727-.11 1.328-.208 3.383-.49 1.713-.213c.217-.023.597-.023.77-.135l-1.541-.246-1.799-.186-.428-.04-.814-.042h-1.541c-.33 0-.66.092-.985 0l1.028-.262c.844-.2 1.707-.398 2.569-.503l1.456-.135c.19 0 .882-.027 1.028-.085l-1.285-.246a36 36 0 0 0-3.04-.315l-.643-.039-.556-.042-1.114-.043c-.272 0-1.174-.06-1.413-.129l.6-.33c.325-.164.764-.33 1.113-.44 1.22-.379 2.294-.429 3.554-.429.586 0 1.174.01 1.756.086-.126-.165-.486-.248-.685-.314l-1.627-.518a24 24 0 0 0-4.882-.842l-.428-.04h-.514l-.428-.042c-.13-.001-.45.014-.557-.025-.146-.055-.248-.204-.35-.317l-.592-.643.985-.116 1.97-.094 1.284.1c.22.029.618.102.814.025l-.9-.41a16 16 0 0 0-2.954-.883l-1.584-.242c-.29-.03-.815-.062-1.07-.135l.684-.213.9-.224c.638-.125 1.363-.202 2.012-.17h.557c.73.015 1.465.11 2.184.24.25.045.856.224 1.07.153-1.533-.873-3.814-1.467-5.567-1.677l-1.413-.126-.514-.039-1.07-.029c-.678.051-1.075.251-1.627-.27.424-.224.434-.395 1.156-.668 1.414-.533 3.416-.62 4.924-.617l.814.043 2.184.246.856.15c.178.034.295.097.471.032l-2.312-.928c-2.06-.714-5.188-1.316-7.365-1.342l-.643-.042h-2.012l-.643.042-1.541.093c-.235.023-.592.089-.814.036l1.285-.514c1.232-.42 2.514-.753 3.811-.892l1.584-.136.686-.042h1.199c.19 0 .423.027.599-.043-.463-.197-2.25-.557-2.826-.66a29 29 0 0 0-3.897-.455l-.557-.041h-.813l-.6-.04-.513.04h-.771l-.814.042-.428.04-2.655.32-1.199.214c-.239.048-.483.135-.728.112l2.013-.967a25 25 0 0 1 4.753-1.474c1.204-.25 2.418-.39 3.64-.507.366-.035 1.362-.027 1.627-.136l-1.456-.281c-.942-.17-1.875-.257-2.826-.322l-.514-.039h-1.585l-.513.04-.771.053c-2.796.28-5.22 1.214-7.408 2.99l1.584-1.71a24 24 0 0 1 3.726-2.912l1.84-1.06.558-.276c.232-.125.81-.312.942-.508l-1.285.258-1.37.36c-1.634.478-3.227 1.148-4.753 1.898l-1.628.861c-.197.107-.49.236-.659 0-.104-.145-.015-.32.043-.465.133-.337.283-.67.464-.985.477-.835 1.13-1.61 1.784-2.312.358-.385.996-1.011 1.28-1.413-.439.103-1.623.773-2.055 1.027-1.566.92-3.004 2.008-4.453 3.1-.336.252-1.06.862-1.414.988-.346.123-.623-.005-.592-.405l.103-.642c.282-1.56.993-3.043 1.846-4.368l1.256-1.756c-.28.09-.688.387-.943.557-.61.407-1.2.844-1.755 1.322-.774.667-1.562 1.472-2.14 2.318-.772 1.13-1.275 2.326-1.469 3.682-.037.257-.073.512-.074.771v1.028c.004.317.112 1.006.18 1.327.142.67.424 1.487.73 2.099l.418.77c.245-.127.412-.498.574-.728.35-.494.707-.957 1.108-1.413a8.6 8.6 0 0 1 2.685-2.044l.643-.268c-1.432 1.432-2.698 2.695-3.354 4.667-.132.396-.267.912-.286 1.328l.814-.855c.557-.533 1.215-.893 1.926-1.175.23-.09.66-.25.9-.24-.38.17-.756.494-1.07.766-1.214 1.044-2.034 2.52-2.384 4.073-.121.539-.143.866-.143 1.413 0 .19-.028.423.043.6l.355-.857a11.2 11.2 0 0 1 2.128-3.083c.713-.72 1.56-1.38 2.44-1.884 1.195-.682 2.568-1.147 3.94-1.283h.343l.557-.044.428.039c.946.069 1.872.268 2.783.53 3.056.878 5.969 2.813 8.35 4.88l2.056 1.959c.91.91 1.928 2.093 2.703 3.126 1.121 1.494 1.852 2.674 2.778 4.282l-.703-.857-.889-1.027c-1.062-1.175-2.326-2.329-3.675-3.167-1.682-1.044-3.67-1.788-5.653-1.933l-.513-.039c-.936-.001-1.792.06-2.698.318-2.151.614-4.11 2.238-5.574 3.878-2.558 2.865-4.32 6.18-5.15 9.935a21.5 21.5 0 0 0-.456 3.169l-.04.47v.643l-.042.428.043.9.135 1.67.207 1.327c.047.234.148.588.129.813l-.63-1.413-1.303-2.911a98 98 0 0 1-2.678-6.723L58.9 76.29c-.727-2.337-1.218-4.223-1.653-6.637l-.349-2.44c-.032-.27-.044-.803-.14-1.028l-.079.856a40 40 0 0 1-.59 4.025c-.812 4.063-2.202 7.975-3.834 11.776l-1.95 4.325-.73 1.541-.225.471c.329-1.136.48-2.335.56-3.511l.04-.514v-1.798l-.04-.429a23 23 0 0 0-.38-2.911c-.741-3.705-2.45-7.2-4.97-10.02a19 19 0 0 0-2.276-2.167c-1.656-1.325-3.037-2.048-5.181-2.205l-.428-.039c-3.446-.04-6.462 1.358-8.993 3.647-1.255 1.136-2.288 2.444-3.34 3.761l.746-1.37 1.31-2.056a35 35 0 0 1 3.513-4.282l1.111-1.072c2.059-1.968 4.418-3.718 7.023-4.893 1.697-.765 3.53-1.36 5.395-1.49l.429-.038.514.039c1.106.075 2.012.275 3.04.707 1.95.818 3.533 2.19 4.734 3.921.3.433.689 1.143.9 1.627.087.2.257.745.404.857 0-.684.011-1.066-.105-1.756-.256-1.527-1.017-2.95-2.083-4.067-.359-.376-.896-.769-1.324-1.071.937.211 1.89.71 2.612 1.34l.55.544c.132.147.195.25.35.385-.001-.315-.042-.508-.103-.813-.418-2.088-2.003-3.69-3.452-5.139l.557.248c.39.184.8.41 1.156.653 1.365.932 2.369 2.147 3.212 3.552h.085l.52-.985a8.9 8.9 0 0 0 .769-2.997l.039-.514c.001-.875-.064-1.545-.277-2.398-.633-2.53-2.502-4.535-4.562-6.031zm2.141 5.823h-.042l.042.043zm19.655 1.028h-.043l.043.043zm-2.227 4.196h.043l-.043.043zm-46.075 7.794h-.042l.042.043zm65.602 8.906h.043l-.043.043zm-2.998 1.37c.187-.347.494-.53.814-.741.095-.063.271-.195.385-.19.183.007.7.519.814.675zm-60.334-.213c.102-.209.216-.384.428-.495.528-.279 1.22.217 1.413.709zm10.063-.068c.849-.103 2.121.079 2.954.287 3.48.87 6.276 3.597 7.677 6.846q.52 1.202.793 2.484l.23 1.713c.19 1.895.087 3.843-.377 5.695-.257 1.03-.611 2.106-1.12 3.04-.142.26-.542.731-.745.985l-1.444 1.755-1.795 2.056c-.322.36-.635.786-1.035 1.069-.397.28-.908.45-1.37.589-1.184.355-2.154.454-3.383.44l-.428-.039c-1.262-.092-2.398-.398-3.554-.909-4.583-2.026-7.537-6.777-7.753-11.727l-.04-.47c-.059-4.975 2.37-10.068 6.85-12.491a11.4 11.4 0 0 1 3.17-1.15l.942-.14zm40.98-.009h.556l.514.03c2.27.155 3.917.802 5.738 2.168.899.674 1.438 1.04 2.22 1.904 2.063 2.282 3.173 5.342 3.305 8.393l.041.556c.004 2.303-.462 4.611-1.497 6.68l-.626 1.114c-.58 1-.975 1.622-1.777 2.483-1.391 1.493-3.343 2.677-5.306 3.236-1.198.342-2.105.418-3.34.404-.687-.008-1.606-.203-2.27-.391-.476-.135-.9-.246-1.327-.51-.537-.334-1.005-.795-1.402-1.283l-.367-.47-.531-.557-1.468-1.756c-.823-1.021-1.34-1.445-1.914-2.698-.567-1.238-.817-2.559-1.01-3.897-.095-.662-.244-1.341-.245-2.012V85.71c.001-.756.226-1.954.412-2.698.816-3.26 2.854-6.262 5.797-7.946 1.01-.578 2.11-.985 3.254-1.191l.771-.105zm-40.167 4.108c-.535.088-1.003.207-1.498.435-1.417.654-2.538 2.075-2.907 3.584-.07.29-.189 1.048-.169 1.327.056.787.195 1.458.513 2.184.228.522.694 1.192 1.107 1.58.43.406 1.08.848 1.627 1.075.59.244 1.286.42 1.927.428 3.05.036 5.43-2.518 5.395-5.524-.003-.274-.088-.756-.155-1.027a5.3 5.3 0 0 0-.374-1.07c-.82-1.645-2.558-2.976-4.438-2.992zm40.637.08c-.404-.1-.745-.09-1.156-.086-1.832.021-3.638 1.305-4.442 2.912-.45.9-.537 1.712-.525 2.697.004.32.078.718.155 1.028a5.2 5.2 0 0 0 3.228 3.637c1.9.72 4.063.253 5.52-1.16.618-.6 1.063-1.409 1.331-2.22.465-1.41.268-2.852-.419-4.154-.17-.322-.556-.987-.866-1.156.217.855-.508 1.358-1.113 1.18-.239-.07-.401-.198-.6-.341-.463-.337-1.129-.978-1.228-1.567-.052-.317.049-.479.115-.77ZM19.248 82.97h-.043l.043.043zm22.738 17.514 1.577-1.798 2.483-2.784 6.898-7.665 1.324-1.456.693-.77.811-.74c.332-.307.372-.843 1.03-.844.546 0 1.07.439 1.38.856l.306.47.619.686 1.646 1.841 2.593 2.912 4.596 5.181 2.484 2.74 1.277 1.414c-.38-.068-.771-.043-1.156-.043-.26 0-.514.037-.77.074-1.512.216-2.919.87-3.981 1.981-.876.915-1.451 2.08-2.075 3.17l-3.157 5.651-1.613 2.827c-.382.637-.493.982-1.122 1.425a2 2 0 0 1-.342.21c-.125.05-.627.107-.771.11-.525.007-1.098-.54-1.382-.932-.452-.625-1.625-2.768-2.057-3.554-1.12-2.04-2.24-4.084-3.438-6.08-.589-.981-1.394-2.423-2.244-3.15-1.246-1.068-2.741-1.622-4.368-1.736l-.513-.039c-.251 0-.483-.017-.728.043Zm53.526-13.703h-.043l.043.043zm.042.043h-.042l.042.043zm.043.043h-.043l.043.043zm-77.72.086h-.042l.042.042zm-.042.042h-.043l.043.043zm-.043.043h-.043l.043.043zm76.992 2.184h-.043l.043.043zm-76.093.043h-.043l.043.043zm76.135 0h-.042l.042.043zM51.663 92.09c-.301.176-.941.833-1.203 1.113-1.096 1.176-1.798 2.12-1.915 3.769-.01.152.02.239.031.385.013.182.01.336.073.514.107.3.424.537.745.545.626.017.754-.898.886-1.359l.802-3.168zm10.405 0c0 .18.128.388.195.557l.344 1.027.89 3.512c.144.452.304 1.294.927 1.233.679-.067.833-.802.812-1.362-.063-1.605-1.003-2.888-2.097-3.982-.322-.322-.703-.723-1.07-.985Zm25.35 8.265h-.042l.042.042zm-53.654 4.539 2.098-1.015 1.456-.613a17 17 0 0 1 3.212-.91c.412-.068.822-.16 1.241-.16h.857c.82.001 1.88.31 2.612.674.456.228.903.491 1.285.832.92.822 1.762 2.285 2.484 3.333 1.46 2.119 2.895 4.268 4.426 6.337l1.122 1.542c.271.376.541.796.917 1.074.522.384 1.117.517 1.756.51.138-.002.252-.008.385-.054.27-.092.86-.552 1.058-.763.15-.16.294-.375.425-.553l1.019-1.456 2.21-3.126 2.91-4.282c.654-.98 1.284-2.078 2.227-2.805.37-.285.85-.566 1.285-.74 2.783-1.124 5.453-.252 8.093.804l1.97.889c.276.138.801.387 1.027.567l-1.156-.239-1.927-.385a26.6 26.6 0 0 0-5.053-.446l-.428.044h-.385c-1.049.106-1.764.38-2.57 1.081-.717.624-.988 1.122-1.5 1.872l-1.284 1.841-4.336 6.038c-1.017 1.426-2.146 3.416-4.099 3.55-.855.06-1.817-.321-2.44-.899-.415-.384-.64-.751-.97-1.195l-1.016-1.37-5.49-7.58-1.307-1.798c-.856-.92-2.148-1.578-3.421-1.584h-1.585l-.556.04c-1.221.054-2.435.246-3.64.448l-1.97.36c-.203.04-.771.172-.942.137Zm-6.509-2.441h-.043l.043.043zm52.627 2.526h.043l-.043.043z" opacity=".7"/><path stroke="#000" stroke-width=".04282" d="M49.865 44.903c.62.299 1.81 1.17 2.355 1.623 2.237 1.864 3.778 3.966 3.986 6.94l.039.429c.013 1.145-.177 2.355-.591 3.426a8 8 0 0 1-.407.899l-.33.6h-.085c-.965-1.804-2.926-3.733-4.882-4.411 1.26 1.26 2.453 2.465 3.126 4.153.165.415.256.761.338 1.2.027.192.079.369 0 .556a5.97 5.97 0 0 0-2.479-1.944c-.282-.115-.682-.3-.985-.283.49.209 1.194.883 1.548 1.285.955 1.084 1.62 2.381 1.86 3.811.115.69.104 1.072.104 1.756-.147-.112-.317-.657-.404-.857-.211-.484-.6-1.194-.9-1.627-1.31-1.889-3.007-3.28-5.162-4.093a9.3 9.3 0 0 0-2.27-.53h-.342l-.557-.044-.386.039c-1.459.1-2.921.488-4.282 1.023-4.719 1.854-8.666 5.384-11.75 9.343a31 31 0 0 0-2.09 3.04c-.278.466-.68 1.14-.89 1.628l.754-.942 1.137-1.328c1.256-1.388 2.712-2.606 4.36-3.498 1.517-.82 3.16-1.353 4.882-1.473l.514-.039c1.06-.002 2.115.106 3.126.443 1.716.572 3.276 1.848 4.54 3.111 2.294 2.295 3.853 4.84 4.964 7.88.491 1.342.91 3.117 1.08 4.538l.125 1.37.04.514v1.628l-.04.513-.264 2.27c-.05.296-.245.998-.21 1.242.065-.28.56-1.26.716-1.585l1.283-2.783a77 77 0 0 0 3.338-8.564 47 47 0 0 0 1.596-6.637l.296-2.227c.027-.28.038-.886.136-1.113l.078.77c.207 2.069.6 4.107 1.105 6.124 1.057 4.23 2.834 8.697 4.627 12.675l1.555 3.425-.196-.985-.28-2.27-.038-.513v-2.013l.039-.513c.097-1.405.327-2.793.695-4.154.954-3.527 2.934-7.008 5.518-9.592 1.4-1.4 3.034-2.684 4.967-3.236.906-.258 1.762-.32 2.698-.318l.513.039c1.894.138 3.722.802 5.353 1.76 1 .587 1.894 1.305 2.74 2.094l.598.56 1.312 1.456.874 1.07c-.208-.465-.755-1.343-1.041-1.798a32 32 0 0 0-2.06-2.911 35 35 0 0 0-2.551-2.87l-2.141-2-1.927-1.505c-2.128-1.525-4.492-2.796-7.066-3.364-.67-.148-1.723-.332-2.398-.324l-.428.044h-.343a10 10 0 0 0-2.654.66c-1.99.796-3.787 2.276-4.982 4.049-.33.489-.625 1.005-.872 1.541-.105.229-.253.688-.398.857 0-.668-.029-1.175.105-1.842.409-2.047 1.65-3.925 3.449-5.01-.817.074-2.094.791-2.698 1.335l-.9.935c.02-.416.155-.932.287-1.328.648-1.948 1.897-3.21 3.31-4.624-.38.089-.946.384-1.284.591-.996.61-1.738 1.333-2.472 2.235l-.753 1.028c-.14.209-.23.438-.457.556l-.418-.77a9.5 9.5 0 0 1-.73-2.099c-.365-1.724-.22-3.698.519-5.31.687-1.501 1.74-2.745 2.984-3.816a18 18 0 0 1 1.798-1.35c.246-.165.628-.442.9-.529l-1.17 1.628c-.7 1.043-1.426 2.466-1.747 3.682-.106.401-.25 1.007-.288 1.413-.019.208.01.438.25.494s.585-.153.77-.286l1.542-1.166c1.314-.985 2.522-1.867 3.94-2.707.418-.249 1.585-.902 2.012-1.002-.284.402-.922 1.028-1.28 1.413-.655.702-1.307 1.477-1.784 2.312-.181.315-.33.648-.464.985-.058.145-.147.32-.043.465.17.236.462.107.66 0l1.627-.86c1.526-.751 3.119-1.421 4.753-1.9l1.541-.394 1.114-.223c-.128.19-.751.409-.985.525l-2.313 1.292c-1.418.883-3.043 2.16-4.194 3.365l-1.073 1.199.728-.54c.607-.428 1.252-.807 1.927-1.117 1.741-.8 3.582-1.172 5.481-1.302l.514-.039H76.8l.514.04c.992.067 1.974.156 2.954.346.301.058 1.093.18 1.328.3l-.857.042-.428.04-1.456.125c-1.976.21-3.95.638-5.823 1.304-.974.347-2.626 1.023-3.469 1.571l1.413-.281 2.74-.368 1.071-.079.557-.042h.814l.642-.04.428.04h.856l.514.039.942.054c1.145.109 2.297.257 3.426.483l1.456.318.9.219v.086h-1.842l-.557.04a20 20 0 0 0-3.982.586c-.786.197-2.048.607-2.74 1l2.269-.17.728-.043h2.012l.857.042.428.04 1.37.125c1.344.143 2.811.432 4.111.802.83.237 1.64.502 2.44.823.283.113.898.35 1.114.523l-1.199-.204c-.738-.123-1.743-.259-2.483-.267l-.643-.043c-1.523-.003-3.447.076-4.881.602-.76.278-.764.453-1.2.683.557.525.836.3 1.5.3h1.156l.513.042h.343c1.58.112 3.4.45 4.882 1.01l1.156.476c.229.105.46.174.642.355l-1.028-.188-1.97-.241h-.385l-.47-.04-.643.041c-.79.004-2.196.31-2.912.643l.9.078c1.39.149 2.524.377 3.853.82l1.156.459c.217.098.384.14.557.313l-.77-.079-.857-.05-.557-.04h-.556l-.429.04-.813.05-1.028.121.593.643c.088.098.19.238.307.299.123.063.37.042.513.043l.428.041h.557l.428.041c1.664.114 3.318.391 4.925.848l1.627.512c.198.066.559.15.685.314-.639-.084-1.283-.086-1.927-.086h-.685l-.514.04c-1.386.096-2.764.436-3.94 1.202l.557.043h.386l.642.043.942.043.685.042.514.04 1.584.124 1.842.254.942.225-1.114.042-.428.04c-.923.067-1.836.227-2.74.423-.437.094-1.602.366-1.97.522l1.156-.085h1.541l.771.043.471.039 1.285.125 1.327.189.728.16-1.113.135-2.055.262-2.655.392-1.37.214-.729.11c.216.333.54.909.643 1.285l1.027-.09.514-.038h.857l.685.043 1.456.126 1.113.156.514.146-1.285.208c-1.006.14-2.013.255-2.997.515a7 7 0 0 0-1.028.365c-.145.064-.374.193-.514.223l-.813.072c-.509.063-1.867.355-2.313.544l.643-.043h1.841l.514.039c1.656.114 3.28.42 4.881.854l1.756.52c.242.08.659.201.856.343l-.47.039-3.212.34-2.826.267-.514.039-.985.04h-.6l-.47-.04-.728-.043c.119.19.331.524.515.643.178.115.434.143.64.189l1.028.3a12.2 12.2 0 0 1 3.34 1.865c.262.207.835.631.985.9l-.77-.349-1.542-.634c-1.098-.403-1.939-.607-3.083-.816.044.158.305.819.407.912.083.077.603.26.749.324.529.232 1.043.484 1.542.777 1.38.81 2.658 1.809 3.732 2.997.282.312.684.714.892 1.07-.23-.09-.784-.494-1.027-.656a15 15 0 0 0-1.585-.916 16 16 0 0 0-2.355-.952l-1.413-.387c.028.156.089.602.168.711.088.121.532.31.688.396l1.5.907c1.247.85 2.421 1.83 3.432 2.953.302.336.686.742.935 1.114-.241-.08-.397-.232-.6-.38l-.942-.646c-1.067-.677-2.164-1.313-3.34-1.784l-.985-.36c-.196-.065-.347-.14-.556-.128.341.159 1.14.909 1.456 1.192a19.4 19.4 0 0 1 2.82 3.133c.242.34.797 1.127.905 1.499-.277-.199-.522-.488-.77-.726l-.986-.85a21 21 0 0 0-2.44-1.66l-.985-.532c-.005.198-.088.56 0 .724.076.14.572.48.728.603.443.353 1.34 1.155 1.541 1.67l-.942-.628-1.499-.913c-.01.223-.123.544-.054.728.067.175.376.403.525.531.268.231.448.444.674.71.473.56.768 1.063 1.093 1.713.14.282.319.634.374.942l-.813-.716c-.546-.466-1.712-1.317-2.355-1.596-.044.088-.202.325-.187.403.013.073.215.297.272.368.219.274.425.557.608.856a9.6 9.6 0 0 1 1.157 2.955c.05.248.2.805.12 1.027-1.006-1.54-1.397-2.21-2.741-3.554-.239.555-.86 1.552-1.217 2.056l-.405.556c-.045.059-.182.217-.19.282-.014.105.16.25.228.318l.806.813c.808.893 1.916 2.243 2.405 3.34-.3-.117-1.02-.729-1.327-.957-.763-.567-1.548-1.09-2.398-1.515-.21-.106-.771-.407-.985-.386-.16.016-.395.154-.403.332-.007.145.402.666.506.814l.768 1.156c.155.238.378.546.456.813l-2.398-.764c-.385-.104-.94-.202-1.327-.092.291.131.649.486.9.703 1.006.873 1.943 2.216 2.055 3.58-.248-.187-.717-.832-.987-1.114-.71-.742-1.447-1.347-2.396-1.756l.537.557c.658.803.986 1.82 1.176 2.826-.2-.109-.535-.534-.728-.728-.659-.659-1.36-1.275-2.227-1.645-.253-.109-.58-.275-.857-.24.316.136.724.53.985.764a8.3 8.3 0 0 1 1.658 2.063c.168.295.378.65.44.985-.386-.273-.61-.543-.942-.853-.586-.546-1.206-1.067-1.926-1.427-.37-.185-.954-.417-1.37-.375.327.127.753.519 1.027.753.959.821 1.897 2.152 2.398 3.315l-.685-.477-1.028-.765-.33.557-.644 1.327c-.106.215-.294.693-.482.814.042-.232.136-1.136.086-1.328l-.5.985-.528.857-.342-1.585-.95 1.37-.977 1.67v-.684c.002-.46.124-1.148 0-1.585-.086.271-.287.554-.417.814l-.293.642c-.383.894-.644 1.873-.832 2.826l-.253 1.799c-.017.234-.02.812-.132.985-.308-.924-.555-1.888-.557-2.87v-1.584c.003-.254.069-.35 0-.6l-.208.729-.159.813-.1 1.328.039.47c.005.993.254 1.938.385 2.913-.302-.238-.484-.686-.652-1.028-.324-.658-.562-1.473-.754-2.184l-.264-.985v.77l.04.515c.067.974.23 1.927.492 2.869l.3.942.367.985c-.294-.23-.768-.914-1.003-1.242a21.6 21.6 0 0 1-1.533-2.484l-.59-1.242c-.182.373-.835 1.307-1.156 1.542l.291-1.37c.047-.236.113-.493.052-.728-.19.37-.356.47-.527.942-.238.652-.367 1.858-.42 2.57l-.081 1.583-.043.728v.9l.043.685v.9l.082 1.112.21 2.612c.243 2.424.565 4.844 1.027 7.237l.603 2.87.39 1.67-1.07-.934c-.941-.742-1.948-1.265-3.169-1.25-.975.01-1.77.66-2.526 1.198-1.336.952-2.57 2.057-3.769 3.173-.893.832-1.513 1.593-2.74 1.941-.274.077-.615.15-.9.153-.751.009-1.203.015-1.926-.26-1.02-.386-1.437-.928-2.184-1.667l-.9-.854c-1.348-1.29-2.781-2.514-4.196-3.733-1.429-1.23-2.656-2.517-4.582-2.92-.397-.084-.673-.072-1.07-.072-.52 0-.724.107-1.2.214.198-.233.596-.448.857-.63.588-.41 1.35-1.008 1.7-1.64.213-.385.308-.816.414-1.241l.404-1.884c.26-1.353.421-2.737.481-4.111l.043-.471v-.642l.041-.514v-1.413l-.042-.643v-.514l-.043-.77-.079-.985c-.093-.982-.179-2.04-.687-2.912l-.305-.428c0 .776.203 1.354.343 2.098-.199-.109-.31-.292-.444-.471-.191-.254-.537-.714-.67-.985h-.085c-.087.37-.399.943-.587 1.285a21 21 0 0 1-1.538 2.398c-.216.292-.722 1.045-.958 1.242l.512-1.5c.274-.882.6-2.512.601-3.425 0-.342.108-.786-.043-1.07-.025.295-.206.94-.299 1.241-.208.677-.4 1.246-.718 1.885-.158.316-.352.745-.61.984l.282-1.456c.175-1.13.218-2.292.035-3.425-.063-.391-.164-.925-.317-1.285 0 1.335.059 2.534-.232 3.854-.064.288-.231 1.076-.453 1.242 0-1.8-.286-3.62-.924-5.31-.221-.585-.596-1.428-.96-1.927l.085 1.627-.042.728c-.415-.962-1.23-2.22-1.885-3.04l-.24.728-.188.728-1.027-1.841.128 1.327c-.201-.127-.292-.393-.396-.6l-.665-1.327c-.076-.144-.31-.625-.482-.623-.11.001-.372.211-.47.28-.332.238-.817.64-1.156.814.06-.315.414-.866.592-1.156.722-1.176 1.735-2.15 2.877-2.912-1.17.095-2.32.87-3.169 1.635l-1.199 1.106c.06-.325.38-.864.557-1.156a8.6 8.6 0 0 1 1.97-2.236l.727-.548c-1.094.221-2.072.867-2.869 1.63l-1.07 1.11c.007-.332.097-.669.2-.984.312-.96.811-1.795 1.598-2.44-.871.348-1.651.914-2.305 1.587l-1.163 1.281c.11-1.34 1.014-2.617 1.97-3.507l1.027-.86c-1.468 0-2.412.532-3.768.984.067-.28.26-.528.41-.77l.876-1.37c.11-.161.53-.673.481-.852-.044-.164-.258-.182-.397-.172-.28.019-.726.261-.984.392-.838.421-1.642.942-2.398 1.494l-1.328.979c.098-.31.561-1.035.757-1.328.888-1.333 1.599-2.013 2.712-3.126-.396-.346-1.106-1.442-1.396-1.927-.149-.247-.451-.73-.531-.985-.81.81-1.324 1.367-1.982 2.313l-.508.813c-.095.166-.173.367-.337.471l.19-1.07c.174-.79.436-1.636.807-2.355.179-.348.463-.806.702-1.114l.466-.574c.03-.084-.055-.371-.066-.496-.293.083-.597.285-.857.446a14 14 0 0 0-1.67 1.249c-.253.217-.438.448-.728.617.216-.798 1.014-2.059 1.545-2.698a5.7 5.7 0 0 1 .682-.71c.111-.096.412-.326.463-.448.06-.143-.047-.641-.078-.811l-1.284.813-1.07.728c.111-.286.342-.513.556-.728l1.028-.945c.212-.178.484-.44.728-.554l-.129-.727c-1.284.73-2.201 1.215-3.383 2.16l-1.156 1.01c-.178.17-.393.449-.6.555.231-.518.793-1.336 1.14-1.799 1.298-1.726 2.445-2.682 4.042-4.068-1.396.316-3.212 1.245-4.41 2.028l-1.071.719-.9.636c.16-.373.93-1.143 1.242-1.456 1.12-1.119 1.976-1.873 3.298-2.754l1.327-.81c.156-.084.603-.305.692-.427.104-.142.157-.53.207-.719l-1.284.357a17 17 0 0 0-2.57 1.067c-.563.291-1.1.623-1.627.974l-.899.6c.14-.304.93-1.145 1.199-1.413.995-.997 2.323-2.056 3.554-2.747l1.37-.704c.212-.092.698-.265.843-.413.155-.157.34-.628.4-.847-1.194.097-2.913.694-4.026 1.157l-1.413.642c.222-.308.796-.742 1.113-.98a12.5 12.5 0 0 1 3.04-1.71l1.2-.387c.194-.052.572-.124.727-.22.2-.125.367-.41.514-.6l-.47.043-.857.043-1.67-.043-.428-.04-3.854-.376-1.67-.18-1.07-.132c1.724-.686 3.897-1.248 5.737-1.504l1.627-.17.514-.039h1.97c.227.001.382.057.6 0-.438-.04-1.687-.504-2.527-.514-.124-.001-.398.02-.496-.043-.133-.087-.093-.227-.36-.312l-1.799-.407-2.312-.425c-.284-.042-1.163-.137-1.37-.226l1.37-.22 1.841-.17.514-.038h1.113l1.37.128.6-1.241-2.184-.34-3.982-.572-2.013-.202v-.085l1.67-.245c.931-.123 1.888-.225 2.827-.226l.728-.043 1.712.043c.236.003.328.06.557 0l-1.542-.348-2.526-.46-1.499-.135c-.277 0-.6.033-.856-.085l1.456-.246c.991-.146 2.748-.343 3.725-.354l.6-.042 1.627-.086c.157-.001.811-.048.942-.086l-1.285-.57c-.946-.337-1.788-.484-2.783-.584h-.385l-.429-.045h-.942l-.899.043c-.183.001-.402.057-.557 0 .394-.201 1.185-.43 1.628-.571a25 25 0 0 1 4.838-1.006l1.242-.093.942-.03c.216-.026.437.036.643-.054.29-.127.65-.605.856-.858l-1.584-.25-1.67-.05-1.799.172c.108-.169.293-.217.471-.294l1.07-.421c1.116-.398 2.254-.647 3.426-.809l.985-.1c.242-.016.35.024.6-.046-1.73-.6-2.482-.646-4.282-.643-.453.001-1.676.153-2.141.24-.253.048-.853.225-1.07.146l.813-.392 1.712-.635c1.333-.414 2.723-.637 4.111-.733l.428-.04h.557l.514-.042h.557c.287 0 .952.092 1.199.03.12-.03.34-.188.34-.326 0-.171-.495-.434-.64-.507-.7-.35-1.625-.497-2.398-.604-1.727-.24-3.281-.214-5.01-.041l-1.542.225c-.22.04-.607.154-.813.11.712-.395 1.906-.799 2.697-1.056a24.8 24.8 0 0 1 4.925-1.05l1.37-.125.428-.039.942-.042h1.67l.686.042 1.584.093c.283.027.766.106 1.028.079l-1.67-.628a20 20 0 0 0-3.469-.779l-1.37-.139-.428-.039-.814-.042h-.942c-.183 0-.384.025-.557-.043.444-.189 2.106-.523 2.655-.626a30 30 0 0 1 4.154-.49l.557-.046h2.697l.814.048.428.04c.915.062 1.834.157 2.74.306l1.242.22c.247.049.57.143.814.12-.277-.08-.515-.246-.77-.375l-1.328-.61a25 25 0 0 0-4.41-1.362 34 34 0 0 0-3.769-.558l-.814-.054-.47-.039c-.204 0-.543-.011-.729-.086l.942-.188 2.099-.318 1.241-.097.514-.039h1.756l1.028.079c1.661.166 3.124.478 4.667 1.139.764.326 1.503.733 2.184 1.21l.77.57-1.37-1.455a25.6 25.6 0 0 0-3.853-3.012l-2.398-1.356c-.295-.16-.803-.333-1.028-.558 2.231.42 4.224 1.05 6.295 1.983l2.012.983c.588.295.845.531 1.542.588-.079-1.71-1.636-3.142-2.705-4.324-.304-.336-.648-.643-.892-1.028.491.14 1.787.875 2.27 1.165a42 42 0 0 1 4.324 2.997c.352.277.965.811 1.37.932.295.087.624.106.593-.298-.12-1.548-.987-3.543-1.821-4.839l-.821-1.199c-.17-.225-.5-.621-.605-.856Zm.085 9.463h-.043l.043.043zm13.746 0h-.043l.043.043zm2.911.814h-.042l.042.042zm-.042.042h-.043l.043.043zm2.954.728h-.043l.043.043zm-5.823 2.099h-.043l.043.042zm25.307 14.516h-.043l.043.043zm.043.085h-.043l.043.043zm-64.66.3h-.043l.043.043zm63.632.857c-.116-.245-.31-.38-.514-.551-.078-.066-.192-.17-.3-.174-.1-.004-.256.106-.342.16-.32.198-.691.429-.857.779zm-60.463.214c-.33-.565-1.074-1.144-1.666-.553a1 1 0 0 0-.218.339zm8.222-.288-.471.038-.943.14a11.4 11.4 0 0 0-3.168 1.15c-4.48 2.424-6.91 7.517-6.852 12.491l.041.471c.216 4.95 3.17 9.701 7.753 11.727 1.156.51 2.292.817 3.554.91l.428.038c1.23.014 2.2-.085 3.383-.44.462-.139.973-.31 1.37-.59.4-.282.713-.707 1.035-1.068l1.54-1.756 1.596-1.927.8-1.027c.342-.564.756-1.667.95-2.313.351-1.164.552-2.344.635-3.554l.039-.514v-1.413l-.04-.514c-.088-1.288-.25-2.449-.66-3.682-.854-2.56-2.577-4.91-4.824-6.41a10.3 10.3 0 0 0-2.527-1.255c-1.049-.35-2.537-.604-3.64-.502Zm40.979-.006-.557.049c-.506.06-1.003.141-1.498.265-.967.242-2.068.757-2.912 1.282-2.699 1.681-4.605 4.634-5.369 7.69-.186.744-.41 1.942-.412 2.698v1.413c0 .67.15 1.35.245 2.012.193 1.338.443 2.66 1.01 3.897.573 1.253 1.09 1.677 1.914 2.698l1.468 1.756.531.556.367.471c.397.488.865.95 1.402 1.282.427.265.851.376 1.327.51.664.189 1.583.384 2.27.392 1.235.014 2.142-.062 3.34-.404 1.963-.56 3.915-1.743 5.306-3.236.837-.898 1.195-1.492 1.803-2.526.97-1.653 1.557-3.112 1.873-5.01.068-.409.177-1.098.182-1.499l.042-.728v-.514l-.04-.556c-.133-3.05-1.243-6.111-3.307-8.393-.781-.864-1.32-1.23-2.22-1.904-1.82-1.366-3.467-2.013-5.737-2.168l-.514-.033zm-40.252 4.114h.985c.236-.009.803.045 1.028.098 1.452.343 2.839 1.573 3.496 2.89.167.335.284.709.374 1.07.067.272.152.754.155 1.028a5.48 5.48 0 0 1-3.083 5.02c-.657.324-1.58.513-2.312.504-.64-.007-1.337-.184-1.927-.428-.547-.227-1.197-.67-1.627-1.074-.413-.389-.879-1.059-1.107-1.58a5.5 5.5 0 0 1-.482-1.928c-.01-.147-.042-.23-.03-.385a7 7 0 0 1 .224-1.413 5.52 5.52 0 0 1 2.765-3.329c.486-.243 1.008-.376 1.541-.473Zm43.506 1.575c.31.17.696.834.866 1.156.687 1.302.884 2.744.419 4.154-.268.811-.713 1.62-1.331 2.22-1.457 1.413-3.62 1.88-5.52 1.16a5.2 5.2 0 0 1-3.228-3.637 5 5 0 0 1-.155-1.028c-.012-.985.075-1.797.525-2.697.831-1.661 2.641-2.91 4.528-2.912h.428c.196.002.451.038.642.085-.072.319-.174.465-.108.814.11.588.757 1.186 1.222 1.524.198.143.36.27.6.341.61.18 1.325-.329 1.112-1.18Zm-8.307 21.11-1.277-1.412-2.484-2.74-7.15-8.051-1.3-1.456-1.004-1.113-.306-.471c-.299-.402-.813-.838-1.338-.855-.697-.023-.735.532-1.072.842l-.512.441-.992 1.07-1.285 1.413-7.322 8.136-2.446 2.74-1.187 1.371h.686l.513.04c1.315.091 2.629.489 3.726 1.234 1.29.876 1.926 2.051 2.706 3.35l3.1 5.44 1.67 2.997.731 1.241c.318.48.914 1.198 1.556 1.188.144-.002.646-.06.77-.11.102-.04.25-.144.343-.21.63-.442.74-.787 1.122-1.424l1.613-2.827 3.157-5.652c.624-1.089 1.199-2.254 2.075-3.169 1.062-1.11 2.47-1.765 3.98-1.98.257-.038.512-.075.771-.075.385 0 .776-.025 1.156.043ZM51.62 92.092c.043.172-.059.353-.12.514l-.32.942-.948 3.683c-.127.446-.257 1.246-.881 1.184-.727-.072-.766-.748-.806-1.313-.01-.152.02-.239.031-.385.113-1.543 1.21-2.94 2.316-3.947zm10.406 0c.323.153.805.677 1.07.942.928.928 1.79 2.026 2.056 3.34.134.665.215 1.954-.728 2.047-.52.051-.67-.46-.8-.848l-.167-.514-1.003-3.896zm-19.998 8.35h-.042l.042.043zm37.811 4.496-.642-.332-1.328-.64c-1.271-.583-2.624-1.102-3.982-1.441-.674-.17-1.401-.326-2.098-.327h-.642c-1.017.012-2.257.369-3.126.89-.37.223-.72.477-1.028.78-.786.777-1.888 2.607-2.555 3.597l-4.138 5.952-1.027 1.456c-.445.636-.565.867-1.23 1.326-.147.102-.296.21-.47.26-.173.05-.378.043-.557.041-.647-.008-1.339-.271-1.797-.73-.23-.23-.606-.78-.821-1.069l-2.993-4.196-1.839-2.655-1.31-1.927c-.607-.857-1.046-1.696-1.903-2.36-.985-.763-2.465-1.363-3.725-1.365h-.857c-.433 0-.858.097-1.284.168-1.288.215-2.783.716-3.983 1.233l-1.755.815c-.24.12-.708.33-.9.482l1.37-.24 2.313-.4c.938-.154 1.88-.242 2.826-.306l.514-.04H42.5c1.055.013 2.159.504 2.955 1.176.568.479.953 1.089 1.371 1.694l1.272 1.798 4.453 6.123 1.11 1.5.747.984a3.5 3.5 0 0 0 2.309 1.149c.244.024.446.001.685-.039 1.742-.293 2.734-2.02 3.677-3.337l4.758-6.637 1.013-1.456c.595-.892 1.092-1.655 2.028-2.25.876-.558 1.405-.597 2.398-.665l.514-.04h.985l.6.043c.92.011 2.702.28 3.639.455l1.97.402c.212.044.668.181.856.128Zm-49.244-2.612h-.043l.043.043zm50.357.728h-.042l.042.043zm-18.67.771h.043l-.042.043zm17.643 1.156h-.043l.043.043zm-18.841.471h.042l-.042.043zm92.47-16.57" opacity=".7"/><path stroke="#000" stroke-width=".04282" d="M82.27 136.124q0 2.385 2.384 2.385h28.722q2.384 0 2.384-2.385 0-2.386-2.384-2.386H87.038v-4.764h21.57q2.385 0 2.385-2.405t-2.384-2.405H87.038v-4.781h26.338q2.384 0 2.384-2.406 0-2.405-2.384-2.405H84.654q-2.385 0-2.384 2.386zm70.882-19.208q-.04-1.233-1.213-1.988-1.17-.756-2.76.12l-12.752 8.587-12.872-8.587q-1.43-.756-2.622.139-1.191.894-1.192 1.769v19.125q-.04 2.385 2.344 2.385t2.423-2.385v-14.712l9.575 6.48q1.31 1.155 2.324 1.154 1.013 0 2.403-1.16l9.574-6.514.04 14.788q0 2.307 2.364 2.306t2.364-2.306zm4.055.042v11.928q-.001 9.623 9.574 9.623h14.34q9.576 0 9.575-9.662v-11.81q0-2.465-2.384-2.465t-2.383 2.425v11.89q.039 4.851-4.767 4.851H166.78q-4.807 0-4.807-4.851v-11.929q-.04-2.386-2.404-2.386t-2.363 2.386Z" opacity=".7"/></g></svg>