<svg width="16px" height="16px" viewBox="0 0 16 16" version="1.1" xmlns="http://www.w3.org/2000/svg" xmlns:xlink="http://www.w3.org/1999/xlink">
    <g id="safari-pinned-tab" stroke="none" stroke-width="1" fill="none" fill-rule="evenodd">
        <g id="Group" transform="translate(-2.000000, -2.000000)">
            <g id="Group" transform="translate(3.183749, 2.166667)">
                <path d="M3.18022984,9.46586921 L6.41751445,12.1591116 C6.4539557,12.1903128 6.49317343,12.2170009 6.53434337,12.2390457 L6.53434337,12.2390457 L6.53486396,12.2393061 L6.54718457,12.2456852 L6.55186987,12.2480285 L6.56796476,12.2557529 L6.57377801,12.2584434 L6.5839295,12.2629565 C6.6600223,12.2953294 6.7371129,12.3124705 6.81450718,12.3158554 L6.81450718,12.3158554 L6.87324701,12.3158988 C6.95081481,12.3124705 7.02816571,12.2953294 7.10135189,12.2640848 L7.10135189,12.2640848 L7.10343425,12.2632169 L7.11497398,12.2580962 L7.1193556,12.2561001 L7.1366652,12.2478115 L7.14048285,12.2458588 L7.15267332,12.239523 C7.19505796,12.2168707 7.23418893,12.190226 7.27054341,12.1590682 L7.27054341,12.1590682 L10.2970761,9.6413164 L11.8707742,10.68033 L6.84396386,15.6666667 L1.6165531,10.480972 L3.18022984,9.46586921 Z M10.3939925,5.43752714 L12.8287019,6.68145334 L6.84400724,11.6600222 L0.859312566,6.68110618 L3.29402199,5.43731016 L6.47820649,7.48604555 C6.59143466,7.56046849 6.71772095,7.59770166 6.84400724,7.59774505 C6.97016338,7.59774505 7.09631952,7.56059868 7.20963446,7.48621914 L7.20963446,7.48621914 L10.3939925,5.43752714 Z M6.84400724,0.0555555556 L13.6495845,2.5624151 L6.84400724,6.94082704 L0.0384733764,2.56206794 L6.84400724,0.0555555556 Z" id="Combined-Shape" fill="#000000"></path>
                <path d="M6.79860617,0 L13.6495845,2.52947312 L6.80264004,6.944 L6.80310437,0.0140117608 L6.75964004,0.014 L6.79860617,0 Z" id="Combined-Shape" fill="#000000"></path>
                <path d="M10.3734978,5.44444444 L12.8162512,6.68906257 L6.81624001,11.6664444 L6.81582344,7.60585133 C6.90940555,7.60526665 7.00291274,7.58436388 7.09113774,7.54310794 L7.1786191,7.494276 L10.3734978,5.44444444 Z" id="Combined-Shape" fill="#000000"></path>
                <path d="M10.2898508,9.6158615 L11.8622809,10.6549391 L6.84347338,15.637 L6.84347338,12.291 L6.8540422,12.2910859 L6.86695975,12.2906519 C6.94628566,12.2871801 7.02357423,12.2700379 7.09670144,12.2387913 L7.09670144,12.2387913 L7.09878212,12.2379234 L7.11031255,12.2328024 L7.11469064,12.2308061 L7.12310006,12.2268135 L7.13198629,12.2225171 L7.14798152,12.2142281 C7.19033201,12.1915743 7.22943144,12.164928 7.26575664,12.1337682 L7.26575664,12.1337682 L10.2898508,9.6158615 Z" id="Combined-Shape" fill="#000000"></path>
            </g>
        </g>
    </g>
</svg>
