<svg xmlns="http://www.w3.org/2000/svg" width="16" height="16" viewBox="0 0 16 16">
  <g fill-rule="evenodd">
    <path d="m4.364 9.633 3.237 2.693a.7.7 0 0 0 .117.08l.013.006.005.003.016.007.006.003.01.005q.114.048.23.053h.059a.7.7 0 0 0 .228-.052l.002-.001.012-.005.004-.002.017-.009.004-.001.012-.007a.7.7 0 0 0 .118-.08l3.027-2.518 1.574 1.039-5.027 4.986L2.8 10.648zm7.214-4.029 2.434 1.244-5.984 4.979-5.985-4.98 2.435-1.243 3.184 2.049a.66.66 0 0 0 .731 0zM8.028.222l6.805 2.507-6.805 4.378L1.222 2.73z"/>
    <path d="m7.982.167 6.851 2.53L7.986 7.11V.18h-.043zm3.575 5.444L14 6.856l-6 4.977v-4.06a.7.7 0 0 0 .275-.063l.087-.05zm-.083 4.172 1.572 1.039-5.019 4.982v-3.346h.024a.7.7 0 0 0 .23-.053h.002l.011-.006.004-.002.009-.004.009-.004.016-.008a.7.7 0 0 0 .118-.08z"/>
  </g>
</svg>
